<?xml version="1.0" encoding="utf-8"?>
<!-- Generator: Adobe Illustrator 28.0.0, SVG Export Plug-In . SVG Version: 6.00 Build 0)  -->
<svg version="1.1" id="Layer_2_00000085229059387232254500000013706105954854956961_"
	 xmlns="http://www.w3.org/2000/svg" xmlns:xlink="http://www.w3.org/1999/xlink" x="0px" y="0px" viewBox="0 0 188.6 236.4"
	 style="enable-background:new 0 0 188.6 236.4;" xml:space="preserve">
<style type="text/css">
	.st0{fill:#FBF8F4;}
	.st1{fill:#FCCD0B;}
	.st2{fill:#F88806;}
	.st3{fill:#EB4527;}
	.st4{fill:#EB7404;}
	.st5{fill:#FAA009;}
	.st6{fill:#F2E9DB;}
	.st7{fill:#FB9106;}
	.st8{fill:#AD3A05;}
	.st9{fill:#2E2D2B;}
</style>
<g id="Layer_1-2">
	<g id="Angry">
		<path class="st0" d="M94.3,0.7c-7.1,2-11.6,8.9-11.9,18.4c-0.1,1.9,0.4,3.8-0.5,5.7c-12.4-7.1-22.5-3.1-24.7,9.5
			c-1.4,8.7,1.1,16.4,6.6,23.2c-1.1,1-2.1,2.1-3.3,3c-11,8.7-17,20.2-19.6,33.8c-2,11-2.8,22.1-4.1,33.2c-8.5,1.3-16.4,4.1-23.7,8.6
			c-13.8,8.5-17.2,22.8-8.5,36.4c1.9,3,4.3,5.5,6.9,7.8c0.9,0.8,2.1,1.3,2.2,3c0.7,9.6,4.6,13,14.1,12.8l3.1,0.1
			c0.6,9.2,0.6,9.3,9.6,9.3c35.8,0,71.6-0.1,107.5,0.1c4.4,0,6.5-1.1,6.8-5.5c0.2-3.2,1.2-4.6,5.1-4.4c8.1,0.4,14-4.4,13.5-10.6
			c-0.2-2.8,0.9-3.7,2.7-5.1c8.9-7.4,14.3-16.3,11.5-28.3c-1.9-8.2-8.2-13.1-15-17.3c-5.4-3.3-11.6-4.7-17.7-6.2
			c-1.5-11.7-1.6-23.6-4.3-35.1c-4.6-20-15.8-34.2-36.1-40c1.4-3.9,3-7.8,4.1-11.7c3-10.7,3.9-21.3-2.3-31.3
			C111.6,1.9,102.9-1.7,94.3,0.7"/>
		<path class="st1" d="M114.7,53.1c20.3,5.9,31.5,20.1,36.1,40.1c2.7,11.6,2.8,23.4,4.3,35.1c0.1,1.3,0.1,2.6,0.3,3.9
			c1,7.6,2.9,14.9,5.9,22c1.6,3.8,1.5,8-1.9,11.1c-3.2,2.9-7,2.5-10.8,1.1c-0.9-0.4-2-0.6-2.7-1.2c-2.6-2-3.7-2-3.9,1.9
			c-0.6,8.2-8.3,12.8-16.2,10.4c-4.4-1.3-6.6-5.2-9.9-7.9c-3.8,8.3-8.7,12.7-14.9,12.5c-7-0.2-12.3-3.8-15.5-10.1
			c-2.1-4.3-3.5-1.1-4.9,0.3c-11.1,10.2-23.3,7.2-27.9-7c-0.6-1.8-1.1-3.2-3.3-1.7c-2.8,1.9-6.1,2.5-9.2,3.6c-2-0.7-4-1.4-6-2.1
			c-0.6-0.6-1.3-1.2-1.9-1.8c-1-1.3-2.1-2.6-3.1-4c0.1-2.8-0.8-5.7,0.7-8.3c4.1-7.4,6.3-15.2,7.2-23.6c1.3-11.1,2.1-22.2,4.1-33.2
			c2.5-13.6,8.6-25.1,19.6-33.8c1.2-0.9,2.2-2,3.3-3c3.1-1.2,6.2-2.4,9.2-3.6c8.8-3.5,17.4-3.5,25.9,1.4c2.8,1.6,4.8,5.5,8.3,4.8
			C110.7,59.5,112.1,55.4,114.7,53.1L114.7,53.1L114.7,53.1z M93.2,134.4c0,0.4-0.1,0.9-0.1,1.3c-1,5.3-3.7,10.3-3.1,15.9
			c0.3,3.2,1.7,5.8,4.6,7.1c3,1.4,5.9,1.1,8.1-1.5c1.6-1.9,2.5-0.9,3.9,0.2c4.9,3.6,10.4,1.1,11.2-4.9c0.5-3.5-0.3-6.9-1.8-10.1
			c0-0.6-0.1-1.3-0.1-1.9c6.4-1.1,8-3.8,6.2-9.9c-0.7-2.3-2.4-4.3-2.2-6.9c12.7,1.6,19.8-3.1,21.3-14.1c0.6-4.3-0.9-8.2-2.2-12.1
			c0.7-1.3,1.6-2.6,0.1-4c-1.3-1.2-2.5-0.2-3.6,0.3c-7.1,2.7-13.7,6.7-21,8.8c-2.6,0.7-2.8,2.5-2.2,4.7c0,2.1,0,4.3,0,6.4
			c-4.1-1.6-7.9-0.8-10.9,2.2c-2.9,2.9-5.6,6.1-8.1,9.3c-1.8,2.3-1.8,4.9-0.2,7.5C93.1,133.1,93.2,133.7,93.2,134.4
			C93.2,134.4,93.2,134.4,93.2,134.4z M100,102.6c-1.8,0-3.6-0.5-5.3-1.2c-6.9-3.2-14-6.1-20.8-9.5c-4-2-5.2-0.6-4.8,3.3
			c-0.6,1.3-1.2,2.7-1.9,4c-3.1,6.6-1.8,15.5,3.1,20.5c5.2,5.2,11.4,6.5,18.4,4c7.5-2.7,10.1-8.7,10.2-16.1c0.4-0.4,0.7-0.8,1.1-1.3
			c0.9-0.3,1.9-0.5,2.6-1.1c1.9-1.6,1.6-3.8,1.2-5.9c-0.2-0.8-0.8-1.8-1.7-1.4C100.4,98.9,100.5,100.9,100,102.6L100,102.6
			L100,102.6z"/>
		<path class="st2" d="M40,167.4c3.1-1.1,6.4-1.7,9.2-3.6c2.2-1.5,2.7-0.1,3.3,1.7c4.6,14.2,16.9,17.2,27.9,7
			c1.4-1.3,2.8-4.6,4.9-0.3c3.1,6.3,8.4,9.9,15.5,10.1c6.2,0.2,11.1-4.2,14.9-12.5c3.3,2.7,5.5,6.6,9.9,7.9
			c8,2.4,15.7-2.2,16.2-10.4c0.3-3.9,1.3-3.9,3.9-1.9c0.8,0.6,1.8,0.8,2.7,1.2c3.8,1.4,7.6,1.8,10.8-1.1c3.4-3.1,3.5-7.3,1.9-11.1
			c-3-7.1-4.9-14.4-5.9-22c-0.2-1.3-0.2-2.6-0.3-3.9c6.1,1.4,12.3,2.8,17.7,6.2c6.8,4.2,13,9.1,15,17.3c2.8,12-2.6,21-11.5,28.3
			c-1.7,1.4-2.9,2.3-2.7,5.1c0.5,6.2-5.5,11.1-13.5,10.6c-3.9-0.2-5,1.1-5.1,4.4c-0.2,4.4-2.4,5.5-6.8,5.5
			c-35.8-0.2-71.7-0.1-107.5-0.1c-9,0-9,0-9.6-9.3c7.7-2.8,10.9-7.7,11-16.2C42.2,175.7,39.7,171.8,40,167.4L40,167.4L40,167.4z"/>
		<path class="st3" d="M94.3,0.7c8.5-2.4,17.2,1.2,22.2,9.3c6.2,10,5.3,20.7,2.3,31.3c-1.1,4-2.7,7.8-4.1,11.7c-2.6,2.3-4,6.4-7.5,7
			c-3.4,0.6-5.5-3.2-8.3-4.8c-8.5-4.8-17-4.9-25.9-1.4c-3.1,1.2-6.2,2.4-9.2,3.6c-5.5-6.8-8.1-14.5-6.6-23.2
			c2.1-12.7,12.3-16.7,24.6-9.5c0.9-1.9,0.4-3.9,0.5-5.7C82.8,9.7,87.2,2.8,94.3,0.7"/>
		<path class="st2" d="M32.2,163.4c0.6,0.6,1.3,1.2,1.9,1.8c-0.3,2,0.8,3.3,1.9,4.8c5.8,7.8,3.2,18.8-5.3,23.5
			c-1.1,0.6-2.5,1-2.7,2.6c-9.5,0.2-13.4-3.2-14.1-12.8c-0.1-1.7-1.3-2.2-2.2-3c-2.7-2.3-5.1-4.8-6.9-7.8
			c-8.6-13.7-5.3-27.9,8.5-36.4c7.3-4.5,15.2-7.4,23.7-8.6c-0.9,8.3-3.1,16.2-7.2,23.6c-1.5,2.6-0.6,5.5-0.7,8.3
			c-1.2,0.1-1.6,0.6-1.1,1.8C28.8,163.2,30.3,163.6,32.2,163.4L32.2,163.4L32.2,163.4z"/>
		<path class="st4" d="M28,196.2c0.1-1.6,1.5-2,2.7-2.6c8.5-4.8,11.1-15.7,5.3-23.5c-1.1-1.5-2.3-2.8-1.9-4.8c2,0.7,4,1.4,6,2.1
			c-0.3,4.4,2.1,8.3,2,12.7c-0.1,8.5-3.3,13.4-11,16.2C30.1,196.2,29.1,196.2,28,196.2L28,196.2L28,196.2z"/>
		<path class="st5" d="M120,123.6c-0.2,2.6,1.6,4.6,2.2,6.9c1.8,6.1,0.1,8.8-6.2,9.9c-0.7-0.3-1.5-0.5-2.2-0.8
			c-0.2,0-0.5-0.1-0.7-0.2l-0.1,0c-4.1-3.9-9.5-5.1-14.3-7.6c-0.9-0.4-1.9-0.7-2.5,0.6c-1,0-2,0.1-3,0.1c-1.5-2.5-1.5-5.2,0.2-7.5
			c2.5-3.3,5.2-6.4,8.1-9.3c3-3,6.8-3.8,10.9-2.2C114.9,116.8,117.4,120.2,120,123.6L120,123.6L120,123.6z"/>
		<path class="st3" d="M116.1,142.4c1.6,3.2,2.3,6.6,1.8,10.1c-0.8,6.1-6.3,8.5-11.2,4.9c-1.5-1.1-2.3-2.1-3.9-0.2
			c-2.2,2.6-5.1,2.9-8.1,1.5c-3-1.4-4.3-3.9-4.6-7.1c-0.6-5.6,2.2-10.6,3.1-15.9c0.3-0.1,0.6-0.1,0.9-0.2
			C101.9,145.2,106.5,146.7,116.1,142.4L116.1,142.4L116.1,142.4z"/>
		<path class="st0" d="M98.9,107.7c-0.1,7.4-2.7,13.4-10.2,16.1c-6.9,2.5-13.2,1.2-18.4-4c-4.9-5-6.1-13.9-3.1-20.5
			c0.6-1.3,1.2-2.7,1.9-4c3.9,0.8,7.4,2.6,10.6,5.1c-2.5,3.9-3.8,8.1-2.5,12.7c1.1,3.8,3.6,6.3,7.7,6.6c3.9,0.2,6.5-1.8,8.2-5.3
			c1.2-2.5,1.3-5.1,1.2-7.7C95.8,106.9,97.4,107.3,98.9,107.7C98.9,107.7,98.9,107.7,98.9,107.7z"/>
		<path class="st6" d="M120,123.6c-2.5-3.4-5.1-6.7-7.6-10.1c0-2.1,0-4.3,0-6.4c1.8-0.2,3.6-0.4,5.4-0.6c0,1.3-0.2,2.6-0.1,4
			c0.2,5.2,3,8.7,7.3,9.1c4.5,0.4,8.2-2.7,9.1-7.9c0.8-4.1-0.1-7.9-1.9-11.5c2.3-0.9,4.6-1.9,6.9-2.8c1.3,3.9,2.9,7.8,2.2,12.1
			C139.7,120.5,132.7,125.2,120,123.6L120,123.6L120,123.6z"/>
		<path class="st4" d="M98.9,107.7c-1.5-0.4-3.1-0.8-4.6-1.1c-4.7-2.5-9.4-5-14.6-6.2c-3.2-2.4-6.7-4.2-10.6-5.1
			c-0.4-3.9,0.8-5.3,4.8-3.3c6.8,3.3,13.9,6.3,20.8,9.5c1.7,0.8,3.4,1.2,5.3,1.2c0,1.3,0,2.5,0,3.8
			C99.6,106.8,99.2,107.2,98.9,107.7L98.9,107.7z"/>
		<path class="st4" d="M117.8,106.5c-1.8,0.2-3.6,0.4-5.4,0.6c-0.7-2.2-0.4-3.9,2.2-4.7c7.4-2.1,13.9-6,21-8.8
			c1.2-0.4,2.3-1.5,3.6-0.3c1.5,1.4,0.6,2.7-0.1,4c-2.3,0.9-4.6,1.9-6.9,2.8C127.1,101.7,122.4,104.1,117.8,106.5z"/>
		<path class="st4" d="M116.1,142.4c-9.6,4.3-14.2,2.8-22.1-6.9c-0.3-0.4-0.5-0.8-0.8-1.1c-0.1-0.6-0.1-1.2-0.2-1.8c1,0,2-0.1,3-0.1
			c5.2,3.2,10.6,6.3,16.9,7l0.1,0c0.2,0.1,0.5,0.1,0.7,0.2c0.7,0.3,1.5,0.5,2.2,0.8C116,141.1,116.1,141.7,116.1,142.4L116.1,142.4
			L116.1,142.4z"/>
		<path class="st7" d="M100,106.4c0-1.3,0-2.5,0-3.8c0.5-1.7,0.3-3.7,2.1-4.6c0.8-0.4,1.5,0.6,1.7,1.4c0.4,2.1,0.7,4.3-1.2,5.9
			C101.9,105.9,100.9,106,100,106.4L100,106.4L100,106.4z"/>
		<path class="st4" d="M32.2,163.4c-1.9,0.2-3.4-0.2-4.2-2.2c-0.5-1.3-0.1-1.7,1.1-1.8C30.1,160.8,31.1,162.1,32.2,163.4L32.2,163.4
			z"/>
		<path class="st5" d="M93.2,134.4c0.3,0.4,0.5,0.8,0.8,1.1c-0.3,0-0.6,0.1-0.9,0.2C93.2,135.2,93.2,134.8,93.2,134.4L93.2,134.4z"
			/>
		<path class="st8" d="M113,139.4c-6.3-0.7-11.6-3.8-16.9-7c0.6-1.2,1.6-1,2.5-0.6C103.4,134.3,108.9,135.6,113,139.4z"/>
		<path class="st8" d="M113.8,139.6c-0.2-0.1-0.5-0.1-0.7-0.2C113.3,139.5,113.5,139.6,113.8,139.6z"/>
		<path class="st9" d="M79.7,100.3c5.2,1.2,9.9,3.8,14.6,6.2c0.1,2.7,0,5.3-1.2,7.7c-1.7,3.4-4.2,5.5-8.2,5.3
			c-4.2-0.2-6.7-2.7-7.7-6.6C75.9,108.4,77.2,104.2,79.7,100.3C79.7,100.3,79.7,100.3,79.7,100.3z"/>
		<path class="st9" d="M117.8,106.5c4.7-2.4,9.3-4.8,14.4-6.3c1.8,3.7,2.7,7.5,1.9,11.5c-1,5.2-4.6,8.4-9.1,7.9
			c-4.3-0.4-7.1-3.9-7.3-9.1C117.6,109.1,117.7,107.8,117.8,106.5L117.8,106.5z"/>
	</g>
</g>
</svg>
