<?xml version="1.0" encoding="utf-8"?>
<!-- Generator: Adobe Illustrator 28.0.0, SVG Export Plug-In . SVG Version: 6.00 Build 0)  -->
<svg version="1.1" id="Layer_1" xmlns="http://www.w3.org/2000/svg" xmlns:xlink="http://www.w3.org/1999/xlink" x="0px" y="0px"
	 viewBox="0 0 250 250" style="enable-background:new 0 0 250 250;" xml:space="preserve">
<style type="text/css">
	.st0{fill:#FD8E02;}
	.st1{fill:#FDC81A;}
	.st2{fill:#F63C23;}
	.st3{fill:#EDE4DC;}
	.st4{fill:#2D2C2B;}
	.st5{fill:#4D4D4C;}
	.st6{fill:#E87B02;}
	.st7{fill:#212120;}
	.st8{fill:#FDC418;}
	.st9{fill:#57514B;}
	.st10{fill:#F84734;}
	.st11{fill:#823401;}
	.st12{fill:#E1410A;}
	.st13{fill:#98731E;}
	.st14{fill:#FFFFFF;}
</style>
<g>
	<g>
		<path class="st0" d="M81.2,225.6c0.9-1.9,2.7-2.3,4.5-2.5c1.4-0.2,2.9-0.3,4.6-0.5c0.5-3.5,1-7,1.4-10.5c-3.8-2.2-6.1-5.2-5.9-9.7
			c-4.3-2.3-7.8-5.5-10.9-9.2c0-0.2,0-0.4-0.1-0.5c-5.2-6.5-7.3-14.1-8.3-22.2c-0.2-1.8,0-3.7-0.5-5.5c-1,0.2-1.2,0.8-1.3,1.5
			c-0.8,4.6-0.3,9.1,0.9,13.6c0.7,2.8,2.3,5.3,2.8,8.2c-3.4-2.9-7.1-4.8-11.7-4.5c-1.6,0.1-3.1,0.6-4.6,1c-2,0.6-4,1.2-5.6-0.5
			c-1.8-1.8-1.8-4.1-1-6.3c1.8-5.5,6.3-7.6,11.7-8.5c-0.7-0.7-1.7-0.9-2.5-1.2c-2.2-0.8-4.3-1.6-6.2-3c-4.3-3-4.6-8.4-0.6-11.8
			c4.5-3.8,9.6-3.9,14.9-1.9c1.5,0.6,2.9,1.4,4.5,2.2c0.9-4.2,2.1-8.3,3.9-12.3c0.6,0.4,1.1,0.9,1.7,1.3c2.9,1.7,7.1,1.1,9.8-1.4
			c0.8-0.7,1.3-1.7,2.6-2c0,0.7-0.1,1.3,0,1.9c0.4,3.3,0.9,6.5,3.7,8.7c3.8,2.9,9.9,1.7,12.9-2.3c1.2-1.6,2.1-3.4,3.1-5.4
			c2.4,2.1,5,2.9,7.9,2.1c6.5-1.9,9.9-6.9,12.3-12.8c0.2-0.4,0.5-0.7,0.6-1.1c1.1-4.4,2.4-8.7,4.6-12.7c0.2-0.4,0.5-1,0.1-1.4
			c-1.1-1-1.6-2.7-3.1-3.4c-0.3-1-0.6-2-0.8-3c-0.8-3.4-1.5-6.7,0-10.1c1.1-2.4,2.5-4.5,4.2-6.3c2.7-2.7,5.8-3.7,9.6-2.3
			c2.7,1,5,2.5,7,4.5c-2.7,2.2-3.3,5.1-2.8,8.5c1.6-0.4,3.1-0.8,4.7-0.7c2.2,0.1,4.1,0.7,5,2.9c0.9,2.1,0.5,4.1-1.1,5.9
			c-0.3-0.6-0.8-0.7-1.4-0.6c-2.9,0.7-5.2,2.3-7.1,4.6c-0.3,0.4-0.5,0.8,0.3,1.5c2.4-2,5.2-3.6,8.2-4.9c3.4-0.5,5.9,0.9,6.6,3.8
			c0.7,2.8-0.3,5.2-2.3,7.2c-2.7-0.3-4.7,1.1-6.5,2.9c-0.6,0.6-0.7,1.2,0.2,1.7c1.9-1.1,3.8-2.2,5.7-3.3c3.5-0.2,5.5,1.2,6,4.5
			c0.2,0.9,0,1.9,0.1,2.9c-0.2,0.5-0.3,1-0.5,1.4c-0.3,0.2-0.2,0.4-0.2,0.7c-0.5,0.5-0.6,1.2-0.8,1.9c-2,2.3-4.6,4.1-5.7,7.3
			c-2.7,8.5-7.1,16.1-13.2,22.7c-3.8,4-8.2,7.1-13.4,9.1c-6.3,2.5-12.8,2.8-19.4,1.2c-3.7-0.8-7.1-2.5-10.2-4.5
			c-0.8-0.5-1.5-0.8-2.1,0.1c0.3,0.9,1,1.5,1.6,1.9c8.6,6.5,18.2,8.1,28.5,5.4c9.3-2.5,16.2-8.5,21.8-16.2c2.7-3.7,4.5-7.9,6.6-11.9
			c1.9,1.6,4.2,2.3,6.6,1.7c4.6-1,5.6-5,6.2-9c4.3,2.8,6.9,2.3,8.6-0.7c1.8,0.3,2.7,2.2,4.6,2.2c0.7,0,1.5,0.7,1.8-0.4
			c0.3-1-0.7-1.1-1.3-1.3c-2.8-0.9-4.9-2.5-6-5.3c-0.5-1.2-1.1-2.4-1.7-3.7c0-0.3,0-0.6,0-0.8c4.4-0.1,8.8-0.1,13.2-0.2
			c1.1,0,2.1,0.1,3.2,0.1c1.6,0.2,3.2,0.3,4.8-0.1c0.5,0,1,0,1.5-0.3c0.1,0,0.2,0,0.4-0.1c0.1,0,0.2-0.1,0.4-0.1
			c2-0.3,3.6-1.5,5.4-2.5c4.2,10.7,5.3,21.5-1.1,31.7c-4,6.5-10,10.2-17.7,10.9c-0.1-1.1-1.3-0.4-1.9-1.2c-0.1-0.9-1-1.5-1.9-2.2
			c-1.6-1.2-2.9-2.6-3.7-4.6c-1.3-3.4-2-7-3-10.4c-0.2-0.7-0.4-1.4-1.3-1.1c-0.8,0.2-0.5,0.9-0.4,1.5c1.1,5.6,1.8,11.2,1.6,16.9
			c-1.4,14.4-8.8,24.7-21.7,31c-0.3,0.2-0.6,0.4-0.8,0.7c-0.7,0-1.3,0.1-1.9,0.4c-6,2.3-12.3,3.6-18.7,4.5c-3,0.3-5.9,0.3-8.9,0.4
			c-4.7,0.1-9.4-0.5-14.1-0.8c-0.2-0.1-0.4-0.3-0.6-0.4c-3.7-0.6-7.3-1.4-10.9-2.4c-1.4-0.4-2.8-1.2-4.5-1.1c2.2,2.3,5.5,4.1,8.2,5
			c1.4,0.5,3.1,0.4,4.2,1.9c-1.3,0.9-2.9,0.8-4.3,1.2c-0.4,2.8-0.9,5.6-1.3,8.5c4.3,0.4,8.5,0.7,12.5,1.8c0.5,0.3,1.1,0.5,1.6,0.8
			c2.6,1.3,3.8,3.1,3.3,5c-0.6,2-2.3,2.8-5.3,2.5c-0.3,0-0.7-0.2-1-0.3c-2.3-3.4-5.9-5.3-8.3-4.3c2,1.2,4.1,2,5.4,3.9
			c0.4,3.2-1,4.8-4.2,4.8c-2.2,0-4.1-1-5.9-2.2c-3.5-2.5-7.4-3.9-11.8-4.2C82.1,230,81.1,228.7,81.2,225.6z M130.2,109.2
			c0.4,1.7,1.3,3,2.7,4c1.2-0.6,1.6-1.6,2.2-2.5c1.7-0.9,2.9-2.4,4.7-3.7c-3.9-0.3-7.4-0.5-11.1-0.8
			C129.1,107.5,129.5,108.5,130.2,109.2z"/>
		<path class="st1" d="M125.2,131.8c-2.4,5.9-5.7,10.9-12.3,12.8c-2.9,0.8-5.5,0-7.9-2.1c-1,1.9-1.9,3.7-3.1,5.4
			c-3.1,4-9.2,5.2-12.9,2.3c-2.9-2.2-3.3-5.5-3.7-8.7c-0.1-0.6,0-1.2,0-1.9c-1.3,0.3-1.9,1.3-2.6,2c-2.7,2.4-6.8,3-9.8,1.4
			c-0.6-0.3-1.1-0.8-1.7-1.3c-2.4-3.4-1.8-7.1-0.4-10.6c1.4-3.5,3.3-6.9,4.8-10.4c2.8-6.9,3.4-14.2,3.8-21.5
			c0.5-8.3,1-16.5,3.6-24.5c1.9-5.8,5-10.9,8.7-15.6c0.7-0.1,1-0.7,1.4-1.1c5.2-5.1,11.3-8.5,18.4-10c5.9-1.3,11.6-1.2,16.6,2.8
			c0.8,0.7,1.6,1.6,2.7,1.8c1.1,1.9,2.4,3.6,3.8,5.3c0.7-0.9,0.4-1.3,0.3-1.9c-0.4-2-1.9-3.1-3-4.6c0.6-1.4,1.2-2.7,1.9-4.1
			c11.9,1.9,20.7,8.4,26.7,18.7c3.4,5.8,5,12.3,6,18.9c0.1,0.6,0.3,1.2,0.4,1.8c-1.3,2.8-2.7,5.7-4,8.5c-0.3,0-0.6,0.1-0.9,0.1
			c0-1.6-0.7-2.1-2.3-2c-1.4,0.1-2.9,0.1-4.4,0c-1.8-0.2-3,0.3-3.5,2.2c-1.5-0.3-3,0.1-4.3,0.8c-2-2-4.3-3.5-7-4.5
			c-3.8-1.4-6.9-0.5-9.6,2.3c-1.8,1.8-3.2,3.9-4.2,6.3c-1.5,3.4-0.9,6.7,0,10.1c0.2,1,0.6,2,0.8,3c-0.7,2.3-1.4,4.5-2,6.8
			C124.3,123.9,123.4,127.8,125.2,131.8z M102.9,89.4c0.1,1.1,0.1,2.2,0.2,3.3c0.9,6,5.1,10.5,10.5,11.2c5.4,0.7,10.8-2.5,13-8.1
			c2.3-5.8,1.5-11.4-2.3-16.3c-5.2-6.7-14.7-6-19.1,1.3C103.6,83.3,102.9,86.3,102.9,89.4z M150.2,80.8c-4.7,0-9,3.7-9.9,7.9
			c-0.2,0.7-0.1,1.3,0.7,1.7c0.8,0.3,1.3,0,1.6-0.7c0.2-0.3,0.3-0.7,0.4-1c2.9-5.7,8.5-6.4,12.7-1.6c0.5,0.6,1.1,1.1,1.8,0.6
			c0.9-0.6,0.5-1.4,0.2-2.1C156,82.5,153.3,81,150.2,80.8z"/>
		<path class="st2" d="M130.7,52.4c-1.1-0.2-1.9-1.1-2.7-1.8c-5-4-10.7-4.1-16.6-2.8c-7.1,1.5-13.2,4.9-18.4,10
			c-0.4,0.4-0.7,1-1.4,1.1c-4.1-4.7-7.1-10-7.7-16.3c-0.7-6.8,2.7-13.7,10.2-14.8c3.4-0.5,6.3,0.8,9,2.6c0.5,0.4,1,0.8,1.6,1.2
			c0.5-0.4,0-0.8,0.2-1.2c0.2-2,1.5-4-0.4-5.8c-0.6-0.5-0.5-1.4-0.2-2.1c0.5-1.5-0.3-3.2,0.6-4.7c0.2-0.3,0.1-1-0.3-1.3
			c2-6.5,8.6-10,15.5-8.2c6.5,1.7,10.6,6.3,13.2,12.3c0.5,1.2,0.8,2.4,1.2,3.6c-1.4,0.5-0.3,1.5-0.3,2.1c0.3,2.2,1,4.3,0.7,6.7
			c-0.2,1.5-0.6,3.3,0.6,4.7c-0.1,3.2-1.1,6.3-1.8,9.4c-0.6,1.4-1.2,2.7-1.9,4.1C131.4,51.6,131.1,52,130.7,52.4z"/>
		<path class="st3" d="M81.2,225.6c-0.1,3.1,0.8,4.4,3.9,4.6c4.4,0.3,8.2,1.6,11.8,4.2c1.7,1.2,3.6,2.2,5.9,2.2
			c3.2,0,4.6-1.6,4.2-4.8c1,0.1,1.9,0.2,2.9,0.4c0.3,0.1,0.7,0.3,1,0.3c3.1,0.3,4.8-0.5,5.3-2.5c0.5-1.9-0.7-3.7-3.3-5
			c-0.5-0.3-1.1-0.5-1.6-0.8c0.2-1.1,1.1-0.7,1.8-0.8c4.9,0,9.8-0.1,14.7,0.4c-1.6,3.2-0.6,5,2.9,5.4c0.7,0.1,1.3,0.1,2,0.1
			c4.1-0.1,7.9,0.8,11.5,2.8c1.2,0.7,2.6,1.2,4,1.7c3.8,1.2,5.9-0.2,6.3-4.1c0.7,0.5,1.4,0.3,2.1,0.4c3.2,0.8,5.1,0.1,6.4-2.6
			c2.8,0.1,5.5,0.9,8,2.1c1,0.5,1.9,1.3,1.9,2.4c0,1.2-1,1.9-2,2.3c-3.9,1.9-8.1,2.7-12.4,3.3c-7.8,1.2-15.7,1.9-23.5,2.3
			c-10.2,0.5-20.3,0.2-30.5,0.2c-5.5,0-11-0.5-16.4-1.1c-6.8-0.7-13.5-1.5-20.1-3.3c-1.4-0.4-2.6-1-3.8-1.6c-2.3-1.3-2.3-3.2,0-4.5
			c2.2-1.2,4.7-1.9,7.2-2.4C74.6,226.6,77.9,225.9,81.2,225.6z"/>
		<path class="st4" d="M161.9,95.2c0.3,0,0.6-0.1,0.9-0.1c3.1,0.8,6.3-0.2,9.4,0.5c0.8-2.5,1.6-4.9,2.1-7.3c0.3-1.5,1.6-2.6,1.5-4.2
			c3.7,0,7.5-0.1,11.2-0.1c2.2,0,3.8,1.1,4.6,3.2c1,2.5,2,4.9,2.4,7.8c3.1,0,6.6-0.2,7.5,4c-0.6-0.1-1.2-0.2-1.7-0.4
			c-7-2.9-14,0.5-17.9,6.1c-4.1,5.9-4.6,12.4-2.3,19c1.3,3.7,3.3,7,7,8.9c0.4,0.7,1.2,1,1.8,1.4c0.9,0.7,2.2,0.4,3,1.2
			c-1.1,0-2.1-0.1-3.2-0.1c-0.3-0.1-0.5-0.4-0.8-0.4c-4.2-0.2-7.7-2.2-10.5-5c-4.5-4.5-5.9-10.1-5.2-16.4c0.7-6.4,7.1-15,15.1-15.4
			c0.6,0,1.2-0.2,1.6-0.7c-0.1-0.8-0.6-1.2-1.3-1.4c-0.6,0.3-1.2,0.6-2,0.7c-4.7,1-8.6,3.3-11.4,7.1c-1,1.3-2.1,1.8-3.7,1.9
			c-1.2,0.1-2.4-0.3-3.7,0.3c0,3.4-0.2,6.8,0.1,10.2c0.1,2,0.3,3.9,0,5.9c-0.2,1-0.2,2.2,0.1,3.3c0.3,1.3,0.3,2.5,0.2,3.8
			c-0.2,3.5-0.8,4.1-3.6,4.2c0-1,0.1-1.9-0.1-2.9c-0.5-3.3-2.5-4.7-6-4.5c-0.2-0.6,0.5-0.8,0.7-1.3c2-2,3-4.4,2.3-7.2
			c-0.7-2.9-3.2-4.4-6.6-3.8c0-0.2,0-0.5-0.1-0.7c1.6-1.7,2-3.8,1.1-5.9c-0.9-2.1-2.8-2.8-5-2.9c-1.6,0-3.1,0.3-4.7,0.7
			c-0.5-3.4,0.1-6.3,2.8-8.5c1.4-0.7,2.8-1.1,4.3-0.8C155.2,95.3,158.5,95.2,161.9,95.2z M183.7,92.4
			C183.7,92.4,183.7,92.4,183.7,92.4c1.3,0,2.7,0,4,0c0.8,0,2,0.2,1.9-1.1c-0.1-1.1-0.1-2.8-1.7-2.9c-2.8-0.2-5.7-0.1-8.5,0
			c-1.5,0.1-1.4,1.4-1.4,2.5c0,1.1,0.5,1.5,1.6,1.5C181,92.4,182.3,92.4,183.7,92.4z M166.5,103.3c0.5-3.2-0.2-4-3.2-4
			c-1.1,0-2.2,0-3.3,0c-1.6-0.1-2.4,0.9-2.4,2.3c0,1.4,0.7,2.7,2.3,2.8C162.2,104.5,164.4,104.6,166.5,103.3z"/>
		<path class="st0" d="M162.9,227.4c-1.3,2.7-3.1,3.4-6.4,2.6c-0.9-2.7-6.3-5.5-8-3.9c2,1.2,4.2,1.8,5.8,3.5
			c-0.4,3.9-2.4,5.3-6.3,4.1c-1.4-0.4-2.8-1-4-1.7c-3.6-2-7.4-2.9-11.5-2.8c-0.7,0-1.3,0-2-0.1c-3.5-0.4-4.5-2.2-2.9-5.4
			c2.5-2,6-1.4,8.8-2.9c0-2,0-3.9,0-5.9c1.3-0.1,2.6-0.5,3.7,0.6c0.4,0.4,1,0.1,1.6,0c0.9-0.2,1.9-0.4,2.8-0.6c0,1.9,0,3.7,0,5.7
			c2.5,0.2,4.8,0.3,7.1,0.5c2.7,0.2,5.3,0.7,7.8,1.7C161.7,223.7,163,225.1,162.9,227.4z"/>
		<path class="st5" d="M186.7,132.5c-3.6-1.9-5.7-5.2-7-8.9c-2.3-6.6-1.8-13.1,2.3-19c3.9-5.6,10.9-9,17.9-6.1
			c0.5,0.2,1.2,0.3,1.7,0.4c1.3,1.3,3.3,1.8,4.1,3.6c-1.7,0.4-3,1.3-3.7,3c-2-1.4-4-2.5-6.5-2.6c-8.1-0.3-12.8,7.4-12.3,14.6
			c0.3,4.8,2.6,8.6,6.8,11.2c0,0.5,0,1.1-0.6,1.4C188.3,130.7,187.6,131.7,186.7,132.5z"/>
		<path class="st5" d="M198.4,134.6c-0.1,0-0.2,0.1-0.4,0.1c-0.2-0.3-0.3-0.2-0.4,0.1c-0.4,0.3-0.9,0.3-1.5,0.3
			c0.1-0.8,0.1-1.5,0.2-2.5c-0.8-0.6-1.1-1.6-0.9-2.7c5-0.8,8.4-3.7,10.1-8.3c1.1-3.1,1-6.3,0.4-9.5c0.5-0.5,0.2-0.6-0.3-0.7
			c-0.5-1.2-1-2.4-1.5-3.6c0-1.9,1.6-2,2.8-2.5c0-0.4,0.1-0.8,0.1-1.3c1.3,1.5,2.2,3.2,2.8,5.1c-1.5,0.1-2.7,0.9-2.7,2.3
			c0.1,1.6,1.7,1.4,2.8,1.4c0.2,0,0.5,0,0.7,0c1.6,6.2-1.5,14.9-6.6,18.6c-0.6-1.5-1.7-1.2-2.7-0.9c-0.6,0.7,0.3,1.4-0.2,2
			C200.6,133.4,198.7,132.8,198.4,134.6z"/>
		<path class="st6" d="M144.8,215.1c-0.9,0.2-1.9,0.3-2.8,0.6c-0.5,0.1-1.2,0.4-1.6,0c-1.1-1.1-2.4-0.7-3.7-0.6
			c-0.2-0.7,0.1-1.5-0.3-2.1c-1.9-0.6-3.9-1.2-5.1-2.9c6.4-0.9,12.6-2.2,18.7-4.5c0.6-0.2,1.3-0.4,1.9-0.4c-0.7,3.8-3.4,5.8-6.8,7.1
			C144.9,213.3,144.9,214.2,144.8,215.1z"/>
		<path class="st7" d="M175.8,84.1c0.1,1.6-1.2,2.7-1.5,4.2c-0.6,2.4-1.4,4.8-2.1,7.3c-3.1-0.7-6.3,0.2-9.4-0.5
			c1.3-2.8,2.7-5.7,4-8.5C169.2,83.4,172.5,83.9,175.8,84.1z"/>
		<path class="st6" d="M174.4,173.5c0.3-5.7-0.5-11.3-1.6-16.9c-0.1-0.6-0.3-1.3,0.4-1.5c0.9-0.3,1.1,0.5,1.3,1.1
			c1,3.5,1.6,7,3,10.4c0.8,2,2.1,3.4,3.7,4.6c0.9,0.7,1.8,1.3,1.9,2.2c0.6,0.8,1.8,0.1,1.9,1.2C181.3,175.3,177.8,174.5,174.4,173.5
			z"/>
		<path class="st6" d="M68.4,188.2c-0.5-2.9-2-5.4-2.8-8.2c-1.2-4.5-1.6-9-0.9-13.6c0.1-0.7,0.3-1.3,1.3-1.5
			c0.4,1.8,0.3,3.7,0.5,5.5c1,8.1,3.1,15.7,8.3,22.2c0.1,0.1,0.1,0.3,0.1,0.5C72.1,192.4,70.2,190.4,68.4,188.2z"/>
		<path class="st8" d="M195.5,76c0.1-0.4,0.2-0.9,0.4-1.3c1-2.9,1.9-5.8,3-8.7c0.6-1.8,1.9-2.5,3.3-2c1.6,0.6,2.1,1.9,1.4,3.7
			c-1.3,3.1-2.6,6.1-3.9,9.1c-0.5,1.1-1.4,1.6-2.5,1.3C196.1,77.8,195.6,77,195.5,76z"/>
		<path class="st8" d="M216,88.7c0.8,0,1.2,0,1.7,0c1.4,0,2.3,0.9,2.4,2.2c0.2,1.5-0.6,2.6-2,2.8c-3.2,0.3-6.4-0.2-9.6-0.5
			c-1-0.1-1.5-1-1.4-2c0.1-1,0.7-1.7,1.7-1.8C211.3,89.2,213.8,88.9,216,88.7z"/>
		<path class="st8" d="M205.1,79.5c1.9-1.8,4.1-3.4,6.2-5c1.5-1.1,2.9-0.9,3.8,0.3c1,1.3,0.8,2.8-0.8,3.9c-1.8,1.2-3.8,2.3-5.7,3.5
			C207.4,81.4,205.9,80.9,205.1,79.5z"/>
		<path class="st1" d="M205.1,79.5c0.8,1.3,2.3,1.8,3.5,2.7c-0.7,0.5-1.4,0.9-2.1,1.4c-1,0.6-2.1,0.8-2.9-0.2c-0.8-1-0.5-2,0.3-2.9
			C204.3,80.1,204.7,79.8,205.1,79.5z"/>
		<path class="st9" d="M207.2,104c0,0.4-0.1,0.8-0.1,1.3c-1.3,0.5-2.9,0.6-2.8,2.5c-0.7-0.7-1.4-1.5-2.2-2.2c0.7-1.6,2-2.6,3.7-3
			c0.1,0.1,0.2,0.2,0.3,0.3c0,0.5,0.3,0.8,0.8,0.7C207,103.8,207.1,103.9,207.2,104z"/>
		<path class="st10" d="M104.5,16.7c0.5,0.3,0.6,1,0.3,1.3c-0.9,1.5-0.1,3.1-0.6,4.7c-0.2,0.6-0.3,1.5,0.2,2.1
			c2,1.8,0.6,3.8,0.4,5.8C103.6,25.9,102.6,21.3,104.5,16.7z"/>
		<path class="st10" d="M135.4,37.8c-1.3-1.4-0.8-3.2-0.6-4.7c0.3-2.3-0.4-4.5-0.7-6.7c-0.1-0.6-1.1-1.6,0.3-2.1
			C135.7,28.7,136,33.2,135.4,37.8z"/>
		<path class="st9" d="M210.8,112.8c-0.2,0-0.5,0-0.7,0c-1.2,0-2.8,0.2-2.8-1.4c-0.1-1.4,1.2-2.2,2.7-2.3
			C210.4,110.3,210.8,111.5,210.8,112.8z"/>
		<path class="st9" d="M198.4,134.6c0.3-1.7,2.2-1.1,3-2.1c0.5-0.6-0.4-1.3,0.2-2c1-0.3,2.1-0.6,2.7,0.9c-0.2,0.2-0.3,0.5-0.5,0.7
			C202,133,200.4,134.3,198.4,134.6z"/>
		<path class="st5" d="M206.9,103.6c-0.5,0-0.8-0.2-0.8-0.7C206.5,103,206.7,103.2,206.9,103.6z"/>
		<path class="st7" d="M163.1,133.2c2.8-0.1,3.4-0.7,3.6-4.2c0.1-1.3,0.1-2.5-0.2-3.8c-0.2-1-0.3-2.2-0.1-3.3c0.4-2,0.2-3.9,0-5.9
			c-0.2-3.4-0.1-6.8-0.1-10.2c1.2-0.6,2.5-0.3,3.7-0.3c1.5-0.1,2.7-0.6,3.7-1.9c2.9-3.9,6.8-6.1,11.4-7.1c0.7-0.2,1.3-0.5,2-0.7
			c0.8,0.2,1.2,0.6,1.3,1.4c-0.4,0.5-1,0.6-1.6,0.7c-8,0.3-14.4,9-15.1,15.4c-0.7,6.4,0.7,12,5.2,16.4c2.8,2.8,6.3,4.8,10.5,5
			c0.3,0,0.5,0.3,0.8,0.4c-4.4,0.1-8.8,0.1-13.2,0.2c-0.4,0-0.7-0.1-1.1-0.1c-0.7-0.2-1.4-0.2-2.1,0c-2.8,0-5.5,0-8.3,0
			c-0.3-0.2-0.6-0.4-0.9-0.6C162.8,134.1,162.9,133.6,163.1,133.2z"/>
		<path class="st6" d="M156.2,152.4c-2.1,4-3.9,8.2-6.6,11.9c-5.6,7.7-12.5,13.7-21.8,16.2c-10.3,2.7-19.9,1-28.5-5.4
			c-0.6-0.5-1.3-1-1.6-1.9c0.7-1,1.3-0.6,2.1-0.1c3.2,2,6.5,3.6,10.2,4.5c6.6,1.5,13.1,1.2,19.4-1.2c5.1-2,9.6-5.1,13.4-9.1
			c6.1-6.5,10.5-14.1,13.2-22.7c1-3.2,3.6-4.9,5.7-7.3c0.2,2.1-1,3.5-2.2,4.9c-0.3,0.4-0.9,0.8-1,1.3
			C158.2,146.5,157,149.4,156.2,152.4z"/>
		<path class="st8" d="M156.2,152.4c0.8-3,2-5.9,2.2-9.1c0-0.4,0.6-0.8,1-1.3c1.2-1.4,2.4-2.9,2.2-4.9c0.2-0.6,0.2-1.4,0.8-1.9
			c0.4,0,0.7-0.1,1.1-0.1c2.8,0,5.5,0,8.3,0c0.7,0.4,1.4,0.1,2.1,0.2c0.3,0.4,0.6,0.7,0.9,1.1c-0.2,2.5,0.4,4.8,2.3,6.5
			c0.4,0.4,0.6,0.9,0.5,1.4c-1.7,3.1-4.3,3.6-8.6,0.7c-0.7,4-1.6,7.9-6.2,9C160.4,154.7,158.1,154,156.2,152.4z"/>
		<path class="st2" d="M125.2,131.8c-1.8-4-0.9-7.9,0.3-11.8c0.7-2.3,1.3-4.5,2-6.8c1.4,0.8,1.9,2.4,3.1,3.4
			c0.4,0.3,0.1,0.9-0.1,1.4c-2.2,4-3.5,8.3-4.6,12.7C125.8,131.1,125.4,131.4,125.2,131.8z"/>
		<path class="st9" d="M195.5,129.9c-0.2,1.1,0.1,2,0.9,2.7c-0.1,0.9-0.1,1.7-0.2,2.5c-1.6,0.5-3.2,0.3-4.8,0.1
			c-0.8-0.8-2.1-0.6-3-1.2c-0.6-0.4-1.4-0.7-1.8-1.4c0.9-0.8,1.7-1.8,2.8-2.3c0.6-0.3,0.6-0.8,0.6-1.4
			C191.8,129.3,193.6,130,195.5,129.9z"/>
		<path class="st6" d="M108.2,209.7c-0.8,1.4-2,2.5-3.6,3c-1-1.4-2.7-1.4-4.2-1.9c-2.7-0.8-6-2.7-8.2-5c1.7-0.2,3.1,0.7,4.5,1.1
			c3.6,1,7.2,1.8,10.9,2.4C107.8,209.3,108,209.5,108.2,209.7z"/>
		<path class="st11" d="M130.2,109.2c-0.8-0.7-1.1-1.7-1.5-3c3.7,0.3,7.2,0.5,11.1,0.8c-1.7,1.3-2.9,2.9-4.7,3.7
			C133.7,109.7,132,109.3,130.2,109.2z"/>
		<path class="st6" d="M177.6,144.4c0.1-0.6-0.1-1.1-0.5-1.4c-1.9-1.8-2.5-4-2.3-6.5c0.1-0.1,0.2-0.2,0.3-0.4
			c0.6,1.2,1.2,2.4,1.7,3.7c1.2,2.7,3.2,4.4,6,5.3c0.6,0.2,1.6,0.3,1.3,1.3c-0.3,1-1.1,0.4-1.8,0.4
			C180.4,146.6,179.4,144.7,177.6,144.4z"/>
		<path class="st6" d="M153.4,112.7c0,0.2,0,0.5,0.1,0.7c-3,1.2-5.8,2.9-8.2,4.9c-0.9-0.7-0.6-1.2-0.3-1.5c1.8-2.3,4.1-4,7.1-4.6
			C152.5,112,153.1,112,153.4,112.7z"/>
		<path class="st6" d="M109.9,232.2c-1-0.1-1.9-0.2-2.9-0.4c-1.3-1.9-3.4-2.7-5.4-3.9C104,226.9,107.7,228.8,109.9,232.2z"/>
		<path class="st6" d="M157.7,124.5c-0.2,0.5-0.8,0.7-0.7,1.3c-1.9,1.1-3.7,2.2-5.7,3.3c-0.9-0.5-0.8-1.1-0.2-1.7
			C153,125.6,155,124.2,157.7,124.5z"/>
		<path class="st12" d="M130.2,109.2c1.8,0.1,3.4,0.5,4.9,1.5c-0.5,0.9-1,1.9-2.2,2.5C131.6,112.3,130.6,110.9,130.2,109.2z"/>
		<path class="st3" d="M175,136.1c-0.1,0.1-0.2,0.2-0.3,0.4c-0.3-0.4-0.6-0.7-0.9-1.1c0-0.1,0.1-0.1,0.1-0.2c0.4,0,0.7,0.1,1.1,0.1
			C175,135.5,175,135.8,175,136.1z"/>
		<path class="st13" d="M163.5,135.2c-0.4,0-0.7,0.1-1.1,0.1c0-0.3-0.1-0.5,0.2-0.7C162.9,134.8,163.2,135,163.5,135.2z"/>
		<path class="st9" d="M197.7,134.7c0.1-0.2,0.2-0.4,0.4-0.1C197.9,134.7,197.8,134.7,197.7,134.7z"/>
		<path class="st7" d="M150.2,80.8c3.1,0.2,5.8,1.7,7.5,4.8c0.4,0.7,0.8,1.5-0.2,2.1c-0.8,0.5-1.3,0-1.8-0.6
			c-4.2-4.8-9.8-4.1-12.7,1.6c-0.2,0.3-0.3,0.7-0.4,1c-0.3,0.7-0.8,1.1-1.6,0.7c-0.7-0.3-0.8-0.9-0.7-1.7
			C141.2,84.5,145.5,80.8,150.2,80.8z"/>
		<path class="st7" d="M161.9,95.2c-3.4,0-6.7,0.1-10.1,0.1c0.4-1.9,1.7-2.4,3.5-2.2c1.4,0.1,2.9,0.1,4.4,0
			C161.1,93,161.9,93.6,161.9,95.2z"/>
		<path class="st8" d="M130.7,52.4c0.4-0.4,0.7-0.7,1.1-1.1c1.1,1.5,2.7,2.6,3,4.6c0.1,0.5,0.4,1-0.3,1.9
			C133.1,55.9,131.8,54.2,130.7,52.4z"/>
		<path class="st6" d="M154.4,229.7c-1.6-1.7-3.9-2.3-5.8-3.5c1.7-1.6,7.1,1.2,8,3.9C155.8,229.9,155.1,230.2,154.4,229.7z"/>
		<path class="st5" d="M183.7,92.4c-1.4,0-2.8,0-4.2,0c-1,0-1.6-0.4-1.6-1.5c0-1.1-0.1-2.4,1.4-2.5c2.8-0.1,5.7-0.2,8.5,0
			c1.5,0.1,1.5,1.8,1.7,2.9c0.1,1.3-1,1.1-1.9,1.1C186.4,92.4,185.1,92.4,183.7,92.4C183.7,92.4,183.7,92.4,183.7,92.4z"/>
		<path class="st5" d="M166.5,103.3c-2.1,1.3-4.4,1.3-6.6,1.1c-1.6-0.1-2.3-1.3-2.3-2.8c0-1.4,0.8-2.4,2.4-2.3c1.1,0.1,2.2,0,3.3,0
			C166.4,99.3,167,100.1,166.5,103.3z"/>
		<path class="st7" d="M195.5,129.9c-1.9,0.1-3.7-0.6-5.5-1.1c-4.2-2.6-6.4-6.4-6.8-11.2c-0.5-7.2,4.2-15,12.3-14.6
			c2.5,0.1,4.5,1.2,6.5,2.6c0.7,0.7,1.4,1.5,2.2,2.2c0.5,1.2,1,2.4,1.5,3.6c0,0.3,0.1,0.5,0.3,0.7c0.6,3.2,0.7,6.4-0.4,9.5
			C203.9,126.2,200.5,129,195.5,129.9z M195.5,111.2c0-1.6-1-2.8-2.4-2.8c-1.6-0.1-3.1,1.4-3.1,3.1c0,1.5,1,2.8,2.4,2.8
			C194.1,114.4,195.5,113,195.5,111.2z"/>
		<path class="st9" d="M206,112.1c-0.3-0.2-0.3-0.4-0.3-0.7C206.2,111.4,206.6,111.5,206,112.1z"/>
		<path class="st13" d="M173.9,135.2c0,0.1,0,0.2-0.1,0.2c-0.7-0.1-1.4,0.1-2.1-0.2C172.5,135,173.2,135,173.9,135.2z"/>
		<path class="st14" d="M129,90.8c0.2,3.7-0.6,7.4-2.6,10.9c-4.6,8.1-14.3,8.5-19.7,1c-4.6-6.5-4.7-17.6-0.1-24.2
			c4.6-6.8,13-7.2,18.3-0.9C127.7,80.9,129,85,129,90.8z"/>
		<path class="st7" d="M124.9,89.8c0.1,1.7-0.3,3.4-1.2,4.9c-2.1,3.7-6.5,3.9-8.9,0.4c-2.1-2.9-2.1-8-0.1-11
			c2.1-3.1,5.9-3.3,8.3-0.4C124.3,85.3,124.9,87.2,124.9,89.8z"/>
	</g>
</g>
</svg>
