<?xml version="1.0" encoding="utf-8"?>
<!-- Generator: Adobe Illustrator 28.0.0, SVG Export Plug-In . SVG Version: 6.00 Build 0)  -->
<svg version="1.1" id="Layer_2_00000173147799775730916920000010384587207280743593_"
	 xmlns="http://www.w3.org/2000/svg" xmlns:xlink="http://www.w3.org/1999/xlink" x="0px" y="0px" viewBox="0 0 183.2 286"
	 style="enable-background:new 0 0 183.2 286;" xml:space="preserve">
<style type="text/css">
	.st0{fill:#FBF8F4;}
	.st1{fill:#FCCD0A;}
	.st2{fill:#F88806;}
	.st3{fill:#F98A05;}
	.st4{fill:#EB4527;}
	.st5{fill:#F2E9DB;}
	.st6{fill:#FAA009;}
	.st7{fill:#EB7404;}
	.st8{fill:#2E2D2B;}
	.st9{fill:#AD3A05;}
</style>
<g id="Layer_1-2">
	<g id="Dance">
		<path class="st0" d="M31.6,188.1c2.8,4.7,5.7,9.4,12.2,9.3c6.9,6.4,14.5,12.1,23.6,14.3c6.7,1.7,11.4,4.6,13.8,11
			c0.1,3.2,1.6,5.8,3.9,7.7c3.8,3.2,6.1,7.3,8.3,11.6c-4,2.5-8.4,1.7-12.7,1.6c-14.8-0.2-29.5,0-44,3c-2.6,0.5-6.6,0-6.5,3.7
			c0,3.2,3.7,2.9,6.3,3.5c12.8,3,25.8,3.9,38.9,3.8c10.9-0.1,21.9,0.3,32.8-0.9c7.7-0.8,15.5-1.2,23-3.2c1.9-0.5,4.3-0.9,4.4-3.4
			c0.1-2.8-2.6-2.8-4.4-3.2c-7.8-1.6-15.6-2.9-23.6-2.3c-0.4-3.1-0.8-6.5-3-8.7c-5.1-5.1-5.7-10.4-1.8-16.3
			c3.8-1.9,5.9-6.1,10.1-7.6c31.6-11.5,47-38.1,41.5-71.4c3.4-2.5,5-5.7,4.4-9.9c13-9.4,20.2-22.6,24-37.9c0.7-2.8,0.9-5.6-1.9-7.6
			c-1.6-1.2-0.4-2.4,0-3.6c1.2-4.3,2.2-8.7,1.4-13.2c-1.2-7-3.7-8.5-10.5-5.9v-3c0-7.8-1.9-12-6.1-12.8c-6.3-1.2-8.8,3.7-11.3,8
			c-4.3,7.4-6.2,15.8-9.9,23.4c-0.5,1.1-0.3,2.9-2.4,2.5c-4-17.6-19.4-32.7-36.8-34.8c1.8-6.4,3.1-12.9,2.6-19.6
			C106.9,15.3,103,6.1,92.2,1.6C81.2-3,71.1,2.7,69.3,14.5c-0.5,3.4,0.7,6.6,0.9,9.9c-0.2,0.2-0.5,0.5-0.7,0.7
			c-11.5-5.7-20.8,3.1-19.9,15.1c0.5,6.8,4.1,12,8.6,16.9c-11.8,12.3-15.6,27.2-14.6,43.8c0.5,7.6,0.1,15.2-1,22.8
			c-4.2-2.2-8.5-4.5-12.7-6.7c-6-3.1-12.2-5.4-18.9-6c-8.8-0.8-13.4,5.9-9.9,13.9c1.2,2.6,3.1,4.7,4.9,6.9c0.5,0.6,1.7,1,0.1,2.1
			c-4.1,2.6-2.3,6.2-0.6,9.2c3.7,6.4,8.5,12.1,14.8,15.9c7,4.2,12.7,8.6,11.8,17.8c0,0.2,0.4,0.5,0.6,0.8c-3.1-1.4-7.3-1.8-7.8-6.2
			c-0.4-3.2-1.6-5.7-4.8-6c-3.3-0.3-5.3,2.2-5.8,5.1c-0.6,3.8-3.1,6.1-5.7,8.4c-2.1,1.9-4.5,3.5-6.4,5.6c-2.1,2.4-2.9,5.6,0.3,7.2
			c4,2.1,9.4,3.6,12-1.1C19.6,181.5,25.2,183.3,31.6,188.1L31.6,188.1L31.6,188.1z"/>
		<path class="st1" d="M105.2,45.8C122.6,47.9,138,63,142,80.6c1.2,2.9,2.2,5.9,3,9c3.3,14.2,5.5,28.7,13.8,41.2
			c0.6,4.2-1,7.5-4.4,9.9c-3.9,0.6-7.4-1-11.5-3c0.4,5.9-0.2,11.1-6,13.4c-5.6,2.2-10.2-0.5-14.5-3.9c-7.3,14.4-14.8,15.5-26.2,4
			c-2.6-2.6-2.8,0.1-3.8,1.3c-5.8,7.2-14.7,8.4-21.4,2.6c-1.8-1.6-3.1-3.8-4.8-5.9c-3,2.9-6.2,5.9-10.4,3.2
			c-4.3-2.7-3.1-7.2-2.2-11.3c1.1-4.8,1.1-8.9-4.2-11.6c-2.5-1.3-5.2-3-6.7-5.8c1-7.6,1.4-15.2,1-22.8c-1-16.6,2.8-31.6,14.6-43.8
			c2.5-1.5,5-3.1,7.6-4.6c9.1-5.3,18.3-6.2,27.9-1.3c6.3,3.3,6.4,3.1,10.2-3.1C104.4,47.3,104.8,46.5,105.2,45.8L105.2,45.8
			L105.2,45.8z M118,117.6c0.3-2.9,0.6-5.9,0.9-8.8c1.8-1.2,3.8-0.8,5.7-1.1c3.9-0.4,5.1-3,3-6.2c-1.3-1.9-2.9-3.6-4.7-5
			c-3.2-2.4,1.1-1.5,0.9-2.5c4.2-1.1,6.3-4.1,7.3-8c0.4-1.5,1.6-3.6-0.8-4.2c-2-0.6-2,1.6-2.5,2.9c-0.9,2.6-2.2,5.1-5.2,5.4
			c-2.7,0.3-4.6-1.5-5.8-3.9c-0.7-1.3-1.4-3-3.3-1.9c-1.9,1.1-0.6,2.6-0.2,3.9c0.3,0.8,0.7,1.5,1.1,2.2
			c-11.4-1.5-14.7,5.9-17.5,16.2c0,3.5,3.1,6.1,2.6,9.7c-1.7,4.2-2.1,8.7-1.7,13.1c0.3,3.1,1.8,5.8,4.9,6.9c2.8,0.9,5.7,0.7,7.5-2.1
			c1-1.6,1.9-1.4,3.2-0.4c2.1,1.6,4.3,1.7,6.4,0c2.2-1.8,3-4.4,2.4-7.1C121.5,123.5,120.3,120.3,118,117.6L118,117.6L118,117.6z
			 M97.4,89c0.2-1.1,0.1-2.5-1.2-2.7c-1.3-0.3-2,0.8-2.1,2.2c-0.4,3.6-2,6.5-5.8,7.1s-6.2-1.8-7.9-4.8c-0.2-0.4-0.4-0.9-0.7-1.3
			c-0.6-1-1.6-1.2-2.6-0.7c-1.1,0.6-0.8,1.5-0.5,2.6c1.5,4.7,7.1,8.3,12.1,7.8C93.5,98.5,97.2,94.3,97.4,89L97.4,89L97.4,89z"/>
		<path class="st2" d="M42.6,123.6c1.5,2.8,4.2,4.5,6.7,5.8c5.3,2.7,5.3,6.8,4.2,11.6c-1,4.1-2.2,8.6,2.2,11.3
			c4.2,2.6,7.5-0.4,10.4-3.2c1.7,2.1,3,4.3,4.8,5.9c6.8,5.9,15.6,4.7,21.4-2.6c0.9-1.2,1.2-3.9,3.8-1.3c11.4,11.4,19,10.3,26.2-4
			c4.2,3.4,8.9,6.1,14.5,3.9c5.8-2.2,6.4-7.4,6-13.4c4.1,1.9,7.6,3.5,11.5,3c5.5,33.3-9.9,59.9-41.4,71.4c-4.2,1.5-6.3,5.6-10.1,7.6
			c-2.5-1.8-6.2,0-8.4-2.5c-0.9-1.1-1.1-2.5-3.3-1.8c-2.4,0.8-2.3,2.4-2.3,4.3l0,0c-2.3,1.6-4.7,2.8-7.6,3c-2.4-6.4-7.1-9.3-13.8-11
			c-9.2-2.3-16.8-7.9-23.6-14.3c-2.6-5.1-6.9-9.2-8.8-14.7c-0.2-0.5-1.4-0.6-2.2-0.9c0-1.4,0-2.9,0-4.4c-0.2-0.2-0.7-0.5-0.6-0.8
			c0.9-9.2-4.7-13.6-11.8-17.8c-6.3-3.8-11.1-9.5-14.8-15.9c-1.8-3-3.5-6.5,0.6-9.2c1.7-1.1,0.4-1.5-0.1-2.1
			c-1.8-2.2-3.7-4.2-4.9-6.9c-3.6-8,1.1-14.7,9.9-13.9c6.7,0.6,12.9,2.9,18.9,6C34.2,119.1,38.4,121.4,42.6,123.6L42.6,123.6
			L42.6,123.6z"/>
		<path class="st3" d="M158.7,130.7c-8.3-12.5-10.5-27-13.8-41.2c-0.7-3.1-1.7-6.1-3-9c2.1,0.4,1.9-1.4,2.4-2.5
			c3.6-7.7,5.6-16,9.9-23.4c2.5-4.3,4.9-9.1,11.3-8c4.3,0.8,6.1,5,6.1,12.8v3c6.8-2.6,9.2-1.1,10.5,5.9c0.8,4.6-0.1,8.9-1.4,13.2
			c-0.3,1.1-1.6,2.4,0,3.6c2.8,2,2.6,4.8,1.9,7.6C178.9,108.1,171.7,121.3,158.7,130.7L158.7,130.7L158.7,130.7z"/>
		<path class="st4" d="M105.2,45.8c-0.4,0.7-0.8,1.5-1.2,2.2c-3.8,6.2-3.9,6.4-10.2,3.1c-9.6-5-18.9-4-27.9,1.3
			c-2.6,1.5-5.1,3.1-7.6,4.6c-4.5-4.8-8-10.1-8.6-16.9C48.7,28.2,58,19.3,69.5,25c0.3,0.2,0.7,0.4,1,0.5c-0.1-0.4-0.2-0.8-0.3-1.2
			c-0.3-3.3-1.5-6.5-0.9-9.9C71.1,2.7,81.1-3,92.2,1.6c10.9,4.5,14.7,13.7,15.6,24.6C108.3,32.9,107,39.4,105.2,45.8L105.2,45.8
			L105.2,45.8z"/>
		<path class="st5" d="M107.6,244.7c8-0.5,15.8,0.7,23.6,2.3c1.7,0.4,4.5,0.4,4.4,3.2c-0.1,2.5-2.4,2.9-4.4,3.4
			c-7.6,1.9-15.3,2.3-23,3.2c-10.9,1.2-21.9,0.8-32.8,0.9c-13.1,0.1-26.1-0.9-38.9-3.8c-2.5-0.6-6.3-0.3-6.3-3.5
			c0-3.7,4-3.1,6.5-3.7c14.5-3,29.2-3.2,44-3c4.3,0.1,8.7,0.8,12.6-1.6c0,0.3-0.2,0.5-0.5,0.5c0.4,0.4,0.8,0.8,1.3,1.1
			c0.5,0.8,1,1.6,1.6,2.5c1.6,2.6,3.4,5,6.9,4.6C106.2,250.3,106.6,247.3,107.6,244.7L107.6,244.7L107.6,244.7z"/>
		<path class="st6" d="M107.6,244.7c-0.9,2.6-1.4,5.6-4.9,6c-3.5,0.4-5.3-2-6.9-4.6c-0.5-0.8-1-1.6-1.6-2.5
			c-0.2-0.6-0.3-1.4-1.3-1.1c0.3,0,0.5-0.1,0.5-0.5c-2.1-4.3-4.4-8.4-8.3-11.6c-2.3-1.9-3.8-4.5-3.9-7.7c2.8-0.2,5.3-1.4,7.6-3
			c0.1,0.4,0.3,0.9,0.4,1.3c0.1-0.1,0.2-0.2,0.4-0.2c-0.2-0.4-0.5-0.7-0.7-1.1c0-1.8-0.2-3.5,2.3-4.3c2.2-0.7,2.4,0.7,3.3,1.8
			c2.2,2.5,5.9,0.7,8.4,2.5c-3.9,5.9-3.3,11.2,1.8,16.3C106.8,238.2,107.1,241.6,107.6,244.7L107.6,244.7L107.6,244.7z"/>
		<path class="st6" d="M32.8,177.3c0,1.4,0,2.9,0,4.4c-1.3,2-0.9,4.2-1.2,6.4c-6.4-4.8-12-6.6-17,2.4c-2.6,4.7-8.1,3.2-12,1.1
			c-3.2-1.7-2.5-4.9-0.3-7.2c1.9-2.1,4.2-3.7,6.4-5.6c2.6-2.3,5.1-4.6,5.7-8.4c0.5-2.9,2.5-5.4,5.8-5.1c3.3,0.3,4.5,2.8,4.8,6
			C25.5,175.6,29.7,175.9,32.8,177.3L32.8,177.3L32.8,177.3z"/>
		<path class="st7" d="M31.6,188.1c0.3-2.1-0.1-4.4,1.2-6.4c0.7,0.3,2,0.4,2.2,0.9c2,5.5,6.2,9.6,8.8,14.7
			C37.3,197.5,34.5,192.8,31.6,188.1C31.6,188.1,31.6,188.1,31.6,188.1z"/>
		<path class="st6" d="M123.8,94c0.1,1-4.1,0.1-0.9,2.5c1.8,1.3,3.4,3.1,4.7,5c2.2,3.2,0.9,5.8-3,6.2c-1.9,0.2-4-0.1-5.7,1.1
			c-0.8,0.1-1.5,0.1-2.3,0.1c-5.6-0.7-11.1-1.4-16.7-2H97c2.8-10.3,6.2-17.7,17.5-16.2C117.3,92.3,120.2,94,123.8,94L123.8,94z"/>
		<path class="st4" d="M118,117.6c2.3,2.7,3.6,5.9,4.3,9.3c0.6,2.8-0.1,5.3-2.4,7.1c-2.1,1.7-4.3,1.6-6.4,0c-1.3-1-2.1-1.2-3.2,0.4
			c-1.8,2.8-4.8,3.1-7.5,2.1c-3.1-1-4.7-3.7-4.9-6.9c-0.4-4.5,0-8.9,1.7-13.2c1.4,0.1,2.4,0.9,3.4,1.8
			C108.6,123.1,113.2,122.8,118,117.6L118,117.6L118,117.6z"/>
		<path class="st7" d="M118,117.6c-4.7,5.2-9.3,5.5-14.9,0.8c-1-0.9-2-1.7-3.4-1.8c0.4-3.6-2.7-6.2-2.6-9.7h2.9
			c0.3,2.9,2.1,4.6,4.3,6.2c9.1,6.8,9.3,6.7,12.4-4.2c0.8-0.1,1.5-0.1,2.3-0.1C118.6,111.6,118.3,114.6,118,117.6
			C118,117.5,118,117.5,118,117.6z"/>
		<path class="st8" d="M97.4,89c-0.2,5.3-3.9,9.6-8.7,10.1c-5,0.6-10.6-3.1-12.1-7.8c-0.3-1.1-0.6-2,0.5-2.6c1-0.6,1.9-0.4,2.6,0.7
			c0.3,0.4,0.5,0.9,0.7,1.3c1.7,3.1,4.1,5.5,7.9,4.8c3.8-0.6,5.3-3.6,5.8-7.1c0.2-1.3,0.8-2.4,2.1-2.2C97.6,86.5,97.6,87.9,97.4,89
			L97.4,89L97.4,89z"/>
		<path class="st8" d="M123.8,94c-3.5,0.1-6.4-1.7-9.3-3.4c-0.4-0.7-0.8-1.5-1.1-2.2c-0.5-1.3-1.8-2.8,0.2-3.9
			c1.9-1.1,2.6,0.5,3.3,1.9c1.2,2.4,3.1,4.2,5.8,3.9c3-0.3,4.3-2.8,5.2-5.4c0.5-1.4,0.5-3.5,2.5-2.9c2.3,0.7,1.2,2.7,0.8,4.2
			C130.1,89.9,128,92.9,123.8,94L123.8,94L123.8,94z"/>
		<path class="st0" d="M70.2,24.3c0.1,0.4,0.2,0.8,0.3,1.2c-0.3-0.2-0.7-0.4-1-0.5C69.7,24.8,70,24.5,70.2,24.3L70.2,24.3L70.2,24.3
			z"/>
		<path class="st0" d="M92.9,242.5c1-0.3,1,0.5,1.3,1.1C93.8,243.2,93.3,242.8,92.9,242.5z"/>
		<path class="st2" d="M88.8,219.7c0.2,0.4,0.5,0.7,0.7,1.1c-0.1,0.1-0.2,0.2-0.4,0.2C89.1,220.5,88.9,220.1,88.8,219.7L88.8,219.7z
			"/>
		<path class="st9" d="M116.6,108.8c-3.1,10.9-3.3,10.9-12.4,4.2c-2.2-1.6-4-3.3-4.3-6.2C105.5,107.5,111,108.2,116.6,108.8
			L116.6,108.8z"/>
	</g>
</g>
</svg>
