<?xml version="1.0" encoding="UTF-8"?>
<svg id="Layer_2" data-name="Layer 2" xmlns="http://www.w3.org/2000/svg" viewBox="0 0 188.22 228.28">
  <defs>
    <style>
      .cls-1 {
        fill: #f2e9db;
      }

      .cls-1, .cls-2, .cls-3, .cls-4, .cls-5, .cls-6, .cls-7, .cls-8, .cls-9 {
        stroke-width: 0px;
      }

      .cls-2 {
        fill: #faa009;
      }

      .cls-3 {
        fill: #f88806;
      }

      .cls-4 {
        fill: #2e2d2b;
      }

      .cls-5 {
        fill: #ad3a05;
      }

      .cls-6 {
        fill: #eb4527;
      }

      .cls-7 {
        fill: #fccd0b;
      }

      .cls-8 {
        fill: #fbf8f4;
      }

      .cls-9 {
        fill: #eb7404;
      }
    </style>
  </defs>
  <g id="Layer_2-2" data-name="Layer 2">
    <g id="Layer_1-2" data-name="Layer 1-2">
      <g id="Excited">
        <path class="cls-8" d="m36.92,214.54c-.17,1.05-.18,2.08.49,2.99.12,10.37.42,10.74,10.34,10.74,33.14,0,66.29-.02,99.43-.03,8.55,0,8.77-.2,9.37-8.72.05-.66-.06-1.32-.09-1.99.94-1.21.71-2.67.88-4.05,6.3-2.45,10.21-7.11,12.21-13.42,3.17-9.99,1.71-19.51-3.24-28.6,1.11-5.5-.03-10.47-3.16-15.15-2.24-3.35-3.26-7.25-3.81-11.23-1.65-11.83-3.35-23.66-4.9-35.5-3.66-27.77-19.2-45.85-44.2-51.29,2.87-7.45,5.71-14.91,6.21-22.99.59-9.67-.37-18.99-6.9-26.8-6.34-7.59-15.95-10.38-24.13-7.21-7.88,3.05-12.61,11.44-12.11,21.53.13,2.74.32,5.48.49,8.44-14.69-6.95-26.27.12-26.02,15.52.14,8.51,3.6,15.75,9.28,21.99-6.47,7.12-12.74,14.3-15.92,23.71-3.99,11.8-4.46,24.07-5.5,36.28-1.01,11.89-1.17,23.94-7.56,34.66-1.94,3.25-1.37,6.71-.49,10.15-3.52,6.7-5.32,13.65-4.24,21.37,1.25,8.94,6.56,14.79,13.58,19.59h0Z"/>
        <path class="cls-8" d="m36.92,214.54c-.17,1.05-.18,2.08.49,2.99.12,10.37.42,10.74,10.34,10.74,33.14,0,66.29-.02,99.43-.03,8.55,0,8.77-.2,9.37-8.72.05-.66-.06-1.32-.09-1.99.94-1.21.71-2.67.88-4.05,6.3-2.45,10.21-7.11,12.21-13.42,3.17-9.99,1.71-19.51-3.24-28.6,1.11-5.5-.03-10.47-3.16-15.15-2.24-3.35-3.26-7.25-3.81-11.23-1.65-11.83-3.35-23.66-4.9-35.5-3.66-27.77-19.2-45.85-44.2-51.29,2.87-7.45,5.71-14.91,6.21-22.99.59-9.67-.37-18.99-6.9-26.8-6.34-7.59-15.95-10.38-24.13-7.21-7.88,3.05-12.61,11.44-12.11,21.53.13,2.74.32,5.48.49,8.44-14.69-6.95-26.27.12-26.02,15.52.14,8.51,3.6,15.75,9.28,21.99-6.47,7.12-12.74,14.3-15.92,23.71-3.99,11.8-4.46,24.07-5.5,36.28-1.01,11.89-1.17,23.94-7.56,34.66-1.94,3.25-1.37,6.71-.49,10.15-3.52,6.7-5.32,13.65-4.24,21.37,1.25,8.94,6.56,14.79,13.58,19.59h0Z"/>
        <path class="cls-8" d="m179.28,66.07c-2.32.03-12.86,9.07-13.11,11.47-.24,2.34.69,4.23,3.4,3.18,4.3-1.66,8.53-3.55,12.62-5.67,1.85-.96,2.67-2.89,1.72-5.12-.88-2.1-2.1-3.76-4.64-3.86h.01Z"/>
        <path class="cls-8" d="m179.28,66.07c-2.32.03-12.86,9.07-13.11,11.47-.24,2.34.69,4.23,3.4,3.18,4.3-1.66,8.53-3.55,12.62-5.67,1.85-.96,2.67-2.89,1.72-5.12-.88-2.1-2.1-3.76-4.64-3.86h.01Z"/>
        <path class="cls-8" d="m19.54,103.08c-.18-.47-.23-1.06-.56-1.36-3.75-3.46-7.48-7.03-12.03-9.37-2.39-1.24-4.47.31-5.62,2.63-1.29,2.6-.88,5.06,1.84,6.29,3.89,1.76,7.95,3.19,12.01,4.54,2.28.76,3.78-.37,4.36-2.73h0Z"/>
        <path class="cls-8" d="m19.54,103.08c-.18-.47-.23-1.06-.56-1.36-3.75-3.46-7.48-7.03-12.03-9.37-2.39-1.24-4.47.31-5.62,2.63-1.29,2.6-.88,5.06,1.84,6.29,3.89,1.76,7.95,3.19,12.01,4.54,2.28.76,3.78-.37,4.36-2.73h0Z"/>
        <path class="cls-8" d="m182.45,90.65c-2.63.41-5.58.81-8.5,1.34-1.57.28-2.89,1.15-2.94,2.9-.05,1.87,1.04,3.13,2.91,3.46,2.93.51,5.88.99,8.83,1.32,3.43.38,5.58-1.2,5.47-4.73-.1-3.29-2.32-4.52-5.77-4.28h0Z"/>
        <path class="cls-8" d="m182.45,90.65c-2.63.41-5.58.81-8.5,1.34-1.57.28-2.89,1.15-2.94,2.9-.05,1.87,1.04,3.13,2.91,3.46,2.93.51,5.88.99,8.83,1.32,3.43.38,5.58-1.2,5.47-4.73-.1-3.29-2.32-4.52-5.77-4.28h0Z"/>
        <path class="cls-8" d="m9.11,116.54c-1.96.09-3.63.08-5.28.27-2.88.33-4.06,2.33-3.79,4.92.28,2.75,2.16,4.1,4.94,3.62,1.79-.31,3.65-.73,5.23-1.57,2.3-1.21,6.71-.73,6.15-4.55-.64-4.29-4.95-1.83-7.25-2.69h0Z"/>
        <path class="cls-8" d="m9.11,116.54c-1.96.09-3.63.08-5.28.27-2.88.33-4.06,2.33-3.79,4.92.28,2.75,2.16,4.1,4.94,3.62,1.79-.31,3.65-.73,5.23-1.57,2.3-1.21,6.71-.73,6.15-4.55-.64-4.29-4.95-1.83-7.25-2.69h0Z"/>
        <path class="cls-8" d="m169.63,59.09c-.01-1.45-.62-2.59-1.91-3.25-1.27-.65-2.82-.78-3.69.35-2.43,3.18-3.93,6.9-5.07,10.7-.43,1.43.6,2.54,2.33,2.32,1.69-.22,8.3-8.3,8.33-10.11h.01Z"/>
        <path class="cls-8" d="m169.63,59.09c-.01-1.45-.62-2.59-1.91-3.25-1.27-.65-2.82-.78-3.69.35-2.43,3.18-3.93,6.9-5.07,10.7-.43,1.43.6,2.54,2.33,2.32,1.69-.22,8.3-8.3,8.33-10.11h.01Z"/>
        <path class="cls-7" d="m27.58,173.58c-.88-3.43-1.45-6.89.49-10.15,6.39-10.72,6.55-22.77,7.56-34.66,1.04-12.21,1.51-24.48,5.5-36.28,3.18-9.41,9.44-16.59,15.91-23.71,2.75-.42,4.56-2.55,6.83-3.84,9.74-5.51,19.56-7.96,29.96-1.61,6.96,4.24,7.79,4.06,13.36-1.76,1.03-1.07,2.02-2.18,3.03-3.27,25,5.44,40.54,23.52,44.2,51.29,1.56,11.84,3.25,23.67,4.9,35.5.56,3.98,1.57,7.88,3.81,11.23,3.13,4.68,4.27,9.65,3.16,15.15-6.47,7.36-14.51,6.52-17.91-3.12-1.97-5.58-5.84-10.1-10.38-13.83-4.15-3.41-8.79-6.55-14.49-3.87-6.11,2.87-10.5,7.53-9.91,14.71.47,5.7.73,11.41,1.27,17.09.71,7.53-3.01,14.73-10.07,17.45-7.01,2.71-15.37-.16-19.28-6.42-4.37-7-3.99-14.49-1.83-21.85,2.02-6.91.15-13.59-6.44-18.92-4.13-3.34-10.03-3.07-15.81.49-7.31,4.5-10.71,12.08-15.03,18.91-1.44,2.28-3.12,3.61-5.58,4.56-5.22,2.01-9.37.18-13.26-3.09h.01Zm79.88-71.2c-1.18-.18-1.21.63-1.24,1.44-1.15,1.16-.87,2.54-.64,3.93-.02,3.66-.04,7.32-.06,10.98-2.71-.25-5.45-2.25-8.11-.1-5.84,4.72-10.8,10.05-11.75,17.99.95,8.31,5.1,15.57,7.9,23.25.95,2.61,3.87,5.01,7.18,4.36,3.48-.69,6.18-2.7,7.43-6.53,1.2-3.66,1.29-7.49,2.34-11.13,5.36-5.73,5.96-12.17,2.84-19.15l5.58-1.13-.25-.15c1.79,2.51,2.44-.5,3.67-.76,1.69-.66,3.38-1.32,5.08-1.97,2.16-.03,4.32-.22,6.46-.04,1.72.15,2.72-.28,3.62-1.82,6.46-10.99-1.38-27.96-13.87-29.91-7.85-1.23-15.12,3.5-16.29,10.59l.12.16h0Zm-14.2,8.71c.17-10.75-7.27-19.15-17.25-19.47-10.6-.33-18.91,8.74-19.22,20.58-.31,11.65,7.7,16.04,18.82,17.27,10.63,1.18,17.46-6.83,17.64-18.38h.01Z"/>
        <path class="cls-7" d="m27.58,173.58c-.88-3.43-1.45-6.89.49-10.15,6.39-10.72,6.55-22.77,7.56-34.66,1.04-12.21,1.51-24.48,5.5-36.28,3.18-9.41,9.44-16.59,15.91-23.71,2.75-.42,4.56-2.55,6.83-3.84,9.74-5.51,19.56-7.96,29.96-1.61,6.96,4.24,7.79,4.06,13.36-1.76,1.03-1.07,2.02-2.18,3.03-3.27,25,5.44,40.54,23.52,44.2,51.29,1.56,11.84,3.25,23.67,4.9,35.5.56,3.98,1.57,7.88,3.81,11.23,3.13,4.68,4.27,9.65,3.16,15.15-6.47,7.36-14.51,6.52-17.91-3.12-1.97-5.58-5.84-10.1-10.38-13.83-4.15-3.41-8.79-6.55-14.49-3.87-6.11,2.87-10.5,7.53-9.91,14.71.47,5.7.73,11.41,1.27,17.09.71,7.53-3.01,14.73-10.07,17.45-7.01,2.71-15.37-.16-19.28-6.42-4.37-7-3.99-14.49-1.83-21.85,2.02-6.91.15-13.59-6.44-18.92-4.13-3.34-10.03-3.07-15.81.49-7.31,4.5-10.71,12.08-15.03,18.91-1.44,2.28-3.12,3.61-5.58,4.56-5.22,2.01-9.37.18-13.26-3.09h.01Zm79.88-71.2c-1.18-.18-1.21.63-1.24,1.44-1.15,1.16-.87,2.54-.64,3.93-.02,3.66-.04,7.32-.06,10.98-2.71-.25-5.45-2.25-8.11-.1-5.84,4.72-10.8,10.05-11.75,17.99.95,8.31,5.1,15.57,7.9,23.25.95,2.61,3.87,5.01,7.18,4.36,3.48-.69,6.18-2.7,7.43-6.53,1.2-3.66,1.29-7.49,2.34-11.13,5.36-5.73,5.96-12.17,2.84-19.15l5.58-1.13-.25-.15c1.79,2.51,2.44-.5,3.67-.76,1.69-.66,3.38-1.32,5.08-1.97,2.16-.03,4.32-.22,6.46-.04,1.72.15,2.72-.28,3.62-1.82,6.46-10.99-1.38-27.96-13.87-29.91-7.85-1.23-15.12,3.5-16.29,10.59l.12.16h0Zm-14.2,8.71c.17-10.75-7.27-19.15-17.25-19.47-10.6-.33-18.91,8.74-19.22,20.58-.31,11.65,7.7,16.04,18.82,17.27,10.63,1.18,17.46-6.83,17.64-18.38h.01Z"/>
        <path class="cls-3" d="m27.58,173.58c3.9,3.27,8.04,5.1,13.26,3.09,2.45-.95,4.14-2.28,5.58-4.56,4.32-6.82,7.72-14.41,15.03-18.91,5.79-3.56,11.69-3.83,15.81-.49,6.58,5.33,8.46,12.01,6.44,18.92-2.15,7.36-2.54,14.84,1.83,21.85,3.91,6.26,12.27,9.12,19.28,6.42,7.06-2.73,10.78-9.93,10.07-17.45-.53-5.67-.8-11.39-1.27-17.09-.59-7.19,3.8-11.85,9.91-14.71,5.7-2.68,10.34.46,14.49,3.87,4.54,3.73,8.41,8.25,10.38,13.83,3.41,9.64,11.44,10.48,17.91,3.12,4.95,9.09,6.42,18.61,3.24,28.6-2,6.31-5.92,10.97-12.21,13.42-17.58,4.24-28.98-4.79-38.42-18.24,2.64,10.9,9.72,17.29,19.5,21.49,6.06,2.6,12.02.95,18.04.8.03.66.14,1.33.09,1.99-.6,8.52-.82,8.71-9.37,8.72-33.14,0-66.29.05-99.43.03-9.91,0-10.22-.38-10.34-10.74,1.82.09,3.69-.05,5.46.29,13.8,2.7,28.55-4.86,34.44-17.83.54-1.2,2.26-2.84.37-3.85-1.5-.8-1.97,1.32-2.66,2.34-5.5,8.22-12.78,13.84-22.69,15.63-5.12.93-10.28.2-15.42.43-7.01-4.8-12.33-10.65-13.58-19.59-1.08-7.72.72-14.67,4.24-21.37h.02,0Z"/>
        <path class="cls-3" d="m27.58,173.58c3.9,3.27,8.04,5.1,13.26,3.09,2.45-.95,4.14-2.28,5.58-4.56,4.32-6.82,7.72-14.41,15.03-18.91,5.79-3.56,11.69-3.83,15.81-.49,6.58,5.33,8.46,12.01,6.44,18.92-2.15,7.36-2.54,14.84,1.83,21.85,3.91,6.26,12.27,9.12,19.28,6.42,7.06-2.73,10.78-9.93,10.07-17.45-.53-5.67-.8-11.39-1.27-17.09-.59-7.19,3.8-11.85,9.91-14.71,5.7-2.68,10.34.46,14.49,3.87,4.54,3.73,8.41,8.25,10.38,13.83,3.41,9.64,11.44,10.48,17.91,3.12,4.95,9.09,6.42,18.61,3.24,28.6-2,6.31-5.92,10.97-12.21,13.42-17.58,4.24-28.98-4.79-38.42-18.24,2.64,10.9,9.72,17.29,19.5,21.49,6.06,2.6,12.02.95,18.04.8.03.66.14,1.33.09,1.99-.6,8.52-.82,8.71-9.37,8.72-33.14,0-66.29.05-99.43.03-9.91,0-10.22-.38-10.34-10.74,1.82.09,3.69-.05,5.46.29,13.8,2.7,28.55-4.86,34.44-17.83.54-1.2,2.26-2.84.37-3.85-1.5-.8-1.97,1.32-2.66,2.34-5.5,8.22-12.78,13.84-22.69,15.63-5.12.93-10.28.2-15.42.43-7.01-4.8-12.33-10.65-13.58-19.59-1.08-7.72.72-14.67,4.24-21.37h.02,0Z"/>
        <path class="cls-6" d="m110.23,58.3c-1.01,1.09-2.01,2.2-3.03,3.27-5.57,5.82-6.4,6-13.36,1.76-10.4-6.34-20.22-3.9-29.96,1.61-2.27,1.29-4.08,3.42-6.83,3.84-5.67-6.24-9.13-13.48-9.28-21.99-.26-15.4,11.33-22.48,26.02-15.52-.17-2.97-.36-5.71-.49-8.44-.5-10.09,4.23-18.48,12.11-21.53,8.18-3.17,17.78-.37,24.13,7.21,6.53,7.81,7.49,17.13,6.9,26.8-.5,8.08-3.33,15.54-6.21,22.99h0Z"/>
        <path class="cls-6" d="m110.23,58.3c-1.01,1.09-2.01,2.2-3.03,3.27-5.57,5.82-6.4,6-13.36,1.76-10.4-6.34-20.22-3.9-29.96,1.61-2.27,1.29-4.08,3.42-6.83,3.84-5.67-6.24-9.13-13.48-9.28-21.99-.26-15.4,11.33-22.48,26.02-15.52-.17-2.97-.36-5.71-.49-8.44-.5-10.09,4.23-18.48,12.11-21.53,8.18-3.17,17.78-.37,24.13,7.21,6.53,7.81,7.49,17.13,6.9,26.8-.5,8.08-3.33,15.54-6.21,22.99h0Z"/>
        <path class="cls-9" d="m36.92,214.54c5.14-.23,10.3.5,15.42-.43,9.91-1.79,17.19-7.41,22.69-15.63.68-1.02,1.15-3.14,2.66-2.34,1.89,1,.17,2.65-.37,3.85-5.89,12.97-20.64,20.54-34.44,17.83-1.77-.35-3.64-.21-5.46-.29-.67-.91-.66-1.94-.49-2.99h0,0Z"/>
        <path class="cls-9" d="m36.92,214.54c5.14-.23,10.3.5,15.42-.43,9.91-1.79,17.19-7.41,22.69-15.63.68-1.02,1.15-3.14,2.66-2.34,1.89,1,.17,2.65-.37,3.85-5.89,12.97-20.64,20.54-34.44,17.83-1.77-.35-3.64-.21-5.46-.29-.67-.91-.66-1.94-.49-2.99h0,0Z"/>
        <path class="cls-7" d="m179.28,66.06c2.53.1,3.75,1.76,4.63,3.86.94,2.24.13,4.17-1.72,5.12-4.09,2.12-8.32,4.02-12.62,5.67-2.71,1.05-3.64-.84-3.4-3.18.25-2.4,10.79-11.45,13.11-11.48h0Z"/>
        <path class="cls-7" d="m179.28,66.06c2.53.1,3.75,1.76,4.63,3.86.94,2.24.13,4.17-1.72,5.12-4.09,2.12-8.32,4.02-12.62,5.67-2.71,1.05-3.64-.84-3.4-3.18.25-2.4,10.79-11.45,13.11-11.48h0Z"/>
        <path class="cls-9" d="m156.46,217.53c-6.02.15-11.98,1.8-18.04-.8-9.78-4.2-16.85-10.59-19.5-21.49,9.43,13.45,20.84,22.48,38.42,18.24-.16,1.38.06,2.84-.88,4.05Z"/>
        <path class="cls-9" d="m156.46,217.53c-6.02.15-11.98,1.8-18.04-.8-9.78-4.2-16.85-10.59-19.5-21.49,9.43,13.45,20.84,22.48,38.42,18.24-.16,1.38.06,2.84-.88,4.05Z"/>
        <path class="cls-7" d="m19.54,103.08c-.57,2.36-2.07,3.49-4.36,2.73-4.06-1.35-8.12-2.78-12.01-4.54-2.72-1.23-3.12-3.69-1.84-6.29,1.15-2.32,3.23-3.86,5.62-2.63,4.54,2.35,8.28,5.91,12.03,9.37.32.3.37.89.56,1.36h0Z"/>
        <path class="cls-7" d="m19.54,103.08c-.57,2.36-2.07,3.49-4.36,2.73-4.06-1.35-8.12-2.78-12.01-4.54-2.72-1.23-3.12-3.69-1.84-6.29,1.15-2.32,3.23-3.86,5.62-2.63,4.54,2.35,8.28,5.91,12.03,9.37.32.3.37.89.56,1.36h0Z"/>
        <path class="cls-7" d="m182.45,90.65c3.45-.24,5.67.99,5.77,4.28.11,3.52-2.04,5.1-5.47,4.73-2.96-.33-5.9-.81-8.83-1.32-1.88-.32-2.96-1.58-2.91-3.46.04-1.75,1.37-2.61,2.94-2.9,2.93-.53,5.88-.93,8.5-1.34h0Z"/>
        <path class="cls-7" d="m182.45,90.65c3.45-.24,5.67.99,5.77,4.28.11,3.52-2.04,5.1-5.47,4.73-2.96-.33-5.9-.81-8.83-1.32-1.88-.32-2.96-1.58-2.91-3.46.04-1.75,1.37-2.61,2.94-2.9,2.93-.53,5.88-.93,8.5-1.34h0Z"/>
        <path class="cls-7" d="m9.11,116.54c2.3.86,6.62-1.6,7.25,2.69.57,3.82-3.85,3.33-6.15,4.55-1.58.84-3.45,1.26-5.23,1.57-2.78.48-4.66-.87-4.94-3.62-.27-2.59.91-4.58,3.79-4.92,1.65-.19,3.33-.18,5.28-.27h0Z"/>
        <path class="cls-7" d="m9.11,116.54c2.3.86,6.62-1.6,7.25,2.69.57,3.82-3.85,3.33-6.15,4.55-1.58.84-3.45,1.26-5.23,1.57-2.78.48-4.66-.87-4.94-3.62-.27-2.59.91-4.58,3.79-4.92,1.65-.19,3.33-.18,5.28-.27h0Z"/>
        <path class="cls-7" d="m169.63,59.09c-.04,1.81-6.65,9.89-8.33,10.11-1.73.23-2.76-.88-2.33-2.32,1.14-3.8,2.64-7.52,5.07-10.7.86-1.13,2.41-1,3.69-.35,1.28.66,1.89,1.8,1.91,3.25h-.01Z"/>
        <path class="cls-7" d="m169.63,59.09c-.04,1.81-6.65,9.89-8.33,10.11-1.73.23-2.76-.88-2.33-2.32,1.14-3.8,2.64-7.52,5.07-10.7.86-1.13,2.41-1,3.69-.35,1.28.66,1.89,1.8,1.91,3.25h-.01Z"/>
        <path class="cls-8" d="m93.27,111.09c-.18,11.55-7.02,19.56-17.64,18.38-11.12-1.23-19.13-5.62-18.82-17.27.31-11.84,8.62-20.91,19.22-20.58,9.97.31,17.41,8.71,17.25,19.47h-.01Zm-4.55,1.47c.14-7.62-5.12-13.67-12.07-13.88-6.69-.2-12.06,5.54-12.24,13.09-.19,8.06,4.56,13.71,11.75,13.97,7.08.26,12.42-5.35,12.57-13.18h-.01,0Z"/>
        <path class="cls-8" d="m93.27,111.09c-.18,11.55-7.02,19.56-17.64,18.38-11.12-1.23-19.13-5.62-18.82-17.27.31-11.84,8.62-20.91,19.22-20.58,9.97.31,17.41,8.71,17.25,19.47h-.01Zm-4.55,1.47c.14-7.62-5.12-13.67-12.07-13.88-6.69-.2-12.06,5.54-12.24,13.09-.19,8.06,4.56,13.71,11.75,13.97,7.08.26,12.42-5.35,12.57-13.18h-.01,0Z"/>
        <path class="cls-2" d="m113.35,127.39c3.12,6.99,2.52,13.43-2.84,19.16-1.16-.02-2.32-.04-3.48-.06-5.22-4.87-11.84-7.07-18.26-9.68-1.04-.06-2.08-.13-3.12-.19.94-7.94,5.91-13.27,11.75-17.99,2.66-2.15,5.41-.16,8.11.09,1.68,1.61,3.36,3.22,5.03,4.83.93,1.28,1.87,2.56,2.8,3.84h.01Z"/>
        <path class="cls-2" d="m113.35,127.39c3.12,6.99,2.52,13.43-2.84,19.16-1.16-.02-2.32-.04-3.48-.06-5.22-4.87-11.84-7.07-18.26-9.68-1.04-.06-2.08-.13-3.12-.19.94-7.94,5.91-13.27,11.75-17.99,2.66-2.15,5.41-.16,8.11.09,1.68,1.61,3.36,3.22,5.03,4.83.93,1.28,1.87,2.56,2.8,3.84h.01Z"/>
        <path class="cls-9" d="m107.04,146.49c1.16.02,2.32.04,3.48.06-1.05,3.65-1.15,7.47-2.34,11.13-1.25,3.84-3.95,5.85-7.43,6.53-3.31.65-6.23-1.75-7.18-4.36-2.8-7.68-6.95-14.94-7.9-23.25,1.04.07,2.08.13,3.12.19.75,3.98,3.15,7.21,5.17,10.53,1.8,2.97,3.05,7.89,6.92,7.54,3.65-.34,4.56-5.18,6.18-8.38h-.02Z"/>
        <path class="cls-9" d="m107.04,146.49c1.16.02,2.32.04,3.48.06-1.05,3.65-1.15,7.47-2.34,11.13-1.25,3.84-3.95,5.85-7.43,6.53-3.31.65-6.23-1.75-7.18-4.36-2.8-7.68-6.95-14.94-7.9-23.25,1.04.07,2.08.13,3.12.19.75,3.98,3.15,7.21,5.17,10.53,1.8,2.97,3.05,7.89,6.92,7.54,3.65-.34,4.56-5.18,6.18-8.38h-.02Z"/>
        <path class="cls-8" d="m107.47,102.38c-.41.48-.83.95-1.24,1.43.04-.8.06-1.62,1.24-1.43Z"/>
        <path class="cls-8" d="m107.47,102.38c-.41.48-.83.95-1.24,1.43.04-.8.06-1.62,1.24-1.43Z"/>
        <path class="cls-4" d="m88.72,112.55c-.14,7.83-5.49,13.44-12.57,13.18-7.19-.26-11.94-5.91-11.75-13.97.18-7.56,5.55-13.3,12.24-13.09,6.95.21,12.21,6.26,12.07,13.88,0,0,.01,0,.01,0Zm-8.4-5.36c-.02-2.51-1.53-4.55-4.68-4.5-3.46.06-6.14,1.88-6.34,5.58-.16,2.98,1.64,5.08,4.78,5.15,3.64.08,5.85-1.83,6.24-6.23Zm3.07,9.55c-.39-1.41-1.22-2.41-2.74-2.32-1.83.11-2.51,1.38-2.35,3.06.12,1.3.87,2.11,2.26,2.04,1.75-.09,2.6-1.12,2.82-2.79h.01,0Zm50.62-5.8c-.14,7.83-5.49,13.44-12.57,13.18-7.19-.26-11.94-5.91-11.75-13.97.18-7.56,5.55-13.3,12.24-13.09,6.95.21,12.21,6.26,12.07,13.88,0,0,.01,0,.01,0Z"/>
        <path class="cls-4" d="m88.72,112.55c-.14,7.83-5.49,13.44-12.57,13.18-7.19-.26-11.94-5.91-11.75-13.97.18-7.56,5.55-13.3,12.24-13.09,6.95.21,12.21,6.26,12.07,13.88,0,0,.01,0,.01,0Zm-8.4-5.36c-.02-2.51-1.53-4.55-4.68-4.5-3.46.06-6.14,1.88-6.34,5.58-.16,2.98,1.64,5.08,4.78,5.15,3.64.08,5.85-1.83,6.24-6.23Zm3.07,9.55c-.39-1.41-1.22-2.41-2.74-2.32-1.83.11-2.51,1.38-2.35,3.06.12,1.3.87,2.11,2.26,2.04,1.75-.09,2.6-1.12,2.82-2.79h.01,0Zm50.62-5.8c-.14,7.83-5.49,13.44-12.57,13.18-7.19-.26-11.94-5.91-11.75-13.97.18-7.56,5.55-13.3,12.24-13.09,6.95.21,12.21,6.26,12.07,13.88,0,0,.01,0,.01,0Z"/>
        <path class="cls-5" d="m107.04,146.49c-1.62,3.21-2.52,8.05-6.18,8.38-3.87.36-5.12-4.57-6.92-7.54-2.02-3.32-4.41-6.55-5.17-10.53,6.42,2.61,13.05,4.81,18.26,9.68h.01Z"/>
        <path class="cls-5" d="m107.04,146.49c-1.62,3.21-2.52,8.05-6.18,8.38-3.87.36-5.12-4.57-6.92-7.54-2.02-3.32-4.41-6.55-5.17-10.53,6.42,2.61,13.05,4.81,18.26,9.68h.01Z"/>
        <path class="cls-1" d="m80.32,107.19c-.39,4.4-2.6,6.31-6.24,6.23-3.14-.07-4.94-2.17-4.78-5.15.2-3.7,2.88-5.52,6.34-5.58,3.15-.05,4.66,2,4.68,4.5Z"/>
        <path class="cls-1" d="m80.32,107.19c-.39,4.4-2.6,6.31-6.24,6.23-3.14-.07-4.94-2.17-4.78-5.15.2-3.7,2.88-5.52,6.34-5.58,3.15-.05,4.66,2,4.68,4.5Z"/>
        <path class="cls-1" d="m83.39,116.74c-.22,1.67-1.08,2.7-2.82,2.79-1.4.07-2.15-.74-2.26-2.04-.15-1.68.52-2.95,2.35-3.06,1.52-.09,2.35.9,2.74,2.32h-.01,0Z"/>
        <path class="cls-1" d="m83.39,116.74c-.22,1.67-1.08,2.7-2.82,2.79-1.4.07-2.15-.74-2.26-2.04-.15-1.68.52-2.95,2.35-3.06,1.52-.09,2.35.9,2.74,2.32h-.01,0Z"/>
        <path class="cls-1" d="m129.95,105.18c-.39,4.4-2.6,6.31-6.24,6.23-3.14-.07-4.94-2.17-4.78-5.15.2-3.7,2.88-5.52,6.34-5.58,3.15-.05,4.66,2,4.68,4.5Z"/>
        <path class="cls-1" d="m129.95,105.18c-.39,4.4-2.6,6.31-6.24,6.23-3.14-.07-4.94-2.17-4.78-5.15.2-3.7,2.88-5.52,6.34-5.58,3.15-.05,4.66,2,4.68,4.5Z"/>
        <path class="cls-1" d="m121.48,117.4c-.22,1.67-1.08,2.7-2.82,2.79-1.4.07-2.15-.74-2.26-2.04-.15-1.68.52-2.95,2.35-3.06,1.52-.09,2.35.9,2.74,2.32h-.01,0Z"/>
        <path class="cls-1" d="m121.48,117.4c-.22,1.67-1.08,2.7-2.82,2.79-1.4.07-2.15-.74-2.26-2.04-.15-1.68.52-2.95,2.35-3.06,1.52-.09,2.35.9,2.74,2.32h-.01,0Z"/>
      </g>
    </g>
  </g>
</svg>