<?xml version="1.0" encoding="UTF-8"?>
<svg id="Layer_2" data-name="Layer 2" xmlns="http://www.w3.org/2000/svg" viewBox="0 0 199.93 231.88">
  <defs>
    <style>
      .cls-1 {
        fill: #fb9106;
      }

      .cls-1, .cls-2, .cls-3, .cls-4, .cls-5, .cls-6, .cls-7, .cls-8, .cls-9 {
        stroke-width: 0px;
      }

      .cls-2 {
        fill: #faa009;
      }

      .cls-3 {
        fill: #f88806;
      }

      .cls-4 {
        fill: #2e2d2b;
      }

      .cls-5 {
        fill: #ad3a05;
      }

      .cls-6 {
        fill: #eb4527;
      }

      .cls-7 {
        fill: #fccd0a;
      }

      .cls-8 {
        fill: #fbf8f4;
      }

      .cls-9 {
        fill: #eb7404;
      }
    </style>
  </defs>
  <g id="Layer_1-2" data-name="Layer 1">
    <g id="Happy">
      <path class="cls-8" d="m13.09,171.94l-.08-.26c-3.39,2.48-5.54,5.7-4.76,10,.48,2.67-.26,4.8-1.31,7.11-5.49,11.99-7.8,24.54-6.64,37.73.27,3.04,1.23,5.24,4.65,5.21,6.12-.06,12.26.53,18.37-.33,2.01.46,4.01.46,6.01-.03.48.1.97.3,1.45.3,37.89.03,75.78.02,113.67.11,2.96,0,4.06-1.32,4.75-3.9,2.03-7.58,3.52-15.24,3.14-23.11-.15-3.19.96-4.99,3.96-5.76,19.82-4.6,41.08-28,43.49-47.87.3-2.43.15-5.28-2-6.3-3.21-1.52-1.7-3.23-1.06-5.1,2.01-5.9,3.31-11.86,1.17-18.02-2.05-5.92-7.16-7.61-12.19-3.94-1.8,1.31-3.34,2.98-5.27,4.73.11-5.25.47-10.09-1.67-14.59-2.93-6.16-9.79-7.02-14.22-1.83-1.99,2.33-2.88,5.22-4.03,7.98-3.54,8.57-6.17,17.59-12.19,24.94-.37-3.47-.68-6.95-1.11-10.42-1.31-10.37-1.8-20.88-5.64-30.81-5.69-14.73-16.13-24.93-30.02-31.91,1.54-1.74,3.18-3.42,4.61-5.25,7.42-9.45,12.8-19.8,13.97-32,1.62-16.96-10.88-30.22-27.23-28.46-10.02,1.08-16.39,7.35-20.81,15.99-3.05,5.96-4.2,12.48-5.44,19.08-14-8.22-26.26-3.24-29.52,11.51-1.81,8.18.39,15.41,4.56,22.3-1.22,1.11-2.37,2.32-3.69,3.3-11.61,8.62-18.43,20.25-21.83,34.13-2.14,8.75-2.76,17.71-4.01,26.59-1.75,12.41-1.27,25.33-7.97,36.67-.75.54-1.49,1.09-1.13,2.2h.02Z"/>
      <path class="cls-7" d="m14.23,169.74c6.69-11.35,6.21-24.26,7.97-36.67,1.25-8.88,1.87-17.84,4.01-26.59,3.4-13.89,10.22-25.52,21.83-34.13,1.32-.98,2.46-2.19,3.69-3.3,1.62.22,2.86-.73,4.19-1.39,9.08-4.55,18.62-6.7,28.85-6.78,9.35-.07,18.01,2.66,26.81,5,13.89,6.98,24.33,17.17,30.02,31.91,3.84,9.93,4.33,20.44,5.64,30.81.44,3.46.75,6.95,1.11,10.42.4,10.14,1.53,20.05,6.04,29.42,4.96,10.29,4.31,12.87-3.12,19.42-5.73.86-10.64-1.18-14.98-4.6-1.38,1.4-.81,2.82-1.02,4.07-1.56,9.04-7.47,13.81-15.94,12.62-4.47-.63-8.22-2.87-10.71-6.6-2.08-3.11-3.09-2.12-4.21.5-.33.76-.72,1.5-1.1,2.23-5.56,10.63-19.83,11.77-27.41,2.37-1.98-2.45-3.16-5.29-4.8-8.12-1.19,1.41-2.35,2.43-3.08,3.69-3.54,6.13-12.47,8.26-18.45,6.56-7.01-1.99-11.02-6.48-11.27-13.94-.09-2.77-1.15-2.63-3.02-1.26-1.87,1.36-3.82,2.65-6.14,3.19-12.65,2.96-19.92-4.26-16-13.97.33-.83-.06-1.95-.11-2.94,0,0,.08.26.08.25,1.09-.37,1.15-1.26,1.13-2.2v.03Zm88.33-15.84l-.04-.22c.66-3.19,1.32-6.39,1.98-9.58,1.66-.03,3.32-.06,4.97-.1,5.58-.15,6.98-2.36,4.21-7.15-3.64-6.29-9.16-10.79-15.23-14.54-1.88-1.16-4.39-2.08-6.67-.91-6.87,3.51-11.86,8.66-13.54,16.48-1.06,4.52,1.79,8.5,1.79,12.87-2.29,5.74-4.24,11.57-3.69,17.88.3,3.5,1.61,6.57,5.18,7.89,3.34,1.23,6.63.99,9.2-1.79,1.19-1.29,1.98-2.07,3.53-.42,2.56,2.74,5.75,3.55,9.03,1.54,3.31-2.03,4.26-5.47,3.95-9.13-.36-4.18-1.79-8.09-3.76-11.8-.3-.34-.6-.68-.9-1.03h-.01Zm-35.12-45.09c-6.08-.07-12.56,5.95-12.81,11.87-.05,1.09.1,2.11,1.22,2.44,1.45.43,2.09-.52,2.42-1.8.25-.96.45-1.97.89-2.84,1.68-3.3,4.05-5.62,8.09-5.66,4.12-.04,6.39,2.33,7.91,5.76.54,1.21.88,2.51,1.41,3.73.36.83,1.14,1.28,2.03,1.06,1.11-.27,1.48-1.09,1.46-2.26-.08-5.48-6.98-12.25-12.62-12.31h0Zm36.87,11.52c.02,1.1-.47,2.54,1.18,2.81,1.57.26,1.78-1.11,2.12-2.22.24-.79.44-1.62.84-2.34,1.66-2.98,3.61-5.69,7.54-5.55,4.05.14,6.24,2.64,7.5,6.2.28.78.53,1.57.75,2.37.29,1.07.83,1.83,2.06,1.63,1.29-.21,1.34-1.21,1.36-2.27.08-5.54-5.88-11.8-11.42-11.96-5.59-.16-11.58,5.52-11.93,11.31v.02Z"/>
      <path class="cls-3" d="m13.02,171.68c.06.99.45,2.11.11,2.94-3.92,9.71,3.35,16.93,16,13.97,2.32-.54,4.27-1.83,6.14-3.19,1.88-1.37,2.93-1.51,3.02,1.26.25,7.46,4.25,11.94,11.27,13.94,5.98,1.7,14.91-.43,18.45-6.56.73-1.26,1.88-2.28,3.08-3.69,1.64,2.82,2.82,5.67,4.8,8.12,7.58,9.4,21.85,8.26,27.41-2.37.39-.74.78-1.47,1.1-2.23,1.12-2.63,2.13-3.62,4.21-.5,2.49,3.74,6.24,5.98,10.71,6.6,8.47,1.19,14.38-3.58,15.94-12.62.22-1.25-.36-2.67,1.02-4.07,4.34,3.42,9.25,5.45,14.98,4.6-.02,4.48-.22,9.04,5.03,11.14-3,.77-4.11,2.57-3.96,5.76.38,7.87-1.1,15.53-3.14,23.11-.69,2.58-1.79,3.91-4.75,3.9-37.89-.1-75.78-.08-113.67-.11-.48,0-.97-.19-1.45-.3,0-6.46.03-12.93-.04-19.39-.02-1.34.71-3.43-1.44-3.62-1.88-.17-1.48,1.88-1.75,3.03-1.54,6.58-3.06,13.17-2.78,20.01-6.11.85-12.24.27-18.37.33-3.41.03-4.38-2.17-4.65-5.21-1.16-13.18,1.16-25.74,6.64-37.73,1.06-2.31,1.8-4.44,1.31-7.11-.78-4.3,1.36-7.52,4.76-10h.02Z"/>
      <path class="cls-6" d="m111.57,65.88c-8.81-2.34-17.46-5.08-26.81-5-10.23.08-19.77,2.23-28.85,6.78-1.32.66-2.57,1.61-4.19,1.39-4.18-6.89-6.37-14.12-4.56-22.3,3.26-14.76,15.52-19.74,29.52-11.51,1.24-6.6,2.39-13.12,5.44-19.08C86.54,7.53,92.91,1.25,102.93.17c16.35-1.76,28.84,11.5,27.23,28.46-1.16,12.21-6.55,22.55-13.97,32-1.44,1.83-3.07,3.5-4.61,5.25h-.01Z"/>
      <path class="cls-1" d="m156.3,199c-5.25-2.1-5.05-6.66-5.03-11.14,7.43-6.55,8.08-9.13,3.12-19.42-4.52-9.37-5.65-19.29-6.04-29.42,6.02-7.36,8.65-16.37,12.19-24.94,1.14-2.77,2.04-5.65,4.03-7.98,4.44-5.2,11.29-4.34,14.22,1.83,2.14,4.5,1.78,9.34,1.67,14.59,1.92-1.75,3.47-3.41,5.27-4.73,5.03-3.68,10.14-1.98,12.19,3.94,2.14,6.17.84,12.12-1.17,18.02-.64,1.87-2.14,3.58,1.06,5.1,2.15,1.02,2.3,3.86,2,6.3-2.41,19.87-23.67,43.27-43.49,47.87l-.02-.02Z"/>
      <path class="cls-9" d="m23.31,231.4c-.28-6.84,1.23-13.43,2.78-20.01.27-1.15-.14-3.2,1.75-3.03,2.16.19,1.43,2.28,1.44,3.62.08,6.46.04,12.93.04,19.39-2,.49-4.01.49-6.01.03Z"/>
      <path class="cls-3" d="m14.23,169.74c.02.94-.05,1.83-1.13,2.2-.36-1.11.38-1.66,1.13-2.2Z"/>
      <path class="cls-6" d="m103.46,154.92c1.97,3.71,3.4,7.62,3.76,11.8.32,3.67-.64,7.1-3.95,9.13-3.28,2.02-6.47,1.2-9.03-1.54-1.54-1.65-2.34-.87-3.53.42-2.57,2.78-5.86,3.02-9.2,1.79-3.57-1.32-4.87-4.39-5.18-7.89-.55-6.31,1.4-12.14,3.69-17.88,2.51.34,3.17,2.78,4.7,4.21,5.45,5.08,8.91,5.2,14.14.1,1.07-1.04,2.4-1.04,3.65-1.39l.04.22c.3.34.6.68.9,1.03h.01Z"/>
      <path class="cls-2" d="m78.24,137.88c1.68-7.82,6.67-12.97,13.54-16.48,2.28-1.16,4.79-.25,6.67.91,6.07,3.75,11.59,8.24,15.23,14.54,2.77,4.79,1.37,6.99-4.21,7.15-1.66.05-3.32.07-4.98.1-.81-1.11-1.98-1.11-3.17-1.05-6.86-.54-13.35-2.83-20.02-4.29-.84-.91-2-.73-3.06-.88h0Z"/>
      <path class="cls-9" d="m101.32,143.05c1.19-.07,2.37-.07,3.17,1.05-.66,3.19-1.32,6.39-1.97,9.58-1.25.35-2.58.35-3.65,1.39-5.23,5.1-8.69,4.98-14.14-.1-1.53-1.43-2.2-3.87-4.7-4.21,0-4.38-2.86-8.35-1.79-12.88,1.06.14,2.22-.03,3.06.88.4,3.39,1.7,6.35,4.01,8.91,2.79,3.09,4.65,8.57,9.74,6.95,4.85-1.54,5.51-6.95,6.27-11.57Z"/>
      <path class="cls-4" d="m67.44,108.81c5.64.06,12.54,6.84,12.62,12.31.02,1.17-.35,1.98-1.46,2.26-.89.22-1.67-.23-2.03-1.06-.54-1.21-.88-2.51-1.41-3.73-1.52-3.43-3.78-5.8-7.91-5.76-4.04.04-6.41,2.36-8.09,5.66-.44.87-.64,1.88-.89,2.84-.33,1.28-.97,2.23-2.42,1.8-1.11-.33-1.26-1.35-1.22-2.44.26-5.92,6.73-11.94,12.81-11.87h0Z"/>
      <path class="cls-4" d="m104.32,120.33c.35-5.79,6.33-11.47,11.93-11.31,5.53.16,11.49,6.42,11.42,11.96-.01,1.06-.07,2.05-1.36,2.27-1.23.2-1.77-.57-2.06-1.63-.22-.8-.48-1.59-.75-2.37-1.26-3.56-3.45-6.06-7.5-6.2-3.93-.14-5.88,2.56-7.54,5.55-.4.71-.6,1.54-.84,2.34-.34,1.11-.55,2.48-2.12,2.22-1.65-.27-1.16-1.71-1.18-2.81v-.02Z"/>
      <path class="cls-9" d="m103.46,154.92c-.3-.34-.6-.68-.9-1.03.3.34.6.68.9,1.03Z"/>
      <path class="cls-5" d="m101.32,143.05c-.75,4.62-1.41,10.03-6.27,11.57-5.09,1.62-6.95-3.87-9.74-6.95-2.31-2.56-3.61-5.52-4.01-8.91,6.67,1.46,13.16,3.75,20.02,4.29Z"/>
    </g>
  </g>
</svg>