<?xml version="1.0" encoding="utf-8"?>
<!-- Generator: Adobe Illustrator 28.0.0, SVG Export Plug-In . SVG Version: 6.00 Build 0)  -->
<svg version="1.1" id="Layer_2_00000119088225790853522040000003474484997255050388_"
	 xmlns="http://www.w3.org/2000/svg" xmlns:xlink="http://www.w3.org/1999/xlink" x="0px" y="0px" viewBox="0 0 187.1 293.8"
	 style="enable-background:new 0 0 187.1 293.8;" xml:space="preserve">
<style type="text/css">
	.st0{fill:#FBF8F4;}
	.st1{fill:#F88806;}
	.st2{fill:#FCCD0A;}
	.st3{fill:#EB4527;}
	.st4{fill:#F2E9DB;}
	.st5{fill:#FAA009;}
	.st6{fill:#EB7404;}
	.st7{fill:#2E2D2B;}
	.st8{fill:#AD3A05;}
</style>
<g id="Layer_1-2">
	<g id="Jump">
		<path class="st0" d="M59.9,203.7c2.3-0.7,5-0.2,6.8-2.3c0.7-0.1,1.3-0.4,2-0.3c14.5,2.3,28.5,0.5,42.1-5.1c3.2-1.3,7.4-1.9,10.8,1
			c0.9,2.5,5.8,2.9,3.5,7.1c-1.3,2.4-1.5,5.4,1.7,6.8c3.1,1.4,5.8-0.2,7.1-2.9c2.2-4.4,5.9-6.6,9.9-8.6c1.8-0.9,3.4-2.1,4.9-3.4
			c1.9-1.7,2.5-3.9,1.5-6.3c-0.9-2.3-3-2.9-5.3-3.1c-4.2-0.3-7.4,1.8-10,4.7c-2.4,2.8-4.4,3-6.7,0.1c-0.6-0.8-1.6-1.2-2.3-1.8
			c-0.1-2.1-0.2-4,1.7-5.9c6.9-6.5,11.7-14.4,14.5-23.5c0.8-2.6,2.2-3.5,4.8-4.1c8.6-1.9,16-5.9,22.9-11.6
			c8.6-7.1,11.1-17.6,16.5-26.4c1.3-2.1,1.6-5.5-0.4-7.1c-2.9-2.3-1.8-4.2-0.8-6.7c1.8-4.5,2.4-9.3-1.7-12.9
			c-4.1-3.6-8.5-1.7-12.5,0.5c-9,4.9-16.8,11.3-24.1,18.4c-2.4-5.7-2.2-11.9-2.8-17.9c-2.3-23.7-11.4-42.2-36.2-49.3
			c0.9-3.2,2.1-6.3,2.7-9.6c2-11.5,0.9-22.3-9.2-30.1c-9.7-7.5-24.3-2.7-25,10.2c-0.1,2.5,0.7,4.9,0.1,7.4c-7-3.8-11.1-4.2-15.4-1.4
			c-4.8,3.2-7,7.9-6.9,13.6c0,3.2,1.2,6.1,2.5,9c0.4,0.8,1.6,1.6-0.3,2.7c-9.2,5.4-10.6,11.7-5,20.2c-5.6,12.8-5.5,26.8-8.9,40.1
			c-2.2-0.8-3.2-2.9-4.5-4.5c-5.7-7.2-11.6-14.3-19.6-19c-3.8-2.2-8-4.1-12.1-0.8C2.2,84.4,1.9,89,3.3,93.8c0.7,2.5,1.8,4.8,2.7,7.3
			c-5.1,1.6-6.7,4.3-5.6,10.5c1.6,9.1,5.8,16.9,11.6,23.9c1.1,1.4,3.1,2.4,2.7,4.5c-1.6,7.4,2.2,12.9,6.3,18.2
			c1.4,1.9,2.8,3.7,3.5,6c4.4,14.5,13.8,24.8,27.5,31.2c-0.1,1.5,0.3,2.8,1.2,4c-1,1.5-1.2,4.2-3.9,3.1c-6.3-2.6-8.3-1.2-7.4,5.7
			c0.5,3.8,0.5,7.2-1.4,10.5c-2.5,4.3-6.9,8.1,1.1,12.1c3,1.5,4.6,1.7,6.8,0.1c2.3-1.8,3.8-4.5,4.1-7.2
			C53,216.4,55.1,209.6,59.9,203.7L59.9,203.7L59.9,203.7z"/>
		<path class="st0" d="M89.4,266.5c14.2,0.5,29.4-0.7,44.4-4c3.1-0.7,7.2-1.4,7.3-4.8c0.1-3.6-4.2-4.3-7.1-5.1
			c-12.7-3.4-25.8-4.5-38.8-5c-9.3-0.3-18.6-0.2-27.9,0.8c-9.7,1-19.4,2.2-28.8,5.1c-2.2,0.7-5.2,1.4-5.2,3.9c0,3,3.1,4,5.7,4.7
			c0.8,0.2,1.6,0.3,2.4,0.5C56.8,266.1,72.5,266.8,89.4,266.5L89.4,266.5L89.4,266.5z"/>
		<path class="st1" d="M51.8,195.6c-13.6-6.5-23-16.7-27.5-31.2c-0.7-2.3-2-4.1-3.5-6c-4-5.4-7.9-10.8-6.3-18.2
			c0.5-2.1-1.5-3.2-2.7-4.5c-5.9-7-10.1-14.9-11.6-23.9c-1.1-6.2,0.5-9,5.6-10.5C5,98.7,4,96.3,3.2,93.9c-1.4-4.8-1.1-9.4,3.1-12.8
			c4.1-3.3,8.4-1.4,12.1,0.8c8,4.8,13.9,11.8,19.6,19c1.3,1.7,2.2,3.8,4.5,4.5c0.3,0.8,0.3,1.8,0.9,2.3c6.2,5.6,4.4,11.2,0.7,17.5
			c-3.4,5.7,0.2,10.9,6.8,11.4c4,0.3,7.1-1.9,10.5-3.4c1.5,9.5,5.4,12.6,14.5,12.4c4-0.1,7.1-2.1,9.6-4.7c2.5-2.5,3.3-1.9,4.9,0.9
			c5.6,9.8,16.3,10.2,22.5,0.9c1.8-2.7,2.5-2.9,5-0.7c6.9,6.2,14,4.2,16.8-4.6c0.7-2.1,1.2-3.5,3.7-1.8c3.6,2.4,7.4,2.7,10.5-0.4
			c3.1-3.1,2.3-7.1,0.7-10.7c-2-4.5-3.6-9-3-13.9c7.2-7.2,15.1-13.6,24.1-18.4c4-2.2,8.4-4.1,12.5-0.5c4.1,3.6,3.5,8.4,1.7,12.9
			c-1,2.5-2.1,4.3,0.8,6.7c2,1.6,1.6,5,0.4,7.1c-5.4,8.8-8,19.4-16.5,26.4c-6.8,5.6-14.3,9.7-22.9,11.6c-2.6,0.6-4,1.5-4.8,4.1
			c-2.8,9.1-7.6,17-14.5,23.5c-1.9,1.8-1.8,3.7-1.7,5.9c-0.3,3.1-5.1,3.6-4.2,7.3c-3.4-2.9-7.6-2.3-10.8-1
			c-13.6,5.6-27.6,7.4-42.1,5.1c-0.6-0.1-1.3,0.2-2,0.3C62,198.7,56.8,197.3,51.8,195.6L51.8,195.6L51.8,195.6z"/>
		<path class="st2" d="M146.6,110.5c-0.6,5,1,9.5,3,13.9c1.6,3.7,2.4,7.6-0.7,10.7c-3.1,3.1-7,2.8-10.5,0.4c-2.5-1.7-3-0.3-3.7,1.8
			c-2.8,8.8-9.9,10.8-16.8,4.6c-2.5-2.2-3.2-2-5,0.7c-6.2,9.3-16.9,8.9-22.5-0.9c-1.6-2.8-2.4-3.3-4.9-0.9c-2.6,2.6-5.6,4.6-9.6,4.7
			c-9.1,0.2-13.1-2.9-14.5-12.4c-3.4,1.5-6.5,3.7-10.5,3.4c-6.6-0.5-10.2-5.8-6.8-11.4c3.7-6.3,5.5-11.8-0.7-17.5
			c-0.5-0.5-0.6-1.5-0.9-2.3c3.4-13.3,3.3-27.3,8.9-40.1c6.8-11.3,16.1-19.3,29.2-22.2c9.1-2,18.1-1.7,27.1,0.1
			c24.8,7.1,33.9,25.6,36.1,49.3C144.4,98.6,144.2,104.8,146.6,110.5L146.6,110.5L146.6,110.5z M96.4,110.3c-2.1,4.1-3,8.4-2.8,13
			c0.1,2.8,0.9,5.3,3.7,6.6c2.8,1.3,5.2,0.8,7.2-1.4c1-1,1.8-2,3.1-0.4c1.8,2.1,4.1,2.9,6.7,1.2c2.8-1.9,3.7-4.7,3-7.8
			c-0.5-2.4-0.8-4.9-2.3-7.1c0-1.6-0.1-3.1-0.1-4.7c0.9-2.7,2.3-4.6,5.7-4.1c2,0.2,4.2-0.1,4.9-2.4c0.7-2.2-0.5-3.8-2.1-5.2
			c-1.9-1.8-4-3.6-5.6-5.7c-0.7-0.9-3.6-0.7-1.8-3.1c0.4-0.5,1-1,1.2-1.6c1-3.1,2.2-6.1,6.1-6.2c3.8-0.2,4.9,2.7,6,5.6
			c0.4,1.2,1,2.3,2.4,1.8c1.5-0.5,1.1-1.8,0.9-2.9c-0.8-4.7-4.9-8.4-9.2-8.2c-5.2,0.2-8.7,4.3-9.2,10.9c-9.9-2.3-15.9,1.6-18.7,12
			C93.5,103.9,96.5,107,96.4,110.3L96.4,110.3L96.4,110.3z M86.2,77.5c-4.4,0-9,3.5-10.1,8.1c-0.3,1.3-1.3,3.2,0.8,3.8
			c1.8,0.5,1.9-1.4,2.4-2.5c1.4-2.9,3-5.7,6.8-5.7c2.8,0,4.7,1.4,6,3.7c0.5,0.9,0.9,1.8,1.3,2.7c0.5,1.1,0.8,2.4,2.4,1.7
			c1.1-0.5,0.9-1.6,0.8-2.6C96,82.1,90.9,77.6,86.2,77.5L86.2,77.5L86.2,77.5z"/>
		<path class="st3" d="M107.7,43.3c-9-1.8-18.1-2.1-27.1-0.1c-13.2,2.9-22.5,10.9-29.2,22.2c-5.7-8.5-4.2-14.8,5-20.2
			c1.9-1.1,0.6-1.9,0.3-2.7c-1.3-2.9-2.5-5.8-2.5-9C54,27.7,56.1,23,61,19.8c4.3-2.8,8.4-2.4,15.4,1.4c0.6-2.5-0.2-4.9-0.1-7.4
			c0.7-12.9,15.3-17.7,25-10.2c10.1,7.8,11.2,18.6,9.2,30.1C109.9,37,108.6,40.1,107.7,43.3L107.7,43.3L107.7,43.3z"/>
		<path class="st4" d="M89.4,266.5c-16.9,0.2-32.6-0.4-48-4c-0.8-0.2-1.6-0.2-2.4-0.5c-2.6-0.8-5.7-1.7-5.7-4.7c0-2.5,3-3.2,5.2-3.9
			c9.4-2.8,19-4,28.8-5.1c9.3-1,18.6-1.1,27.9-0.8c13.1,0.4,26.1,1.6,38.8,5c2.9,0.8,7.2,1.5,7.1,5.1c-0.1,3.5-4.2,4.2-7.3,4.8
			C118.8,265.8,103.6,267.1,89.4,266.5L89.4,266.5L89.4,266.5z"/>
		<path class="st5" d="M59.9,203.7c-4.8,5.9-6.8,12.7-7.7,20.1c-0.3,2.7-1.7,5.4-4.1,7.2c-2.2,1.7-3.8,1.4-6.8-0.1
			c-8-4-3.6-7.9-1.1-12.1c1.9-3.3,2-6.8,1.4-10.5c-1-7,1.1-8.3,7.4-5.7c2.7,1.1,2.9-1.6,3.9-3.1C54.8,201.7,57.4,202.7,59.9,203.7
			L59.9,203.7L59.9,203.7z"/>
		<path class="st5" d="M121.5,197.1c-0.9-3.7,3.9-4.2,4.2-7.3c0.8,0.6,1.8,1,2.3,1.8c2.3,2.9,4.2,2.7,6.7-0.1c2.6-2.9,5.8-5,10-4.7
			c2.2,0.1,4.3,0.8,5.3,3.1c1,2.4,0.4,4.6-1.5,6.3c-1.5,1.3-3.1,2.5-4.9,3.4c-4,2.1-7.7,4.3-9.9,8.6c-1.3,2.6-3.9,4.3-7.1,2.9
			c-3.2-1.4-2.9-4.4-1.7-6.8C127.2,199.9,122.4,199.5,121.5,197.1L121.5,197.1L121.5,197.1z"/>
		<path class="st6" d="M59.9,203.7c-2.5-1-5-2.1-6.9-4.2c-0.8-1.2-1.2-2.5-1.2-4c5,1.7,10.2,3.1,14.9,5.9
			C64.8,203.5,62.1,203,59.9,203.7z"/>
		<path class="st5" d="M95.6,100.4c2.7-10.4,8.8-14.3,18.7-12c0.6,0.2,1.2,0.4,1.8,0.7c-1.7,2.3,1.2,2.2,1.8,3.1
			c1.6,2.1,3.6,3.9,5.6,5.7c1.5,1.4,2.7,3.1,2.1,5.2c-0.7,2.4-2.9,2.7-4.9,2.4c-3.4-0.4-4.8,1.4-5.7,4.1c-0.4-0.4-0.9-0.8-1.3-1.2
			c0.5-2.5-0.1-4-2.9-4.4c-4.4-0.6-8.7-1.7-13.1-2.5C96.9,101.2,96.3,100.8,95.6,100.4L95.6,100.4L95.6,100.4z"/>
		<path class="st3" d="M115,114.3c1.5,2.1,1.8,4.7,2.3,7.1c0.7,3.2-0.2,6-3,7.9c-2.5,1.7-4.8,0.9-6.7-1.2c-1.4-1.6-2.2-0.6-3.1,0.4
			c-2.1,2.2-4.5,2.8-7.2,1.4s-3.6-3.8-3.7-6.6c-0.2-4.6,0.7-8.9,2.8-13c1.2,1.3,2.4,2.6,3.5,4c3,3.8,6.8,4.3,10.9,2.4
			C112.3,116,113.3,114.5,115,114.3L115,114.3L115,114.3z"/>
		<path class="st6" d="M115,114.3c-1.8,0.1-2.8,1.7-4.2,2.3c-4.1,1.9-7.9,1.4-10.9-2.4c-1.1-1.4-2.3-2.7-3.5-4
			c0.1-3.3-2.9-6.4-0.8-9.8c0.6,0.4,1.3,0.7,1.9,1.1c0.2,3,1.1,6.4,4,6.7c3.9,0.4,6.5,1.9,8.2,5.3c1.5-1.9,2.7-3.5,3.8-5
			c0.4,0.4,0.9,0.8,1.3,1.2C115,111.2,115,112.8,115,114.3L115,114.3L115,114.3z"/>
		<path class="st7" d="M86.2,77.5c4.7,0.1,9.8,4.5,10.4,9.2c0.1,1,0.3,2.1-0.8,2.6c-1.6,0.7-1.9-0.6-2.4-1.7
			c-0.4-0.9-0.8-1.8-1.3-2.7c-1.3-2.3-3.3-3.7-6-3.7c-3.8,0.1-5.3,2.8-6.8,5.7c-0.5,1.1-0.6,3-2.4,2.5c-2.1-0.6-1.2-2.5-0.8-3.8
			C77.2,81.1,81.7,77.5,86.2,77.5L86.2,77.5L86.2,77.5z"/>
		<path class="st7" d="M116.1,89.1c-0.6-0.2-1.2-0.4-1.8-0.7c0.5-6.6,4-10.7,9.2-10.9c4.3-0.2,8.4,3.5,9.2,8.2
			c0.2,1.1,0.6,2.4-0.9,2.9c-1.5,0.5-2-0.6-2.4-1.8c-1.1-2.9-2.2-5.7-6-5.6c-3.9,0.2-5.1,3.1-6.1,6.2
			C117.1,88.1,116.5,88.6,116.1,89.1L116.1,89.1L116.1,89.1z"/>
		<path class="st8" d="M113.6,108.5c-1.2,1.5-2.3,3.1-3.8,5c-1.8-3.4-4.3-5-8.2-5.3c-2.8-0.3-3.8-3.7-4-6.7
			c4.4,0.9,8.7,1.9,13.1,2.5C113.6,104.5,114.1,106,113.6,108.5C113.6,108.5,113.6,108.5,113.6,108.5z"/>
	</g>
</g>
</svg>
