<?xml version="1.0" encoding="utf-8"?>
<!-- Generator: Adobe Illustrator 28.0.0, SVG Export Plug-In . SVG Version: 6.00 Build 0)  -->
<svg version="1.1" id="Layer_2_00000149352610932793430920000007985566428007441560_"
	 xmlns="http://www.w3.org/2000/svg" xmlns:xlink="http://www.w3.org/1999/xlink" x="0px" y="0px" viewBox="0 0 207.7 236.5"
	 style="enable-background:new 0 0 207.7 236.5;" xml:space="preserve">
<style type="text/css">
	.st0{fill:#FBF8F4;}
	.st1{fill:#FCCD0A;}
	.st2{fill:#F88806;}
	.st3{fill:#EB4527;}
	.st4{fill:#FAA009;}
	.st5{fill:#EB7404;}
	.st6{fill:#2E2D2B;}
	.st7{fill:#AD3A05;}
</style>
<g id="Layer_1-2">
	<g id="Laughing">
		<path class="st0" d="M66.7,59.8c-0.3,1.3-1.5,1.7-2.3,2.5C56.2,69.9,50.9,79.1,48.5,90c-2.7,12.4-3.5,25-5,37.5
			c-1.8-0.7-2-2.6-2.8-3.9c-4.3-6.9-7.7-14.4-13.5-20.3c-2.8-2.9-6.1-4.8-10.3-3.5c-4.5,1.4-5.9,5.2-6.3,9.3
			c-0.3,3.2-0.1,6.6-0.1,9.9c-7.1-1.7-9-0.4-10.1,6.5c-0.3,1.8-0.6,3.7-0.4,5.4c2,21.8,11.4,39.1,31.5,49.3c2.1,1.1,2.8,1.9,2.4,4.4
			c-0.8,5.6-1.9,11.2-1.1,16.9c0.4,2.7,1.3,3.9,4.4,3.9c39.6-0.1,79.3-0.1,118.9-0.1c3,0,4-1.1,4.6-3.9c1.4-6,2.6-12.1,2.6-18.3
			c0-2.2,0.6-3.3,2.8-3.9c23.6-6.2,33.1-25.2,40.8-45.6c0.1-0.2,0.1-0.3,0.2-0.5c1.4-6.7-0.1-9.2-6.9-10.8c1.3-3.1,2.7-6.1,3.1-9.4
			c1.1-9-5.6-14.1-13.8-10.6c-3.1,1.3-5.7,3.3-8.2,5.6c-7.2,6.5-13.5,13.8-19.8,21.1c-2.2-6.5-2.1-13.3-3-20
			c-1.5-11.2-3.1-22.4-8.5-32.7c-7.3-13.8-19.3-21.6-33.8-26.1c1.1-3.3,2.5-6.6,3.1-10c2.3-12.1,2.4-23.9-6.4-33.9
			c-5.4-6.1-14.1-8.3-21.4-5.6c-6.9,2.6-10.9,9.3-10.7,18c0.1,2.4,0.3,4.8,0.6,7.4c-14.7-8.5-23.3,2.2-23.6,13.3
			C57.6,47.8,61.3,54.3,66.7,59.8L66.7,59.8L66.7,59.8z"/>
		<path class="st1" d="M43.6,127.6c1.4-12.5,2.3-25.2,5-37.5c2.3-10.9,7.6-20.1,15.8-27.7c0.8-0.8,2-1.2,2.3-2.5
			c4.5-2,8.5-5.1,13.3-6.8c11.9-4.2,24.1-4.2,36.3-2.5c14.5,4.5,26.5,12.3,33.8,26.1c5.4,10.2,7,21.4,8.5,32.7
			c0.9,6.7,0.8,13.5,3,20c-0.8,7.3,2.4,13.6,5.1,20c2.7,6.2,2.5,10.1-0.9,13.3c-3.4,3.1-8.1,3.6-13.4,0.4c-3.5-2.1-3.7-0.9-3.8,2.2
			c-0.2,8.2-10,14.5-17.8,10.3c-3.3-1.8-5.7-4.3-8.4-7.3c-2.7,7.3-6.4,12.6-14.4,13.1c-9.8,0.6-14.6-5.7-18.6-13.2
			c-2,1.8-3.8,3.7-5.9,5.2c-9.4,6.8-17.9,4.8-23.1-5.6c-1.3-2.6-2.4-1.1-3.7-0.4c-1.7,0.9-3.5,1.7-5.1,0.2c-1.6-1.5-0.3-3.4,0.5-4.6
			c4.3-6.9,2.3-13.3-0.9-19.8C48.5,138,45.3,133.1,43.6,127.6C43.6,127.6,43.6,127.6,43.6,127.6z M99.6,132.3c-2,5.1-3.3,10.4-3,16
			c0.2,3.4,1.5,6.3,4.7,7.6c2.9,1.2,5.9,0.8,8.1-1.8c1.4-1.7,2.4-1.6,4-0.1c2.1,2,4.6,2.5,7.3,1.2c2.8-1.4,3.9-3.9,4-6.9
			c0.1-4.2-1.1-8.1-2.9-11.9c-1-4.4,2.7-7.8,2.8-11.9c1.7,0,3.3,0,5,0c5-0.1,6.5-2.7,4.1-7c-0.7-1.3-1.8-2.4-2.9-3.4
			c-3.2-3.2-6.6-6.3-9.8-9.5c3.8,1.7,3.6-1.8,4.4-3.6c2.9-5.7,7.5-7.2,11.5-3.7c1.6,1.4,2.4,3.1,2.9,5.1c0.4,1.5,0.8,3.3,2.8,2.5
			c2-0.7,1.2-2.4,0.8-3.9c-1.7-5.9-6.7-10-11.9-9.6c-5.8,0.5-10.3,5.8-10.7,13c-11.3-3-20,2.8-22.2,14.9
			C97.2,123.8,101.1,127.9,99.6,132.3L99.6,132.3L99.6,132.3z M88.3,91.2c-6-0.1-12.1,5.4-12.6,11.3c-0.1,1-0.1,2.1,1,2.5
			c1.2,0.5,1.9-0.4,2.3-1.3c0.4-0.9,0.7-1.9,1.1-2.8c1.6-3.4,4-5.7,8-5.8c4-0.1,6.4,2.4,8,5.7c0.5,1,0.9,2.2,1.3,3.2
			c0.5,1,1.3,1.6,2.4,1.1c1.1-0.4,1.1-1.4,1-2.5C100.3,97.1,94.1,91.3,88.3,91.2L88.3,91.2L88.3,91.2z"/>
		<path class="st2" d="M43.6,127.6c1.8,5.6,5,10.4,7.5,15.6c3.2,6.5,5.3,12.9,0.9,19.8c-0.7,1.2-2.1,3-0.5,4.6
			c1.6,1.5,3.4,0.7,5.1-0.2c1.4-0.7,2.4-2.2,3.7,0.4c5.3,10.4,13.7,12.4,23.1,5.6c2.1-1.5,3.9-3.4,5.9-5.2
			c3.9,7.6,8.8,13.9,18.6,13.2c8-0.5,11.8-5.9,14.4-13.1c2.7,3,5.1,5.6,8.4,7.3c7.9,4.2,17.6-2,17.8-10.3c0.1-3.1,0.3-4.4,3.8-2.2
			c5.3,3.2,10,2.8,13.4-0.4c3.5-3.2,3.6-7.1,0.9-13.3c-2.8-6.4-6-12.7-5.1-20c6.3-7.3,12.6-14.6,19.8-21.1c2.5-2.2,5.1-4.2,8.2-5.6
			c8.2-3.6,14.9,1.6,13.8,10.6c-0.4,3.3-1.8,6.4-3.1,9.4c6.7,1.6,8.2,4.1,6.9,10.8c0,0.2-0.1,0.3-0.2,0.5
			c-7.7,20.5-17.2,39.4-40.8,45.6c-2.2,0.6-2.8,1.7-2.8,3.9c0,6.2-1.2,12.2-2.6,18.3c-0.6,2.7-1.7,3.9-4.6,3.9
			c-39.7-0.1-79.3-0.1-118.9,0.1c-3.1,0-4-1.2-4.4-3.9c-0.8-5.7,0.3-11.3,1.1-16.9c0.4-2.6-0.3-3.4-2.4-4.4
			c-20.1-10.3-29.5-27.5-31.5-49.3c-0.2-1.8,0.1-3.7,0.4-5.4c1.1-6.9,3.1-8.2,10.1-6.5c0-3.4-0.2-6.7,0.1-9.9
			c0.4-4.1,1.8-7.9,6.3-9.3c4.2-1.3,7.5,0.6,10.3,3.5c5.8,5.9,9.3,13.4,13.5,20.3C41.6,125,41.8,126.9,43.6,127.6
			C43.6,127.6,43.6,127.6,43.6,127.6z"/>
		<path class="st3" d="M116.3,50.6C104,48.9,91.9,48.9,80,53.1c-4.8,1.7-8.7,4.8-13.3,6.8c-5.4-5.6-9.1-12.1-8.9-20
			c0.3-11.1,8.9-21.8,23.6-13.3c-0.2-2.6-0.5-5-0.6-7.4c-0.2-8.7,3.8-15.4,10.7-18c7.3-2.7,16-0.5,21.4,5.6
			c8.8,10,8.8,21.8,6.4,33.9C118.8,44,117.4,47.3,116.3,50.6C116.3,50.6,116.3,50.6,116.3,50.6z"/>
		<path class="st4" d="M98.6,119.4c2.2-12.1,10.9-17.9,22.2-14.9l0,0.1c3.3,3.2,6.6,6.3,9.8,9.5c1.1,1,2.1,2.2,2.9,3.4
			c2.5,4.3,0.9,6.9-4.1,7c-1.7,0-3.3,0-5,0c-1.2,0-2.3-0.1-3.5-0.1c-6.6-2.4-13.7-2.6-20.4-4.3C99.9,119.8,99.3,119.6,98.6,119.4
			L98.6,119.4L98.6,119.4z"/>
		<path class="st3" d="M121.7,136.3c1.8,3.8,3,7.7,2.9,11.9c-0.1,3-1.1,5.5-4,6.9c-2.7,1.4-5.3,0.9-7.3-1.2c-1.5-1.5-2.6-1.6-4,0.1
			c-2.2,2.6-5.2,3.1-8.1,1.8c-3.2-1.4-4.5-4.2-4.7-7.6c-0.3-5.6,1-10.9,3-16c1.9,0,2.9,1.4,4.1,2.6c7,6.8,7.7,6.9,16.2,2
			C120.4,136.6,121.1,136.5,121.7,136.3L121.7,136.3z"/>
		<path class="st5" d="M121.7,136.3c-0.6,0.2-1.3,0.2-1.9,0.6c-8.5,4.9-9.2,4.9-16.2-2c-1.2-1.1-2.2-2.6-4.1-2.6
			c1.5-4.4-2.4-8.5-1-12.9c0.7,0.2,1.3,0.4,2,0.7c0.7,3.2,1.2,6.4,4.9,7.6c1.6,5.8,5.1,8.3,10,7c3.7-2.4,3.8-6.8,5.5-10.3
			c1.2,0,2.3,0.1,3.5,0.1C124.4,128.6,120.7,131.9,121.7,136.3L121.7,136.3L121.7,136.3z"/>
		<path class="st6" d="M88.3,91.2c5.8,0.1,12.1,5.9,12.6,11.6c0.1,1.1,0.1,2-1,2.5c-1.1,0.4-1.9-0.1-2.4-1.1
			c-0.5-1.1-0.8-2.2-1.3-3.2c-1.7-3.3-4-5.7-8-5.7c-3.9,0.1-6.4,2.4-8,5.8c-0.4,0.9-0.7,1.9-1.1,2.8c-0.5,0.9-1.1,1.8-2.3,1.3
			c-1.1-0.4-1.1-1.5-1-2.5C76.2,96.6,82.3,91.1,88.3,91.2L88.3,91.2L88.3,91.2z"/>
		<path class="st6" d="M120.9,104.6L120.9,104.6c0.4-7.2,4.8-12.6,10.7-13.1c5.1-0.4,10.2,3.7,11.9,9.6c0.4,1.4,1.2,3.1-0.8,3.9
			c-2.1,0.8-2.5-1.1-2.8-2.5c-0.5-2-1.4-3.8-2.9-5.1c-4-3.6-8.6-2-11.5,3.7C124.5,102.7,124.7,106.3,120.9,104.6L120.9,104.6
			L120.9,104.6z"/>
		<path class="st7" d="M121,124.3c-1.7,3.5-1.9,7.8-5.5,10.3c-1.1-6.1-5.2-8.9-10-7c-3.7-1.2-4.2-4.4-4.9-7.6
			C107.4,121.8,114.4,121.9,121,124.3L121,124.3L121,124.3z"/>
		<path class="st3" d="M105.5,127.6c4.8-1.9,8.8,0.9,10,7C110.6,135.9,107.1,133.4,105.5,127.6z"/>
	</g>
</g>
</svg>
