<?xml version="1.0" encoding="utf-8"?>
<!-- Generator: Adobe Illustrator 28.0.0, SVG Export Plug-In . SVG Version: 6.00 Build 0)  -->
<svg version="1.1" id="Layer_2_00000101068543637115785050000000937286690827018153_"
	 xmlns="http://www.w3.org/2000/svg" xmlns:xlink="http://www.w3.org/1999/xlink" x="0px" y="0px" viewBox="0 0 489.6 726.8"
	 style="enable-background:new 0 0 489.6 726.8;" xml:space="preserve">
<style type="text/css">
	.st0{fill:#FBF8F4;}
	.st1{fill:#F98904;}
	.st2{fill:#FDCE0A;}
	.st3{fill:#EB4527;}
	.st4{fill:#FB9106;}
	.st5{fill:#F2E9DB;}
	.st6{fill:#EB7404;}
	.st7{fill:#FAA009;}
	.st8{fill:#F88806;}
	.st9{fill:#2E2D2B;}
	.st10{fill:#AD3A05;}
</style>
<g id="Layer_2-2">
	<g id="Main">
		<path class="st1" d="M203.2,646.6c2-7.6,0-13-7.3-16.9c-4.2-2.3-6.5-7-8.3-11.6c-1.1-2.9-3-4.3-5.9-5.4
			c-18.1-6.7-34.3-16.6-48.2-30.2c-2.5-2.4-5.1-4.7-6.9-7.8c12.3,0.3,24.7,0.3,36.5-3.5c27.2-8.8,45.6-27.1,54.9-54.1
			c3.7-10.7,3.7-21.8,1.7-32.9c-0.2-1.3-0.4-2.9-2.1-3c-1.6-0.1-2,1.6-2.4,2.8c-1.2,3.3-2.2,6.6-3.4,9.9
			c-8.8,24.3-24.9,42.6-47.4,54.9c-15.1,8.3-31.6,11.7-48.9,11.1c-11-0.7-21.3-3.7-30.7-9.3c-16.9-10-22-26.7-13.7-44.5
			c0.3-0.7,0.4-1.5,0.6-2.3c5.7-6.1,11.8-11.8,16.1-19.1c2.1,1,2.6-1,3.3-2c9.7-12.1,17.7-25.4,25.6-38.8c1-1.6,1.3-3.4,1.1-5.2v0
			c0.1-0.1,0.4-0.2,0.4-0.3c-0.1-0.2-0.2-0.5-0.4-0.7c-0.4-2.2,1.3-3.6,2.2-5.3c2.4-4.5,6.2-8.1,7.8-13c3.1-5.9,6.2-11.8,9.2-17.7
			c19.6,11.9,33.3,0.9,46.7-12.5c0.1,4.9,0.2,9.1,1.1,13.4c3,14.7,14.5,25.9,30,25.2c12.1-0.5,21.2-6.2,28.2-15.5
			c2.6-3.5,4.7-7.3,7.4-11.5c4.7,18.1,12.7,33,32.8,34.7c19.9,1.7,28.6-12,34.5-29.8c3.4,7.6,7.1,13.4,12.5,18.1
			c15.2,13.3,37.4,9.2,44.2-11.2c2.2-6.8,2.5-13.9,2.5-22c9.8,10.6,20.9,14.3,34,11.3c1.3,6.1,2.6,12.2,3.9,18.3c1,11,2.4,22,2.9,33
			c1.1,23.6-1.2,46.9-7.9,69.6c-12,36.7-35.1,64-69,82.3c-2.9,1.6-5.8,3.2-8.7,4.8c-2.7-0.7-4.7,1.1-7,2
			c-13.5,5.5-27.5,9.5-41.9,12.2c-11.1,1.4-22.2,2.6-33.3,2c-2.8-0.1-4.6,0.7-6.2,3c-2.4,3.5-5.9,6.5-9.9,7.3
			c-6.7,1.3-9.9,4.7-9.6,11.5c-3.4-0.1-7.5,1-10.2-0.5C210.1,645.1,206.9,645,203.2,646.6L203.2,646.6L203.2,646.6z"/>
		<path class="st2" d="M411,401.7c-13.1,3-24.2-0.7-34-11.3c0,8.2-0.3,15.2-2.5,22c-6.7,20.4-28.9,24.5-44.2,11.2
			c-5.3-4.6-9-10.4-12.5-18.1c-5.9,17.9-14.6,31.5-34.5,29.8c-20.2-1.7-28.1-16.6-32.8-34.7c-2.7,4.2-4.8,8.1-7.4,11.5
			c-7,9.4-16.1,15-28.2,15.5c-15.5,0.7-27-10.5-30-25.2c-0.9-4.3-0.9-8.6-1.1-13.4c-13.4,13.3-27.1,24.3-46.7,12.5
			c-5.6-9.2-3.9-18.6,1.1-27c12.6-20.8,15.8-43.8,17.5-67.3c1.6-22.7,2.7-45.4,4.1-68.1c0.2-2.8,0.5-5.6,0.7-8.4
			c0.8-4.2,1.5-8.5,2.3-12.8c6.3-33.5,22.3-60.7,52.1-78.6c22.1-13.2,46.1-18.2,71.8-16.2c8.3,0.7,16.3,3.2,24.6,3.3
			c3.9,1.4,7.8,2.8,11.6,4.3c36,14.1,56.6,41.1,65.8,77.9c3.8,15.4,5.2,31.2,7.1,46.8c3,23.9,5.9,47.9,8.9,71.8
			c1.7,13.5,8.2,25.2,14.7,36.8c1.5,2.8,2.6,5.8,3.4,8.8C426.2,386.1,422.5,395.1,411,401.7L411,401.7L411,401.7z M294.9,294.7
			c-0.6,3.9,1.9,7.2,1.9,10.9c-3.9,10.8-7.4,21.7-9.7,33c-1.5,7.5-1.9,15.2,1,22.6c4.7,11.7,17.8,16.7,28.4,10.7
			c4.4-2.5,6.6-6.8,9-11.4c1.3,1.5,2.4,2.7,3.5,3.9c8.6,8.6,23,5.1,26.6-6.5c1.2-4,1.5-8.1,0.7-12.3c-1.8-9.9-6.5-18.4-11.3-27
			c1.2-5.9,5.5-10.7,5.7-16.9c5.1-0.8,10.1-1.1,15.3-1c8,0.1,11.2-5.1,7.6-12.5c-1.8-3.7-3.9-7.2-5.9-10.8c5-4,9.6-8.3,11.7-14.5
			c4.9-14.1,3.9-27.8-3.5-40.9c-1.6-2.9-3.7-5.5-6.3-7.7c-12.7-10.4-28.7-5.5-35.4,10.9c-3.9,9.6-3.6,19.5-2.4,29.5
			c-6.9-0.1-14-1-19.8,4.2c-6.6,6-11,13.7-14.6,21.7C295.6,285,293.3,289.6,294.9,294.7L294.9,294.7L294.9,294.7z M300.6,247.7
			c0.5-8-1.9-15.6-6.3-22.7c-13.2-21.3-42.5-21-55.2,0.6c-5.8,9.9-7.1,20.5-5.1,31.7c3.7,20.8,25.1,33.9,44.2,27
			C292.2,279.3,300.5,265.9,300.6,247.7L300.6,247.7L300.6,247.7z M288.8,193.1c0-2.5-1.6-3.8-3.1-5.1c-8.4-7.2-25.8-5.2-32.4,3.6
			c-0.9,1.1-1.5,2.1-0.6,3.6c1.1,1.8,2.8,2,4.3,1.3c8.8-3.9,17.6-3.9,26.5-0.1C286.3,197.6,288.1,195.7,288.8,193.1L288.8,193.1
			L288.8,193.1z M348.7,182.8c-5.4,0.8-10.6,1.8-13.8,6.8c-1.1,1.7-1.8,3.6-0.2,5.5c1.7,2.2,3.5,1,5.3,0.1
			c5.6-2.8,11.3-3.6,17.3-1.2c1.9,0.8,4,1.6,5.2-0.7c1.2-2.2,0.3-4.1-1.4-5.8C357.6,184.2,353.2,183.3,348.7,182.8L348.7,182.8
			L348.7,182.8z"/>
		<path class="st3" d="M311.3,126.7c-8.3-0.2-16.3-2.7-24.6-3.3c-25.7-2.1-49.7,3-71.8,16.2c-29.8,17.8-45.7,45.1-52.1,78.6
			c-0.8,4.2-1.5,8.5-2.3,12.8c-18.6-9.9-29.3-25.2-31.4-46.2c-1.7-16.3,6.6-31.3,19.7-36.5c6.2-2.5,12.4-1.8,19.2-0.1
			c-8.5-11.5-14.5-23.5-16.6-37c-2.3-14.3-0.4-27.9,8.5-39.9c13.7-18.4,38.1-20.2,54.5-4.2c2.2,2.2,4.3,4.5,6.5,6.8
			c0.2,0.4,0.4,0.9,0.5,1.3c0.1-0.1,0.3-0.2,0.3-0.4c0.1-0.5,0.1-1-0.6-1.1c-0.9-6.1-2.2-12.1-2.6-18.2
			c-1.3-18.1,2.2-34.6,17.4-46.5c19.2-15,49-10.7,65.8,9.6c13.1,15.8,17.8,34.7,18.4,54.8C320.5,91.6,317.1,109.4,311.3,126.7
			L311.3,126.7L311.3,126.7z"/>
		<path class="st4" d="M0.1,438.5C1.8,421.8,17.3,406,34,403.8c13.8-1.9,25.9,2.3,37.4,9.5c0.4,0.3,0.8,0.5,1.2,0.8
			c0.3,0.1,0.6,0.3,1,0.4c-0.2-0.3-0.4-0.6-0.6-0.9c-0.3-0.4-0.6-0.8-0.8-1.1c-9.3-14.1-21.5-24.4-38.1-28.6
			c-17.2-4.4-20.9-14-10.7-29c12.6-18.5,35.8-24.9,56.5-15.5c15.5,7.1,26,19.4,33.8,34.1c7,13,11,27,13.2,41.6c0.2,1.5-0.1,3,1,4.3
			c-1.7,4.9-5.4,8.6-7.8,13c-0.9,1.7-2.6,3.1-2.2,5.3c0,0.3,0,0.7,0,1v0c-13.8,12.9-22.3,29.1-30,46c-4.3,7.2-10.4,13-16.1,19.1
			c-13.2-1.3-24.8,2.5-35.5,10.4c-9,6.7-16.7,3.3-18.9-7.7c-4.2-21.1,13.4-42.4,35.8-43.4c1.9-0.1,3.8-0.2,6.9-0.3
			c-10.3-7.5-20.8-10.4-32.1-10.9c-4.5-0.2-9,0-13.4,0.5C4.7,453.5-0.8,448.3,0.1,438.5"/>
		<path class="st4" d="M61.2,463c-0.3-0.1-0.6-0.2-0.9-0.3c-0.1,0-0.2,0.2-0.3,0.3c0.2,0.1,0.4,0.4,0.6,0.4
			C60.8,463.5,61,463.2,61.2,463z"/>
		<path class="st5" d="M364.9,679.7c2.9-2.2,5.9-0.2,8.7,0.1c16.4,2,32.9,4.2,48.6,9.8c3.6,1.3,7.2,2.7,9.9,5.7c2.7,3,2.8,5.9,0,8.8
			c-4.1,4.2-9.6,6-15,7.5c-16.9,4.8-34.3,7.2-51.7,9.3c-15.8,1.9-31.6,2.9-47.5,4c-27.6,1.9-55.1,2.3-82.7,1.8
			c-18.4-0.4-36.8-1.4-55.1-3c-24.5-2.2-49.1-4.7-73-10.9c-5.9-1.5-11.9-3.2-17-6.9c-5.2-3.8-5.4-8.6,0.1-12c8-5,17.1-7.2,26.2-9
			c17.7-3.5,35.5-6.3,53.6-7.2c10.1-0.5,20.1-1.9,30.1-2.9c1.2,3.1-0.8,3.7-3.2,4.1c-6.7,1.1-13.5,2.2-19.9,4.6
			c-5.4,2-8.3,6.2-7.4,10.4c1.2,5.5,5.4,6.2,10,5.8c15.9-1.1,31.4,0.6,46.3,7c3.5,1.5,7.2,2.4,11.1,2.3c3.1-0.1,6.6-1.2,6.5-4.2
			c-0.1-6.2,3.5-4.7,6.9-4.2c1.5,0.2,3,0.4,4.5,0.4c2.8,0,5.4-0.7,6.6-3.5c1.3-2.9,1-5.9-1-8.5c-2-2.6-4.9-4-7.9-5
			c-8.7-3.1-17.7-4.5-26.8-5.4c-2.5-0.2-4.9-0.3-3.7-3.9c6.2-2.6,12.7-0.4,19.1-0.7c15.3-0.8,30.6-0.3,45.9-0.3
			c1.6,0,3.5-0.3,3.8,2.1c-1.7,0.6-3.4,1.2-5.1,1.8c-6.1,2.2-9,5.9-8.1,10.9c0.7,4.1,3.7,6,10.7,5.6c15-0.9,29.5,1,43.4,6.8
			c3.6,1.5,7.6,2.6,11.6,2.4c3.3-0.1,6.8-1.7,6.7-4.8c-0.3-6.2,3.2-4.6,6.5-4.2c1.6,0.2,3.3,0.3,5,0.3c6.6-0.2,9.7-6.1,6.1-11.6
			C366.9,681.8,365.8,680.8,364.9,679.7L364.9,679.7L364.9,679.7z"/>
		<path class="st6" d="M409.8,522.7c6.7-22.8,9-46,7.9-69.6c-0.5-11-1.9-22-2.9-33c10.2-3.1,18.1-9.6,25.2-17.3
			c3.5-3.8,6.6-7.9,10.4-11.5c11-10.5,25.3-8.2,32.4,5.3c6.2,11.7,7.8,24.4,6.1,37.4c-5.3,40.9-25.4,70.8-65,85.7
			C419.4,521.3,414.7,522.3,409.8,522.7z"/>
		<path class="st7" d="M222.1,674.6c-1.2,3.6,1.2,3.7,3.7,3.9c9.1,0.8,18.1,2.2,26.8,5.4c3,1.1,5.8,2.5,7.9,5c2,2.6,2.3,5.5,1,8.5
			c-1.2,2.8-3.8,3.5-6.6,3.5c-1.5,0-3-0.2-4.5-0.4c-3.4-0.5-7-2-6.9,4.2c0,3-3.5,4.1-6.5,4.2c-3.9,0.1-7.6-0.8-11.1-2.3
			c-14.8-6.4-30.3-8.1-46.3-7c-4.6,0.3-8.8-0.4-10-5.8c-1-4.2,2-8.4,7.4-10.4c6.4-2.4,13.1-3.5,19.9-4.6c2.4-0.4,4.4-1,3.2-4.1
			c2.3-9.2,1.9-18.7,3.4-28c3.7-1.6,6.9-1.5,10.8,0.6c2.7,1.5,6.7,0.4,10.2,0.5C223.5,656.7,222.8,665.6,222.1,674.6L222.1,674.6
			L222.1,674.6z"/>
		<path class="st7" d="M364.9,679.7c1,1.1,2,2.2,2.9,3.4c3.5,5.5,0.4,11.4-6.1,11.6c-1.7,0-3.3-0.1-5-0.3c-3.3-0.4-6.8-2-6.5,4.2
			c0.1,3.1-3.3,4.7-6.7,4.8c-4.1,0.2-8-0.9-11.6-2.4c-13.9-5.8-28.4-7.8-43.4-6.8c-7,0.4-10-1.5-10.7-5.6c-0.9-5,2-8.7,8.1-10.9
			c1.7-0.6,3.4-1.2,5.1-1.8c2.4-0.5,4.9-1.2,7.3-1.4c4-0.3,4.8-2.4,4.2-5.9c-0.7-5.2-1.2-10.5-1.7-15.8c1.2-2.6,2.6-4.3,6-4.3
			c4.6,0,8.8-4,13.8-1.7c1,7.2,2.2,14.4,2.9,21.7c0.3,3.3,1.5,4,4.6,4.2C340.6,673,353.1,674.3,364.9,679.7L364.9,679.7L364.9,679.7
			z"/>
		<path class="st6" d="M115.6,559.8c17.3,0.6,33.8-2.8,48.9-11.1c22.5-12.3,38.6-30.5,47.4-54.9c1.2-3.3,2.2-6.6,3.4-9.9
			c0.4-1.2,0.8-2.9,2.4-2.8c1.6,0.1,1.8,1.8,2.1,3c2,11.1,2,22.2-1.7,32.9c-9.3,27-27.7,45.3-54.9,54.1c-11.8,3.8-24.2,3.8-36.5,3.5
			C122.2,570.4,118.6,565.3,115.6,559.8L115.6,559.8L115.6,559.8z"/>
		<path class="st6" d="M283.3,624c14.4-2.7,28.3-6.7,41.9-12.2c2.2-0.9,4.3-2.7,7-2c-1.4,7-5.1,12.5-10.8,16.8
			c-1.2,0.9-2.7,1.4-2.9,3.1c-4.1-1-7.5,2.5-11.5,2c-4-0.5-7.4,0.1-8,5c-0.3-3.4-1.6-5.4-5.4-6.2C289.4,629.7,285.9,627.4,283.3,624
			L283.3,624L283.3,624z"/>
		<path class="st8" d="M298.9,636.7c0.6-4.9,4-5.5,8-5c4,0.5,7.4-3,11.5-2c1,5.6,1.9,11.3,2.2,17c-5-2.3-9.2,1.7-13.8,1.7
			c-3.4,0-4.9,1.7-6,4.3C299.6,647.4,299,642.1,298.9,636.7z"/>
		<path class="st6" d="M87.9,484.7c7.7-16.9,16.2-33.1,30-46c0.1,1.9-0.2,3.6-1.1,5.2c-7.9,13.4-15.9,26.6-25.6,38.8
			C90.4,483.6,89.9,485.7,87.9,484.7z"/>
		<path class="st6" d="M117.9,438.7c0-0.3,0-0.7,0-1c0.1,0.2,0.3,0.5,0.4,0.7C118.2,438.5,118,438.6,117.9,438.7
			C117.9,438.7,117.9,438.7,117.9,438.7z"/>
		<path class="st3" d="M345,318.6c4.8,8.6,9.5,17.1,11.3,27c0.8,4.2,0.5,8.3-0.7,12.3c-3.6,11.6-17.9,15-26.6,6.5
			c-1.1-1.1-2.2-2.4-3.5-3.9c-2.4,4.6-4.6,8.9-9,11.4c-10.5,6-23.6,1-28.4-10.7c-3-7.4-2.5-15.1-1-22.6c2.2-11.2,5.8-22.2,9.7-33
			c1.4,1.9,2.9,3.6,4,5.6c3.2,5.8,8.1,10,13.6,13.5c9.5,6.2,17.5,5.4,25.5-2.5C341.4,320.8,342.5,318.8,345,318.6L345,318.6
			L345,318.6z"/>
		<path class="st0" d="M300.6,247.7c-0.1,18.2-8.4,31.5-22.4,36.6c-19.1,6.9-40.5-6.2-44.2-27c-2-11.2-0.7-21.9,5.1-31.8
			c12.7-21.6,42-21.9,55.2-0.6C298.7,232.1,301.1,239.8,300.6,247.7L300.6,247.7L300.6,247.7z M250.7,247.8
			c-0.3,6,0.9,11.6,4.5,16.5c5.9,8,16.6,7.9,22.4-0.2c6.2-8.6,5.6-24.1-1.2-32.3c-5.8-7-16.1-6.6-21.5,0.9
			C251.6,237.2,250.4,242.3,250.7,247.8L250.7,247.8L250.7,247.8z"/>
		<path class="st7" d="M367.7,277.5c2,3.6,4.1,7.1,5.9,10.8c3.6,7.4,0.4,12.5-7.6,12.5c-5.1,0-10.2,0.2-15.3,1
			c-2.7-0.1-5.2-1.6-8-0.8c-13.6-1-27-3-40.5-4.9c-2.4-0.4-4.9-0.9-7.3-1.3c-1.6-5.1,0.8-9.7,2.7-14c3.6-8,7.9-15.7,14.6-21.7
			c5.8-5.2,12.9-4.4,19.8-4.2c3.5,2.5,7.6,3.7,11.5,5c4,2.4,8.1,4.8,12.1,7.2C359.6,270.5,363.7,274,367.7,277.5L367.7,277.5
			L367.7,277.5z"/>
		<path class="st0" d="M343.5,259.8c-4-1.4-8-2.6-11.5-5.1c-1.3-10-1.5-19.9,2.4-29.5c6.7-16.3,22.6-21.2,35.4-10.9
			c2.6,2.1,4.7,4.7,6.3,7.7c7.4,13.1,8.4,26.8,3.5,40.9c-2.1,6.2-6.7,10.5-11.7,14.5c-4-3.5-8.1-7-12.1-10.5c5-1.6,8.3-5,9.8-9.8
			c2.4-7.3,2.5-14.7-0.4-21.9c-2.5-6.3-7-9.7-12.1-9.4c-5.1,0.3-9.5,4.3-11.2,10.6C339.7,244.4,340.5,252.2,343.5,259.8L343.5,259.8
			L343.5,259.8z"/>
		<path class="st6" d="M294.9,294.7c2.4,0.4,4.9,0.9,7.3,1.3c1.6,5.9,6.8,8.9,10.8,12.8c3.4,4.4,7.3,8.2,12.6,10.2
			c4.8,1.8,8.7,0,10.4-5c4.4-3.2,5.5-8.2,6.7-13.1c2.8-0.7,5.3,0.7,8,0.8c-0.2,6.2-4.5,11-5.7,16.9c-2.5,0.1-3.6,2.1-5.1,3.6
			c-8,7.9-15.9,8.7-25.5,2.5c-5.5-3.5-10.3-7.7-13.6-13.5c-1.1-2-2.7-3.7-4-5.6C296.8,301.9,294.2,298.6,294.9,294.7L294.9,294.7
			L294.9,294.7z"/>
		<path class="st6" d="M288.8,193.1c-0.7,2.6-2.5,4.5-5.4,3.3c-8.9-3.7-17.6-3.7-26.5,0.1c-1.6,0.7-3.2,0.5-4.3-1.3
			c-0.8-1.4-0.2-2.4,0.6-3.6c6.6-8.9,24-10.8,32.4-3.6C287.2,189.3,288.8,190.6,288.8,193.1L288.8,193.1L288.8,193.1z"/>
		<path class="st6" d="M348.8,182.8c4.5,0.6,8.8,1.4,12.3,4.7c1.7,1.6,2.6,3.6,1.4,5.8c-1.3,2.3-3.3,1.5-5.2,0.7
			c-6-2.4-11.7-1.6-17.3,1.2c-1.8,0.9-3.5,2.2-5.3-0.1c-1.5-1.9-0.9-3.8,0.2-5.5C338.2,184.6,343.4,183.6,348.8,182.8L348.8,182.8
			L348.8,182.8z"/>
		<path class="st0" d="M221,73.6c0.7,0.1,0.7,0.6,0.6,1.1c0,0.1-0.2,0.3-0.3,0.4c-0.2-0.4-0.4-0.9-0.5-1.3L221,73.6z"/>
		<path class="st0" d="M61.2,463c-0.2,0.2-0.4,0.4-0.5,0.4c-0.2,0-0.4-0.3-0.6-0.4c0.1-0.1,0.2-0.3,0.3-0.3
			C60.6,462.8,60.9,462.9,61.2,463z"/>
		<path class="st0" d="M72.9,413.6c0.2,0.3,0.4,0.6,0.6,0.9c-0.3-0.1-0.6-0.3-1-0.4C72.7,413.9,72.8,413.8,72.9,413.6z"/>
		<path class="st0" d="M72.1,412.5c0.3,0.4,0.6,0.8,0.8,1.1c-0.1,0.1-0.2,0.3-0.3,0.5c-0.4-0.3-0.8-0.5-1.2-0.8
			C71.6,413,71.8,412.8,72.1,412.5z"/>
		<path class="st9" d="M250.7,247.8c-0.2-5.5,0.9-10.6,4.2-15.1c5.4-7.4,15.7-7.8,21.5-0.9c6.9,8.2,7.5,23.7,1.2,32.3
			c-5.9,8.1-16.5,8.2-22.4,0.2C251.5,259.4,250.4,253.8,250.7,247.8L250.7,247.8L250.7,247.8z"/>
		<path class="st9" d="M343.5,259.8c-3-7.6-3.8-15.4-1.7-23.4c1.7-6.2,6.1-10.3,11.2-10.6c5.1-0.3,9.5,3.1,12.1,9.4
			c2.9,7.2,2.8,14.6,0.4,21.9c-1.6,4.8-4.9,8.2-9.8,9.8C351.6,264.6,347.5,262.2,343.5,259.8L343.5,259.8L343.5,259.8z"/>
		<path class="st10" d="M312.9,308.8c-4-4-9.1-6.9-10.8-12.8c13.5,1.9,26.9,3.9,40.5,4.9c-1.2,4.9-2.3,9.8-6.7,13.1
			c-1.7-1.6-3.5-3-5-4.8c-3.8-4.4-8.8-4.9-14-4.3C315,305.2,312.4,305.6,312.9,308.8L312.9,308.8L312.9,308.8z"/>
		<path class="st3" d="M312.9,308.8c-0.5-3.2,2.1-3.6,4-3.9c5.2-0.7,10.2-0.2,14,4.3c1.5,1.7,3.4,3.2,5,4.8c-1.7,5-5.6,6.9-10.4,5
			C320.2,317,316.3,313.2,312.9,308.8L312.9,308.8z"/>
	</g>
</g>
</svg>
