<?xml version="1.0" encoding="utf-8"?>
<!-- Generator: Adobe Illustrator 28.0.0, SVG Export Plug-In . SVG Version: 6.00 Build 0)  -->
<svg version="1.1" id="Layer_2_00000139262159792379542070000003526006398852682406_"
	 xmlns="http://www.w3.org/2000/svg" xmlns:xlink="http://www.w3.org/1999/xlink" x="0px" y="0px" viewBox="0 0 200.9 278.5"
	 style="enable-background:new 0 0 200.9 278.5;" xml:space="preserve">
<style type="text/css">
	.st0{fill:#FBF8F4;}
	.st1{fill:#F98A05;}
	.st2{fill:#FCCD0A;}
	.st3{fill:#EB4527;}
	.st4{fill:#F2E9DB;}
	.st5{fill:#EB7404;}
	.st6{fill:#FAA009;}
	.st7{fill:#2E2D2B;}
</style>
<g id="Layer_1-2">
	<g id="Run">
		<path class="st0" d="M44.4,163.1c-1.2,1.8-0.8,3.7-0.6,5.6c-0.7,5.1,0.3,10,2,14.8c0,1.1,0.5,2.4-1.2,2.9
			c-0.5-0.5-0.8-1.1-1.4-1.4c-4.2-2.1-8.3-3.9-9-9.5c-0.3-2.1-2.5-3.6-4.9-3.5c-2.5,0.2-4.8,1.7-5,4.1c-0.9,7.4-5.8,12.4-9.8,18.1
			c-2,2.9-3.7,6-0.2,8.8c3.2,2.5,6.6,1.8,9.5-0.8c2.9-2.6,5-5.8,6.6-9.2c0.9-1.9,1.7-2.3,3.7-1.2c3.3,1.9,6.6,3.9,10.4,4.6
			c2.9,5.7,7.2,9.4,14,9c11,9.4,23.7,15,38.2,16.5c8.1,0.8,15.8-1.1,23.8-1.6c2.9,2.1,6.3,1.2,9.6,1.4c2.5,3.9,6.1,6.7,9.1,10.1
			c1.6,1.7,2.6,3.4,1.1,5.6c-4.8-1.5-9.8-0.9-14.7-0.9c-26.8-0.2-53.6-0.7-80.3,1c-8.2,0.5-16.5,1.1-24.6,2.9
			c-1.4,0.3-2.7,0.5-3,2.1c-0.3,1.9,1.1,2.6,2.6,3c1.1,0.3,2.2,0.6,3.4,0.9c14,2.9,28.3,3.5,42.5,3.8c29.4,0.5,58.9,1.1,88.3-0.9
			c8-0.6,16.2-1.4,24-3.4c1.5-0.4,3.7-0.5,3.7-2.7s-2-2.5-3.6-2.7c-8.2-1.1-16.2-3.6-24.6-3.1c1-1.7,2.7-2.4,4.5-3
			c2.2-0.8,4.4-1.5,6.5-2.5c3.6-1.7,6.4-4.2,4.8-8.5c-1.5-4.1-5.1-4-8.9-3.1c-3.9,0.9-7.1,2.9-10.1,5.2c-1.9,1.5-2.9,1.4-4.5-0.3
			c-2.8-3-5.3-6.5-8.9-8.7c0-1.3-0.1-2.7-0.1-4c7.5-5.4,13.9-12,19-19.7c3.9,1.9,7.9,0.7,11.7-0.2c15.3-3.5,26.8-11.7,31.4-27.4
			c2.5-8.7-2.9-13.7-11.6-11c-5.1,1.6-10.1,3.4-15.5,3.2c0-5.3,0-10.6,0-15.9c5,2.9,8.5,1.2,9-4.6c0.3-3.7-1-7.1-2.4-10.5
			c2-0.1,4,0.2,5.9-0.2c2.5-0.6,5.5-1,6.7-3.8c1.3-3.2-2.5-3.7-3.9-6c2.5,0,4.5,0.1,6.6,0c2.2-0.1,5,0.9,6.1-2
			c1-2.7-0.4-4.9-2.2-6.7c-5.3-5.6-11.8-9-19.4-10.4c-1.4-3-0.9-6.2-1.1-9.3c-0.6-9.5-3.2-18.2-8.9-25.9
			c-6.1-8.3-14.6-13.3-24.1-16.7c1.8-6.1,3-12.2,2.7-18.7c-0.6-13-8.8-24-19.8-26.3c-9.7-2.1-17.8,4-18.3,13.9c-0.1,2.4,0,4.8,0,7.8
			C102.2,18,95,16.7,89.1,23c-7.6,8.1-3.7,16.6,0.7,24.8c-8.1,1.9-11.3,5.5-11.4,12.6C78.2,67,81.1,72,86.4,75.6
			c-1.2,5.2-2.5,10.3-3.6,15.5c-2.1,9.7-4.3,19.2-12.9,25.6c-0.9,0.7-1.6,1.7-1.5,3c-1.6,0.6-2.9-0.3-4.3-0.8
			c-8.2-2.7-16.6-3.7-25-1.3c-12.3,3.6-21.9,10.5-25.8,23.2c-2.1,6.6,1.7,10.8,8.5,10c2.2-0.3,4.5-0.7,6.7-1.1
			c-0.8,9,3.6,12.7,11.9,10.4c1.3-0.3,2.5-1,3.8-0.6c-0.2,0.3-0.1,0.5,0,0.8C44,161.2,43.6,162.2,44.4,163.1L44.4,163.1L44.4,163.1z
			"/>
		<path class="st0" d="M5,153.4c-2.5-0.3-5.2,0.7-5,4.7c0.3,4.3,7.1,10.3,11.3,10.3c1.1,0,2.2-0.2,1.8-1.6c-0.9-3.1,0.3-3.6,3-2.6
			c1.2,0.5,2.3,0.2,3-1c0.8-1.2,0.5-2.4-0.5-3.1C14.8,157.1,11.4,153.3,5,153.4L5,153.4L5,153.4z"/>
		<path class="st1" d="M120.5,220.4c-7.9,0.5-15.7,2.5-23.8,1.6c-14.5-1.5-27.2-7.1-38.2-16.5c-4.8-6.9-10.6-13.2-12.3-21.8
			c0-0.1-0.3-0.1-0.5-0.1c-1.7-4.8-2.7-9.7-2-14.8c1.6-0.6,1.8-1.9,1.7-3.2c-0.1-2.5,1.4-3.6,3.5-2.8c5.6,2.1,10.8-0.2,16.1-1.2
			c0.8-0.1,1.9,0,1.9-1.1c0-0.7-0.6-1.5-1.2-2c-6.5-5.4-15.9-4.9-21.4,1.2c-1.4-0.4-2.6,0.3-3.8,0.6c-8.3,2.2-12.7-1.4-11.9-10.4
			c-2.3,0.4-4.5,0.8-6.7,1.1c-6.8,0.8-10.6-3.4-8.5-10c4-12.8,13.6-19.7,25.8-23.2c8.4-2.4,16.8-1.4,25,1.3c1.4,0.5,2.7,1.4,4.3,0.8
			c0.4,2.4,3.9,2.6,3.9,4.9c0,5.9,4.1,6.5,8.2,5.8c4.3-0.7,5.3,0.5,5.1,4.7c-0.3,6.4,3,9.2,9.4,9.5c4.1,0.2,7.6-1.7,11.1-3.4
			c3.2,13.3,8.3,15.5,19.6,8.5c1.5-0.9,2-1.1,2.7,0.8c4.9,11.9,13.1,13.5,22.7,4.4c1.5-1.4,2.2-1.2,3,0.2c2.4,4.6,6.6,6.2,11.3,7.3
			c0,2.3-0.3,4.6-0.7,6.9c-1.4,8.3-5.3,15.6-8.3,23.4c-5.1,7.8-11.5,14.3-19,19.7C131.9,215,125.8,216.7,120.5,220.4L120.5,220.4
			L120.5,220.4z"/>
		<path class="st2" d="M165.5,162.5c-4.6-1.1-8.9-2.8-11.3-7.3c-0.8-1.4-1.5-1.6-3-0.2c-9.6,9.1-17.9,7.5-22.7-4.4
			c-0.8-1.9-1.2-1.8-2.7-0.8c-11.3,7-16.4,4.8-19.6-8.5c-3.6,1.6-7,3.6-11.1,3.4c-6.5-0.3-9.8-3.2-9.4-9.5c0.2-4.2-0.7-5.4-5.1-4.7
			c-4.1,0.7-8.2,0.1-8.2-5.8c0-2.3-3.5-2.5-3.9-4.9c-0.1-1.3,0.6-2.3,1.5-3c8.5-6.4,10.8-15.9,12.9-25.6c1.1-5.2,2.4-10.3,3.6-15.5
			c1.2-2.3,2.3-4.7,3.5-7.1c6.8-13,17.1-21.2,31.8-23.9c7.8-1.5,15.4,0.1,23.1,0.8c9.5,3.5,17.9,8.5,24.1,16.7
			c5.7,7.7,8.4,16.4,8.9,25.9c0.2,3.1-0.3,6.3,1.1,9.3c-3-0.1-5.2,1.3-7.2,3.5c-5.2,5.3-7.1,11.6-6.1,18.9
			c-2.2,4.3-4.7,8.4-5.6,13.2c-0.7,3.7,0,7,2.9,9.4c3.1,2.6,5.9,0.6,8.6-1c0.3,0.1,0.6,0.1,1,0.2l-0.1,0c0,5.3,0,10.6,0,15.9
			C170.9,160.1,168.5,161.7,165.5,162.5L165.5,162.5L165.5,162.5z M164.8,91.5c0-11-7.1-19.2-16.7-19.2c-8.7,0.1-16.1,8.6-16.2,18.8
			c-0.1,10.5,7.1,18.4,16.8,18.4C157.8,109.5,164.7,101.8,164.8,91.5L164.8,91.5z"/>
		<path class="st3" d="M144.9,45.4c-7.7-0.7-15.3-2.3-23.1-0.8c-14.6,2.7-24.9,11-31.8,23.9c-1.2,2.3-2.4,4.7-3.5,7.1
			c-5.4-3.6-8.2-8.6-8.1-15.1c0.1-7.1,3.3-10.7,11.4-12.6c-4.4-8.2-8.2-16.7-0.7-24.8c5.9-6.4,13.2-5,20.4-0.9c0-3-0.1-5.4,0-7.8
			C110,4.4,118-1.7,127.8,0.4c11,2.4,19.3,13.4,19.8,26.3C147.9,33.1,146.7,39.3,144.9,45.4L144.9,45.4L144.9,45.4z M110.1,22.7
			l-0.2,0.3l0.3,0L110.1,22.7L110.1,22.7L110.1,22.7z"/>
		<path class="st4" d="M154.1,237.4c8.4-0.4,16.4,2.1,24.6,3.1c1.6,0.2,3.6,0.5,3.6,2.7s-2.1,2.3-3.7,2.7c-7.9,2.1-16,2.9-24,3.4
			c-29.4,2-58.9,1.4-88.3,0.9c-14.2-0.3-28.5-0.9-42.5-3.8c-1.1-0.2-2.2-0.6-3.4-0.9c-1.6-0.4-2.9-1.1-2.6-3c0.2-1.6,1.6-1.8,3-2.1
			c8.1-1.8,16.4-2.3,24.6-2.9c26.8-1.7,53.5-1.2,80.3-1c4.9,0,9.9-0.7,14.7,0.9c0.2,2.5,0.2,5.2,3.2,6.1c2.7,0.9,4.8-0.7,6.6-2.4
			C151.5,239.9,152.8,238.7,154.1,237.4L154.1,237.4L154.1,237.4z"/>
		<path class="st5" d="M165.5,162.5c2.9-0.8,5.4-2.4,7-5.1c5.4,0.2,10.4-1.7,15.5-3.2c8.6-2.7,14.1,2.3,11.6,11
			c-4.6,15.7-16.1,23.8-31.4,27.4c-3.8,0.9-7.8,2.1-11.7,0.2c2.9-7.7,6.9-15.1,8.3-23.4C165.2,167.1,165.5,164.8,165.5,162.5
			L165.5,162.5L165.5,162.5z"/>
		<path class="st6" d="M165.6,119.6c-1-7.3,1-13.6,6.1-18.9c2.1-2.1,4.2-3.6,7.2-3.5c7.6,1.4,14.1,4.7,19.4,10.4
			c1.8,1.9,3.2,4.1,2.2,6.7c-1.1,2.9-3.9,1.9-6.1,2c-2.1,0.1-4.1,0-6.6,0c1.4,2.4,5.2,2.8,3.9,6c-1.1,2.8-4.1,3.2-6.7,3.8
			c-1.9,0.4-3.9,0.2-5.9,0.2C174.1,125.3,170.4,121.3,165.6,119.6C165.6,119.6,165.6,119.6,165.6,119.6z M169.4,113.9
			c3.4,4.7,12.3,6.1,16.6,2.6C182.2,114.7,174.8,113.6,169.4,113.9z"/>
		<path class="st6" d="M154.1,237.4c-1.3,1.2-2.6,2.5-3.9,3.8c-1.9,1.8-3.9,3.3-6.6,2.4c-3-0.9-3-3.6-3.2-6.1
			c1.4-2.2,0.4-3.9-1.1-5.6c-3-3.4-6.7-6.2-9.1-10.1c3.4-0.4,4.7-4,7.5-5.3c3.6,2.2,6,5.7,8.9,8.7c1.6,1.7,2.6,1.8,4.5,0.3
			c3-2.4,6.3-4.4,10.1-5.2c3.7-0.9,7.3-0.9,8.9,3.1c1.6,4.3-1.2,6.9-4.8,8.5c-2.1,1-4.3,1.7-6.5,2.5
			C156.8,235.1,155.1,235.7,154.1,237.4L154.1,237.4L154.1,237.4z"/>
		<path class="st6" d="M44.5,196.5c-3.8-0.7-7.1-2.8-10.4-4.6c-2-1.1-2.8-0.7-3.7,1.2c-1.7,3.5-3.8,6.6-6.6,9.2
			c-2.9,2.6-6.3,3.4-9.5,0.8c-3.5-2.8-1.9-5.9,0.2-8.8c4-5.6,8.9-10.6,9.8-18.1c0.3-2.4,2.5-4,5-4.1c2.4-0.2,4.6,1.4,4.9,3.5
			c0.7,5.6,4.8,7.4,9,9.5c0.5,0.3,0.9,0.9,1.4,1.4C44.6,189.8,44.6,193.1,44.5,196.5C44.5,196.5,44.5,196.5,44.5,196.5z"/>
		<path class="st3" d="M165.6,119.6c4.8,1.7,8.5,5.7,13.6,6.8c1.3,3.4,2.7,6.8,2.4,10.5c-0.5,5.8-4,7.5-9,4.6l0.1,0
			c-0.2-0.5-0.5-0.7-1-0.2c-2.8,1.5-5.5,3.6-8.6,1c-2.9-2.5-3.6-5.8-2.9-9.4C160.9,128,163.4,123.9,165.6,119.6L165.6,119.6
			L165.6,119.6z"/>
		<path class="st4" d="M5,153.4c6.4-0.1,9.8,3.7,13.6,6.7c1,0.8,1.2,2,0.5,3.1c-0.7,1.1-1.8,1.4-3,1c-2.7-1-3.9-0.5-3,2.6
			c0.4,1.4-0.7,1.6-1.8,1.6c-4.2,0-11-6-11.3-10.3C-0.3,154.1,2.4,153.1,5,153.4L5,153.4L5,153.4z"/>
		<path class="st5" d="M44.5,159.6c5.4-6.1,14.9-6.6,21.4-1.2c0.6,0.5,1.2,1.3,1.2,2c0,1.1-1.1,1-1.9,1.1
			c-5.3,0.9-10.5,3.2-16.1,1.2c-2-0.8-3.6,0.3-3.5,2.8c0.1,1.4-0.2,2.7-1.7,3.2c-0.3-1.9-0.6-3.9,0.6-5.6c0-0.9,0-1.9,0.1-2.8
			C44.3,160.1,44.3,159.8,44.5,159.6L44.5,159.6L44.5,159.6z"/>
		<path class="st5" d="M44.5,196.5c0-3.3,0.1-6.7,0.1-10c1.6-0.5,1.2-1.8,1.2-2.9c0.2,0,0.5,0.1,0.5,0.1c1.7,8.6,7.5,14.9,12.3,21.8
			C51.7,205.9,47.5,202.2,44.5,196.5z"/>
		<path class="st5" d="M137.6,216.5c-2.8,1.3-4,4.9-7.5,5.3c-3.2-0.2-6.6,0.7-9.6-1.4c5.2-3.6,11.3-5.3,17-7.9
			C137.6,213.8,137.6,215.1,137.6,216.5z"/>
		<path class="st1" d="M44.5,160.3c0,0.9,0,1.9-0.1,2.8C43.6,162.2,44,161.2,44.5,160.3z"/>
		<path class="st0" d="M164.8,91.5c0,10.2-6.9,17.9-16.1,17.9c-9.7,0-16.9-7.9-16.8-18.4c0.1-10.2,7.5-18.7,16.2-18.8
			C157.6,72.3,164.8,80.5,164.8,91.5L164.8,91.5L164.8,91.5z M160.7,92.2c0-6.2-2.7-10.2-6.8-10.5c-4-0.3-7,2.8-8.1,8.5
			c-0.2,1-0.2,2-0.2,3c0.1,5.3,3.1,9.2,7.1,9.3c4.1,0.1,7.3-3.4,7.9-8.7C160.7,93.1,160.7,92.5,160.7,92.2L160.7,92.2L160.7,92.2z"
			/>
		<path class="st0" d="M171.6,141.3c0.4-0.5,0.7-0.3,1,0.2C172.3,141.5,171.9,141.4,171.6,141.3z"/>
		<polygon class="st0" points="110.1,22.7 110.2,23 109.9,23 		"/>
		<path class="st5" d="M169.4,113.9c5.4-0.3,12.8,0.9,16.6,2.6C181.7,119.9,172.8,118.5,169.4,113.9z"/>
		<path class="st7" d="M160.7,92.2c0,0.2,0,0.9-0.1,1.6c-0.6,5.3-3.8,8.8-7.9,8.7c-4-0.1-7-4.1-7.1-9.3c0-1,0-2,0.2-3
			c1-5.7,4.1-8.8,8.1-8.5C158,82,160.8,86,160.7,92.2L160.7,92.2L160.7,92.2z"/>
	</g>
</g>
</svg>
