<?xml version="1.0" encoding="UTF-8"?>
<svg id="Layer_2" data-name="Layer 2" xmlns="http://www.w3.org/2000/svg" viewBox="0 0 158.8 226.38">
  <defs>
    <style>
      .cls-1 {
        fill: #faa009;
      }

      .cls-1, .cls-2, .cls-3, .cls-4, .cls-5, .cls-6, .cls-7 {
        stroke-width: 0px;
      }

      .cls-2 {
        fill: #f88806;
      }

      .cls-3 {
        fill: #2e2d2b;
      }

      .cls-4 {
        fill: #eb4527;
      }

      .cls-5 {
        fill: #fccd0a;
      }

      .cls-6 {
        fill: #fbf8f4;
      }

      .cls-7 {
        fill: #eb7404;
      }
    </style>
  </defs>
  <g id="Layer_1-2" data-name="Layer 1">
    <g id="Sad">
      <path class="cls-6" d="m150.58,177.45c1.19-6.14.14-11.77-3.1-17.21-1.94-3.25-3.15-6.98-3.74-10.79-1.97-12.81-3.95-25.62-5.85-38.44-4.08-27.64-15.77-49.29-44.88-57.31,4.59-8.92,6.86-18.35,6.32-28.42-.42-7.76-2.7-14.77-8.6-20.12-5.34-4.85-11.7-6.32-18.58-4.22-6.72,2.05-10.01,7.11-11.45,13.85-.83,3.89.08,7.85-.8,11.86-.7-.23-1.23-.28-1.57-.55-8.07-6.34-20.42-1.62-22.59,10.2-1.77,9.68,1.53,17.62,6.8,25.21-11.47,8.85-18.85,20.35-22.15,34.43-2.13,9.08-2.43,18.39-3.32,27.63-1.35,14.13-.69,28.64-7.22,41.87-2.08,4.21-2.41,8.57-1.67,13.1C1.56,191.48-.52,205.28.1,219.66c.2,4.7,1.84,6.74,6.95,6.7,25.99-.21,51.98-.07,77.98-.07,22.49,0,44.99-.06,67.48,0,3.44.01,5.9-.62,6.12-4.68.81-15.36-1.24-30.2-8.05-44.17h0Z"/>
      <path class="cls-5" d="m93.02,53.7c29.11,8.02,40.8,29.67,44.88,57.31,1.89,12.82,3.87,25.63,5.85,38.44.59,3.82,1.8,7.54,3.74,10.79,3.25,5.44,4.29,11.07,3.1,17.21-6.83,5.56-13.96,5.46-21.37.41-.39,7.66-2.7,13.6-9.86,15.89-7.43,2.38-13.71.35-18.31-6.25-2.29-3.28-2.49-.4-3.2,1.15-5.63,12.37-20.56,14.5-28.89,4.09-1.51-1.88-2.69-5.52-4.17-5.61-2.42-.13-3.86,3.21-5.8,4.99-4.27,3.92-9.26,5.37-14.73,3.78-6.2-1.79-10.7-5.79-11.08-12.6-.25-4.62-1.71-3.31-4.31-1.82-8.77,5.01-15.14,4.01-20.67-2.96-.74-4.53-.41-8.89,1.67-13.1,6.53-13.23,5.87-27.75,7.22-41.87.88-9.24,1.19-18.55,3.32-27.63,3.3-14.08,10.68-25.58,22.15-34.43,6.12-2.38,11.79-5.72,18.35-7.23,10.74-2.47,21.39-1.53,32.12-.57h0Zm-32.05,50.75c-3.88,2.01-9.49,1.92-9.9,8.15-1.44.33-2.9,1.02-4.31.93-2.8-.18-3.75,1.27-4.3,3.66-2.43,10.54,5.03,21.1,15.77,22.19,4.79,1.46,8.84-.07,12.53-3.07,6.52-4.95,9.2-13.7,7.05-21.69-1.06-3.92-3.91-6.8-5.25-10.5.6-2.8,3.39-4.61,3.47-7.64.03-.99.12-2.08-.92-2.66-1.1-.62-2.04-.08-2.51.86-2.49,4.93-7.27,7.1-11.64,9.77h.01Zm36.09,29.96c-.39,1.24.65,1.3,1.35,1.64,4.66,3.52,9.42,3.61,14.28.44.62-.15,1.31-.22,1.36-1.09l-.1.07c6.81-2.57,10.23-10.32,9.07-19.84-.35-2.88-1.42-3.85-4.33-4-5.97-.32-11.77-1.63-16.94-4.9,1.65-.59,3.97-.63,4.15-2.83.16-1.98-2-2.41-3.42-3.09-2.75-1.32-5.13-2.92-6.32-5.9-.42-1.06-1.05-2.31-2.47-1.9-1.52.44-1.57,1.89-1.6,3.26-.07,3.04,2.78,4.81,3.25,7.6-6.92,8.54-7.71,17.73-2.88,27.5-3.4-.65-6.74-3.61-10.25-.89-5.54,4.28-10.83,8.86-10.22,16.92.08,1.74.17,3.48.25,5.22-1.67,5.51-4.08,10.92-2.31,16.9,1.84,6.2,7.86,8.14,12.69,3.9,1.69-1.48,2.49-2.28,4.75-.43,5.13,4.19,10.91,1.35,11.61-5.33.36-3.39-.76-6.55-1.35-9.79,1.21-5.85,2.17-11.63-.56-17.41-1.09-2.32-3.48-4.15-3.02-7.14,1.12.14,1.64,1.82,3.05,1.17l-.07-.08h.03Z"/>
      <path class="cls-2" d="m8.19,178.54c5.53,6.97,11.9,7.97,20.67,2.96,2.6-1.49,4.06-2.79,4.31,1.82.37,6.81,4.88,10.8,11.08,12.6,5.47,1.58,10.46.13,14.73-3.78,1.94-1.78,3.38-5.12,5.8-4.99,1.48.08,2.66,3.72,4.17,5.61,8.34,10.4,23.26,8.28,28.89-4.09.71-1.55.91-4.43,3.2-1.15,4.6,6.6,10.88,8.62,18.31,6.25,7.16-2.29,9.47-8.23,9.86-15.89,7.41,5.05,14.55,5.15,21.37-.41,6.81,13.97,8.86,28.8,8.05,44.16-.21,4.07-2.68,4.69-6.12,4.68-22.49-.07-44.99,0-67.48,0-25.99,0-51.99-.13-77.98.07-5.11.04-6.75-2-6.95-6.7-.62-14.38,1.46-28.19,8.08-41.12v-.02Z"/>
      <path class="cls-4" d="m93.02,53.7c-10.72-.96-21.37-1.9-32.12.57-6.56,1.51-12.23,4.86-18.35,7.23-5.27-7.59-8.57-15.53-6.8-25.21,2.16-11.81,14.52-16.53,22.59-10.2.35.27.88.32,1.57.55.87-4.01-.03-7.97.8-11.86,1.44-6.74,4.73-11.8,11.45-13.85,6.87-2.1,13.24-.62,18.58,4.22,5.9,5.35,8.18,12.36,8.6,20.12.54,10.07-1.73,19.5-6.32,28.42h0Z"/>
      <path class="cls-6" d="m58.24,139.38c-10.74-1.09-18.2-11.65-15.77-22.19.55-2.39,1.49-3.84,4.3-3.66,1.41.09,2.87-.59,4.31-.93,6.42-.81,12.26-3.1,17.53-6.83,1.32-.55,2.65-1.1,3.97-1.65,1.34,3.7,4.19,6.58,5.25,10.5,2.15,7.99-.53,16.74-7.05,21.69,1.28-2.77,1.86-5.69,1.28-8.7-.85-4.42-3.03-7.7-7.94-8.22-4.36-.46-8.36,2.24-9.83,6.74-1.73,5.29-.4,9.75,3.96,13.26h-.01Z"/>
      <path class="cls-1" d="m94.07,133.32c-.47,2.99,1.92,4.81,3.02,7.14,2.72,5.78,1.76,11.57.56,17.41-2.63-.24-3.61,3.62-6.55,2.64-3.12-1.59-5.83-3.74-8.58-5.91-3.32-2.63-5.97-6.36-10.53-7.21-.6-8.06,4.68-12.64,10.22-16.92,3.51-2.71,6.85.24,10.25.89.54.65,1.08,1.3,1.61,1.95h0Z"/>
      <path class="cls-6" d="m94.07,133.32c-.54-.65-1.08-1.3-1.61-1.95-4.83-9.77-4.05-18.96,2.88-27.5,2.66-.23,3.93,2.66,6.41,2.85,5.17,3.28,10.97,4.58,16.94,4.9,2.91.16,3.98,1.13,4.33,4,1.16,9.52-2.25,17.27-9.07,19.84.44-2.09,1.16-4.16,1.27-6.27.3-5.64-3.49-10.27-8.38-10.58-4.64-.29-8.98,3.56-9.7,8.92-.3,2.28-.02,4.63,0,6.95-1.41.64-1.94-1.04-3.05-1.17h-.02Z"/>
      <path class="cls-4" d="m91.1,160.51c2.93.98,3.92-2.88,6.55-2.64.59,3.25,1.71,6.41,1.35,9.79-.71,6.68-6.49,9.52-11.61,5.33-2.26-1.85-3.06-1.05-4.75.43-4.83,4.24-10.86,2.3-12.69-3.9-1.77-5.98.64-11.39,2.31-16.91,3.59.7,5.08,4.01,7.51,6.13,3.49,3.04,6.93,5.22,11.35,1.77h-.02Z"/>
      <path class="cls-3" d="m58.24,139.38c-4.36-3.51-5.69-7.97-3.96-13.26,1.47-4.49,5.48-7.2,9.83-6.74,4.91.52,7.1,3.8,7.94,8.22.58,3.01,0,5.92-1.28,8.7-3.69,3.01-7.75,4.53-12.53,3.07h0Z"/>
      <path class="cls-3" d="m97.12,134.49c-.02-2.32-.3-4.67,0-6.95.72-5.36,5.06-9.21,9.7-8.92,4.89.31,8.68,4.94,8.38,10.58-.11,2.11-.83,4.18-1.27,6.27l.1-.07c-.81-.08-1.08.52-1.36,1.09-4.86,3.17-9.62,3.08-14.28-.44-.35-.63-.36-1.53-1.35-1.64l.07.08h.01Z"/>
      <path class="cls-7" d="m91.1,160.51c-4.42,3.45-7.86,1.27-11.35-1.77-2.43-2.12-3.92-5.43-7.51-6.13-.08-1.74-.17-3.48-.25-5.22,4.56.84,7.21,4.58,10.53,7.2,2.75,2.17,5.45,4.32,8.58,5.91h0Z"/>
      <path class="cls-7" d="m101.74,106.72c-2.47-.19-3.75-3.08-6.41-2.85-.47-2.8-3.32-4.57-3.25-7.6.03-1.36.08-2.81,1.6-3.26,1.42-.41,2.04.84,2.47,1.9,1.19,2.98,3.57,4.58,6.32,5.9,1.42.68,3.58,1.1,3.42,3.09-.18,2.2-2.5,2.24-4.15,2.83h0Z"/>
      <path class="cls-7" d="m72.57,104.12c-1.32.55-2.65,1.1-3.97,1.65-2.31-1.79-5.65,2.4-7.63-1.32,4.36-2.68,9.14-4.84,11.64-9.77.47-.94,1.42-1.48,2.51-.86,1.04.59.94,1.67.92,2.66-.08,3.03-2.87,4.84-3.47,7.64h0Z"/>
      <path class="cls-1" d="m60.97,104.45c1.98,3.72,5.32-.47,7.63,1.32-5.27,3.74-11.11,6.03-17.53,6.83.41-6.23,6.02-6.14,9.9-8.15Z"/>
      <path class="cls-6" d="m97.06,134.41c.99.11,1,1.01,1.35,1.64-.7-.35-1.74-.4-1.35-1.64Z"/>
      <path class="cls-6" d="m112.68,136.49c.28-.57.55-1.17,1.36-1.09-.05.87-.74.94-1.36,1.09Z"/>
    </g>
  </g>
</svg>