<?xml version="1.0" encoding="utf-8"?>
<!-- Generator: Adobe Illustrator 28.0.0, SVG Export Plug-In . SVG Version: 6.00 Build 0)  -->
<svg version="1.1" id="Layer_2_00000137130349474912092220000002803085586229460111_"
	 xmlns="http://www.w3.org/2000/svg" xmlns:xlink="http://www.w3.org/1999/xlink" x="0px" y="0px" viewBox="0 0 212.1 230.4"
	 style="enable-background:new 0 0 212.1 230.4;" xml:space="preserve">
<style type="text/css">
	.st0{fill:#FBF8F4;}
	.st1{fill:#FCCD0A;}
	.st2{fill:#F88806;}
	.st3{fill:#EB4527;}
	.st4{fill:#F2E9DB;}
	.st5{fill:#BEB5A9;}
	.st6{fill:#FAA009;}
	.st7{fill:#2E2D2B;}
	.st8{fill:#EB7404;}
	.st9{fill:#AD3A05;}
</style>
<g id="Layer_1-2">
	<g id="Sleep">
		<path class="st0" d="M163.1,181.9c4-4.3,7.6-8.8,9.8-14.3c6.6-17,1.2-31.2-10.4-43.8c0.2-6.8,0.4-13.7-0.4-20.4
			c-2.3-19.6-10.9-35-29.6-43.6c2.3-5.7,5.1-11.2,5.8-17.4c0.9-9.1-0.1-17.7-7-24.5c-4.6-4.5-10.3-6.1-16.5-4.3
			c-6.1,1.8-9.1,6.4-10.3,12.3c-0.4,1.7-0.8,3.3-1.3,5.6c-2.7-4.4-5.7-7.4-10.2-8.4c-9.3-1.9-16.4,4.5-16.9,15.3
			c-0.1,1.7,1.2,3.8-2.6,3.7c-7.1-0.2-11.3,4-12.1,11.1c-0.5,4.1,0.9,7.9,1.6,11.8l-0.3,0.1c-22,4.7-38.8,16.9-50.6,35.8
			c-15.3,24.5-18.3,61.8,6,82.9c-4.9,0-9.4,1.7-13.8,3.8c-1.4,0.6-2.7,1.4-2.8,3.2c-0.1,2.1,1.3,3,2.8,3.6c2.3,0.9,4.6,1.9,7,2.5
			c18.3,4.4,37,5.6,55.6,5.9c29.5,0.5,59.1,1,88.4-2.9c7.1-0.9,14-2.6,20.7-5.1c2.1-0.8,4-2.1,4.1-4.5c0-2.2-2.3-2.6-3.9-3.4
			c-1.9-0.9-4.2-1.2-6.1-2.2C167.8,183.6,164.4,185.1,163.1,181.9L163.1,181.9L163.1,181.9z"/>
		<path class="st0" d="M166.2,22.2c-3.5,4.8-6.6,8.8-9.6,12.9c-2,2.8-2,6.1,1.6,6.6c5.5,0.8,11.3,0.3,16.9,0.1
			c1.8-0.1,2.9-1.5,3-3.5c0.1-2-1-3.1-2.8-3.7c-0.9-0.3-1.9-0.4-2.9-0.5c-1.3-0.2-3,0.6-3.7-0.7c-0.9-1.6,1-2.6,1.8-3.8
			c1.8-2.8,4.1-5.2,5.8-8.1c2.3-3.9,0.9-6.5-3.6-6.6c-4.3-0.1-8.6,0-13,0c-2.4,0-4.4,0.5-4.4,3.4c-0.1,3.2,2.1,3.8,4.7,3.7
			C161.8,22.1,163.6,22.2,166.2,22.2L166.2,22.2L166.2,22.2z"/>
		<path class="st0" d="M201.8,18.7c3.4-4.6,6.5-8.2,9.1-12.2c2.3-3.5,0.9-6.2-3.3-6.4c-4.1-0.2-8.3,0-12.5-0.1
			c-2.7-0.1-5.5,0.4-5.6,3.5c-0.1,3.2,2.6,3.8,5.3,3.7c0.5,0,1,0,1.5,0c2.9-0.1,3.2,1.2,1.6,3.2c-2.3,3.1-4.9,5.9-6.9,9.1
			c-2.4,3.9-1,6.5,3.4,6.6c4.6,0.1,9.3,0,14,0c2.1,0,3.6-0.9,3.6-3.2c0-2.1-1.2-3.5-3.3-3.8C206.9,18.9,204.9,18.9,201.8,18.7
			L201.8,18.7L201.8,18.7z"/>
		<path class="st1" d="M62.5,65.1l0.3-0.1c1.9,0.3,3-1.2,4.2-2.2c16.3-12.4,39.7-12.6,52.5,4.2c2,2.6,3.8,2.3,5.7,0.3
			c2.4-2.5,4.7-5.1,7.1-7.6c18.7,8.5,27.3,24,29.6,43.6c0.8,6.8,0.7,13.6,0.4,20.4c-0.1,6.8-0.1,13.7-0.1,20.5
			c0,3.6-0.4,5.5-5.3,5.1c-16.6-1.1-30.4,4.4-39.4,19.2c-2.2,3.5-3.2,1.5-4.5-0.2c-1.4-1.9-2.1-2.5-4-0.2c-9,10.9-21.5,8.8-26.8-4.5
			c-0.3-0.7-0.3-2.3-1.1-1.9c-4.1,2.4-3.6-1.8-4.8-3.3c-1.5-1.8-2.6-3.8-4-5.7c-3.5-4.5-7.7-8.2-13-10.6c-2.3-1-3.8-4.6-5.5-4.4
			c-4.9,0.6-9-1.8-13.5-2.4c-5.2-0.7-6.5-3.9-6.2-8.4c0.2-3.3,1.7-6,3.6-8.6c4.1-5.8,6.8-12.2,8.2-19.1c1.7-8.6,4.9-16.5,9.2-24.1
			C57.3,71.4,61,69.1,62.5,65.1L62.5,65.1L62.5,65.1z M104.6,134.8c0.2,6,6.4,13.3,12.1,14.1c2.4,0.4,4.7-0.1,5.7-2.8
			c1-1.1,1.8-2,3.6-2.2c5.9-0.5,8.5-4,6.8-9.6c-1.4-4.4-2.9-8.8-5.1-12.9c-1.9-3.6-5.2-6-9.8-5.3c-4.8,0.7-12.9,10-13.5,15.1
			C104.5,132.5,104.6,133.6,104.6,134.8L104.6,134.8L104.6,134.8z M98.7,120.6c5.2-0.1,8.7-2.8,10.9-7.3c0.7-1.4,2-3.3,0.2-4.4
			c-2.2-1.2-2.5,1.3-3.3,2.6c-4,6.8-11.8,7.2-15.4,0.6c-0.8-1.4-1.2-3.1-1.6-4.7c-0.3-1.1-0.4-2.5-1.9-2.4c-1.8,0.1-1.8,1.6-1.8,3
			C85.8,114.6,92.1,120.7,98.7,120.6L98.7,120.6z M138.7,124.3c3.9-0.1,7.1-2.7,9-6.9c0.8-1.7,3-4.4,0.3-5.6
			c-2.7-1.2-2.4,2.3-3.4,3.8c-1.9,2.7-3.8,5.2-7.5,4.8c-3.9-0.4-5.6-3.1-6.4-6.6c-0.1-0.5-0.1-1-0.1-1.5c-0.2-1.1-0.7-2-1.9-1.9
			c-1.4,0.1-1.8,1.2-1.9,2.5C126.5,118.3,132,124.2,138.7,124.3C138.7,124.3,138.7,124.3,138.7,124.3z"/>
		<path class="st2" d="M62.5,65.1c-1.5,4-5.3,6.3-7.3,9.9c-4.3,7.6-7.5,15.5-9.2,24.1c-1.4,6.9-4.1,13.3-8.2,19.1
			c-1.8,2.6-3.4,5.3-3.6,8.6c-0.3,4.6,1.1,7.8,6.2,8.4c4.5,0.6,8.6,3,13.5,2.4c1.7-0.2,3.1,3.4,5.5,4.4c5.3,2.3,9.5,6,13,10.6
			c1.4,1.8,2.6,3.9,4,5.7c1.2,1.5,0.7,5.7,4.8,3.3c0.7-0.4,0.8,1.2,1.1,1.9c5.3,13.2,17.8,15.4,26.8,4.5c1.9-2.3,2.6-1.7,4,0.2
			c1.3,1.7,2.4,3.8,4.5,0.2c9-14.8,22.8-20.3,39.4-19.2c4.9,0.3,5.3-1.6,5.3-5.1c0-6.8,0.1-13.6,0.1-20.5
			c11.6,12.7,17,26.8,10.4,43.8c-2.1,5.5-5.8,10-9.8,14.3c-5,3.3-9.6,7.3-15.7,8.5c-1.6-1.7-3.3-3.3-5.9-3.3
			c-8.4,0-16.8-0.6-25.2,0.7c-2.9,0.4-7.2,0.5-8.5-2.3c-1.6-3.2,2.8-4.6,4.5-6.8c0.4-0.5,1.2-0.6,1.7-1c1.1-0.8,3.5-1,2.4-2.9
			c-0.9-1.4-2.7-0.2-4.1,0.3c-8.1,2.6-10.6,9.2-12.2,16.6c-1,0.1-2,0.3-2.9,0.3c-14.8,0.9-29.6-1.4-44.7,2.3
			c-12.4,3-24.3-2.9-34.8-10.4c-24.3-21.1-21.3-58.4-6-82.9C23.7,82,40.6,69.8,62.5,65.1L62.5,65.1L62.5,65.1z"/>
		<path class="st3" d="M132.4,59.7c-2.4,2.5-4.6,5.2-7.1,7.6c-1.9,2-3.8,2.2-5.7-0.3c-12.8-16.8-36.2-16.5-52.5-4.2
			c-1.3,1-2.3,2.5-4.2,2.2c-0.7-3.9-2.1-7.7-1.6-11.8c0.8-7.1,5-11.4,12.1-11.1c3.8,0.1,2.5-2.1,2.6-3.7
			c0.6-10.9,7.6-17.2,16.9-15.3c4.5,0.9,7.5,4,10.2,8.4c0.5-2.3,0.9-4,1.3-5.6c1.3-5.9,4.3-10.5,10.3-12.3
			c6.3-1.9,11.9-0.2,16.5,4.3c7,6.8,7.9,15.4,7,24.5C137.6,48.5,134.7,54,132.4,59.7L132.4,59.7L132.4,59.7z"/>
		<path class="st4" d="M17.9,183.9c10.4,7.4,22.4,13.3,34.8,10.4c15-3.6,29.8-1.4,44.7-2.3c1-0.1,2-0.2,2.9-0.3
			c2,0.1,4.3-0.4,5.9,0.4c10.2,5.6,20.7,2.8,31.1,1.8c3.5-0.4,7.2-0.9,10.1-3.4c6.1-1.2,10.8-5.1,15.7-8.5c1.3,3.2,4.7,1.8,7,3
			c1.9,1,4.1,1.4,6.1,2.2c1.6,0.7,3.9,1.1,3.9,3.4c0,2.4-2,3.8-4.1,4.5c-6.7,2.4-13.6,4.1-20.7,5.1c-29.4,3.9-58.9,3.4-88.4,2.9
			c-18.7-0.3-37.3-1.5-55.6-5.9c-2.4-0.6-4.7-1.6-7-2.5c-1.6-0.6-3-1.6-2.8-3.6c0.1-1.8,1.4-2.5,2.8-3.2
			C8.5,185.6,13,183.9,17.9,183.9L17.9,183.9L17.9,183.9z"/>
		<path class="st5" d="M166.2,22.2c-2.6,0-4.4,0-6.1,0c-2.6,0.1-4.7-0.5-4.7-3.7c0.1-2.9,2-3.4,4.4-3.4c4.3,0,8.6-0.1,13,0
			c4.4,0.1,5.9,2.7,3.6,6.6c-1.7,2.8-4,5.3-5.8,8.1c-0.8,1.2-2.6,2.2-1.8,3.8c0.7,1.3,2.4,0.5,3.7,0.7c1,0.1,2,0.2,2.9,0.5
			c1.7,0.6,2.9,1.7,2.8,3.7c-0.1,1.9-1.3,3.4-3,3.5c-5.6,0.2-11.4,0.7-16.9-0.1c-3.6-0.5-3.7-3.8-1.6-6.6
			C159.6,31,162.6,26.9,166.2,22.2L166.2,22.2L166.2,22.2z"/>
		<path class="st5" d="M201.8,18.7c3.1,0.2,5.1,0.1,7,0.4c2,0.3,3.3,1.6,3.3,3.8c0,2.3-1.5,3.2-3.6,3.2c-4.6,0-9.3,0.2-14,0
			c-4.4-0.1-5.9-2.7-3.4-6.6c2-3.2,4.6-6.1,6.9-9.1c1.6-2.1,1.3-3.3-1.6-3.2c-0.5,0-1,0-1.5,0c-2.8,0.1-5.4-0.5-5.3-3.7
			c0.1-3.2,2.9-3.6,5.6-3.5c4.1,0.1,8.3-0.1,12.5,0.1c4.2,0.2,5.7,2.9,3.3,6.4C208.4,10.5,205.3,14.2,201.8,18.7L201.8,18.7
			L201.8,18.7z"/>
		<path class="st6" d="M104.4,131.3c0.5-5.1,8.7-14.4,13.5-15.1c4.6-0.7,7.9,1.7,9.8,5.3c2.2,4,3.7,8.5,5.1,12.9
			c1.7,5.6-0.8,9.1-6.8,9.6c-1.8,0.1-2.6,1.1-3.6,2.2c-0.1-0.4-0.1-0.8-0.2-1.2c0.3-1.5-0.2-2.6-1.5-3.4
			C115.3,138.2,109.8,134.7,104.4,131.3L104.4,131.3L104.4,131.3z"/>
		<path class="st7" d="M98.7,120.6c-6.6,0.1-12.9-6.1-12.9-12.7c0-1.4,0.1-2.9,1.8-3c1.5-0.1,1.6,1.3,1.9,2.4
			c0.4,1.6,0.8,3.3,1.6,4.7c3.7,6.5,11.4,6.2,15.4-0.6c0.8-1.3,1.1-3.8,3.3-2.6c1.8,1.1,0.5,3-0.2,4.4
			C107.4,117.8,103.9,120.5,98.7,120.6C98.7,120.6,98.7,120.6,98.7,120.6z"/>
		<path class="st7" d="M138.7,124.2c-6.7-0.1-12.2-5.9-11.9-11.5c0.1-1.3,0.5-2.4,1.9-2.5c1.2-0.1,1.7,0.8,1.9,1.9
			c0.1,0.5,0,1,0.1,1.5c0.8,3.5,2.5,6.2,6.4,6.6c3.7,0.4,5.6-2.1,7.5-4.8c1-1.4,0.7-5,3.4-3.8c2.7,1.3,0.5,3.9-0.3,5.6
			C145.8,121.5,142.6,124.2,138.7,124.2L138.7,124.2L138.7,124.2z"/>
		<path class="st8" d="M122.2,145c0.1,0.4,0.1,0.8,0.2,1.2c-1.1,2.7-3.3,3.1-5.7,2.8c-5.6-0.8-11.8-8.1-12.1-14.1
			c2-0.1,3.2,1.4,4.8,2.3C113.8,139.6,117.1,143.8,122.2,145L122.2,145L122.2,145z"/>
		<path class="st9" d="M122.2,145c-5.2-1.2-8.4-5.4-12.8-7.9c-1.5-0.9-2.8-2.3-4.8-2.3c-0.1-1.2-0.2-2.4-0.2-3.6
			c5.4,3.4,10.9,6.9,16.4,10.3C122,142.4,122.5,143.5,122.2,145L122.2,145L122.2,145z"/>
		<path class="st8" d="M147.4,190.3c-2.9,2.6-6.6,3.1-10.1,3.4c-10.4,1.1-21,3.9-31.1-1.8c-1.6-0.9-3.9-0.3-5.9-0.4
			c1.5-7.4,4.1-14,12.2-16.6c1.4-0.5,3.2-1.7,4.1-0.3c1.2,1.9-1.3,2.1-2.4,2.9c-0.5,0.4-1.3,0.5-1.7,1c-1.8,2.2-6.1,3.6-4.5,6.8
			c1.4,2.8,5.6,2.7,8.5,2.3c8.4-1.2,16.8-0.7,25.1-0.7C144.1,187.1,145.8,188.6,147.4,190.3L147.4,190.3L147.4,190.3z"/>
	</g>
</g>
</svg>
