<?xml version="1.0" encoding="utf-8"?>
<!-- Generator: Adobe Illustrator 28.0.0, SVG Export Plug-In . SVG Version: 6.00 Build 0)  -->
<svg version="1.1" xmlns="http://www.w3.org/2000/svg" xmlns:xlink="http://www.w3.org/1999/xlink" x="0px" y="0px"
	 viewBox="0 0 250 250" style="enable-background:new 0 0 250 250;" xml:space="preserve">
<style type="text/css">
	.st0{fill:#0252C5;}
	.st1{fill:#848484;}
	.st2{fill:#FBF8F4;}
	.st3{fill:#FCCD0B;}
	.st4{fill:#F88806;}
	.st5{fill:#FB9106;}
	.st6{fill:#EB4527;}
	.st7{fill:#EB7404;}
	.st8{fill:#FAA009;}
	.st9{fill:#2E2D2B;}
	.st10{fill:#AD3A05;}
	.st11{fill:#F58A1F;}
	.st12{fill:#FDBD10;}
	.st13{fill:#FFFFFF;}
</style>
<g id="Layer_1">
	<g>
		<path class="st0" d="M228.9,155.5c1.2,0.5,1.6,1.1,1.6,2.4c0,18.9,0,37.8,0,56.7c0,1.3-1,2.4-2.4,2.4c-16.4,0-32.9,0-49.3,0
			c-52.1,0-104.2,0-156.3,0c-0.4,0-0.7,0-1.1-0.1c-1.1-0.3-1.5-0.9-1.6-2c0-0.2,0-0.3,0-0.5c0-18.8,0-37.7,0-56.5
			c0-1.2,0.5-2,1.6-2.5c1.2,0,2.4,0.1,3.6,0c1,0,2.1,0,3.1,0c23.3,0,46.6,0,69.9,0c0.3,0,0.7,0.1,1-0.1c0.2,0,0.4,0,0.6,0
			c12.7,0,25.3,0,38,0c0.5,0,0.9,0.1,1.4,0c0.3,0.1,0.7,0.1,1,0.1c25.2,0,50.4,0,75.6,0c3.2,0,6.5,0,9.7,0
			C226.5,155.6,227.7,155.5,228.9,155.5z"/>
		<path class="st0" d="M20.2,82.4c-1.2-0.1-1.6-0.6-1.6-1.8c0-2.2,0-4.5,0-6.7c0-3.1,0-6.2,0-9.4c0-1.1,0.8-2,1.9-1.9
			c1.4,0.1,2.8-0.4,4.2-0.6c1.8-0.3,3.5-0.7,5.3-1c1.9-0.4,3.9-0.8,5.8-1.2c2.6-0.5,5.2-1.1,7.9-1.6c1.2-0.2,2.4-0.5,3.5-0.7
			c2.1-0.4,4.1-0.8,6.2-1.3c2.8-0.6,5.6-1.2,8.4-1.8c3.9-0.8,7.8-1.8,11.7-2.7c4.3-1,8.6-2.1,12.9-3.3c3.8-1,7.6-2.1,11.4-3.3
			c5.2-1.6,10.4-3.4,15.5-5.3c3.4-1.3,6.8-2.6,10.1-4c0.4-0.2,0.8-0.4,1.2-0.5c0.6-0.2,1.1-0.2,1.7,0c1.5,0.6,3,1.2,4.5,1.8
			c2.4,1,4.8,1.9,7.3,2.9c4.3,1.6,8.6,3.1,13,4.5c4.8,1.5,9.6,2.9,14.4,4.2c3.8,1,7.6,2,11.5,2.9c3.4,0.8,6.8,1.6,10.2,2.3
			c2.3,0.5,4.6,1,6.8,1.5c2.5,0.5,5.1,1,7.6,1.5c2.3,0.5,4.5,0.9,6.8,1.4c2.5,0.5,5.1,1,7.6,1.5c3,0.6,6,1.2,9,1.8
			c1.3,0.3,2.6,0.5,3.9,0.7c0.4,0.1,0.9,0,1.4,0c1.1,0,1.6,0.6,1.6,1.8c0,0.8-0.1,1.6,0.1,2.3c0,0.1,0,0.3,0,0.5c0,1.8,0,3.6,0,5.4
			c0,0.8-0.1,1.5-0.1,2.3c0.2,1.9,0,3.8,0.1,5.7c0,1.2-0.7,1.8-1.7,1.8c-0.2,0-0.5,0-0.7,0c-51.3,0-102.6,0-153.9,0
			C57.1,82.4,38.7,82.4,20.2,82.4z"/>
		<path class="st1" d="M20.2,82.4c18.4,0,36.8,0,55.2,0c51.3,0,102.6,0,153.9,0c0.2,0,0.5,0,0.7,0c0.2,2.2,0.3,4.4,0.5,6.6
			c0.2,2.2,0.4,4.3,0.6,6.5c0.1,0.7,0.1,1.2-0.3,1.8c-0.3,0.6-0.8,0.9-1.5,0.9c-0.4,0-0.5,0.1-0.4,0.5c0,0.1,0,0.3,0,0.5
			c0,18.8,0,37.6,0,56.4c-1.2,0-2.4,0.1-3.6,0c0-0.4,0.1-0.8,0.1-1.2c0-18.4,0-36.9,0-55.3c0-0.2,0-0.3,0-0.5c0-0.2-0.1-0.3-0.3-0.3
			c-0.4,0-0.8,0-1.3,0c-46.7,0-93.4,0-140.2,0c-18.8,0-37.5,0-56.3,0c-0.6,0-1.3,0-1.9,0c-0.3,0-0.4,0.1-0.4,0.4c0,1.2,0,2.3,0,3.5
			c0,17.2,0,34.4,0,51.6c0,0.6,0,1.2,0.1,1.8c-1.2,0.1-2.4,0-3.6,0c0-5.8,0-11.7,0-17.5c0-13,0-26,0-39c0-0.1,0-0.2,0-0.4
			c0-0.3-0.1-0.4-0.3-0.4c-1.5-0.3-2-1-1.8-2.5c0.1-0.8,0.1-1.6,0.2-2.4c0.2-2.1,0.4-4.1,0.5-6.2C20.1,85.5,20.2,84,20.2,82.4z"/>
	</g>
</g>
<g id="Layer_2">
	<g id="Layer_1-2">
		<g id="Wave">
			<path class="st2" d="M122.2,100.8c-2.1,0.8-3.1,3-2.8,5.7c0.1,0.5,0.1,1.1,0.2,1.7c-3.5-1.3-5.9,0.1-6.1,3.6
				c-0.1,2.2,0.9,3.9,2.4,5.5c-1.9,1.6-3.4,3.6-4.3,6c-0.8,2.3-1,4.6-1.2,7c-0.4,3.8-0.1,7.8-2.2,11.3c-0.2,0.4-0.2,0.9-0.2,1.3
				c-2.5,3.6-3.2,7.6-2.6,11.9c0.1,0.6,0.5,0.9,1.1,0.9c1.4,0,2.8-0.1,4.2-0.1c0.5,0.1,1,0.1,1.4,0c0.1,0,0.2,0.1,0.2,0.1
				c9.1,0,18.3,0,27.4,0c0.7,0,0.9-0.3,1-0.9c0.5-2,0.9-4,0.8-6.1c0-0.9,0.2-1.4,1.1-1.7c6.3-2,10.3-9,10.9-13.7
				c0.1-0.5,0.1-1.2-0.3-1.3c-1.3-0.5-0.6-1.4-0.4-2.1c0.2-0.8,0.3-1.7,0.2-2.5c-0.1-1-0.3-2.1-1.4-2.4c-1.1-0.3-1.9,0.4-2.5,1.2
				c-0.1,0.1-0.1,0.3-0.4,0.2c0-1.1,0-2.2-0.5-3.3c-0.4-0.9-1-1.5-2-1.5c-0.9,0-1.5,0.6-1.9,1.5c-0.2,0.5-0.3,1-0.5,1.5
				c-0.4,1.5-0.7,3-1.2,4.4c-0.6,1.7-1.1,3.3-2.4,4.6c-0.4-3.3-0.6-6.7-1.7-9.9c-1.6-4.8-4.8-7.8-9.8-8.7c0.3-1.2,0.7-2.3,1-3.5
				c0.6-2.9,0.4-5.8-1.4-8.3C127,100.9,124.4,100,122.2,100.8"/>
			<path class="st3" d="M128.9,114.8c5,1,8.2,4,9.8,8.7c1.1,3.2,1.3,6.6,1.7,9.9c0.4,2.5,0.7,5.1,2,7.4c0.8,1.5,0.4,2.5-1.1,3.6
				c-1.3,0.2-2.4-0.2-3.5-0.9c-0.3,1.8-0.7,3.4-2.7,3.9c-2,0.5-3.2-0.7-4.4-2c-0.9,1.9-1.8,3.5-4.2,3.4c-2.3-0.1-3.4-1.5-4.2-3.4
				c-0.5,0.5-0.9,1.1-1.4,1.5c-2.3,2.1-5.8,1.1-6.4-1.9c-0.3-1.2-0.6-1-1.3-0.5c-0.4,0.3-0.9,0.4-1.3,0.5c-1.9,0.5-3.4-0.4-3.8-2.4
				c0.1-0.4,0-0.9,0.2-1.3c2.1-3.5,1.8-7.5,2.2-11.3c0.2-2.3,0.4-4.7,1.2-7c0.8-2.4,2.3-4.4,4.3-6c0.3-0.1,0.6-0.3,0.8-0.5
				c3.1-1.9,6.1-2.3,9.3-0.3c0.7,0.5,1.3,0.3,1.8-0.3C128.2,115.7,128.5,115.3,128.9,114.8L128.9,114.8L128.9,114.8z M130.2,134.4
				c0.4,0,0.7,0,1.1,0c1.3,0,1.6-0.6,1-1.7c-0.2-0.3-0.5-0.6-0.5-1.1c1.4-1.2,2.8-1.9,4.6-0.8l0.1,0l-0.1,0
				c-0.7-0.7-0.6-1.6-0.5-2.5c0.1-1.1-0.2-2.1-0.7-3.1c-0.7-1.4-2.2-2.3-3.6-2.1c-1.5,0.2-2.3,1.3-2.8,2.7c-0.4,1.1-0.2,2.2-0.3,3.3
				c-1.4-0.5-2.3,0.3-3.1,1.3c-0.2,0.2-0.3,0.6-0.7,0.6c0.5-1.2,0.6-2.4,0.5-3.7c-0.1-1.9-1.2-3.4-3-4c-1.4-0.5-3.1,0.1-4.1,1.3
				c-1.1,1.3-1.2,2.9-1,4.4c0.1,0.8,0.2,1.5-0.5,2.2c1.3-0.3,2.4-1.2,3.8-0.9c0.8,0.1,1.4,0.5,2.1,0.9c0.3,0.6,0.9,0.7,1.3,1.1
				l0,0.9c-0.1,0.9,0.3,1.8,0.6,2.6c-0.7,1.2-0.9,2.6-1,3.9c-0.1,1,0.2,1.9,1.2,2.4c0.9,0.5,1.7,0.2,2.4-0.5
				c0.4-0.4,0.6-0.2,0.9,0.1c0.6,0.6,1.3,0.5,2,0.2c0.7-0.3,0.9-1,0.9-1.7c0.1-1.4-0.5-2.6-1.2-3.7
				C129.9,135.8,130.3,135.1,130.2,134.4L130.2,134.4L130.2,134.4z"/>
			<path class="st4" d="M108,142.8c0.4,2,1.9,2.9,3.8,2.4c0.5-0.1,0.9-0.3,1.3-0.5c0.7-0.5,1-0.7,1.3,0.5c0.6,3,4.1,4,6.4,1.9
				c0.5-0.4,0.9-0.9,1.4-1.5c0.9,1.8,2,3.3,4.2,3.4c2.4,0.1,3.3-1.5,4.2-3.4c1.2,1.3,2.4,2.6,4.4,2c2-0.5,2.4-2.1,2.7-3.9
				c1.1,0.7,2.3,1.1,3.5,0.9c0.4,0.3,0.3,0.9,0.4,1.3c0.1,0.8,0.4,1.1,1.1,1.2c-0.9,0.2-1.1,0.8-1.1,1.7c0.1,2.1-0.3,4.1-0.8,6.1
				c-0.2,0.6-0.4,0.9-1,0.9c-9.1,0-18.3,0-27.4,0c-0.1,0-0.2,0-0.2-0.1c0-1.4,0-2.8,0-4.2c0-0.5,0.3-1.3-0.3-1.3
				c-0.6,0-0.4,0.8-0.6,1.3c-0.1,0.2,0,0.4,0,0.6c-0.3,1.2-0.1,2.5-0.5,3.7c-1.4,0-2.8,0.1-4.2,0.1c-0.6,0-1-0.3-1.1-0.9
				C104.8,150.3,105.5,146.3,108,142.8L108,142.8L108,142.8z"/>
			<path class="st5" d="M142.7,146.9c-0.7-0.1-1-0.4-1.1-1.2c0-0.4,0.1-1-0.4-1.3c1.5-1.1,1.9-2.1,1.1-3.6c-1.3-2.3-1.6-4.9-2-7.4
				c1.3-1.3,1.8-3,2.4-4.6c0.5-1.4,0.8-2.9,1.2-4.4c0.1-0.5,0.3-1,0.5-1.5c0.3-0.8,0.9-1.5,1.9-1.5c1,0,1.6,0.6,2,1.5
				c0.4,1.1,0.5,2.2,0.5,3.3c0.2,0.1,0.3-0.1,0.4-0.2c0.6-0.9,1.4-1.6,2.5-1.2c1.1,0.3,1.3,1.4,1.4,2.4c0.1,0.8,0,1.7-0.2,2.5
				c-0.2,0.7-0.8,1.6,0.4,2.1c0.4,0.2,0.4,0.9,0.3,1.3C153,137.9,149,144.9,142.7,146.9L142.7,146.9L142.7,146.9z"/>
			<path class="st6" d="M122.2,100.8c2.1-0.8,4.8,0,6.2,2.2c1.8,2.5,2,5.4,1.4,8.3c-0.2,1.2-0.6,2.3-1,3.5c-0.4,0.5-0.7,1-1.1,1.4
				c-0.5,0.6-1.1,0.8-1.8,0.3c-3.2-2.1-6.3-1.6-9.3,0.3c-0.3,0.2-0.6,0.3-0.8,0.5c-1.5-1.5-2.4-3.3-2.4-5.5c0.1-3.5,2.5-4.9,6.1-3.6
				c-0.1-0.6-0.1-1.1-0.2-1.7C119.1,103.8,120.2,101.6,122.2,100.8"/>
			<path class="st7" d="M110.7,155.4c0.4-1.2,0.1-2.5,0.5-3.7c0.1-0.2,0-0.4,0-0.6c0.2-0.4,0-1.3,0.6-1.3c0.7,0,0.3,0.9,0.3,1.3
				c0,1.4,0,2.8,0,4.2C111.6,155.6,111.2,155.6,110.7,155.4L110.7,155.4L110.7,155.4z"/>
			<path class="st2" d="M123.9,132.3c-0.4-0.4-1-0.6-1.3-1.1c1.3-1,1.7-2.4,1.2-4c-0.3-0.9-0.8-1.5-1.8-1.5c-1,0-1.6,0.7-1.8,1.6
				c-0.2,1-0.1,2,0.3,2.9c-1.4-0.3-2.5,0.6-3.8,0.9c0.7-0.7,0.6-1.3,0.5-2.2c-0.2-1.6-0.1-3.1,1-4.4c1-1.2,2.7-1.7,4.1-1.3
				c1.8,0.6,2.9,2.1,3,4c0.1,1.3-0.1,2.5-0.5,3.7l0,0c-0.2,0.1-0.3,0.2-0.3,0.5l0,0c-0.2,0-0.2,0.2-0.2,0.3
				C124.2,131.9,124.1,132.1,123.9,132.3L123.9,132.3z"/>
			<path class="st6" d="M129.7,136.5c0.7,1.1,1.3,2.3,1.2,3.7c0,0.7-0.2,1.4-0.9,1.7c-0.7,0.3-1.4,0.3-2-0.2
				c-0.3-0.3-0.5-0.5-0.9-0.1c-0.7,0.7-1.5,1-2.4,0.5c-1-0.5-1.3-1.5-1.2-2.4c0.1-1.3,0.4-2.7,1-3.9c0.5,0.3,0.8,0.7,1.2,1.2
				c0.9,1.2,2.6,1.2,3.4,0C129.3,136.7,129.5,136.5,129.7,136.5L129.7,136.5L129.7,136.5z"/>
			<path class="st2" d="M136.4,130.8c-1.8-1.1-3.2-0.4-4.6,0.8c-0.7-0.2-1-0.8-1.4-1.3c2.1,0.4,3.5-1.3,2.8-3.4
				c-0.3-0.8-0.8-1.4-1.7-1.4s-1.4,0.6-1.7,1.4c-0.4,1.3,0,2.4,0.6,3.4c-0.8-0.2-1.3-0.8-1.9-1.2c0-1.1-0.1-2.2,0.3-3.3
				c0.5-1.4,1.3-2.4,2.8-2.7c1.4-0.2,2.9,0.7,3.6,2.1c0.5,1,0.8,2,0.7,3.1C135.9,129.1,135.8,130,136.4,130.8L136.4,130.8
				L136.4,130.8L136.4,130.8z"/>
			<path class="st8" d="M128.5,129c0.6,0.4,1.2,1,1.9,1.2l0,0c0.4,0.5,0.7,1.1,1.4,1.3c0,0.4,0.3,0.7,0.5,1.1c0.6,1.1,0.3,1.7-1,1.7
				c-0.4,0-0.7,0-1.1,0c-0.2,0-0.5,0-0.7,0c-1.6-0.3-3.3-0.7-4.9-1c-0.2-0.2-0.4-0.2-0.7-0.2l0-0.9c0.1-0.2,0.3-0.3,0.4-0.5
				c0.1-0.1,0.2-0.2,0.2-0.3l0,0c0.3,0,0.3-0.2,0.3-0.5l0,0c0.4,0,0.5-0.3,0.7-0.6C126.2,129.3,127.1,128.5,128.5,129L128.5,129
				L128.5,129z"/>
			<path class="st9" d="M120.6,130.2c-0.4-1-0.5-1.9-0.3-2.9c0.2-1,0.8-1.6,1.8-1.6c1,0,1.5,0.6,1.8,1.5c0.5,1.5,0,2.9-1.2,4
				C122,130.7,121.4,130.4,120.6,130.2L120.6,130.2L120.6,130.2z"/>
			<path class="st7" d="M123.9,133.2c0.3,0,0.5-0.1,0.7,0.2c0.3,1,1,1.7,1.5,2.6c0.4,0.6,1,1.2,1.8,1c0.8-0.1,1.1-0.9,1.3-1.6
				c0.1-0.3,0.2-0.7,0.3-1c0.2,0,0.5,0,0.7,0c0.1,0.8-0.3,1.4-0.5,2.1c-0.3,0-0.4,0.2-0.6,0.4c-0.9,1.2-2.6,1.3-3.4,0
				c-0.3-0.5-0.6-0.9-1.2-1.2C124.2,134.9,123.9,134.1,123.9,133.2L123.9,133.2z"/>
			<polygon class="st2" points="136.4,130.8 136.5,130.8 136.4,130.8 			"/>
			<path class="st3" d="M124.8,130.9c0.1,0.3,0,0.5-0.3,0.5C124.5,131.2,124.6,131,124.8,130.9z"/>
			<path class="st3" d="M124.6,131.4c0,0.2-0.1,0.3-0.2,0.3C124.3,131.6,124.4,131.4,124.6,131.4z"/>
			<path class="st9" d="M130.5,130.3c-0.6-1.1-1-2.2-0.6-3.4c0.3-0.8,0.8-1.4,1.7-1.4s1.4,0.6,1.7,1.4
				C134,128.9,132.6,130.6,130.5,130.3L130.5,130.3L130.5,130.3L130.5,130.3z"/>
			<path class="st10" d="M129.5,134.3c-0.1,0.3-0.2,0.7-0.3,1c-0.2,0.7-0.5,1.4-1.3,1.6c-0.8,0.1-1.4-0.5-1.8-1
				c-0.5-0.8-1.2-1.6-1.5-2.6C126.3,133.7,127.9,134,129.5,134.3L129.5,134.3z"/>
		</g>
	</g>
</g>
<g id="Layer_3_00000029762885592431461350000014905036506616869037_">
	<g>
		<g id="Layer_1_00000098937822393197568000000015330946802738289842_">
			<path class="st11" d="M129.7,175.5C129.7,175.6,129.8,175.6,129.7,175.5c0.1,0,0.1,0.1,0.2,0.1c0,0,0.1,0,0.1,0c0,0,0,0,0,0
				c0,0,0,0,0,0c0,0,0.1-0.1,0.1-0.4c0-0.1,0-0.2,0-0.3c0,0,0,0,0,0c-0.1,0-0.1,0.1-0.2,0.1c0,0-0.1,0.1-0.1,0.1l0,0
				c-0.1,0.1-0.1,0.1-0.1,0.2C129.6,175.3,129.6,175.4,129.7,175.5L129.7,175.5C129.7,175.5,129.7,175.5,129.7,175.5L129.7,175.5z"
				/>
			<path class="st11" d="M116.8,189.3c0.1-1,0.3-2.3,0.6-3.6c-0.2,0.2-0.3,0.3-0.5,0.5c-0.4,0.4-0.9,0.8-1,1.4
				c-0.1,0.5,0,0.9,0.2,1.2C116.3,189,116.5,189.2,116.8,189.3z"/>
			<path class="st11" d="M122.7,176.3c0.4-0.1,0.7-0.1,1.1-0.1c1.5,0,2.8,0.9,3.9,2.6c0.7,1.1,1.2,2.5,1.5,3.8
				c0.4-0.5,0.9-1.1,1.2-1.6c0.3-0.4,0.5-0.8,0.7-1.3c0-0.1,0.1-0.2,0.1-0.3c0.2-0.5,0.2-1.1,0.3-1.7c0-0.2,0-0.4,0-0.7
				c0-0.5-0.1-0.9-0.2-1.4c-0.1-0.4-0.3-0.7-0.6-0.8c0,0,0,0-0.1,0c0,0,0,0,0,0c0,0.1,0,0.3,0,0.4c0,0.3-0.1,0.5-0.2,0.6
				c0,0,0,0,0,0c0,0,0,0-0.1,0.1c-0.1,0.1-0.2,0.1-0.3,0.1c-0.1,0-0.1,0-0.2,0c-0.1,0-0.1,0-0.2-0.1c-0.1,0-0.1-0.1-0.2-0.2
				c0-0.1-0.1-0.1-0.1-0.2c0-0.2,0-0.3,0.1-0.5c0.1-0.1,0.2-0.2,0.3-0.3c0.1-0.1,0.2-0.1,0.3-0.2c0.1,0,0.1,0,0.2-0.1
				c0-0.1,0-0.2,0-0.3c0,0,0-0.1,0-0.1c-0.1-0.7-0.2-1.4-0.4-2c-0.2-0.7-0.5-1.1-0.8-1.3c0,0-0.1,0-0.1,0c-0.1,0-0.2,0-0.3,0.1
				c0.2,1.2,0.2,2.4,0.1,3.4c0,0.2,0,0.4-0.1,0.6c0,0.2,0,0.3-0.1,0.4c-0.1,0.5-0.3,0.9-0.5,1c0,0-0.1,0-0.2,0c0,0,0,0-0.1,0
				c0,0-0.1,0-0.1,0c-0.5-0.1-1-0.6-1.6-1.6c-0.2-0.3-0.3-0.5-0.5-0.9c0,0,0-0.1-0.1-0.1c-0.6-1.3-1.1-2.6-1.1-2.6
				c0-0.1,0-0.2,0.1-0.2c0,0,0,0,0.1,0c0,0,0,0,0,0c0.1,0,0.1,0,0.2,0.1c0,0,0,0,0,0c0,0,0,0,0,0.1c0.1,0.3,0.5,1.4,1,2.4
				c0.2,0.3,0.4,0.8,0.7,1.3c0.3,0.5,0.7,1,1.1,1.1c0,0,0.1,0,0.1,0c0,0,0,0,0,0c0,0,0.2-0.1,0.3-0.7c0-0.2,0.1-0.4,0.1-0.7
				c0-0.2,0-0.4,0-0.6c0-0.9,0-2-0.2-3.1c-0.3-2-0.8-3.9-1.7-4.4c-0.1-0.1-0.3-0.1-0.4-0.1c-0.3,0-0.7,0.2-1.1,0.6
				c-0.7,0.7-1.5,1.8-2,3.6c-0.1,0.3-0.1,0.5-0.2,0.8c-0.1,0.6-0.2,1.2-0.2,1.9c0,0.1,0,0.1,0,0.2c0,0.1,0,0.3,0,0.4
				C122.5,174.9,122.6,175.8,122.7,176.3L122.7,176.3z"/>
			<path class="st11" d="M128.7,197.9l-0.1,0l0,0.4C128.6,198.2,128.6,198,128.7,197.9L128.7,197.9z"/>
			<path class="st11" d="M131.8,193c0.1,0,0.3,0.1,0.6,0.1c0.1,0,0.3,0,0.4,0c0.5,0,0.8-0.1,0.9-0.4c0.2-0.3,0.1-0.6-0.1-0.9
				c-0.1-0.1-0.2-0.2-0.3-0.4c-0.2-0.2-0.6-0.5-0.9-0.8c0,0-0.1-0.1-0.1-0.1c-0.1-0.1-0.1-0.1-0.2-0.2c-0.6-0.5-1.2-1-1.6-1.7
				c-0.6-0.9-0.9-2.4-1.3-4.1c-0.1-0.4-0.2-0.8-0.2-1.2c0-0.1,0-0.2,0-0.2c0-0.1,0-0.2-0.1-0.3c-0.3-1.4-0.8-2.8-1.5-3.9
				c-1-1.6-2.2-2.4-3.5-2.4c-0.3,0-0.6,0-0.9,0.1c-0.1,0-0.1,0-0.2,0.1c-0.1,0-0.1,0-0.2,0.1c-0.6,0.3-1.3,0.7-1.9,1.3
				c-0.2,0.2-0.5,0.6-0.7,0.9c1.3,0.8,2.7,1.9,3.3,2.4c0.1,0.1,0.4,0.1,0.6,0.1c0.4,0.1,0.9,0.1,1,0.5c0.1,0.3,0,0.8-0.4,1.4l0,0
				c0,0.1-0.1,0.1-0.1,0.2l-0.2,0.3c0,0-0.4,0.7-0.9,1.3c0,0,0,0,0,0.1c-0.1,0.5,0.2,0.8,0.8,1.3c0.4,0.3,0.8,0.7,1,1.2
				c0.3,0.7,0.2,1.5-0.3,2.1c-0.4,0.6-1,0.9-1.7,0.9l0,0c-0.5,0-1.1-0.2-1.5-0.6c-0.9-0.8-0.8-2.4-0.6-3.5c-0.1,0-0.2,0-0.3,0
				c-0.4,0-0.9-0.1-1.4-0.3c-0.1,0-0.1,0-0.2-0.1c-0.1,0-0.2-0.1-0.3-0.1c-0.1-0.1-0.2-0.1-0.3-0.2c-0.2-0.1-0.4-0.3-0.5-0.4
				c-0.2,1.4-0.4,2.6-0.6,3.6c0,0.1,0,0.2,0,0.2c0,0.1,0,0.2,0,0.2c-0.1,0.9-0.2,1.4-0.2,1.5l0,0.1l0,0.1c0,0-0.1,0.1-0.2,0.3
				c0,0.1-0.1,0.1-0.2,0.2c-0.2,0.3-0.5,0.7-0.8,1.2c-0.1,0.1-0.2,0.3-0.2,0.4c-0.1,0.1-0.1,0.2-0.2,0.4c-0.7,1.4-1,2.4-0.8,3l0-0.1
				c0-0.1,0-0.3,0.1-0.4c0.1-0.1,0.2-0.2,0.3-0.2l1.2,0c0,0,0,0,0,0c0.3,0,0.5,0.2,0.5,0.5l0,0.4c0.2-0.1,0.4-0.1,0.4-0.1l0.2-0.1
				l0.1,0.2c0.2,0.6,0.8,1.9,1.5,2.8l-0.1-3.4c0-0.3,0.2-0.5,0.5-0.5l1.2,0c0,0,0,0,0,0c0.3,0,0.5,0.2,0.5,0.5l0.2,4.5
				c0.1,0,0.1-0.1,0.2-0.1l0-4.4c0-0.1,0-0.3,0.1-0.4c0.1-0.1,0.2-0.1,0.4-0.1l1.2,0c0.2,0,0.4,0.1,0.5,0.3l0.2,0.6l0-0.5
				c0-0.3,0.2-0.5,0.5-0.5l1.2,0h0c0.3,0,0.5,0.2,0.5,0.5l0,2.7c0.1,0,0.1,0,0.2,0.1c0,0,0,0,0,0l0.1-1.7c0-0.9,0.6-1.5,1.5-1.5
				l1.2,0c0-0.1,0-0.2,0-0.3c0-0.2,0-0.3,0-0.4l0-0.4l0.4,0.2c0,0,0.1,0,0.2,0.1c0.1,0.1,0.3,0.1,0.5,0.2c0.3,0.1,0.8,0.3,1.1,0.3
				c0.2,0,0.3,0,0.4-0.1c0.3-0.3,0.3-1,0.1-1.7c0-0.2-0.1-0.4-0.1-0.5c0,0,0-0.1,0-0.1l-0.1-0.4l0.4,0.1
				C131.7,193,131.7,193,131.8,193L131.8,193z M124.7,180.3c-0.7-0.7-0.9,0-0.9,0.2c0,0.1-0.2,0.4-0.4,0.1c0,0,0.1-2.6,1.6-0.9
				S125.4,181,124.7,180.3L124.7,180.3z"/>
			<path class="st11" d="M121.3,186.7c0,0.2-0.1,0.4-0.1,0.6c-0.1,0.9-0.1,2.1,0.5,2.7c0.4,0.3,0.8,0.6,1.2,0.6l0,0
				c0.5,0,1-0.3,1.3-0.8c0.3-0.5,0.4-1.1,0.2-1.7c-0.1-0.4-0.5-0.7-0.8-1c-0.4-0.3-0.8-0.7-0.9-1.2c-0.1,0.1-0.1,0.1-0.2,0.2
				C122.1,186.4,121.7,186.6,121.3,186.7L121.3,186.7z"/>
			<path class="st12" d="M117.6,178.6c-0.2,0-0.3-0.1-0.3-0.1c0,0,0,0,0,0v0l0,0.4l0.3,4.3l0,0.3v0c0,0,0,0,0,0c0,0,0.1,0,0.1,0.1
				c0.1,0,0.1,0.1,0.2,0.1l0,0l0,0l0-0.1l0-0.1l0-0.6l-0.3-3.6c0,0,0.5,0.4,1.1,0.9c0.1,0.1,0.1,0.1,0.2,0.2
				c0.1,0.1,0.1,0.1,0.2,0.2c0.1,0.1,0.2,0.2,0.3,0.4c0.6,0.6,0.7,1.3,1.1,2c0.6,1.2,1.3,1.5,1.9,1.5c0,0,0,0,0,0
				c0.2,0,0.4,0,0.6-0.1c0,0,0,0,0.1,0c0.1-0.1,0.3-0.2,0.4-0.3c0,0,0,0,0,0l0,0c0.1-0.2,0.3-0.3,0.4-0.6c1.1-1.7-0.6-1.1-1.2-1.5
				c-0.9-0.8-2.1-1.7-3.2-2.4c-0.1,0-0.1-0.1-0.2-0.1c-0.1,0-0.1-0.1-0.2-0.1c-0.1,0-0.2-0.1-0.2-0.1
				C118.5,178.8,118,178.7,117.6,178.6L117.6,178.6z"/>
			<path class="st12" d="M123,184.8c-0.1,0-0.2,0.1-0.2,0.1c0,0,0,0-0.1,0c-0.1,0-0.1,0-0.2,0c-0.2,0-0.3,0-0.5,0
				c-0.1,0-0.1,0-0.2,0c-0.1,0-0.2,0-0.3,0c-0.7,0-1.4-0.1-2-0.3c-0.3-0.1-0.7-0.2-1-0.4c-0.1,0-0.2-0.1-0.3-0.1c0,0,0,0-0.1,0
				c-0.1,0-0.1-0.1-0.2-0.1c0,0,0,0,0,0c0,0,0,0,0,0c0,0,0,0-0.1,0c0,0-0.1-0.1-0.1-0.1c0,0,0,0,0,0c-0.1,0-0.2-0.1-0.2-0.1
				c0,0-0.1,0-0.1-0.1c-0.3-0.2-0.6-0.4-0.9-0.5c0.2,0.4,0.5,0.9,0.9,1.5c0,0.1,0.1,0.1,0.1,0.2c0,0,0,0,0,0.1
				c0,0.1,0.1,0.1,0.2,0.2c0,0,0,0,0,0c0.1,0.1,0.1,0.1,0.2,0.2c0.1,0.1,0.2,0.2,0.4,0.3c0.1,0.1,0.2,0.1,0.3,0.2
				c0.1,0.1,0.2,0.1,0.3,0.2c0.1,0.1,0.3,0.1,0.4,0.2c0.4,0.2,0.8,0.2,1.2,0.2c0.1,0,0.3,0,0.4,0c0.1,0,0.2,0,0.3,0
				c0.1,0,0.2,0,0.3-0.1c0.3-0.1,0.6-0.3,0.8-0.5c0.1-0.1,0.3-0.3,0.4-0.4c0.1-0.1,0.2-0.3,0.4-0.4C123,184.9,123.1,184.8,123,184.8
				C123.1,184.8,123,184.8,123,184.8L123,184.8z"/>
			<path class="st11" d="M121.7,184.6c0,0-0.9-0.4-1.3-1.3c-0.3-0.5-0.4-0.7-0.6-0.7c-0.2,0-0.3,0.2-0.3,0.2s-0.1-0.3-0.4-0.2
				c-0.5,0.2-0.5,1.3-0.5,1.3c0.1,0.1,0.3,0.2,0.5,0.2l0,0c0,0,0,0,0.1,0c0.2,0.1,0.3,0.1,0.5,0.2c0,0,0,0,0,0
				c0.5,0.2,1.1,0.2,1.5,0.3c0,0,0.1,0,0.1,0l0,0C121.4,184.6,121.7,184.6,121.7,184.6L121.7,184.6z"/>
			<path class="st12" d="M106.1,193.3L106.1,193.3c-0.1,0-0.2,0-0.2,0.1c0,0.1,0,0.1,0,0.2c0,0,0,0,0,0.1l0,0.1
				c0,0.1,0.1,0.1,0.2,0.1l0.7,0h0c0.1,0,0.2-0.1,0.2-0.2l0-0.1c0-0.1,0-0.1-0.1-0.2c0,0-0.1,0-0.2,0L106.1,193.3L106.1,193.3z"/>
			<path class="st12" d="M104.6,187.7l3,1c0,0,0,0,0.1,0c0.1,0,0.2-0.1,0.2-0.2l0.1-0.2c0-0.1,0-0.1,0-0.2c0-0.1-0.1-0.1-0.1-0.1
				l-3.1-1c-0.1,0-0.1,0-0.2,0c-0.1,0-0.1,0.1-0.1,0.2l0,0.3C104.5,187.5,104.6,187.6,104.6,187.7L104.6,187.7z"/>
			<path class="st12" d="M110.6,183.6c0,0,0.1-0.1,0-0.2c0-0.1,0-0.1-0.1-0.2l-4-2.9c-0.1,0-0.1-0.1-0.2,0c-0.1,0-0.1,0.1-0.1,0.1
				l-0.1,0.1c0,0.1-0.1,0.1-0.1,0.1c0,0.1,0,0.2,0.1,0.3l4,2.9c0,0,0.1,0,0.1,0c0.1,0,0.1,0,0.2-0.1L110.6,183.6L110.6,183.6z"/>
			<path class="st12" d="M113.8,180.1c0,0.1,0.1,0.1,0.2,0.1c0,0,0.1,0,0.1,0l0.2-0.2c0,0,0.1-0.1,0.1-0.1c0-0.1,0-0.1,0-0.2
				l-3.6-4.9c0-0.1-0.1-0.1-0.2-0.1c-0.1,0-0.1,0-0.2,0.1l-0.2,0.2c-0.1,0.1-0.1,0.2,0,0.3L113.8,180.1L113.8,180.1z"/>
			<path class="st12" d="M118.5,177.6c0,0.1,0.1,0.2,0.2,0.2c0,0,0,0,0.1,0l0.3-0.1c0.1,0,0.1-0.1,0.1-0.1c0-0.1,0-0.1,0-0.2
				l-2.1-6.4c0-0.1-0.1-0.1-0.1-0.1s-0.1,0-0.2,0l-0.2,0.1c-0.1,0-0.2,0.2-0.1,0.3L118.5,177.6L118.5,177.6z"/>
			<path class="st12" d="M130.5,174C130.5,174,130.5,174.1,130.5,174c0,0.2,0,0.3,0,0.4l0.1,0c0,0,0,0,0.1,0c0,0,0,0,0.1,0l1-3.2
				c0-0.1,0-0.2-0.1-0.3l-0.2-0.1c-0.1,0-0.1,0-0.2,0c-0.1,0-0.1,0.1-0.1,0.1l-0.7,2.2C130.4,173.5,130.5,173.7,130.5,174L130.5,174
				L130.5,174z"/>
			<path class="st12" d="M133.9,180l0.2,0.2c0,0,0.1,0,0.1,0c0.1,0,0.1,0,0.2-0.1l3.5-4.9c0.1-0.1,0.1-0.2,0-0.3l-0.2-0.2
				c0,0-0.1-0.1-0.2-0.1c-0.1,0-0.1,0-0.2,0.1l-3.6,4.9c0,0-0.1,0.1,0,0.2C133.8,179.9,133.8,179.9,133.9,180L133.9,180z"/>
			<path class="st12" d="M137.6,183.4c0,0.1,0,0.1,0,0.2l0.2,0.2c0,0.1,0.1,0.1,0.2,0.1c0,0,0.1,0,0.1,0l4-2.9
				c0.1-0.1,0.1-0.2,0.1-0.3l-0.1-0.3c0-0.1-0.1-0.1-0.1-0.1c-0.1,0-0.1,0-0.2,0l-4,2.9C137.7,183.3,137.6,183.4,137.6,183.4
				L137.6,183.4z"/>
			<path class="st12" d="M140.2,188.1c0,0.1,0,0.1,0,0.2l0.1,0.2c0,0.1,0.1,0.2,0.2,0.2c0,0,0,0,0.1,0l3-1c0.1,0,0.2-0.1,0.2-0.2
				c0,0,0-0.1,0-0.1l0-0.1c0-0.1,0-0.1-0.1-0.2c-0.1,0-0.1-0.1-0.2,0l-3.1,1C140.3,188,140.2,188,140.2,188.1L140.2,188.1z"/>
			<path class="st12" d="M142.3,193.7L142.3,193.7c0.1-0.1,0.1-0.1,0.1-0.1c0-0.1,0-0.1,0-0.2c0-0.1-0.1-0.1-0.2-0.1h0l-0.8,0
				c-0.1,0-0.1,0-0.2,0c0,0-0.1,0.1-0.1,0.2l0,0.1c0,0.1,0.1,0.2,0.2,0.2h0l0.7,0C142.2,193.8,142.3,193.8,142.3,193.7L142.3,193.7z
				"/>
			<path class="st13" d="M96.1,203.8c0-0.1-0.1-0.1-0.1-0.1c0,0,0,0,0,0l-0.8,0.2c-0.1,0-0.1,0.1-0.1,0.2l0.1,0.6
				c0,0.2,0,0.3-0.2,0.4l-0.4,0.1c0,0-0.1,0-0.1,0c-0.1,0-0.2-0.1-0.3-0.3l-0.8-3.6c0-0.2,0-0.3,0.2-0.4l0.4-0.1c0,0,0.1,0,0.1,0
				c0.2,0,0.3,0.1,0.3,0.3l0.1,0.6c0,0.1,0.1,0.1,0.1,0.1c0,0,0,0,0,0l0.8-0.2c0.1,0,0.1-0.1,0.1-0.2l-0.2-0.9
				c-0.1-0.6-0.5-0.9-1-0.9c-0.1,0-0.2,0-0.4,0l-0.9,0.2c-0.8,0.2-1.1,0.7-0.9,1.4l0.9,4.1c0.1,0.6,0.5,0.9,1,0.9c0.1,0,0.2,0,0.4,0
				l0.9-0.2c0.7-0.2,1.1-0.7,0.9-1.4L96.1,203.8L96.1,203.8z"/>
			<path class="st13" d="M98.8,205.2l-0.5-2.6l1-0.2l0.5,2.6c0,0.1,0.1,0.1,0.1,0.1c0,0,0,0,0,0l0.8-0.2c0.1,0,0.1-0.1,0.1-0.2
				l-1.2-6.2c0-0.1,0-0.1-0.1-0.1c0,0,0,0,0,0l-0.8,0.2c-0.1,0-0.1,0.1-0.1,0.2l0.5,2.6l-1,0.2l-0.5-2.6c0-0.1-0.1-0.1-0.1-0.1
				c0,0,0,0,0,0l-0.8,0.2c-0.1,0-0.1,0.1-0.1,0.2l1.2,6.2c0,0.1,0,0.1,0.1,0.1c0,0,0,0,0,0l0.8-0.2
				C98.7,205.4,98.8,205.3,98.8,205.2L98.8,205.2z"/>
			<path class="st13" d="M101.9,203.6c0.1,0.7,0.5,1,1.1,1c0.1,0,0.2,0,0.3,0l0.9-0.1c0.8-0.1,1.1-0.6,1-1.3l-0.8-5.2
				c0-0.1-0.1-0.1-0.2-0.1c0,0,0,0,0,0l-0.7,0.1c-0.1,0-0.2,0.1-0.1,0.2l0.8,4.9c0,0.2-0.1,0.3-0.3,0.4l-0.4,0.1c0,0-0.1,0-0.1,0
				c-0.2,0-0.3-0.1-0.3-0.3l-0.8-4.9c0-0.1-0.1-0.1-0.2-0.1c0,0,0,0,0,0l-0.8,0.1c-0.1,0-0.2,0.1-0.1,0.2L101.9,203.6L101.9,203.6z"
				/>
			<path class="st13" d="M109.5,201.7c0-0.1-0.1-0.1-0.1-0.1c0,0,0,0,0,0l-0.8,0.1c-0.1,0-0.1,0.1-0.1,0.1l0.1,0.7
				c0,0.2-0.1,0.3-0.3,0.4l-0.4,0.1c0,0,0,0-0.1,0c-0.2,0-0.3-0.1-0.3-0.3l-0.4-3.7c0-0.2,0.1-0.3,0.3-0.4l0.4-0.1c0,0,0,0,0.1,0
				c0.2,0,0.3,0.1,0.3,0.3l0.1,0.7c0,0.1,0,0.1,0.1,0.1c0,0,0,0,0,0l0.8-0.1c0.1,0,0.1-0.1,0.1-0.1l-0.1-0.9c-0.1-0.7-0.5-1-1.1-1
				c-0.1,0-0.1,0-0.2,0l-0.9,0.1c-0.8,0.1-1.1,0.5-1,1.3l0.5,4.2c0.1,0.7,0.5,1,1.1,1c0.1,0,0.1,0,0.2,0l0.9-0.1
				c0.8-0.1,1.1-0.5,1-1.3L109.5,201.7L109.5,201.7z"/>
			<path class="st13" d="M114.5,203.1l-1.8-3.2l1.1-3c0-0.1,0-0.2-0.1-0.2c0,0,0,0,0,0l-0.9,0.1c-0.1,0-0.1,0.1-0.2,0.1l-1,2.7
				l-0.2-2.5c0-0.1-0.1-0.2-0.2-0.2c0,0,0,0,0,0l-0.8,0.1c-0.1,0-0.2,0.1-0.1,0.2l0.5,6.2c0,0.1,0.1,0.2,0.2,0.2c0,0,0,0,0,0
				l0.8-0.1c0.1,0,0.2-0.1,0.1-0.2l-0.2-1.8l0.3-0.6l1.2,2.3c0,0.1,0.1,0.1,0.2,0.1c0,0,0,0,0,0l0.9-0.1
				C114.6,203.3,114.6,203.2,114.5,203.1L114.5,203.1z"/>
			<path class="st13" d="M118.7,202C118.7,202,118.7,202,118.7,202l-2,0.1l-0.3-5.3c0-0.1,0-0.1-0.1-0.1c0,0,0,0,0,0l-0.9,0
				c-0.1,0-0.1,0.1-0.1,0.1l0.3,6.3c0,0.1,0.1,0.1,0.1,0.1c0,0,0,0,0,0l2.9-0.1c0.1,0,0.1,0,0.1-0.1l0-0.8
				C118.8,202,118.8,202,118.7,202L118.7,202z"/>
			<path class="st13" d="M120.6,196.4C120.6,196.4,120.6,196.4,120.6,196.4l-0.9,0c-0.1,0-0.1,0.1-0.1,0.1l0.3,6.3
				c0,0.1,0,0.1,0.1,0.1c0,0,0,0,0,0l0.9,0c0.1,0,0.1-0.1,0.1-0.1l-0.3-6.3C120.8,196.5,120.7,196.4,120.6,196.4L120.6,196.4z"/>
			<path class="st13" d="M123.3,202.8l0-3.5h0l1.3,3.5c0,0.1,0.1,0.1,0.1,0.1l0,0l0.8,0c0.1,0,0.1,0,0.1-0.1c0,0,0,0,0-0.1l0-6.3
				c0-0.1,0-0.1-0.1-0.1h0l-0.9,0c-0.1,0-0.1,0.1-0.1,0.1l0,1.9l0,1.1l0,0.4l0,0l0,0l-0.7-2.1l0,0l-0.5-1.4c0-0.1-0.1-0.1-0.1-0.1
				l0,0l-0.8,0c-0.1,0-0.1,0.1-0.1,0.1l0,3.8l0,2.5c0,0.1,0,0.1,0.1,0.1h0l0.9,0C123.3,202.9,123.3,202.9,123.3,202.8L123.3,202.8z"
				/>
			<path class="st13" d="M127.1,197.6l-0.1,1.8l-0.1,2.4c0,0.8,0.4,1.2,1.1,1.2l1.1,0c0,0,0,0,0.1,0c0.7,0,1.1-0.4,1.2-1.1l0.1-2.3
				c0-0.1,0-0.1-0.1-0.1l-1.4,0h0c-0.1,0-0.1,0-0.1,0.1l0,0.8c0,0.1,0,0.1,0.1,0.1l0.4,0l0,1.1c0,0.2-0.1,0.3-0.3,0.3c0,0,0,0,0,0
				l-0.6,0c-0.2,0-0.3-0.1-0.3-0.3l0,0l0.1-3.7c0-0.2,0.1-0.3,0.3-0.3c0,0,0,0,0,0l0.6,0c0.2,0,0.3,0.1,0.3,0.3v0l0,0.6
				c0,0.1,0.1,0.1,0.1,0.1l0.8,0h0c0.1,0,0.1,0,0.1-0.1l0-0.9c0,0,0-0.1,0-0.1c0-0.7-0.4-1.1-1.1-1.1l-1.1,0c0,0-0.1,0-0.1,0v0h0
				C127.5,196.5,127.1,196.8,127.1,197.6L127.1,197.6z"/>
			<path class="st13" d="M139.8,197.2l-0.8-0.1c0,0,0,0,0,0c-0.1,0-0.1,0.1-0.2,0.1l-0.7,3.8l0,0l-0.4-3.9c0-0.1-0.1-0.2-0.2-0.2
				l-0.5,0c0,0,0,0,0,0c-0.1,0-0.1,0-0.2,0.1l-1.2,3.8l0,0l0-3.9c0-0.1-0.1-0.2-0.2-0.2l-0.8-0.1c0,0,0,0,0,0
				c-0.1,0-0.1,0.1-0.1,0.2l0.1,6.3c0,0.1,0.1,0.2,0.2,0.2l0.8,0.1c0,0,0,0,0,0c0.1,0,0.1,0,0.2-0.1l1.2-3.6l0.5,3.8
				c0,0.1,0.1,0.2,0.2,0.2l0.8,0.1c0,0,0,0,0,0c0.1,0,0.1,0,0.2-0.1l1.3-6.1C139.9,197.3,139.9,197.2,139.8,197.2L139.8,197.2z"/>
			<path class="st13" d="M141.3,197.4C141.3,197.4,141.3,197.4,141.3,197.4c-0.1,0-0.1,0-0.1,0.1l-0.8,6.2c0,0.1,0,0.1,0.1,0.1
				l0.8,0.1c0,0,0,0,0,0c0.1,0,0.1,0,0.1-0.1l0.8-6.2c0-0.1,0-0.1-0.1-0.1L141.3,197.4L141.3,197.4z"/>
			<path class="st13" d="M143.7,197.7c-0.1,0-0.1,0-0.1,0.1l-0.9,6.2c0,0.1,0,0.1,0.1,0.1l0.8,0.1c0,0,0,0,0,0c0.1,0,0.1,0,0.1-0.1
				l0.5-3.4l0,0l0.7,3.6c0,0.1,0.1,0.1,0.1,0.1l0.8,0.1c0,0,0,0,0,0c0.1,0,0.1,0,0.1-0.1l0.9-6.2c0-0.1,0-0.1-0.1-0.1l-0.8-0.1
				c0,0,0,0,0,0c-0.1,0-0.1,0-0.1,0.1l-0.5,3.4l0,0l-0.7-3.6c0-0.1-0.1-0.1-0.1-0.1L143.7,197.7
				C143.7,197.7,143.7,197.7,143.7,197.7L143.7,197.7z"/>
			<path class="st13" d="M150.7,198.9l-1.1-0.2c-0.1,0-0.2,0-0.3,0c-0.6,0-0.9,0.3-1.1,1l-0.8,4.1c-0.1,0.8,0.2,1.2,0.9,1.4l1.1,0.2
				c0.1,0,0.2,0,0.3,0c0.6,0,0.9-0.3,1.1-1l0.4-2.2c0-0.1,0-0.1-0.1-0.2l-1.4-0.3c0,0,0,0,0,0c-0.1,0-0.1,0-0.1,0.1l-0.2,0.8
				c0,0.1,0,0.1,0.1,0.2l0.4,0.1l-0.2,1.1c0,0.2-0.1,0.3-0.3,0.3c0,0-0.1,0-0.1,0l-0.6-0.1c-0.2,0-0.3-0.2-0.3-0.4l0.7-3.7
				c0-0.2,0.1-0.3,0.3-0.3c0,0,0.1,0,0.1,0l0.6,0.1c0.2,0,0.3,0.2,0.3,0.4l-0.1,0.6c0,0.1,0,0.1,0.1,0.2l0.8,0.2c0,0,0,0,0,0
				c0.1,0,0.1,0,0.1-0.1l0.2-0.8C151.8,199.5,151.4,199,150.7,198.9L150.7,198.9z"/>
			<path class="st13" d="M155.3,199.8l-0.9-0.2c-0.1,0-0.3,0-0.4,0c-0.5,0-0.9,0.3-1,0.9l-0.4,1.9c0,0.2,0,0.3,0.2,0.3l1.8,1
				l-0.2,1.1c0,0.2-0.1,0.3-0.3,0.3c0,0-0.1,0-0.1,0l-0.4-0.1c-0.2,0-0.3-0.2-0.2-0.4l0.1-0.6c0-0.1,0-0.1-0.1-0.2l-0.8-0.2
				c0,0,0,0,0,0c-0.1,0-0.1,0-0.1,0.1l-0.2,0.8c-0.2,0.8,0.2,1.2,0.9,1.4l0.9,0.2c0.1,0,0.3,0,0.4,0c0.5,0,0.9-0.3,1-0.9l0.4-1.8
				c0-0.2,0-0.3-0.1-0.3l-1.8-1l0.2-1.1c0-0.2,0.1-0.3,0.3-0.3c0,0,0.1,0,0.1,0l0.4,0.1c0.2,0,0.3,0.2,0.2,0.4l-0.1,0.6
				c0,0.1,0,0.1,0.1,0.2l0.8,0.2c0,0,0,0,0,0c0.1,0,0.1,0,0.1-0.1l0.2-0.8C156.3,200.5,156,200,155.3,199.8L155.3,199.8z"/>
		</g>
	</g>
</g>
</svg>
