<svg xmlns="http://www.w3.org/2000/svg" xml:space="preserve" id="Layer_1" x="0" y="0" version="1.1" viewBox="-0.7 27 253.4 191.8"><style>.c1{fill:#fdbd10}.c2{fill:#082743}.c3{fill:#8c8d8d}.c4{fill:#072b50}.c5{fill:#f58a1f}.c6{fill:#5f8137}.c7{fill:#5c6164}.c8{fill:#063362}.c9{fill:#063059}.c10{fill:#919292}.c11{fill:#e1e0e0}.c12{fill:#0a4184}.c13{fill:#132e41}.c14{fill:#527632}.c15{fill:#2b2f30}.c16{fill:#535455}.c17{fill:#b6b7b8}.c18{fill:#094ca0}.c19{fill:#99999a}.c20{fill:#a5a6a8}.c21{fill:#454a4b}.c22{fill:#2c3438}.c23{fill:#d4d3d2}.c24{fill:#afb0b0}.c25{fill:#0b3555}.c26{fill:#0b324c}.c27{fill:#686c6e}.c28{fill:#737576}.c29{fill:#082337}.c30{fill:#f83a35}.c31{fill:#fd9217}.c32{fill:#fdca27}.c33{fill:#d32f2c}.c35{fill:#597b35}.c36{fill:#dad9d9}.c37{fill:#33393a}.c38{fill:#cecccb}.c39{fill:#709332}.c52{fill:#bfbebc}.c53{fill:#797b7c}.c55{fill:#cdc7bf}.c56{fill:#c3bbb4}</style><path d="M230.1 199.8h-2.6c-5 0-9.1-4.1-9.1-9.1v-2.6c0-5 4.1-9.1 9.1-9.1h2.6c5 0 9.1 4.1 9.1 9.1v2.6c0 5.1-4.1 9.1-9.1 9.1m-206.2 2h-2.5a8.7 8.7 0 0 1-8.7-8.7v-5c0-4.8 3.9-8.7 8.7-8.7h2.5c4.8 0 8.7 3.9 8.7 8.7v5c-.1 4.8-4 8.7-8.7 8.7" class="c11"/><path d="M27.9 95.2c-.3-.2-.3-.5-.3-.8 0-1.1-.1-2.1.1-3.2.1-.3 0-.6 0-.9V71c0-1.1.5-1.5 1.6-1.6.6-.1 1.1.2 1.7.2 5.5.1 11-.2 16.4.2h34.8c.1 0 .1-.1.2-.2h7.9c2.6-.1 5.3.2 7.9-.2 1.1-.1 2.3-.1 3.5 0 3.1.1 6.2-.3 9.3-.2 1.8.1 65.4.3 71.8.6 4.8.2 9.6.1 14.3 0 4.8-.1 9.6.2 14.4-.2 3.5-.3 7.1.2 10.6-.3 1 .1 1.4.5 1.6 1.5-.4.2-.2.6-.2.9v20.2c0 .4 0 .8-.1 1.2-.1.3-.2.8.1 1 .4.3.2.6.3.9-4.9-.1-9.8.2-14.7-.2-3.1-.2-6.3.1-9.5-.2-2.6-.2-5.2 0-7.7-.2-2.6-.2-5.2 0-7.8-.2-3.8-.2-7.5 0-11.3-.2H87.3c-2.5 0-4.9 0-7.4.2-3.8.3-7.5-.1-11.3.2-3.5.3-6.9-.1-10.4.2-2.4.2-4.9.1-7.3.2-4 .2-8 .1-12 .2-3 .1-5.9 0-8.9 0-.8 0-1.5-.1-2.1.2" class="c12"/><path d="M222.3 69.3c-3.5.5-7.1 0-10.6.3-4.8.3-9.6.1-14.4.2s-114.9 0-114.9 0H47.6c-5.5-.4-11-.1-16.4-.2-.6 0-1.1-.3-1.7-.2.9-.3 1.8-.4 2.6-.6 1.9-.4 3.7-.9 5.6-1.4 4.1-1.1 8.1-2.4 12.1-3.6 3.3-1 6.5-2 9.8-3.1 4.4-1.4 8.8-3.1 13.2-4.8 5.5-2.1 11-4.5 16.3-7 3.4-1.6 6.7-3.2 10.1-4.7A265 265 0 0 0 123.9 31c.5-.3.9-.6 1.4-.8.9-.4 1.8-.2 2.6.3 1.3.7 2.5 1.5 3.8 2.2 2.3 1.4 4.6 2.6 6.9 3.9 3.4 1.8 6.7 3.5 10.2 5.1l12.3 5.7c4.4 2 8.7 3.9 13.1 5.7 5.6 2.4 11.2 4.6 16.9 6.7 3.1 1.2 6.3 2.3 9.5 3.4 4.8 1.5 9.6 3.1 14.5 4.4 1.6.4 3.3.9 4.9 1.3.7.1 1.3.3 2 .3.1 0 .2 0 .3.1" class="c18"/><path d="M242.1 207.4c.2.4.6.1.9.2.9.4 1.9.4 2.9.6 1.1.3 2.3.4 3.3 1 .6.4.6.7.1 1.1s-1.1.6-1.7.7c-1.3.3-2.7.5-4 .8-.7.1-1.4.2-2.1.2-.5 0-1 .3-1.6.2-.5 0-1-.1-1.5.2h-.2c-1.1-.1-2.1.1-3.1.3s-2.1-.1-3.1.3h-.1c-1.3-.2-2.6.3-3.8.2-.7-.1-1.3.3-2 .2-.7 0-1.4-.1-2 0-.9.2-1.9 0-2.8.2-1.1.2-2.2 0-3.3.2s-2.2.2-3.3.1c-.9 0-1.8.3-2.7.2q-1.35-.15-2.7 0c-1.5.3-2.9 0-4.4.2-2.2.3-4.4 0-6.6.2-2.1.2-4.2 0-6.3.2-2.9.3-5.8-.1-8.7.2s-5.7-.1-8.6.2c-3.7.3-7.5-.1-11.2.2-3.2.2-6.3.1-9.5.2s-6.4-.2-9.5.1c-3.8.3-7.7.1-11.5.1-3.9.1-7.7 0-11.6 0s-7.7.1-11.6 0c-6.2-.3-12.5.1-18.7-.2-4-.2-8 .1-11.9-.2-2.8-.2-5.7.1-8.5-.2-3-.3-6.1.1-9.1-.2-2.3-.2-4.6 0-6.8-.2-2-.2-4.1 0-6.1-.2-1.6-.2-3.3 0-4.9-.2-1.4-.2-2.8 0-4.2-.2-1.5-.2-3 0-4.5-.2-1.3-.2-2.5 0-3.7-.2-1.4-.2-2.7 0-4-.2-1.2-.2-2.4 0-3.5-.2s-2.2.1-3.3-.4h-.4c-1.3.1-2.6-.3-3.8-.2-.9-.4-2 0-3-.4h-.2c-1.3 0-2.5-.3-3.8-.4-1.1-.1-2.2-.3-3.4-.5-.9-.1-1.9-.4-2.8-.7 0 0-.1 0-.1-.1-.4-.2-.8-.4-.8-.8s.4-.6.7-.8c.8-.5 1.8-.6 2.7-.7 1-.1 1.9-.5 3-.4.2 0 .4-.2.4-.4 1 .5 1.9 1 3.1 1H14v.4h-1.1c-.8.1-1.6.2-2.4.4-.1 0-.2.2-.3.3l.3.3c.9.2 1.8.3 2.8.4.8.1 1.6 0 2.5 0h.4c.1.1.1.2.2.2 1.5 0 2.9.4 4.4.2h1.4c.3 0 .8-.2.9.4 0 .1.2.2.2.2.5-.1 1 .3 1.5.2h5c1.6.2 3.2-.1 4.8-.2.6 0 1.2 0 1.7-.2 1-.3 2-.4 3-.4h172.5c.3 0 .7-.1 1 0 1.2.3 2.4.4 3.7.4.8 0 1.6.2 2.3.3s1.2.1 1.9-.1c.8.1 1.5.1 2.3.2 1 .1 2-.2 3-.2h2.2c.6 0 1.2-.1 1.6-.5.5-.4.9-.4 1.4-.4h4.9c.3 0 .4-.1.4-.4.6.1 1.2-.1 1.7.2.6-.3 1.4 0 2-.3.4-.2.7 0 1.1-.2.2-.1.6-.2.6-.5 0-.4-.4-.4-.7-.4h-.4c-.3 0-.6-.1-.9-.2v-.7q0-.3.3-.3c.5.3 1.2 0 1.9-.2" style="fill:#eeedec"/><path d="M12.2 208.8c-1.1 0-2.1-.5-3.1-1-.4-.5-.9-.9-1.1-1.6-.3-1 0-2.1.8-2.7.4-.3.8-.5 1.2-.7-.4-.3-.7-.6-1-1-.9-1.1-1.5-2.4-1.4-3.9.1-1.2.9-2.7 2.5-2.8.5 0 .4-.2.2-.5-.3-.5-.5-1.1-.7-1.7-.5-1.5-.6-3-.2-4.5.6-1.8 2-2.6 3.9-2.1.4.1.3-.1.2-.4-.5-1.4-.5-2.9-.4-4.4.1-1 .4-2 .9-2.9 1.1-1.6 2.5-2 4.2-1 .2.1.4.2.4-.2.2-2 1-3.8 2.5-5.3q1.05-1.05 2.4-1.2c1.1-.1 2.2.3 3 1.2.6.8.9 1.7 1.1 2.7.2.8.2 1.6.2 2.4 0 .4.1.4.4.2l.6-.3c.2 0 .3.1.4-.2h1l1.2.6c.1.1.2.2.2.4s.2.3.4.4c.5 1.3.8 2.7.6 4.1-.3.5-.3 1.1-.6 1.7 0 .1-.1.3-.1.4-.1.1-.2.3 0 .3.1 0 .2-.1.3-.1.2 0 .5.2.6-.2h.2c.1.1.1.2.3.2q.75 0 1.2.6c1.1 1.1 1.3 2.4 1.1 3.9-.1.6-.3 1.1-.6 1.6 0 .1-.2.1 0 .2h.2c.1 0 .2-.1.3-.1 1.1-.3 2.1 0 2.7 1 .4.8.8 1.7.5 2.8-.2.5-.4 1.1-.5 1.6 0 .2-.3.4-.1.5.2.2.3-.2.4-.3.7-.6 1-.5 1.6.3 0 0 .1.1.2.1v1.8c-.3.3-.3.8-.5 1.2-.4 1-1 1.9-1.8 2.6-.4.3-.1.4.2.5-.1.3-.3.6-.6.6-1.1.1-2 .5-3 .9-.5.2-1 .1-1.5.4-.2.1-.4 0-.7-.1s-.4-.4-.7-.5c.1-.1.1-.2.2-.3.4-.6.7-1.2.6-2 0-.2-.1-.4-.3-.4-.9 0-1.8.2-2.5.9-.9.8-1.2 1.9-1.3 3-.5-.3-.5-.3-.8 0v-.5c.2-1.5-.6-2.4-1.6-3.2-.2-.2-.5-.4-.9-.4-.6 0-.7.1-.8.7-.1.5.1.9.2 1.4-.4-.2-.8 0-1.2.2-.9.6-1.6 1.4-2.3 2.1-.1.1-.3.4-.5.3-.5-.3-1.1-.1-1.7-.3-.8-.3-1.6-.6-2.4-1-.4-.2-.5-.2-.5.3 0 .4.2.7.4 1 .3.4.3.4-.2.7-.5.4-1.1.6-1.7.8-.2.1-.6.2-.7.4-.1.5-.5.3-.8.4.1.3-.4 0-.7.4M23 182.1c0-1-.7-1.6-1.5-1.4-.5.1-.9.6-.9 1.3 0 .2.1.5-.1.7-.1.1-.4-.2-.6-.3-.1-.1-.2-.1-.4-.2-.6-.2-1.2.1-1.4.6-.3.6 0 1.3.7 1.7.2.1.6.1.7.3 0 .2-.3.4-.5.6-.1.1-.2.2-.2.3-.1.4-.3.8 0 1.2s.7.5 1.2.5c.6-.1 1-.5 1.3-1 .2-.4.3-.4.5 0 .2.5.5.8 1 1s1.1.1 1.5-.4q.6-.75 0-1.5c-.1-.1-.2-.3-.4-.4-.3-.2-.1-.3.1-.4.3-.1.7-.2.9-.4.5-.3.7-.9.5-1.4-.2-.6-.6-.8-1.3-.7-.3 0-.5 0-.8.2-.1.1-.3.2-.4.1-.2-.1 0-.3 0-.5.1.3.1.2.1.1m4.4 9.9c-.8 0-1.1.2-1.3.8-.1.4.1.9.5 1.2.2.1.3.2.5.3.4.1.3.3.1.5-.2.1-.3.3-.4.4-.3.4-.3.8-.1 1.3.2.4.6.5 1 .5.7 0 1.2-.3 1.5-.8.2-.3.3-.2.4 0 .1.3.3.5.5.7.6.5 1.3.4 1.7.1s.5-.9.3-1.5c-.3-.7-.3-.7.3-1 .5-.3.9-.9.7-1.3-.2-.5-.7-.8-1.3-.7-.3 0-.6.1-.9.1 0-.3 0-.6-.1-.9-.1-.5-.5-1-1-1-.4 0-.8.2-1 .6-.3.4 0 1-.3 1.2-.3-.1-.7-.7-1.1-.5m-8.6 8.6c.7 0 .9-.1 1.2-.5s.2-.8 0-1.2c-.1-.2-.2-.3-.4-.5s-.1-.3.1-.4.4-.1.6-.2c.6-.4.8-1 .6-1.6-.2-.5-1-.7-1.6-.4-.2.1-.4.2-.5.3-.2.1-.3.2-.3-.1v-.5c0-.7-.5-1.2-1.1-1.2-.7 0-1.2.7-1.1 1.4 0 .2.3.4.1.5-.1.1-.3-.1-.5-.2-.3-.1-.5-.1-.8-.1-.8.1-1.2 1-.8 1.7.2.4.6.6 1.1.6.2 0 .5.2.2.4-.4.3-.5.8-.4 1.3q0 .9.9.9c.6 0 1.1-.1 1.4-.7s.3-.6.7 0c-.1.4.2.6.6.5m204.6-25.2h.1c.5 0 .9.6 1.5.5 0-.5 0-1 .1-1.5.1-1.6.7-3 1.7-4.2 1.3-1.5 3.4-1.8 5-.3 1.4 1.3 2 2.9 2.3 4.7v.5c0 .3.2.4.4.2.3-.2.6-.4.9-.5 1.1-.3 2.4.2 3 1.2s1 2.1 1 3.2 0 2.2-.4 3.3c-.2.5-.1.5.4.4 1.9-.4 3.4.7 3.8 2.6a9 9 0 0 1-.8 5.6c-.2.5-.2.5.3.6.2.1.4.1.6.2.8.3 1.4.8 1.6 1.7.7 2.1.2 3.9-1 5.7-.4.6-.9 1.1-1.3 1.7-.2 0-.4.1-.5 0-.2-.1-.3-.2-.5.1-.6.8-1.5 1.1-2.4 1.4-.7.3-1.2.2-1.8-.1-.2-.1-.3-.3-.6-.3 0-.2.1-.4.2-.6.4-.8.1-1.2-.7-1.3-.6-.1-1 .1-1.5.3-1.1.4-1.7 1.3-2.4 2.1-.1-.2-.2-.4-.4-.4-.5 0-.8-.2-1.2-.4-.9-.4-1.6-.3-2.3.5-.2.2-.2.4-.1.6 0 .1.1.2.1.3 0 .2 0 .3-.1.5-.2.2-.3 0-.4-.1-.3-.2-.7-.2-1.1-.2v-1c0-.4-.2-.5-.5-.4-.8.2-1.5.4-2.1 1-.5.5-.7.9-.7 1.6 0 1 0 1 1 1-.1.2-.2.2-.4.2h-1.7c.1-.8-.3-1.4-.6-2.1-.6-1.1-2.3-1.8-3.4-1.6q-.6.15-.3.6c-.1 0-.3 0-.4-.1-.4-.5-1.1-.8-1.6-1.2-.5-.3-.6-.3-.7.3 0 .4-.1.9-.4 1.2-.4.6-1.5.7-2.3.4-.6-.2-.7-.9-1.2-1.2v-.2c0-.1-.1-.2-.2-.2 0-.2-.1-.3-.1-.5-.2-.8-.6-1.5-.4-2.3.1-.6.2-1.3.6-1.9.5-.4 1-.9 1.8-.8.3 0 .2-.1.1-.3-.7-1.1-.7-2.3-.7-3.5 0-.8.2-1.6.6-2.3.7-1.2 1.8-1.7 3.1-1.4.1 0 .2.1.3 0s-.1-.2-.1-.2c-.3-1-.6-1.9-.3-3 .2-.8.7-1.3 1.1-2 .4 0 .7-.3 1-.4h1c.6.1.6.1.5-.4l-.3-1.2c-.2-.9-.3-1.8 0-2.7 0-.1 0-.2.1-.4.2-.1.2-.3.2-.4.1-.4.3-.8.4-1.2.4-.2.5-.8.9-1 .8-.4 1.5-.5 2.2-.4m6.7 5.7c.1-.6 0-.9-.1-1.2-.3-.7-1.2-.9-1.8-.3-.3.3-.4.6-.4 1 0 .2.1.5-.1.7-.1.1-.4-.2-.6-.3h-.1c-.6-.2-1.3-.1-1.6.5-.3.4-.1 1.2.3 1.6.3.3.8.4 1.2.6q-.6.3-.9.9c0 .1-.1.1-.1.2-.3.6-.1 1.2.6 1.5.6.3 1.5 0 1.9-.6.2-.2.3-.6.4-.6.4-.1.2.4.4.6l.6.6c.4.3 1.3.3 1.7-.1.5-.4.5-.9.2-1.6-.1-.3-.3-.4-.5-.6s-.1-.4.2-.4c.4 0 .8-.2 1.1-.5s.4-1 .2-1.4-.5-.6-1-.6-1 0-1.3.4c-.2-.2-.3-.1-.3-.4 0-.1.1-.2 0 0m-7.1 11.6c0-.5 0-.5-.2-.8-.3-.6-.6-.8-1.2-.7-.5.1-.8.5-.9 1.1 0 .3.2.8-.1.9-.2.1-.6-.2-.9-.3-.5-.1-.9.1-1.2.5s-.3.8-.1 1.2c.2.3.5.6.8.7.2.1.6.1.6.2.1.2-.3.3-.4.4-.3.4-.5.7-.4 1.2.1.4.2.9.6 1 .6.1 1.3.2 1.8-.4.2-.2.4-.4.4-.8 0-.2.2-.1.3 0 .2.3.4.6.7.9.7.6 1.4.3 1.8-.1s.4-1.3 0-1.8c-.2-.3-.7-.4-.6-.7 0-.2.6-.1.9-.3.6-.4.9-1 .6-1.6-.2-.5-.9-.7-1.5-.6-.3.1-.6.2-.8.4 0 0-.1.1-.2.1-.1-.1-.1-.1 0-.2zm16.4-1c0-.7-.7-1.2-1.5-1.1-.2 0-.4.3-.6.2-.2-.2 0-.5-.1-.7v-.1c-.1-.5-.5-1-1-1-.6-.1-.9.2-1.1.8-.1.3 0 .7-.2.9-.3.2-.5-.4-.8-.2h-.2q-.9 0-1.2.6c-.1.4.1.9.5 1.2.3.3.4.7.1 1.1-.5.6-.4 1.5.3 1.7.5.2 1 .2 1.5-.1.3-.2.5-.8.7-.8.3 0 .4.6.7.9.6.5 1.9.5 2.1-.5.1-.5-.1-1-.5-1.3-.2-.2-.2-.3.1-.3.6-.3 1.2-.9 1.2-1.3" class="c6"/><path d="M141 93.6c3.4-.1 6.7.3 10.1.2q2.85-.15 5.7 0c4.6.3 9.3.1 14 .2 0 .2 0 .4-.3.4-.5 0-1-.1-1.4.1-.8.2-1.6.4-2.4.4-.2 0-.4 0-.6.1-.7.4-1.5.2-2.2.5-.2.1-.5-.1-.6.1-.1.1.1.4.1.5q-.15.75.6.6c.2 0 .2.2.2.4v1c-.1 0-.2.1-.2.2h-.2c-.1-.4-.7-.4-.8-.9 0-.1-.2-.1-.3-.1-.2.1-.3.3-.5.4-.3-.3-.5 0-.7.1v-.4c.3-.2.5-.5.6-.8s-.3-.5-.5-.7c0-.1-.1-.2-.1-.3q0-.3-.3-.3c-1-.1-2-.4-3-.4-.9 0-1.9-.4-2.8-.2-.1 0-.2-.1-.4-.1s-.5-.1-.7 0c-.6.3-1.2.1-1.8.2h-.7c-.1 0-.1.1-.2.1 0 .1 0 .2.1.3.4.2.7.3 1.1.4-.5.4-1.1.2-1.6.5-.6.3-1.3.4-1.9.4h-1.9c-.7.1-1.2-.2-1.9-.2-2.2 0-4.5.1-6.7-.1-1.6-.2-3.2-.2-4.9-.2-3.7 0-7.3-.2-11 .2-2.2.2-4.4-.1-6.6.2-1.1.1-2.2.2-3.3-.2-.1-.1-.3 0-.5 0-.5 0-.9.4-1.4 0-.1-.1-.2 0-.3 0-.4.3-.9.2-1.3.1-.7-.2-1.4-.1-2.1 0-1.3.1-2.7 0-4 .2-1 .1-2.1.1-3.1-.2h-.9c-.1 0-.2-.1-.2-.1.1 0 .2-.1.2-.2.2-.4.7-.3 1-.6.1-.1.3-.1.3-.2 0-.2-.2-.3-.3-.4h-.6c-1.2-.2-2.5.2-3.8.2-.5 0-1.2.2-1.4.9q0 .3-.3.3c-.6-.1-1.2.2-1.8-.1-.2-.1-.4-.1-.5.1s-.2.5.1.6c.1.1.3.2.4.2 0 .3-.4.2-.5.4-.2.4-.5.1-.7 0-.2 0-.3.2-.3.3s.2.1.4.1.4 0 .5.2.3.2.5.2c-.1.2-.2.3-.4.4-.2 0-.4.3-.6.2 0-.4.1-.9-.6-.9-.5 0-.7-.3-.6-.8s-.3-.7-.4-1.1c-.1-.3-.2-.5-.5-.5-.4 0-.5.3-.5.6-.2.1-.5.3-.8.2s-.5 0-.6.2c-.5.5-1.2.5-1.7.8-.4.2-.9 0-1.2.4h-.8c-.6-.3-.7-.4-.5-.9 0-.1.1-.1 0-.2-.2-.2-.4-.3-.7-.4-.2-.1-.2.2-.3.3-.2.3-.4.3-.7.3-1.1 0-2.2-.1-3.2-.2q-4.05-.15-8.1 0c-2.7.1-5.4 0-8.1.1-3.1.2-6.3.2-9.5.2-5.6.1-11.1 0-16.7 0h-.7c-.3 0-.5.2-.5.6 0 .3 0 .5.4.5.2 0 .4.3.7.2.1.2.1.4.3.5.1.1.3.1.4.1.2-.1.1-.3 0-.4 0-.1 0-.1-.1-.2v-.1s.1-.1.1 0c.1.1.2.2.4.3.4.1.4.3.1.6-.3.4-.8.7-1 1.1-.3 0-.5.1-.8.1s-.3.5-.5.8c-.3.3-.5.6-.9.8v-1.7c0-.4 0-.5.5-.3.2.1.4-.1.4-.3V98c0-.3-.1-.3-.3-.4-.5-.3-.5-.3-.5-.7s.2-.8-.2-1.1c-.1-.3-.3-.2-.5-.2-1.4-.1-2.7.3-4 .2-.3-.2-.7-.3-.9-.6.6-.3 1.3-.2 1.9-.2 3 0 5.9.1 8.9 0 4-.2 8 0 12-.2 2.4-.1 4.9.1 7.3-.2 3.5-.3 6.9.1 10.4-.2 3.8-.3 7.6.1 11.3-.2 2.5-.2 5-.1 7.4-.2 2.5 0 5 .1 7.5-.1 1.8-.1 3.5-.1 5.3-.2 4-.1 8 .1 11.9-.2 4.1-.3 8.2.1 12.2-.2 2-.2 4.1 0 6.2.1 3.3.3 6.9.2 10.4.2m31.8.4c3.8.3 7.6 0 11.3.2 2.6.2 5.2-.1 7.8.2 2.6.2 5.2 0 7.7.2 3.2.3 6.3 0 9.5.2 4.9.4 9.8.1 14.7.2v.2c-.2.4-.7.4-1 .7h-3.5c-.9 0-.8-.1-.8.8v5.9c-.2 0-.4-.2-.4-.4 0-.4-.3-.7-.4-1-.1-.8-.1-.8-.7-.8h-.5c.1-.4-.2-.5-.5-.7-.2-.1-.4-.2-.5-.3-.7-.6-.7-.9.1-1.5.1-.1.3-.2.2-.4s-.3-.1-.4-.1h-10.3c-3.2-.1-6.5 0-9.7-.1-3.9-.2-7.8-.4-11.7-.3-2 .1-4.1 0-6.2 0-2.3.1-4.5-.4-6.8-.2-.2 0-.3-.1-.3-.2s.1-.2.2-.2c.7-.1 1.4-.3 2-.4.8-.2 1.5-.6 2.2-1 .1 0 .1-.2.1-.3s-.1-.2-.2-.2H173c-.6-.2-.1-.4-.2-.5" class="c2"/><path d="M29 153.6v-44.1h1.4c.6-.1 1.2.1 1.7.4v.2c-.4.5-.4 1.1-.4 1.8v38.5c0 .7.3 1.4.2 2.2-.1.7 0 .7-.7.8-.2 0-.3.1-.3.2zm193.8-44.1v44.1h-2.3c-.6-.4-.6-.4-.6-1.1s.2-1.4.2-2.1v-37.3c0-.9-.3-1.9-.3-2.8 0 0-.1-.1-.2-.1v-.2c1.2-.3 2.2-.5 3.2-.5" class="c11"/><path d="M237 202c.3-.1.4.2.6.3.6.4 1.1.4 1.8.1.9-.4 1.8-.6 2.4-1.4.2-.2.3-.2.5-.1.1.1.3 0 .5 0 1.8.5 2.2 2.2 1.7 3.8-.3.8-.8 1.6-1.6 2-.3.2-.5.4-.7.5-.7.2-1.4.6-2.2.6q-.3 0-.3.3v.7c-.2.1-.1.4-.4.5 0-.4-.4 0-.4-.2-.1-.3-.2-.4-.4-.6q-.45-.45 0-.9l.3-.3c.4-.4.4-.4-.2-.8-1.1-.6-2.3-.9-3.3-1.5-.3-.2-.6-.5-.9-.5-.5-.1-.9-.5-1.3.1-.1.2-.4.2-.6.3-.3.2-.4 0-.4-.2-.1-.2 0-.4 0-.6 0-.1-.1-.3-.2-.3s-.2.1-.2.2v.5c.1.5-.2.8-.6.9-.3.1-.7.3-1.1.3-.6-.1-1.2 0-1.8 0-.4 0-.6-.1-.9-.4-.2-.2-.4-.5-.7-.4v-.4c.1 0 .2-.1.2-.2v-.2c.1 0 .2-.1.2-.2v-.4c.1 0 .2-.1.2-.2.4 0 .7 0 1.1.2.1.1.2.3.4.1.1-.1.2-.3.1-.5 0-.1-.1-.2-.1-.3-.1-.2-.1-.4.1-.6.7-.8 1.4-1 2.3-.5.4.2.7.5 1.2.4.2 0 .4.2.4.4-.1 0-.2.1-.2.2 0 .2 0 .3.2.4.4.3.8.3 1.2.4 1.2.3 2.2-.2 2.9-1.2-.1 0 0-.2.2-.3" class="c35"/><path d="M32.1 110.2v-.2c0-.4-.1-.9.2-1.2.4-.1.7.2 1 .2v43.9c0 .3-.1.7.2 1h-4.9c0-.2.2-.2.4-.2h1.9c.4 0 .9.1 1.3 0 0-.4-.1-.8-.1-1.2v-9.8c0-.8-.1-1.6.2-2.3 0-.1.1-.3 0-.4-.3-.4-.2-.9-.2-1.4zm187.7-.2v2.3c0 .7-.1 1.4 0 2.2 0 1.3-.1 2.7-.1 4.1-.1 3.3 0 6.7 0 10v.5c.3.9.2 1.9 0 2.8-.1.3-.1.6 0 .8.2.6.1 1.1.2 1.7.1.9-.2 1.7-.2 2.6.1 3.3 0 6.7.2 10 .1 1.9 0 3.8 0 5.7v.6q0 .3.3.3h2.8c.1.1.2.1.2.2-1.2 0-2.3 0-3.5.1h-1.2c.3-.3.2-.6.2-1V109c.3-.2.7-.2 1-.2.1.3 0 .7.1 1.2" class="c19"/><path d="m31.7 177.7-1.2-.6c-.4-.3-.8-.3-1.1-.1l.1.1c-.1.2-.3.2-.4.2v-16.6c.2-.1.4-.2.7-.2.5 0 .9.2 1.4.2s.8.2 1 .6c-.3.1-.4.2-.4.5v.7c-.1 5-.1 10.1-.1 15.2m191.7-2.3c-.7 0-1.5 0-2.1.5-.4.3-.5.8-.9 1-.2-.3-.2-.5-.2-.9-.1-5 .2-10-.2-15 .1-.2.2-.4.5-.4.8-.1 1.6-.2 2.4-.2v13.9c-.1.7-.1.7.5 1.1" class="c11"/><path d="M222.8 160.4c-.8 0-1.6.1-2.4.2-.3 0-.4.2-.5.4-.3.4-.4 1-.4 1.5v15.9c0 .2-.1.3.2.4-.3.9-.2 1.8 0 2.7-.2 0-.2.1-.2.3v1.3h-1v-23.5h4.3zm-190.7.8c-.2-.5-.5-.6-1-.6s-.9-.2-1.4-.2c-.3 0-.4.1-.7.2v-1c1.4 0 2.9-.1 4.3 0v25h-.2v-22.1c0-.1-.1-.1-.1-.2 0 .1-.1.1-.1.2v14.9c0 .6-.1.9-.7 1-.2-.1-.3-.2-.4-.4.5-.6-.1-1.4.4-2 .1-.1 0-.3 0-.4-.2-.4-.1-.7-.1-1.1z" class="c20"/><path d="M28.6 153.9h3.9v4.6c-.1.5-.3.7-.8.8-1 .1-1.9-.3-2.8-.2-.3 0-.2-.2-.3-.4-.1-.4.1-.8-.1-1.1-.2.4 0 .7-.1 1.1v.5c-.2-.1-.2-.3-.2-.4V155c0-.6.1-.9.4-1.1m190.9 0c1.2 0 2.3 0 3.5-.1.1 0 .3 0 .3.3-.3.1-.2.3-.2.5v4c0 .6 0 .6-.5.6h-2.7c-.4 0-.5-.3-.6-.5s-.1-.4-.1-.6v-3.4c.1-.3.1-.6.3-.8" class="c21"/><path d="M33.3 108.9c-.4 0-.6-.3-1-.2H29c-.3-.1-.6-.2-.6-.6 0-.1.1-.2.1-.2 1.1.3 2.1.1 3.2.1.7 0 .8-.2.8-.9v-3.8h.4c.1.2.3.2.4.2.3-.2.6-.3.1-.7-.2-.1-.1-.4-.1-.6.2-.1.2-.2.2-.4.4-.2.6-.5.9-.8.2-.2.2-.8.5-.8.3.1.6-.1.8-.1.3 0 .5-.1.8.1.5.3 1 .2 1.5.1.8-.3 1.5-.1 2.3-.2.3 0 .5.1.6.4h-.3c-1.6.5-3.1.9-4.7 1.5-.3.1-.7.2-.8.6-.2 0-.4.1-.6.2-.4.1 0 .3-.1.4-.8.3-.8.3-.6 1 .1.3.1.5.1.8 0 .9 0 1.8-.1 2.7.1.7 0 1-.5 1.2" class="c22"/><path d="M32.5 103.4v3.8c0 .7-.2.9-.8.9-1.1 0-2.1.2-3.2-.1 0 0-.1.1-.1.2-.1-.1-.2-.2-.2-.3v-3.5c0-.1 0-.3.2-.3v2.7c0 .1 0 .3.1.3 0-.1.1-.2.1-.3v-2.7c0-.1-.1-.1-.2-.2 0-.3.3-.4.6-.4h3.3c.1-.1.1-.1.2-.1m190.3 0c.3.1.5.1.6.5-.3.1-.2.3-.2.5v3.4c0 .3-.1.4-.4.4h-2.9c-.5 0-.8-.3-.8-.8 0-.3-.1-.6 0-.9.3-.8.1-1.7.2-2.5 0-.3-.2-.3-.4-.3.1-.3.5-.1.7-.2h.6c.8-.1 1.7-.1 2.6-.1" class="c21"/><path d="M32.3 103.4H29v-5.7c1.2.1 2.2.5 3.1 1.2-.2.1-.2.2-.2.4 0 .7 0 1.5-.2 2.2-.1.4 0 .9 0 1.4 0 .1 0 .3.2.3s.2-.2.2-.3v-3.8h.2z" class="c36"/><path d="M222.8 103.4h-2.7c-.2-.5-.2-1-.2-1.6v-2.9c.5-.5 1.1-.9 1.9-1 .2 0 .4-.2.4-.4h.6z" class="c11"/><path d="M219.5 153.9c-.2.3-.2.6-.2.9v3.4c0 .2 0 .4.1.6s.2.5.6.5c.9-.1 1.8 0 2.7 0 .5 0 .5 0 .5-.6v-4c0-.2-.1-.4.2-.5.2.2.2.4.2.6v3.7c0 .6-.2 1-.8 1.1h-4.5c0-.1-.1-.2-.2-.2-.3-.5-.6-1-.3-1.6 0 0-.1-.1-.2-.1.2-.3.1-.7.1-1v-1.8c0-.4.1-.9.5-1.1.5 0 .9 0 1.3.1" class="c37"/><path d="M218.9 103.6c.2 0 .4 0 .4.3-.1.8.2 1.7-.2 2.5q-.15.45 0 .9c0 .5.3.8.8.8h2.9c.3 0 .4-.1.4-.4v-3.4c0-.2-.1-.4.2-.5 0 0 .1.1 0 .2v4.2c0 .4-.4.4-.6.6h-3.3c-.4 0-.7 0-1 .2-.1 0-.1 0-.2-.1 0-.1-.1-.2-.2-.2-.3-.2-.4-.5-.4-.9v-3.1c0-.2.1-.4.2-.6.3-.1.2-.6.6-.6.2.1.3.1.4.1M28.4 159v-.5c0-.4-.1-.7.1-1.1.3.3.1.7.1 1.1 0 .2 0 .4.3.4.9 0 1.8.3 2.8.2.5-.1.8-.2.8-.8v-4.6h1c.4.2.4.6.4.9v2q0 .75.6.9c-.3 0-.4.1-.4.4-.3 1-.4 1.2-.8 1.5-1.4-.1-2.9 0-4.3 0-.1 0-.3 0-.4-.2 0-.1-.1-.2-.2-.2q0 .15 0 0" class="c22"/><path d="M223.8 95.2V95c-.1-.3.2-.6-.3-.9-.3-.2-.2-.7-.1-1 .2-.4.1-.8.1-1.2V71.7c0-.3-.2-.7.2-.9.3.4.2.8.2 1.2v22.3c.2.3.4.6-.1.9" class="c12"/><path d="M28.8 95.8c1.4.1 2.7-.4 4-.2.2 0 .4-.1.5.2-1 0-1 0-1 .9v.1c0 .3-.1.4-.4.4-.4 0-.9-.2-1.2.2h-1.6v-.2c.1 0 .1-.1.2-.1l-.1-.1c0 .1-.1.1-.1.2-.4-.4-.1-.9-.3-1.4m.4.3c-.2 0-.2.1-.2.2s.1.2.1.3c0-.1.1-.2.1-.3z" class="c22"/><path d="M222.8 97.4h-3.3v-1.6h3.3z" class="c37"/><path d="M219.5 108.7h3.3v.8c-1-.1-2.1.1-3.1.4 0-.4.1-.8-.2-1.2" class="c20"/><path d="M29 108.7h3.3c-.3.4-.2.8-.2 1.2-.5-.3-1.1-.5-1.7-.4H29zm0-11.3h2.9c.2 0 .4.1.4.3V99h-.2v-.2c-.9-.7-1.9-1.2-3.1-1.2z" class="c24"/><path d="M223.5 108.1v-4.2c.1.1.2.2.2.3v3.5c-.1.3-.1.4-.2.4" class="c21"/><path d="M28.4 103.8c.1.1.2.1.2.2v2.7c0 .1-.1.2-.1.3-.2-.1-.1-.2-.1-.3z" class="c22"/><path d="M28.4 159.2c.1 0 .2.1.2.2-.1 0-.2-.1-.2-.2" class="c21"/><path d="M141 93.6c-3.6 0-7.1.1-10.7 0-2.1-.1-4.1-.3-6.2-.1-4.1.3-8.2-.1-12.2.2s-8 .1-11.9.2c.1-.3.3-.4.6-.4.5.1 1.1-.2 1.6.2.1.1.4 0 .6 0h5.4c.3 0 .7.1.9-.3.1-.1.2-.2.4-.2.9.1 1.8-.2 2.7-.2 1.2 0 2.4-.1 3.6-.2.8-.1 1.6-.1 2.4-.2 1.8-.2 3.5-.1 5.3-.3 2.3-.2 4.5 0 6.8-.2.5 0 .8.3 1.3.2.4 0 .9-.1 1.3.2h.2c1.1-.1 2.2.3 3.3.2.4 0 .8.1 1.2.2 1 .2 2 .4 3.1.4q.3 0 .3.3" class="c12"/><path d="M172.8 94c.1.1-.4.4.1.4h1.7c.1 0 .2.1.2.2s0 .2-.1.3c-.7.4-1.4.8-2.2 1-.7.1-1.4.3-2 .4-.1 0-.2.1-.2.2h-1c0-.2-.1-.2-.3-.2-1 0-1.9.2-2.8.6-.3.1-.6.3-.9.1-.4-.2-.8-.1-1.1.1 0-.2 0-.4-.2-.4-.5 0-.7-.1-.6-.6 0-.2-.2-.4-.1-.5.1-.2.4 0 .6-.1.7-.3 1.5-.1 2.2-.5.2-.1.4-.1.6-.1.8 0 1.6-.2 2.4-.4.5-.1.9-.1 1.4-.1.3 0 .3-.2.3-.4z" class="c13"/><path d="M220.6 211.7c-.6.2-1.2.2-1.9.1s-1.5-.3-2.3-.3c-1.2.1-2.5-.1-3.7-.4-.3-.1-.7 0-1 0H39.2c-1 0-2 .1-3 .4-.5.2-1.1.2-1.7.2-1.6.1-3.2.4-4.8.2.2-.3.4-.1.6-.2 1-.1 1.9-.4 2.5-1.2.3-.4.5-.4.9-.4.6 0 1.1.3 1.7.2h5c1 0 1.9-.3 2.8-.4.2 0 .4-.2.5-.4h.2c.3.4.7.2 1 .2h162.2c.1 0 .2-.1.2-.2h.2c.1.2.3.3.5.4.9.3 1.9.4 2.9.4 1.6.1 3.1 0 4.7 0 .5 0 .9-.1 1.4-.2.3.1.7-.4 1 0 0 .1.1.2.2.2 0 .3.1.4.4.4.1.2.2.3.4.4.6.2 1.1.4 1.6.6" class="c38"/><path d="M35.6 210.2c-.6.2-1.1-.1-1.7-.2-.4 0-.6.1-.9.4-.6.8-1.5 1.1-2.5 1.2-.2 0-.5-.1-.6.2h-2.6c-.1-.1-.2-.2-.3-.2-1.8 0-3.2-.8-4.6-1.8-.3-.2-.5-.3-.8-.1-.2.1-.5.2-.7.3-1.5.5-3 .7-4.6.6h-.4c-.1-.2-.3-.2-.4-.2-.5-.1-.9-.3-1-.8-.1-.3.2-.7-.2-.8h-1.8c.3-.4.7-.1 1.1-.2.3-.1.7.1.8-.4.1-.3.4-.3.7-.4.6-.3 1.2-.4 1.7-.8.5-.3.5-.3.2-.7-.2-.3-.4-.6-.4-1 0-.5 0-.5.5-.3.8.4 1.6.7 2.4 1 .5.2 1.1 0 1.7.3.2.1.3-.2.5-.3.8-.7 1.5-1.5 2.3-2.1.4-.3.7-.4 1.2-.2v.4c0 .1.1.2.2.2v.2c0 .1.1.2.2.2.5.8 1.2 1.1 2.1 1h.6c.3-.3.3-.3.8 0h1.3c.6 0 1-.1 1.4-.6.2-.2.5-.4.6-.7.3.1.4.4.7.5.2.1.5.2.7.1.5-.3 1-.2 1.5-.4 1-.4 1.9-.8 3-.9.3 0 .5-.3.6-.6 1.2.5 1.5 1.6 1.6 2.7-.2.5-.2 1.1-.6 1.6-.2.4-.5.7-.9 1-.9.8-1.9 1.3-3.1 1.3-.2 0-.7 0-.6.1-.4.4 0 .1.3.4 0-.1 0 0 0 0m185 1.5c-.5-.2-1-.4-1.4-.6-.2-.1-.4-.2-.4-.4.3-.1.5-.4.7-.6s.2-.3 0-.5-.3-.4-.5-.5-.5 0-.7-.3c-.2-.4.3-.5.3-.8 0-.7.5-.3.8-.5 1-.5 2.1-1.1 3.1-1.6h1.9c.2 0 .3 0 .4-.2.6.1 1.1-.4 1.6-.6.4-.1.5.2.7.4.2.3.5.4.9.4h1.8c.4 0 .7-.2 1.1-.3.3-.1.6-.4.6-.9v-.5c0-.1.1-.2.2-.2.2 0 .2.1.2.3v.6c.1.2.2.4.4.2.2-.1.5-.1.6-.3.4-.5.9-.2 1.3-.1s.6.4.9.5c1.1.6 2.3.9 3.3 1.5.6.3.6.3.2.8l-.3.3q-.45.45 0 .9c.2.2.4.3.4.6 0 .2.4-.2.4.2-.5.6-1.2.7-2 .8-.3 0-.7-.2-.9.2-.4-.1-.7-.1-1.1-.2a9 9 0 0 1-4-1.1c-.3-.2-.5-.2-.8.1-.7.8-1.6 1.3-2.6 1.7-.6.3-1.3.4-2 .7-1 0-2 .3-3 .2-.6-.1-1.3-.2-2.1-.2" class="c14"/><path d="M225.9 211.7c.6-.3 1.3-.4 2-.7 1-.4 1.9-.9 2.6-1.7.3-.3.5-.3.8-.1 1.3.6 2.6 1 4 1.1.4 0 .7.1 1.1.2 0 .3-.1.4-.4.4h-4.9c-.5 0-1 0-1.4.4-.4.3-1 .5-1.6.5-.8-.1-1.5-.1-2.2-.1m-209.8-1c1.6 0 3.1-.1 4.6-.6.3-.1.5-.2.7-.3.3-.2.5-.1.8.1 1.4 1 2.8 1.9 4.6 1.8.2 0 .3 0 .3.2h-2.4c-.5 0-1-.3-1.5-.2-.1 0-.2-.1-.2-.2 0-.7-.5-.4-.9-.4h-1.4c-1.5.1-3-.3-4.4-.2-.1 0-.1-.2-.2-.2m-1.9-1.1c.2.5.6.7 1 .8.2 0 .3 0 .4.2-.8 0-1.6.1-2.5 0s-1.8-.3-2.8-.4c-.1 0-.2-.2-.3-.3l.3-.3c.8-.2 1.6-.4 2.4-.4h1.1c.3.2.2.4.4.4m222.2.8c.3-.4.6-.1.9-.2.7-.1 1.5-.2 2-.8.3 0 .2-.4.4-.5.3.1.6.2.9.2h.4c.3.1.7.1.7.4s-.4.3-.6.5c-.3.2-.7 0-1.1.2-.6.3-1.3-.1-2 .3-.5-.2-1.1 0-1.6-.1" class="c23"/><path d="M14.2 209.6c-.2-.1-.2-.3-.2-.4v-.4c.5.2.2.6.2.8" class="c6"/><path d="M207.6 209.4H43.7q0-.15-.3-.3c-.7-.3-1.2-.8-1.4-1.5.1-.3.1-.5.2-.8.2-.7 0-1-.7-1.1h-.9c.1-2.3-.3-4.6-.2-7v-1.8c.1 0 .2-.1.2-.1 0-1.1.2-2.2-.1-3.2q-.15-.45 0-.9c.2-.3.1-.7.1-1 0-.4-.1-.9-.1-1.3-.1-.4.1-.9.1-1.4.1-.8-.2-1.5-.2-2.3v-9.9c.2.1.2.2.2.4v1.5c0 .1.1.2.1.3 0-.1.1-.2.1-.3v-14.3c0-.2.2-.6-.2-.7v-1.4c0-.1-.1-.2-.2-.3 0-.4.3-.7.2-1h170.8v3.9c-.2.1-.2.2-.2.4v15.8c0 .3-.2.6.2.8v15c-.3.6-.5 1.3-.6 1.9-.2.8.2 1.6.4 2.3 0 .2.1.3.1.5 0 .1.1.2.2.2v.2c-.2.5-.2 1.1-.2 1.7v2h-1.5c-.9 0-.9.1-.9 1-.1.6-.5 1.1-.5 1.8.2.7-.3 1-.8.9" class="c18"/><path d="M31.9 204.5c-.1.3-.4.5-.6.7-.4.4-.8.6-1.4.6h-1.3c.1-1.2.4-2.2 1.3-3 .7-.7 1.5-.9 2.5-.9.3 0 .3.1.3.4.1.7-.2 1.4-.6 2-.1 0-.1.1-.2.2m-4.1 1.2h-.6c-.9.1-1.6-.2-2.1-1 0-.1-.1-.2-.2-.2v-.2c0-.1-.1-.2-.2-.2v-.4c-.1-.5-.3-.9-.2-1.4.1-.6.2-.7.8-.7.4 0 .7.1.9.4 1 .8 1.9 1.8 1.6 3.2z" class="c39"/><path d="M40.5 199c-.1 2.3.3 4.6.2 7h-.6c-.2-1.1-.4-2.2-1.6-2.7-.3 0-.6-.1-.2-.5.8-.7 1.3-1.7 1.8-2.6.1-.4.1-.9.4-1.2" class="c4"/><path d="M32.3 178.5c.5-.1.7-.5.7-1v-14.9c0-.1.1-.1.1-.2 0 .1.1.1.1.2v22.1c-.2-.1-.2-.2-.2-.4v-1.7c0-1.5-.2-2.8-.7-4.1" class="c24"/><path d="M32.9 182.5v1.7c0 .2 0 .3.2.4-.1.4-.4.1-.6.2-.1-.2.1-.5-.2-.6.3-.5.3-1.2.6-1.7" class="c20"/><path d="M32.3 184.2c.3.1.1.4.2.6-.1 0-.3.2-.3.1-.1-.1 0-.2 0-.3.1-.1.1-.3.1-.4" class="c24"/><path d="M211.5 165.1v-2.3c.4.2.1.6.2.9 0 .2 0 .4.3.2.1-.1.2-.3.4-.3.8 0 1.5-.4 2.2-.6.6-.2 1.3-.4 1.9-.6 1 .4.9-.7 1.5-1 .2-.1.3-.1.4.2v7.6c0 .2-.2.5.2.6v13.3c-.4.1-.6.4-1 .4-.9-.2-.9-.2-1.7.2-.1.1-.3.1-.4.2-.9.4-1.9-.1-2.9.4-.1.1-.3 0-.5-.1s-.2 0-.2.1v9.1c0 .2.2.6-.2.7V182c-.2-5.5-.2-11.2-.2-16.9" class="c9"/><path d="M211.5 205.9v-.6c.4-.5.7-1.3 1.4-1.6v-.3c.8.3 1.8.2 2.3-.4.2-.3.4-.8.4-1.2 0-.5.2-.6.7-.3.5.4 1.2.7 1.6 1.2.1.1.2.1.4.1.1.7.4 1.3.8 1.9.6.8 1.3 1.2 2.3 1.2h1c-1 .5-2.1 1-3.1 1.6-.3.1-.8-.2-.8.5 0 .3-.5.4-.3.8.2.3.5.2.7.3s.3.3.5.5.2.3 0 .5-.4.5-.7.6c0-.2-.2-.4-.4-.4 0-.1 0-.3-.1-.3-.1-.1-.1.1-.1.1-.3-.4-.7 0-1 0-.2-.4-.5-.1-.7-.2-.4-.1-.9.1-1.3-.1a5 5 0 0 1-3.1-2.2c-.4-.5-.5-1.1-.5-1.7" class="c35"/><path d="M211.6 194.2c.4-.1.2-.5.2-.7v-9.1c0-.1.1-.3.2-.1.2.1.4.1.5.1.9-.5 1.9.1 2.9-.4.1-.1.3-.1.4-.2.9-.5.9-.5 1.7-.2-.4.7-.9 1.2-1.1 2-.3 1.1 0 2 .3 3 0 .1.2.1.1.2s-.2 0-.3 0c-1.3-.3-2.5.2-3.1 1.4-.4.7-.6 1.5-.6 2.3 0 1.2 0 2.4.7 3.5.1.2.2.3-.1.3-.8-.1-1.2.5-1.8.8z" class="c4"/><path d="M237 202c-.2.1-.3.2-.4.4-.7 1.1-1.7 1.5-2.9 1.2-.4-.1-.8-.1-1.2-.4-.2-.1-.2-.3-.2-.4.1 0 .2-.1.2-.2.7-.8 1.4-1.7 2.4-2.1.5-.2 1-.4 1.5-.3.8.1 1.1.5.7 1.3 0 .2-.2.3-.1.5m-14.6 3.9h-1c-1 0-1.7-.4-2.3-1.2-.4-.6-.7-1.2-.8-1.9-.2-.3-.1-.6.3-.6 1.1-.2 2.8.5 3.4 1.6.3.6.8 1.3.6 2.1zm3.9-.8c-.5.2-1 .7-1.6.6-1 0-1 0-1-1 0-.7.2-1.1.7-1.6.6-.6 1.3-.9 2.1-1 .3-.1.5 0 .5.4v1c-.1 0-.2.1-.2.2v.4c-.1 0-.2.1-.2.2v.2c-.1 0-.2.1-.2.2-.1.1-.1.3-.1.4" class="c39"/><path d="M213 203.5v.3c-.7.3-1 1-1.4 1.6V204c0-.6 0-1.1.2-1.7.5.2.6 1 1.2 1.2" class="c25"/><path d="M219.6 183.1v-1.3c0-.2 0-.3.2-.3l.3 1.2c.1.6.1.6-.5.4" class="c36"/><path d="M219.8 178.5c0-.2-.1-.4.2-.4 0 .1 0 .3-.2.4" class="c20"/><path d="M211.7 202c-.1 0-.2-.1-.2-.2.2.1.2.1.2.2" class="c25"/><path d="M91.4 98.9c.3.1.4-.2.6-.2 0 .2.2.4.4.4.4-.1.7.3 1 .2 1 .2 2 .5 3.1.6.2 0 .4 0 .6.1.1.2.3.2.4.2.4.1.8.2 1.2.2 1.9.4 3.7.8 5.6 1.1 1 .2 2 .5 3 .5.7.3 1.5.4 2.3.6.5.1 1 .3 1.6.3.5.2 1 .3 1.5.4.2 0 .4 0 .6.1.4.3 1 .2 1.5.4 1.1.2 2.1.6 3.2.7.1.2.3.2.5.2l4.3.9c-.7.2-1.4.4-2.2.6h-7.7c-5.6-.1-11.2.2-16.7-.2-1.1-.1-2.2 0-3.3 0-2 .1-3.9-.1-5.9.2-1.2.2-2.4.2-3.6.2-6.7.1-13.4 0-20.1 0-.4 0-.7 0-1.1-.2-.1-.1-.2-.2-.1-.3.3-.4-.3-.2-.3-.5h.4c.2 0 .4.1.4-.2h.4c.2 0 .4.1.4-.1.2 0 .4 0 .6-.1.2 0 .4.1.5-.2h.4c.2 0 .4.1.4-.2h.4c.2 0 .3.1.4-.1.2 0 .4 0 .6-.1.2 0 .4.1.5-.2v-.1h.2c.2 0 .3 0 .4-.1 1.6-.3 3.3-.7 4.9-1.1.2 0 .4 0 .5-.2.2 0 .4 0 .6-.1.2 0 .4.1.4-.2h.4c.2 0 .4.1.5-.1.2 0 .4 0 .6-.1.2 0 .4.1.5-.1.2 0 .4 0 .6-.1.2 0 .4.1.4-.1h.4c.2 0 .4 0 .5-.2.5.1.9-.2 1.4-.3l1.5-.3 4.3-.9 2.9-.6c.6-.1 1.2-.3 1.8-.4.1-.1.3-.2.3-.1.2-.1.6-.3 1.1-.2" class="c29"/><path d="M100.4 96.2c1 .2 2.1.3 3.1.2 1.4-.2 2.7-.1 4-.2.7-.1 1.3-.2 2.1 0 .4.1.9.2 1.3-.1q.15-.15.3 0c.5.4.9 0 1.4 0 .2 0 .3-.1.5 0 1.1.4 2.2.3 3.3.2 2.2-.3 4.4 0 6.6-.2 3.7-.4 7.3-.1 11-.2 1.6 0 3.3.1 4.9.2 2.2.2 4.5.1 6.7.1.6 0 1.2.3 1.9.2.6-.1 1.3 0 1.9 0 .7 0 1.3 0 1.9-.4.5-.3 1.1-.1 1.6-.5.7 0 1.3 0 2 .2.3.1.4.4.2.6-.1.1-.2.1-.3.2-.2.2-.2.3.1.5.4.2 1 0 1.2.6-.2 0-.4 0-.4.2-.8 0-1.6.3-2.3.4-1.2.2-2.4.5-3.6.6-.7-.2-1.4-.4-2.2-.4H128c-.4 0-.6.2-.8.4 0-.2 0-.4-.3-.4h-2c-2.7.1-5.3 0-8 .2-2.8.2-5.7 0-8.5.1-.4 0-.8.1-1.2.1-.7 0-1.3.4-2 .1-.2-.1-.7-.2-.9.2h-.2c-1.6-.3-3.1-.7-4.7-1-.6-.1-1.2-.4-1.9-.3 0-.1-.1-.2-.3-.2-.3.1-.5-.1-.7-.2 0-.1.1-.2.2-.2 1.2-.2 2.3-.5 3.5-.6.1 0 .2-.1.2-.4m-59.5 4.5c-.1-.3-.3-.4-.6-.4-.8.1-1.5-.1-2.3.2-.4.1-1 .2-1.5-.1-.3-.1-.5 0-.8-.1.2-.5.7-.8 1-1.1s.3-.4-.1-.6c-.1-.1-.3-.2-.4-.3h-.1v.1h-.6c-.3.1-.4-.2-.7-.2s-.4-.2-.4-.5.2-.5.5-.6h.7c5.6 0 11.1.1 16.7 0 3.2 0 6.3-.1 9.5-.2 2.7-.2 5.4-.1 8.1-.1q4.05-.15 8.1 0c1.1 0 2.1.2 3.2.2.3 0 .5 0 .7-.3.1-.1.1-.4.3-.3s.5.2.7.4c.1.1 0 .1 0 .2-.1.5 0 .6.5.9-.2.4-.6.1-.8.2-.1-.2-.2-.3-.3-.1-.1.1 0 .1.1.1-.1.1-.1.2-.2.2-1.8.2-3.6.7-5.3 1-.1-.2-.2-.2-.4-.2-1 0-2.1.1-3.1.2-2 .2-4.1-.2-6.1.2-3.4-.1-6.8.1-10.2.2-1.3.1-2.7.2-4 .2h-2.5c-.2 0-.3 0-.4.2h-2.7c-.2 0-.3 0-.4.2h-2.3c-1 0-1.9-.1-2.9.2-.1.1-.5.3-1 .2" class="c26"/><path d="M156 97.7c-.2-.6-.8-.4-1.2-.6-.3-.2-.4-.3-.1-.5.1-.1.2-.1.3-.2.2-.2.1-.5-.2-.6-.6-.2-1.3-.2-2-.2-.4-.1-.7-.3-1.1-.4-.1 0-.1-.2-.1-.3s.1-.1.2-.1h.7c.6 0 1.2.1 1.8-.2.2-.1.5 0 .7 0 .1 0 .3.2.4.1 1-.1 1.9.2 2.8.2 1 0 2 .3 3 .4q.3 0 .3.3c0 .1 0 .2.1.3.2.3.6.4.5.7s-.3.6-.6.8h-.3c-.1.1-.3.2-.2.3 0 .1.2.1.3.1h.2c.2-.1.4-.4.7-.1.1-.2.3-.3.5-.4s.3 0 .3.1c.1.4.7.4.8.9v.2c0 .3-.4.1-.4.4-.2 0-.2-.2-.4-.1-.4.2-.9.2-1.4 0-.2-.1-.3.1-.4.1-.2-.3-.7-.4-.6-.9s-.3-.9-.6-1.3c-.3-.3-.6-.4-.9 0s-.8.4-1.2.6c-.1 0-.3 0-.4.1-.6.3-1.1.3-1.5.3" class="c13"/><path d="M82.8 98.1c.3-.1.6.2.8-.2h.8c.5 0 .9 0 1.4.2.1 0 .2.1.2.1-.1 0-.2.1-.2.1q-.3.45 0 .9c.1.2.4.1.6.1s.4 0 .6-.1c.3-.1.7-.2 1 .1l-2.9.6c-.3-.3-.6-.2-1-.1-.9.2-1.9.5-2.8.5-2.3.1-4.7 0-7 0-.2 0-.3 0-.4-.2v-.1c1.1-.3 2.1-.6 3.2-.7 1.8-.4 3.5-.8 5.3-1 .1 0 .1-.1.2-.2z" class="c27"/><path d="M100.4 96.2c0 .3-.1.4-.4.4-1.2.1-2.3.4-3.5.6-.1 0-.2.1-.2.2-.7-.2-1.4-.4-2.1-.5-.5-.1-1.1-.3-1.6.1-.1-.1-.3-.2-.4-.2-.3-.1-.2-.4-.1-.6s.3-.2.5-.1c.6.3 1.2.1 1.8.1q.3 0 .3-.3c.2-.7.9-.9 1.4-.9 1.3-.1 2.5-.4 3.8-.2h.6c.2 0 .3.2.3.4s-.2.2-.3.2c-.3.2-.8.2-1 .6 0 .1-.2.1-.2.2.1 0 .2.1.2.1.3-.1.6-.1.9-.1" class="c13"/><path d="M92.6 97c.5-.4 1.1-.2 1.6-.1.7.1 1.4.3 2.1.5.2.1.5.3.7.2.1 0 .2.1.3.2.4.4.3.9.4 1.4.2.6-.2.5-.5.5h-.8v-.1c-.8-.2-1.7-.4-2.5-.5-.2 0-.4-.1-.5.2-.4.1-.7-.3-1-.2-.2 0-.4-.2-.4-.4.2-.1.3-.2.4-.4.3 0 .5-.1.6-.4.1-.4 0-.7-.4-.9m71.2 1.5v-.2h.2c.1 0 .2-.1.2-.2v-1c.4-.3.8-.3 1.1-.1.4.2.6.1.9-.1.9-.4 1.8-.7 2.8-.6.2 0 .3.1.3.2-.8 0-1.5.4-2.3.5-.1 0-.2.1-.2.2-.1.2.1.1.2.2.4.3 1 .1 1.3.6h-.1s-.1 0-.1.1c0 .2.1.3.2.3.7 0 .6.5.5.9q-.15.3 0 .6c-1 0-1.9-.3-2.8-.5-.7-.4-1.5-.5-2.2-.9m-75.9.8c-.3-.3-.7-.2-1-.1-.2.1-.4.1-.6.1s-.5.1-.6-.1q-.15-.45 0-.9c0-.1.2-.1.2-.1-.1 0-.2-.1-.2-.1-.4-.2-.9-.2-1.4-.2.3-.4.8-.2 1.2-.4.6-.3 1.3-.3 1.7-.8.1-.2.4-.3.6-.2.3.1.5-.1.8-.2h.3c.2 0 .5-.1.5.2 0 .4-.3-.1-.4 0s-.3.2-.4.2-.2.1-.2.1c.1 0 .2.1.3.1.6.3.6.4.4.8-.4.7-.4.7.4 1 .1 0 .3.1.3.2-.7.1-1.3.2-1.9.4" class="c7"/><path d="M89.7 98.9c0-.2-.1-.2-.3-.2-.9-.3-.9-.3-.4-1 .2-.4.2-.4-.4-.8-.1 0-.2-.1-.3-.1.1 0 .2-.1.2-.1.2 0 .3-.1.4-.2.2-.1.4.4.4 0 0-.3-.3-.2-.5-.2h-.3c0-.4.1-.6.5-.6.3 0 .4.2.5.5.1.4.5.6.4 1.1s.1.8.6.8c.8 0 .6.4.6.9-.4-.1-.9.1-1.3-.1.2-.2 0-.1-.1 0" class="c13"/><path d="M33.5 102c0 .2.1.4-.2.4v-6.5c.4.3.1.7.2 1.1s0 .4.5.7c.2.1.3.2.3.4v1.5c0 .3-.2.4-.4.3-.4-.2-.5-.1-.5.3.2.6.1 1.2.1 1.8" style="fill:#051b2d"/><path d="M92.6 97c.4.1.5.5.4.8 0 .3-.3.4-.6.4-.2 0-.4 0-.5-.2s-.3-.2-.5-.2v-.4c.2.1.5.4.7 0 .1-.2.5-.1.5-.4" class="c13"/><path d="M35.6 98.5h.6c0 .1 0 .1.1.2s.2.3 0 .4c-.1.1-.3.1-.4-.1-.2-.2-.2-.4-.3-.5" style="fill:#474540"/><path d="M161.5 97.9h-.2c-.1 0-.3 0-.3-.1s.1-.2.2-.3h.3z" style="fill:#4e585c"/><path d="M91.4 97.5v.4c-.1 0-.4 0-.4-.1 0-.2.2-.3.4-.3" style="fill:#5f4f40"/><path d="M164.2 98.1c0 .1-.1.2-.2.2 0-.2 0-.2.2-.2" class="c13"/><path d="M168.3 97.9c-.3-.5-.9-.3-1.3-.6-.1-.1-.3 0-.2-.2 0-.1.1-.2.2-.2.8-.1 1.5-.5 2.3-.5h1c0 .2.1.2.3.2 2.3-.1 4.5.3 6.8.2 2-.1 4.1 0 6.2 0 3.9-.1 7.8.1 11.7.3 3.2.1 6.5.1 9.7.1 3.2.1 6.4 0 9.6 0h.7c.2 0 .4-.1.4.1.1.2-.1.3-.2.4-.7.6-.8.9-.1 1.5.2.1.4.2.5.3.2.2.5.4.5.7h-5.5c-1.5.2-3-.3-4.5-.2h-2.2c-1-.1-2 .1-3-.2 0 0-.1.1-.1.2-.7 0-1.4-.3-2.1-.2-1 .1-1 0-1 1-.3-.1-.2-.3-.2-.5 0-.4-.1-.5-.5-.5-.9 0-1.8-.1-2.7-.2-2.4-.2-4.8 0-7.2-.2-2.2-.1-4.4-.4-6.7-.3-.5 0-1.1.1-1.6-.2-.3-.1-.8-.2-.9.1-.2.3-.4.3-.7.3-.2 0-.3 0-.4.2-.4.1-.6-.1-1-.2-1.5-.3-2.9-.7-4.4-1-.9-.2-1.7-.5-2.7-.4-.1-.2-.2-.2-.4-.2 0 .2-.2.2-.3.2" class="c26"/><path d="M219.5 95.8v7.5c-.2.1-.5-.1-.7.2h-.4c-.4-.3.1-.7 0-1v-5.9c0-.9 0-.8.8-.8z" class="c3"/><path d="M218.5 102.6c.1.3-.4.7 0 1-.4 0-.3.5-.6.6 0-.4-.2-.8-.6-.8-.6-.8-1.5-1.2-2.4-1.4v-.2c.3-.2.6-.4.8-.6.5.2 1 .3 1.6 0 .1-.1.3 0 .5 0 .1.3.4.6.4 1-.1.2.1.3.3.4" class="c7"/><path d="M217.7 101.1c-.2 0-.4-.1-.5 0-.5.3-1 .1-1.6 0-.3-.2-.6-.4-.6-.8h1.9c.7.1.7.1.8.8" style="fill:#323c43"/><path d="M232.5 202.7c0 .1-.1.2-.2.2 0-.2 0-.2.2-.2m-5.8 1c0-.1.1-.2.2-.2 0 .1 0 .2-.2.2m-.2.6c0-.1.1-.2.2-.2 0 .1-.1.2-.2.2m-.2.4c0-.1.1-.2.2-.2 0 .1-.1.2-.2.2" class="c6"/><path d="M218.5 169.8c-.3-.1-.2-.4-.2-.6v-7.6c0-.2-.2-.3-.4-.2-.5.3-.5 1.4-1.5 1-.6.2-1.2.4-1.9.6s-1.4.6-2.2.6c-.2 0-.3.1-.4.3-.2.2-.2 0-.3-.2-.1-.3.2-.7-.2-.9v-.6c.3-.4.8-.2 1.2-.3 1.5-.5 3-.7 4.5-1.1 1-.3 1-.2 1.1-1.2h.2c.1 3.4.1 6.8.1 10.2" class="c4"/><path d="M40.7 197s-.1.1-.2.1-.1-.1-.2-.1c-.6-.8-.9-.9-1.6-.3-.1.1-.2.4-.4.3-.2-.2.1-.3.1-.5.1-.6.3-1.1.5-1.6.3-1.1 0-1.9-.5-2.8-.5-1-1.5-1.3-2.7-1-.1 0-.2.1-.3.1h-.2c-.1-.1 0-.2 0-.2.3-.5.5-1 .6-1.6.3-1.5 0-2.8-1.1-3.9-.3-.3-.7-.6-1.2-.6-.2 0-.2-.1-.3-.2v-25c.4-.3.5-.5.8-1.5.1-.3.2-.4.4-.4 1.4.3 2.7.6 4.1 1.1-.3.9-.2 1.1.6 1.4.6.2 1.1.5 1.5 1 .1.4-.2.7-.2 1v24.6c0 .8.3 1.5.2 2.3 0 .5-.2 1-.1 1.4s.1.9.1 1.3c0 .3.1.7-.1 1q-.15.45 0 .9c.3 1.1.2 2.2.2 3.2" class="c8"/><path d="M47.3 109.5c-2-1-4-1.9-6-3 .1 0 .2-.1.2-.2-.2-.3-.3-.6-.6-.7-1.5-.7-2.9-1.5-4.4-2.1-.4-.2-.9-.3-1.3-.7.1-.4.5-.5.8-.6 1.5-.5 3.1-1 4.7-1.5h.3c.4.1.9-.1 1.3-.2 1-.2 1.9-.1 2.9-.2.5.7 1 1.3 1.5 2 .9 1.2 1.8 2.3 2.6 3.6-.2.3.2.5 0 .8-.2.4-.2.9.2 1.2.1.1.2.2.1.4-.4.7-1.1 1-2 .9q-.3.15-.3.3" class="c2"/><path d="M33.3 95.8v6.5c0 .2-.1.4.1.6.5.3.2.5-.1.7-.1-.2-.2-.2-.4-.2h-.6v-5.6c0-.3-.1-.4-.4-.3h-1.3c.4-.4.8-.1 1.2-.2.3 0 .4-.1.4-.4v-.1c.1-1 .1-1 1.1-1" class="c3"/><path d="M35.2 102.8c.3.4.8.5 1.3.7 1.5.6 2.9 1.4 4.4 2.1.4.2.5.4.6.7.1.1-.1.2-.2.2s-.2 0-.3-.1c-2.1-1-4.3-2-6.4-3 0-.1-.4-.3.1-.4.1-.1.3-.3.5-.2" class="c29"/><path d="M32.9 103.4c.2 0 .4-.1.4.2-.1 0-.3.1-.4-.2" class="c21"/><path d="M220 98.9c-.3.1-.2.4-.2.6s.1.5-.2.7v-2.7h2.7c0 .2-.2.4-.4.4-.8.1-1.4.5-1.9 1" class="c20"/><path d="M218.3 159.6c0 1 0 .9-1.1 1.2-1.5.4-3 .7-4.5 1.1-.4.1-.9-.1-1.2.3v-1c-.3-.8-.2-1 .6-1h.9c.5 0 .9-.3 1.3-.6.2-.1.2-.4.1-.6s-.3-.2-.5-.1c-.1.1-.4.1-.5-.2 1.3-.5 2.7-.8 4-1.1.1 0 .2.1.2.1-.3.6 0 1.1.3 1.6.2.2.3.3.4.3" class="c8"/><path d="M218.3 159.6c-.1 0-.2-.1-.2-.2.1 0 .2.1.2.2" class="c4"/><path d="M218.3 108.9c-.1 0-.2 0-.2-.2.1 0 .2.1.2.2" class="c19"/><path d="M29.2 96.1c0 .1.1.2.1.3s-.1.2-.1.3c0-.1-.1-.2-.1-.3-.1-.2-.1-.3.1-.3m-.2 1.2c0-.1.1-.1.1-.2l.1.1c-.1 0-.1 0-.2.1" class="c2"/><path d="M44 209.4h163.5c0 .1-.1.2-.2.2H45.1c-.4 0-.8.2-1.1-.2" style="fill:#e4dcd7"/><path d="M212 207.6c.7 1.1 1.8 1.8 3.1 2.2.4.1.9 0 1.3.1.2 0 .6-.2.7.2-.4.2-.9.2-1.4.2H211c-1 0-1.9-.1-2.9-.4-.2-.1-.4-.2-.5-.4.6.1 1-.2 1-.7 0-.7.4-1.2.5-1.8.5.5 1 .7 1.8.6.3-.1.7 0 1.1 0" class="c37"/><path d="M42.1 207.7c.2.7.7 1.2 1.4 1.5.1.1.2.1.3.3-.1.2-.3.3-.5.4-.9.2-1.8.4-2.8.4h-5v-.1c-.2-.2-.6.1-.7-.2 0-.1.4-.1.6-.1 1.2 0 2.2-.5 3.1-1.3.3-.3.7-.5.9-1 1 0 1.9-.1 2.7.1" style="fill:#3a3f40"/><path d="M218.3 210.3c.2 0 .4.2.4.4-.3 0-.4-.2-.4-.4m-.2-.2c0-.1.1-.2.1-.1.1.1 0 .2.1.3-.1 0-.2-.1-.2-.2" class="c14"/><path d="M42.1 207.7c-.9-.3-1.8-.1-2.6-.2.4-.5.4-1.1.6-1.6h1.5c.7 0 1 .4.7 1.1 0 .2-.1.5-.2.7" class="c24"/><path d="M24.7 204.1c.1 0 .2.1.2.2-.1 0-.2-.1-.2-.2m.2.4c.1 0 .2.1.2.2-.1 0-.2-.1-.2-.2" class="c6"/><path d="M40.7 161.2c-.4-.5-.9-.8-1.5-1-.8-.3-.9-.6-.6-1.4.2 0 .4 0 .5.2-.1.1-.3.1-.1.2.1.1.4.1.5-.1.2 0 .4 0 .5.2-.1.1-.3.1-.1.2.1.1.4.1.5-.1h.6c-.3.3-.3.3-.1.4h.2c.6.6 1.2.3 1.7 0h.5c.6-.4 1.2-.4 1.8-.4h141.2v.3c-.1.5-.1.7.3.7.6 0 1 .2 1.5.4.3.1.6-.1.9.1.1.1.2.1.1.2 0 0-.1.1-.2.1-.3 0-.5-.4-.9-.2-.4.3-.8.2-1.2.2H50.9c-.2 0-.4-.1-.4-.3 0-.4-.4-.6-.7-.4-.4.3-.7.1-1-.2-.5-.5-1.1-.6-1.8-.2-.4.2-.8.4-.9.8-.2.4-.4.3-.7.4s-.7-.2-1 .2c-1.2-.3-2.5-.3-3.7-.3" class="c8"/><path d="M44.4 161.2c.3-.4.7-.1 1-.2.3 0 .6 0 .7-.4.2-.4.6-.6.9-.8.7-.4 1.3-.3 1.8.2.3.3.5.5 1 .2.4-.2.7 0 .7.4 0 .3.2.3.4.3h135.9c.4 0 .8.1 1.2-.2.3-.2.5.2.9.2.1 0 .2 0 .2-.1.1-.1 0-.2-.1-.2-.3-.2-.6 0-.9-.1-.5-.2-1-.4-1.5-.4-.4 0-.4-.2-.3-.7v-.3h21.5c.2.3.6.2.8.6.1.3.4.3.6.2.6-.3 1.2-.2 1.8-.3.9-.2-.1-.4.1-.5h.8c0 .2.1.2.3.2.1 0 .1-.1.1-.1s-.1-.1-.2-.1c.1-.2.3-.2.5-.1.1.2.2.2.4.2.1 0 .3.1.3-.1 0 0-.2-.1-.3-.1.2-.2.4-.2.7-.2.1.3.3.3.5.2s.4-.1.5.1.1.5-.1.6c-.4.2-.8.6-1.3.6h-.9c-.9 0-1 .2-.6 1-56-.1-111.7-.1-167.4-.1" style="fill:#05346b"/><path d="M212 207.6h-1.1q-1.05.15-1.8-.6c0-1 .1-1 .9-1h1.5c0 .5.1 1.1.5 1.6" class="c20"/><path d="M40.5 177v-1.8c.4-.2.2-.5.2-.7v-10.6c.4.1.2.5.2.7v14.3c0 .1-.1.2-.1.3 0-.1-.1-.2-.1-.3v-1.5c0-.1 0-.3-.2-.4" style="fill:#1e5299"/><path d="M211.5 165.1v17c-.4-.2-.2-.5-.2-.8v-15.8c0-.1 0-.3.2-.4" style="fill:#2a5e9e"/><path d="M40.5 163.9v-1.6c.1 0 .2.1.2.3v1.4c-.1-.1-.1-.1-.2-.1" class="c9"/><path d="M40.5 163.9h.2v10.6c0 .2.2.6-.2.7z" class="c12"/><path d="M21.7 183.4c.7 0 1.1.3 1.1.9s-.5 1.2-1.1 1.2-1.1-.5-1.1-1.1c0-.7.4-1 1.1-1m7.8 11.7c-.6 0-.9-.4-.9-1.1 0-.5.4-1 .9-1s1.1.5 1.1 1c.1.5-.6 1.1-1.1 1.1m-13 2.7c0-.6.4-1.1 1-1 .5 0 .9.4.9 1 0 .7-.3 1.1-.9 1.1-.6-.1-1-.5-1-1.1M229 181.9c.7 0 1 .4 1 1 0 .5-.6 1.1-1.2 1.1-.4 0-.9-.6-.9-1 0-.7.5-1.1 1.1-1.1m-7 11.9c.5 0 1.1.5 1.1 1s-.8 1.3-1.2 1.2c-.5 0-1-.6-1.1-1.1 0-.5.6-1.1 1.2-1.1" style="fill:#fcbd36"/><path d="M235.9 191.4c.5 0 1 .4 1 1 0 .5-.6 1-1.1 1-.4 0-1-.6-1-1 .1-.5.6-1 1.1-1" style="fill:#fdbb28"/><path d="M61.8 105.1c-.1.2.6.1.3.5-.1.1 0 .2.1.3.3.2.7.2 1.1.2h20.1c1.2 0 2.4 0 3.6-.2 2-.3 3.9-.1 5.9-.2 1.1 0 2.2-.1 3.3 0 5.6.4 11.2.1 16.7.2h7.7c.7-.2 1.4-.4 2.2-.6h.2c0 .1.1.2.2.1h.2c0 .2-.1.4.2.4.1 0 .2.1.3.1 1.3.1 2.5.4 3.8.2.4 0 .9 0 1.1-.6v-.2c.2 0 .3 0 .4-.2.5-.1.9-.1 1.4-.2.5.2 1 .4 1.5.5.6.2 1.1.4 1.7.6q.45.15.9 0c.7-.2 1.4-.4 2.2-.3h11.6c.9-.1 1.8.2 2.8 0 .2-.1.5-.1.7.1.1.1.3.1.5 0 .3-.2.7-.1 1-.2.8-.1 1.5.3 2.3.2 1.1-.1 2.2 0 3.3 0 1.2 0 2.5-.2 3.7.2.2 0 .4.1.5 0 .4-.3.9-.2 1.3-.2h19.6c.3 0 .7 0 1-.1q1.2-.3 2.4 0c.7.2 1.4.1 1.9-.3.2-.1.3-.5.7-.7.7.1 1.5.3 2.2.4.1.1.1.2.3.1 1 .2 2 .6 3 .7.2.3.4.2.6.2 0 .1.1.2.2.2 0 .3-.1.6.4.6.3 0 .8 0 .8.4.1.5.4.4.6.6v3.1c-.3.1-.1.4-.2.6-.2-.3-.6-.6-.6-.9 0-.5-.3-.7-.6-1s-.6-.5-.5-.9c0-.1-.1-.3-.2-.3-.3 0-.6-.2-1-.2H187c-.2 0-.3 0-.4.2-.5-.3-1-.6-1.7-.2-1-.6-2.1.2-3.1-.2-.2-.1-.5.1-.6.1-.3-.1-.6.3-.9 0-1.3 0-2.6-.2-3.8.1-.2.1-.5.1-.7 0-.3-.2-.7-.2-1-.1-.8.1-1.5-.3-2.2 0h-.2c-.4-.3-.9-.2-1.4-.2h-4.1c-1.4 0-2.9 0-4.4-.1-1.7-.1-3.5-.3-5.3.1-.1 0-.3 0-.4-.1-.2-.2-.5-.1-.8-.1h-5.1c-.3 0-.7.2-1 .2-.4-.1-.7-.3-1 0-.4-.3-.9.1-1.3 0s-.8-.1-1.2-.1h-6.5c-.8 0-1.4-.1-2.1 0s-1.4 0-2 0h-7.4c-.5 0-1.1-.1-1.6.2-.1.1-.3 0-.5 0-.8-.2-1.6-.4-2.3.2-.1.1-.3 0-.5 0H122c-.2 0-.3 0-.5.1-.1.1-.2.2-.2.3 0 .2.1.2.3.2s.4-.1.5.2c-1.2-.1-2.4.1-3.5.8-.3-.7-.9-.6-1.5-.6-.2 0-.4.2-.6.2-.6.2-1.1.4-1.6-.1-.2-.2-.4-.1-.7-.1h-4c-1.3 0-2.7-.1-4 0s-2.6-.1-3.9-.1c-3.3 0-6.6.4-9.9.2-.2-.4-.5-.2-.8-.1q-.75.3-1.5 0c-.4-.2-.8-.2-1.1 0-.4.2-.9.2-1.3.1-.5 0-.9.2-1.4.2-3.1.1-6.1-.2-9.2.2-.7.1-1.4 0-2.1 0h-8.4c-.6 0-.6 0-.6.6V123c0 .7.1 1.3-.2 2-.1.3-.1.8.1 1.2.3.8-.2 1.6-.2 2.4-.4.3-.3.7-.3 1.1s-.3.8 0 1.2.2.8.2 1.3v7.9c0 .1 0 .3-.2.3-.2.1-.3-.1-.4-.2-.1-.2-.1-.4-.1-.6 0-.7-.2-1.4-.4-2.1-.3-1.2-.6-2.3-.5-3.6 0-.3.2-.6.1-.8-.4-1 .1-2-.1-2.9-.1-.5-.1-1.2.3-1.7.2-.2.1-.5.1-.7 0-.4-.1-.8 0-1.1.3-.5 0-.9-.2-1.3l-.6-.9v-16c0-.3-.1-.5-.5-.5h-3.5c-1.2-.1-2.3.4-3.5.2-.2 0-.4.1-.5.2-.4.3-.8.4-1.2.6 0-.5.3-.7.8-.8s.5-.4.2-.7c-.2-.3-.6-.4-.6-.9v-.6c.1 0 .2-.1.2-.2.7-.2 1.5-.3 2.2-.5.1 0 .2 0 .2-.1 1.7.4 3.1.1 4.4-.1" class="c2"/><path d="M73.7 100.1c.1.2.2.2.4.2h7c.9 0 1.9-.3 2.8-.5.4-.1.7-.2 1 .1l-4.3.9-1.5.3c-.7-.4-1.2 0-1.8.2-.3.1-.6-.2-.8.2-.3.1-.8-.2-1 .2-.3.1-.8-.2-1 .2-.3.1-.6-.2-.8.2-.3.1-.8-.2-1 .2h-.6c-1.3.3-2.6.5-3.9.8-.3.1-.8 0-1.1.4-.4-.1-.8.1-1.2.2-1.5.3-2.9.7-4.4 1-1.3.3-2.7.7-4 .9-.2 0-.4.3-.7.2-.4-.1-.6.2-1 .2-.3 0-.6-.2-.9 0h-.2v-.8c-.2-.6.2-.8.6-1l1.6-.3 6.4-1.5c2-.5 4.1-1 6.2-1.4l3-.6c.3-.1.6.2.8-.2.3-.1.4-.1.4-.1m39 3.1c-.5 0-1-.1-1.5-.4h.3c.2-.2 0-.2-.1-.2-.3 0-.6 0-.9-.1s-.6-.3-.9.1c-.8-.2-1.6-.2-2.3-.6h.3c.2-.2 0-.2-.1-.2-.7-.1-1.4-.3-2.1-.4q-1.8-.45-3.6-.6c-.2-.4-.8 0-1-.4h6.4c.2-.2-.2-.1-.2-.3l.1-.1h.6c.1.3.4.1.6.2.4 0 .7 0 1.1.1 1.7.4 3.3.7 5 1.1l5.7 1.2c.9.2 1.8.5 2.8.5.1.2.3.2.4.2h.2c-.2.6-.2 1.2-.2 1.8l-1.6-.3c-1-.2-2-.5-3.1-.5 0-.1-.1-.2-.1-.2q-1.5-.15-3-.6c-.2-.1-.6-.2-.8.2-.5-.2-1-.1-1.5-.4.1 0 .3-.1.3-.1 0-.2-.2-.1-.2-.1-.1-.1-.4-.3-.6.1" class="c3"/><path d="M107.6 99.9h-.4c-.1 0-.1.1-.1.1 0 .1.4 0 .2.3-.1.1-.3 0-.4 0h-6.5c-.6-.2-1.3-.1-1.9-.3-.3-.1-.6-.3-.9.1-.2 0-.4.1-.4-.2.1 0 .2-.1.2-.2.3 0 .7.2.5-.5-.1-.5-.1-1-.4-1.4.7-.1 1.3.1 1.9.3 1.6.3 3.1.6 4.7 1h.2c.7.1 1.4.2 2 .4.3.2.9 0 1.3.4" class="c27"/><path d="M97.5 100.1c.2-.4.6-.2.9-.1.6.2 1.3.1 1.9.3.1.1.3 0 .5 0 .2.4.7 0 1 .4 1.2.1 2.4.4 3.6.6.7.1 1.4.3 2.1.4.1 0 .3 0 .1.2-.1.1-.2 0-.3 0-1 0-2-.3-3-.5-1.9-.4-3.7-.8-5.6-1.1-.4-.1-.8-.1-1.2-.2" class="c24"/><path d="M57.5 105.7c1.4-.2 2.7-.6 4-.9 1.5-.3 3-.6 4.4-1 .4-.1.8-.3 1.2-.2v.3c-.2 0-.4 0-.5.2-.2 0-.4 0-.6.1-.2 0-.3 0-.4.1h-.4c-.2 0-.3 0-.4.2h-.4c-.2 0-.4 0-.5.2-.2 0-.4 0-.6.1-.2 0-.3 0-.4.1h-.4c-.2 0-.3 0-.4.2h-.4c-1.4.3-2.7.5-4.1.8h-.2c.1-.1.1-.2.1-.2" class="c52"/><path d="M67.2 103.8v-.2c.3-.4.7-.3 1.1-.4 1.3-.3 2.6-.5 3.9-.8h.6v.2c-1.6.4-3.2.8-4.9 1.1-.2 0-.4-.1-.4.1z" class="c17"/><path d="M118.6 104.2c1.1 0 2.1.4 3.1.5l1.6.3v.4h-.2c0-.1-.1-.2-.2-.1h-.2l-4.3-.9v-.2z" class="c24"/><path d="M118.6 104.2h-.6c-1.1-.1-2.2-.5-3.2-.7.2-.4.6-.2.8-.2q1.5.45 3 .6z" class="c20"/><path d="M93.4 99.3c.1-.3.3-.2.5-.2.9.2 1.7.3 2.5.5v.3c-.9-.1-2-.4-3-.6" class="c53"/><path d="M109.6 102.5c.3-.4.6-.2.9-.1s.6.1.9.1c.1 0 .3 0 .1.2-.1.1-.2 0-.3 0-.5.1-1-.1-1.6-.2" style="fill:#b5aea9"/><path d="M77.4 101.3c.6-.2 1.2-.7 1.8-.2-.5 0-.9.3-1.4.3-.1 0-.2 0-.4-.1" class="c20"/><path d="M75.6 101.8c.3-.4.7-.1 1-.2v.2c-.2 0-.4 0-.6.1-.1-.1-.3-.1-.4-.1" class="c55"/><path d="M74.6 102c.3-.4.7-.1 1-.2v.2c-.2 0-.4 0-.6.1-.2-.1-.3-.1-.4-.1" class="c38"/><path d="M72.7 102.4c.3-.4.7-.1 1-.2v.2c-.2 0-.4 0-.6.1-.1-.1-.2-.1-.4-.1" class="c55"/><path d="M112.7 103.2c.1-.4.4-.1.7-.2.1 0 .3-.1.2.1 0 .1-.2.1-.3.1z" class="c56"/><path d="M96.5 99.9v-.2h.8c0 .1-.1.2-.2.2z" class="c24"/><path d="M76.6 101.6c.2-.4.5-.1.8-.2v.2z" class="c52"/><path d="M73.7 102.2c.2-.4.5-.1.8-.2v.2z" class="c38"/><path d="M64 104.6c.1-.2.3-.2.5-.2-.1.3-.3.2-.5.2" class="c2"/><path d="M118 104.2h.4v.2c-.1 0-.3 0-.4-.2" class="c3"/><path d="M64.9 104.4c.1-.2.3-.2.4-.2-.1.3-.3.2-.4.2m.8-.2c.1-.2.3-.2.4-.1 0 .2-.2.1-.4.1m1-.2c.1-.2.3-.2.5-.2-.1.3-.3.2-.5.2" class="c2"/><path d="M67.4 103.8c.1-.2.3-.2.4-.1-.1.1-.3.1-.4.1m5.3-1.4h.4c-.1.2-.3.2-.5.2.1-.1.1-.2.1-.2m1-.2h.4c-.1.2-.3.2-.4.2zm.8-.1v-.2h.4c0 .3-.2.3-.4.2" class="c3"/><path d="M62.2 105c.1-.2.3-.2.4-.2 0 .3-.2.2-.4.2" class="c2"/><path d="M75.6 101.9v-.2h.4c-.1.3-.3.3-.4.2" class="c3"/><path d="M63 104.8c.1-.2.3-.2.4-.1 0 .2-.2.1-.4.1" class="c2"/><path d="M76.6 101.5h.4c-.1.2-.3.2-.4.1zm.8 0v-.2h.4c0 .3-.2.3-.4.2" class="c3"/><path d="M127.1 98.9c.2-.2.4-.4.8-.4h19.6c.8 0 1.5.2 2.2.4h-.6c-1.2.4-2.5.6-3.8.8-.7.1-1.4.2-2 .6-.4 0-.9 0-1.3.1l-4 .9c-2.1.4-4.2.9-6.4 1.3-.9.2-1.9.5-2.8.6-.3.1-.5-.2-.8-.2s-.6.1-.8-.1-.1-.6-.1-.9z" class="c29"/><path d="M107.6 99.9c-.4-.4-1-.2-1.5-.4-.7-.2-1.3-.3-2-.4.2-.4.7-.3.9-.2.7.3 1.4-.1 2-.1.4 0 .8-.1 1.2-.1 2.8 0 5.7.2 8.5-.1 2.7-.2 5.4-.1 8-.2h.5v4.5c-.6.1-1.2-.1-1.7.2h-.2c-.1-.3-.3-.2-.4-.2-.9 0-1.8-.3-2.8-.5-1.9-.3-3.8-.8-5.7-1.2-1.7-.4-3.3-.7-5-1.1-.4-.1-.7-.1-1.1-.1-.1-.3-.4-.2-.6-.2 0 .1-.1.1-.1.1" class="c2"/><path d="M143.2 100.3c.6-.4 1.3-.4 2-.6 1.3-.3 2.5-.5 3.8-.8.2-.1.4 0 .6 0 1.2-.2 2.4-.5 3.6-.6.8-.1 1.5-.4 2.3-.4h.5c.1.3-.2.1-.3.2-.2.1-.1.3-.1.5 0 .8 0 .8-.6 1.2v.2h-.7c-.8.2-1.6.4-2.4.4-.2 0-.4-.1-.4.2h-.4c-.1-.3-.4-.2-.6-.2-2.5-.1-4.9-.1-7.3-.1" class="c28"/><path d="M154.9 99.7c.6-.4.6-.4.6-1.2 0-.2 0-.3.1-.5.1-.1.4.1.3-.2h-.5c.1-.2.3-.2.4-.2.5 0 .9.1 1.3-.3.1-.1.3 0 .4-.1.4-.2.9-.2 1.2-.6s.6-.3.9 0c.4.3.7.8.6 1.3s.4.6.6.9c-.6.1-1.2.3-1.9.4-.4-.4-.8-.2-1.2-.1-.7.3-1.7.6-2.8.6" style="fill:#636668"/><path d="M125.2 103v-4.5h1.5c.3 0 .3.2.3.4v2.8h-.2v-1.5c0-.1-.1-.2-.1-.3 0 .1-.1.2-.1.2v2.6c0 .1.1.2.2.2-.2.3-.1.7-.2 1.1-.1.2-.1.6-.5.6-.3 0-.5-.3-.6-.4-.2-.2-.1-.4-.1-.6s.1-.5-.2-.6" class="c3"/><path d="m72.7 100.3-3 .6c-2.1.5-4.1.9-6.2 1.4l-6.4 1.5-1.6.3c-.8 0-1.5-.3-2.3-.2v-4.1c1.3 0 2.7-.1 4-.2 3.4-.1 6.8-.4 10.2-.2 2-.4 4.1 0 6.1-.2 1-.1 2.1-.2 3.1-.2.2 0 .3 0 .4.2-1.1.2-2.2.4-3.2.7v.1h-.2c-.4.2-.7-.1-.9.3" class="c2"/><path d="M45.6 100.3h1.7c.2.2.4.5.6.7.7 1 1.5 1.9 2.1 3 0 .2.2.3.4.4l.3.6c.2.2.3.5.7.2.2-.1.4.1.4.4v.6c0 .4-.1.8.1 1.2.3-.2.6-.1 1-.1h.2v1.9c0 .2 0 .3.2.4v7.6c-.3-.3-.5-.7-.8-1v-8.1c0-.5 0-.5-.4-.3q-.9.45-1.8 0c0-.2-.1-.4.2-.4 0 .1.1.2.2.2.3.4.6.3.9.1q.15-.15 0-.3c-.1-.1-.3-.2-.5-.1-.3-.1-.5-.4-.7-.7-1.6-2.3-3.2-4.2-4.8-6.3" class="c28"/><path d="M50.3 104.4c-.2-.1-.4-.2-.4-.4.3-.1.2-.3.2-.5v-3.4h2.1c.2 0 .3 0 .2.3-.1.2 0 .5-.1.8-.1.7.2 1.4.2 2.1 0 .4-.1.5-.5.5s-.8-.2-1.1.2c-.2 0-.5.1-.6.4" class="c27"/><path d="M50.2 100.1v3.4c0 .2.1.4-.2.5-.6-1.1-1.4-2-2.1-3-.2-.2-.4-.5-.6-.7.1-.2.2-.2.4-.2z" class="c29"/><path d="M45.6 100.3c1.5 2 3.1 4 4.6 6.1.2.3.4.5.7.7.2.3.2.5-.2.4h-.2c0-.1-.1-.2-.2-.2a.9.9 0 0 0-.6-.6c-.2-.2-.4-.5-.6-.7-.8-1.3-1.7-2.4-2.6-3.6-.5-.7-1-1.4-1.5-2 .3-.1.4-.1.6-.1" class="c38"/><path d="M51 104c.3-.4.8-.2 1.1-.2.4 0 .5-.1.5-.5 0-.7-.3-1.4-.2-2.1 0-.3-.1-.6.1-.8.1-.2 0-.3-.2-.3h-1.9c.1-.2.2-.2.4-.2h2.5v4.1z" style="fill:#575b5e"/><path d="M82.8 98.1h-.2c-.1 0-.2-.1-.1-.1.1-.2.2-.1.3.1" class="c2"/><path d="M159.2 99.3c.6-.1 1.2-.3 1.9-.4.2 0 .2-.2.4-.1.4.2.9.2 1.4 0 .2-.1.3.1.4.1.5.1 1 .2 1.5.4 1.1.2 2.2.5 3.4.7 0 .1.1.2.2.2h.2l2.7.6c.2 0 .4 0 .6.1.1.1.1.2.3.1l2.5.6 4.2.9c.1.1.1.2.3.1h.2c.4.1.8.3 1.2.3.1.2.3.2.4.2 1.6.4 3.1.7 4.7 1.1.1.2.3.2.4.2h.6c0 .1.1.2.2.1 1 .2 1.9.5 2.9.7-.3.1-.4.5-.7.7-.6.4-1.3.5-1.9.3q-1.2-.3-2.4 0c-.3.1-.7.1-1 .1h-19.6c-.4 0-.9-.1-1.3.2-.1.1-.3.1-.5 0-1.2-.4-2.5-.1-3.7-.2-1.1 0-2.2-.1-3.3 0-.8 0-1.5-.3-2.3-.2-.3.1-.7-.1-1 .2-.1.1-.3.1-.5 0-.2-.2-.5-.2-.7-.1-.9.2-1.8-.1-2.8 0s-1.9 0-2.9 0h-8.7c-.8 0-1.5.1-2.2.3-.3.1-.6.2-.9 0-.5-.2-1.1-.4-1.7-.6-.5-.2-1-.3-1.5-.5 1.7-.4 3.4-.7 5.1-1.1h.2c.2 0 .3.1.4-.1.2 0 .5 0 .7-.1l3-.6c.2 0 .3.1.4-.1.1 0 .3 0 .4-.1h.2c.2 0 .3 0 .4-.1.8 0 1.6-.3 2.4-.5h.2c.2 0 .3 0 .4-.1 2-.3 3.9-.8 5.9-1.2 1.6-.3 3.1-.6 4.7-1 1.9-.6 3.3-.9 4.6-1.1" class="c29"/><path d="M168.2 99.9c-1.1-.2-2.2-.5-3.4-.7-.5-.1-1-.2-1.5-.4 0-.3.4-.1.4-.4.7.5 1.5.5 2.3.7.9.2 1.8.5 2.8.5v.2c-.1 0-.2.1-.2.2h-.2c.1 0 0-.1-.2-.1" class="c53"/><path d="M168.9 99.9v-.2q-.15-.3 0-.6c.1-.4.2-.9-.5-.9-.1 0-.2-.1-.2-.3 0 0 0-.1.1-.1h.5c.1.3.3.2.4.2.9 0 1.8.3 2.7.4 1.5.3 2.9.7 4.4 1 .3.1.6.3 1 .2.4.2.9.1 1.2.4-.2.1-.5.2-.8.2h-6.3c-.5 0-1.1 0-1.6-.4q-.3-.45-.6 0c-.2.1-.2.1-.3.1" class="c27"/><path d="M214.8 101.8v.2c.1.1.2.3.1.3-.5.8-.9 1.6-1.7 2.1-.5.3-1.1.6-1.7.8-1.4.5-2.7 1.3-4.1 1.9-1 .4-2 .7-2.7 1.7-.3.5-1 .4-1.6.3-.3 0-.6-.1-.7-.4-.1-.4-.3-.5-.6-.2-.1.1-.3 0-.3-.2v-.6c.8-.1.9-.2.8-.9 0-.3-.2-.5-.4-.8.3-.5.7-.9 1-1.4 1.1-1.5 2.3-2.8 3.3-4.4.1 0 .2-.1.2-.2 1.5-.1 3 .4 4.5.2.8.5 1.7.6 2.6 1 .4.3.8.6 1.3.6" class="c2"/><path d="M178.3 100.1c-.4-.3-.8-.2-1.2-.4.1-.2.2-.2.4-.2.3 0 .5 0 .7-.3s.7-.2.9-.1c.5.2 1.1.2 1.6.2 2.2-.1 4.5.1 6.7.3 2.4.2 4.8 0 7.2.2.9.1 1.8.2 2.7.2.4 0 .5.1.5.5 0 .2-.1.4.2.5v3.1c-.2.1-.5.2-.8.2h-1.3c-.3 0-.5 0-.8-.1-.9-.3-1.9-.5-2.8-.7-2.7-.7-5.4-1.4-8.2-2-1.5-.4-3.1-.7-4.6-1.1-.2-.4-.6-.1-.8-.2-.1-.1-.2-.1-.4-.1" class="c29"/><path d="M198 104v-3.1c0-1 0-1 1-1 .7 0 1.4.2 2.1.2v3.6c0 .1 0 .2.1.3.1-.1.2-.1.2-.2.3-.3.5-.6.7-1 .7-.9 1.5-1.7 2.1-2.7h1.8c-1.8 1.9-3.3 4-5 6.1-.5.3-.8.9-1.4 1.1l.1.1c.1.1.1.2.2.2s.3-.1.3.1-.2.1-.3.1c-.3-.1-.7.2-.8-.2.2 0 .2-.1.2-.3 0-.5.1-1-.1-1.5-.1-.3.1-.5.2-.6.2-.1.3.1.4.2s.2.2.3 0c.1-.3.3-.6.5-.9s.1-.6-.3-.6c-.6.1-1.5.1-2.3.1" class="c28"/><path d="M204.2 100.1c-.6 1-1.3 1.8-2.1 2.7-.3.3-.4.7-.7 1-.1.1-.2.1-.2.2 0-.1-.1-.2-.1-.3v-3.6c0-.1.1-.2.1-.2 1 .3 2 .2 3 .2" class="c2"/><path d="M201.1 106.3c1.6-2.1 3.2-4.2 5-6.1h.2c0 .1 0 .1.1.2-1 1.5-2.2 2.9-3.3 4.4-.3.5-.7.9-1 1.4l-.4.4q-.45-.3-.6-.3" class="c55"/><path d="M214.8 101.8c-.5.1-.9-.2-1.3-.4-.9-.4-1.8-.5-2.6-1h4.1c0 .4.3.6.6.8-.2.2-.5.4-.8.6" class="c27"/><path d="M169.1 98.1c-.2 0-.4.1-.4-.2.2 0 .3-.1.4.2" class="c7"/><path d="M206.3 100.3c0-.1 0-.1-.1-.2h.2c0 .1 0 .2-.1.2" class="c28"/><path d="M201.5 107.7v.6c0 .2.2.3.3.2.4-.3.5-.1.6.2.1.4.3.4.7.4.6.1 1.3.2 1.6-.3.7-1 1.8-1.3 2.7-1.7 1.4-.6 2.7-1.4 4.1-1.9.6-.2 1.1-.6 1.7-.8.8-.4 1.2-1.3 1.7-2.1 0-.1-.1-.2-.1-.3 1 .2 1.8.6 2.4 1.4-2.2 1-4.5 2.1-6.7 3.1-2.7 1.2-5.3 2.5-7.9 3.9-.7.3-.9 1-1.3 1.5-.1 0-.2-.1-.2-.1V108c0-.3.2-.3.4-.3" class="c29"/><path d="M204.4 155.7h6.8c.9 0 1.1.3 1.2 1.1v.9c0 .8-.2.9-1 1-.4-.3-.8-.2-1.3-.2H41.5c-.2 0-.3.1-.3.2v.2H41c-.3 0-.6-.1-.9-.2s-.4-.3-.4-.6v-1.4c0-.7.3-1 1-1h5.9c.1.3.4.2.6.2h5.1c.1.2.2.2.4.2h7.6c.2 0 .3 0 .4-.2H107c.2 0 .5.1.6-.2h35.5c.3 0 .6.2.9-.2.1 0 .2.1.2.2.1.4.5.2.7.2h58.7c.4 0 .7.1.8-.2" style="fill:#c6c5c4"/><path d="M52.2 155.9h-4.9c-.2 0-.5.1-.6-.2h3.1c.3 0 .4-.1.4-.4v-42c.1 0 .1.1.2.1.6.9 1.3 1.8 2.1 2.6v39.8c-.2-.1-.3 0-.3.1" class="c23"/><path d="M52.4 115.9c-.8-.8-1.5-1.7-2.1-2.6 0 0-.1-.1-.2-.1v-5.5q.9.45 1.8 0c.4-.2.4-.2.4.3.1 2.7.1 5.3.1 7.9" class="c10"/><path d="M50.1 107.7v4.3c-.3-.1-.4-.4-.5-.6-.4-.6-.8-1.1-1.5-1.4-.3-.1-.6-.3-.8-.5 0-.1.1-.2.2-.2.8.2 1.5-.2 2-.9.1-.2 0-.3-.1-.4-.4-.4-.5-.8-.2-1.2.2-.3-.2-.6 0-.8.2.2.4.5.6.7 0 .4-.2.8.3 1" class="c29"/><path d="M41 159h.2v.3c.5-.2.9 0 1.3.3h.3c-.6.4-1.1.7-1.7 0h-.2c-.3-.1-.3-.1.1-.4-.1-.1-.1-.1 0-.2m-1.5 0c-.1.3-.3.2-.5.1s.1-.1.1-.2c.1.1.3.1.4.1m.8.2c-.1.2-.3.2-.5.1s0-.1.1-.2c.2.1.3.1.4.1" class="c9"/><path d="M204.4 155.7c-.1.3-.4.2-.6.2h-4.9c0-.1-.1-.2-.2-.2.3-.4.2-.8.2-1.2v-18.3c0-.8-.4-1.5 0-2.3-.1-1.7.2-3.5-.2-5.2-.1-.3-.1-.6.1-.9s.1-.5.1-.8v-10.7c0-.2.1-.3.2-.5.7-.9 1.4-1.7 2.1-2.6v41.5c0 1-.1.9.9.9.7.1 1.5.1 2.3.1m-163.3 3.1c0-.2.1-.2.3-.2H210c.4 0 .9-.1 1.3.2v.4h-.2c0-.1-.1-.2-.2-.2-.3-.3-.7-.2-1-.2z" class="c23"/><path d="M212.9 159c.1 0 .3.1.3.1 0 .2-.2.1-.3.1-.2 0-.3 0-.4-.2zm-.8.2c.1 0 .1 0 .2.1.1 0 0 .1-.1.1s-.2 0-.3-.2c.1-.1.2-.1.2 0" class="c8"/><path d="M42.8 159.6h-.3c-.4-.3-.8-.5-1.3-.3v-.3H211c-.4.7-1 .7-1.6.5-.5-.1-.9-.4-1.4-.3H45.3c-.6 0-1.3-.1-1.8.4z" style="fill:#04173a"/><path d="M207.9 159.2c.5-.1 1 .2 1.4.3.7.2 1.3.2 1.6-.5.1 0 .2 0 .2.2-.2.1.8.3-.1.5-.6.1-1.2.1-1.8.3-.2.1-.5.1-.6-.2-.1-.4-.5-.3-.7-.6" class="c8"/><path d="M92.4 109.8c3.3.2 6.6-.2 9.9-.2 1.3 0 2.6.1 3.9.1 1.3-.1 2.7 0 4 0h4c.2 0 .5-.1.7.1.5.5 1 .3 1.6.1.2-.1.3-.2.6-.2.6 0 1.2 0 1.5.6-1.9 1.9-1.7 4.2-.4 6.4-.1.2-.2.2-.4.1-.6-.3-1.2-.4-1.9-.3-2 0-3.1 1.1-3.1 3.1 0 1.3.6 2.2 1.5 3.1-.2.3-.6.4-.9.6-.5.4-.7 1.2-.6 1.9.3 1.1 1.1 1.5 2.1 1.8v.2c-.1 0-.2.1-.1.2-.5 1.1-.9 2.3-1.1 3.5-.3 0-.3.2-.4.4-.1.8-.2.8-1.1.8-1.3 0-2.6-.1-3.9-.2-1.2-.1-2.4-.4-3.6-.3h-.2c-.4-.3-.9-.2-1.4-.2s-1-.3-1.5-.2c-.9.1-1.8-.3-2.7-.2-.1 0-.2 0-.3-.1-.6-.1-1.2-.3-1.8-.3-1.3 0-2.5-.4-3.8-.5q-1.8-.15-3.6-.6c-.5-.1-1.1-.1-1.7-.3-.8-.2-1.5-.4-2.3-.5-1.3-.2-2.5-.5-3.8-.8-1.2-.3-2.4-.5-3.7-.9-.7-.2-1.4-.2-2-.6.9-.6 1.9-.9 2.8-1.4.7-.4 1-.8.8-1.6-.1-.2-.2-.4-.1-.6.2-.4 0-.4-.3-.3-.4 0-.8-.1-1 .3-.2.3-.5.3-.8.3s-.6 0-1-.2c-.3-.2-.8.1-.8.3-.1.4.1.6.5.6s.3.2.3.5-.2.5-.4.5c-.7 0-1.5.2-2.1-.3-.3-.3-.6-.4-1-.1-.4.2-.6.1-.7-.5 0-.1-.1-.2-.1-.4-.1-.5-.1-.8.5-.9.3-.1.6-.2.8-.4s.5-.5.4-.8c-.1-.4-.5-.2-.8-.2-.5 0-.6-.3-.5-.7.1-.2.2-.4.4-.6q.45-.45 0-.9c-.3-.4-.6-.2-.9 0-.2.1-.3.3-.5.4-.1.1-.4.1-.4-.1-.1-.9-.7-.8-1.3-.7-.5.1-.5 0-.4-.5s.2-1.1-.1-1.6c-.1-.1-.1-.3-.1-.4.3-.6 0-.8-.4-1.1-.3-.2-.3-.5-.1-.8.2-.2.3-.4.4-.7s.3-.5.6-.5c.5-.1.9-.4 1.1-.9.3-.6 1-.1 1.3-.5 0 0 0-.1.1-.1.5-.3.9-.3 1.2.2.2.4.5.4.9.5.3 0 .6-.1.8.1.3.3.7.4 1.1.1.4-.2.7-.1 1 .3.1.1.1.2.2.3.2.3.4.4.6 0 .1-.1.3-.1.4-.3.2-.2.5-.3.1-.7-.3-.3-.1-.6.3-.9s.6.1.6.3c.2.5.6.6 1.1.8.2.1.4.1.5 0 .5-.2 1 0 1.4.2.5.2 1 .3 1.2.9 0 .1.2.1.2.1.2 0 .2-.1.2-.3 0-.4.1-.6.5-.5h.6c.3 0 .3.1.2.4-.2.4-.1.9-.1 1.4 0 .2.2.5.3.6s.3-.1.4-.1c.3 0 .5 0 .8.1.1.1.3.1.5-.1.6-.8 1.1-1.5 1.1-2.5 0-.3-.1-.6.1-.9.3-.3.3-.6.1-1-.1-.1-.1-.5.2-.4.8.1 1.4-.3 2.2-.4.6.2 1.1.4 1.6.1" class="c4"/><path d="M197.8 112c.1-.2-.1-.5.2-.6V155c0 .2 0 .3-.2.4-.1-.3-.3-.2-.5-.2h-10c-.8 0-.8.1-.7-.8v-28.8c0-.2-.1-.3-.2-.3v-1c.2-.2.6-.2.8-.3 1.1-.7 2.2-1.3 3.3-1.9 2.1-1.2 4.2-2.5 6.2-4 .3-.2.6-.7.9-.6s.1.7.1 1v.1c0 .1.1.1.1.1 0-.1.1-.1.1-.2v-4.4c0-.1 0-.2-.2-.2-.5 0-.8-.3-.8-.6s.3-.6.8-.6c.2 0 .2-.1.2-.2-.1-.1-.1-.3-.1-.5M63.9 122.5v10c0 .2.1.5 0 .7-.5 1.1.1 2.2-.2 3.3.4.6.2 1.2.2 1.8-.1 3.2.2 6.3-.2 9.5-.2 1.8 0 3.6 0 5.4 0 .6-.1 1.2 0 1.7.1.4.1.4-.3.4h-8.3c-.3 0-.6 0-.8-.3-.2-.2-.4-.1-.5 0-.1.2-.3.3-.5.2v-38.1c.4-.1.8.1 1.2.3l4.5 2.4c1.5.9 3.2 1.8 4.9 2.7" class="c8"/><path d="M53.2 155.3c.2 0 .4-.1.5-.2.2-.2.3-.2.5 0 .2.3.5.3.8.3h8.3c.4 0 .4 0 .3-.4-.1-.5 0-1.2 0-1.7 0-1.8-.1-3.6 0-5.4.3-3.2.1-6.3.2-9.5 0-.6.2-1.2-.2-1.8.3-1.1-.3-2.2.2-3.3.1-.2 0-.5 0-.7v-7.3l.6.9c.2.4.5.7.2 1.3-.1.3 0 .7 0 1.1 0 .2 0 .5-.1.7-.4.5-.4 1.1-.3 1.7.2 1-.3 2 .1 2.9 0 .1-.1.5-.1.8-.1 1.2.2 2.4.5 3.6.1.7.3 1.4.4 2.1 0 .2-.1.4.1.6.1.1.2.3.4.2.2 0 .2-.2.2-.3V133c0-.4 0-.9-.2-1.3-.3-.4 0-.8 0-1.2s-.1-.8.3-1.1c.1-.8.5-1.6.2-2.4-.2-.4-.2-.9-.1-1.2.2-.7.2-1.3.2-2v-12.6c0-.6 0-.6.6-.6h8.4c.7 0 1.4.1 2.1 0 3.1-.4 6.1-.1 9.2-.2.5 0 .9-.3 1.4-.2.4 0 .9.1 1.3-.1.3-.1.7-.1 1.1 0q.75.3 1.5 0c.3-.1.6-.3.8.1-.5.3-1 .1-1.5.2-.7.1-1.4.5-2.2.4-.3 0-.3.3-.2.4.2.4.2.7-.1 1-.3.2-.1.6-.1.9 0 1-.5 1.8-1.1 2.5-.1.2-.3.2-.5.1-.2-.2-.5-.2-.8-.1-.2 0-.3.3-.4.1q-.3-.3-.3-.6c0-.5-.1-1 .1-1.4.1-.3.1-.4-.2-.4h-.6c-.4 0-.6.1-.5.5 0 .1 0 .3-.2.3-.1 0-.2-.1-.2-.1-.2-.6-.8-.7-1.2-.9-.5-.2-.9-.5-1.4-.2-.1.1-.3 0-.5 0-.4-.2-.8-.3-1.1-.8-.1-.2-.3-.5-.6-.3-.4.3-.6.6-.3.9.4.4.1.5-.1.7-.1.1-.3.1-.4.3q-.3.45-.6 0c-.1-.1-.1-.2-.2-.3-.3-.3-.6-.5-1-.3s-.8.2-1.1-.1c-.2-.2-.5-.1-.8-.1-.4 0-.7 0-.9-.5-.3-.6-.7-.6-1.2-.2 0 0-.1 0-.1.1-.3.5-1.1-.1-1.3.5-.2.5-.6.7-1.1.9-.3.1-.4.2-.6.5-.1.2-.3.5-.4.7-.3.3-.2.6.1.8.4.3.7.6.4 1.1-.1.1 0 .3.1.4.2.5.2 1.1.1 1.6s-.1.6.4.5c.6-.1 1.2-.2 1.3.7 0 .2.3.2.4.1.2-.1.3-.3.5-.4.3-.1.6-.3.9 0q.45.45 0 .9c-.2.2-.3.4-.4.6-.2.5 0 .7.5.7.3 0 .7-.1.8.2s-.2.6-.4.8-.5.3-.8.4c-.5.1-.6.4-.5.9 0 .1.1.2.1.4.1.5.3.7.7.5s.7-.1 1 .1c.6.5 1.4.3 2.1.3.2 0 .4-.2.4-.5 0-.2 0-.5-.3-.5-.4 0-.5-.3-.5-.6.1-.3.5-.5.8-.3s.6.2 1 .2c.3 0 .6 0 .8-.3.2-.4.6-.3 1-.3.2 0 .5-.1.3.3-.1.2.1.4.1.6.2.8-.1 1.2-.8 1.6-.9.5-2 .8-2.8 1.4h-.4c0-.1-.1-.1-.1-.2-.7-.2-1.3-.3-2-.5 0-.3-.2-.2-.4-.2h-.4c0-.1-.1-.2-.2-.2 0-.2 0-.4-.2-.4-.6 0-1.2-.4-1.9-.2-.3 0-.6 0-.8-.2-.3-.4-.3-.4-.8 0v29.7c0 1.1 0 1.1 1.1 1.1h35.5c.2 0 .3.1.3.2H54.4c-.7-.7-1-.5-1.2-.9m34.5-42.5c-.1-.1.1-.4-.2-.5s-.5.1-.6.3c-.3.4-.5.8-.9 1.1s0 .6.1.8.4.1.6 0c.2-.2.4-.3.4-.6 0-.1 0-.3.2-.3.5-.1.4-.5.4-.8" class="c4"/><path d="M186.3 124.3v1c0 .4 0 .7-.3 1-.2.2-.3.5-.3.8 0 1.3-.4 2.6-.2 3.9.1.5 0 1 .1 1.5.1.4-.1 1-.1 1.5.1 1.1-.2 2.3.2 3.4-.4.7.1 1.6-.4 2.4-.1.1-.1.4 0 .6.2.4.3.8.1 1.3-.2.4.3.8.1 1.2-.2.5-.2 1.1-.2 1.6 0 .1 0 .1-.1.2l-.2.2c0-.1-.1-.1-.1-.2 0-.2-.3-.3-.2-.6.1-.5-.3-1-.2-1.4.2-.5 0-1 0-1.4-.1-2 .2-4-.2-6-.1-.9 0-1.8 0-2.8v-2.8c.1-.9-.1-1.8 0-2.7.1-1.4 0-2.9 0-4.3 0-.2-.1-.3-.2-.3v-12.2q0-.3-.3-.3c-1 .1-1.9-.2-2.8-.2h-5c-3.7-.1-7.4.2-11.1-.2-2.4-.2-4.8.1-7.2-.2h-32.4c-.4 0-.6.2-.6.5 0 .2-.1.3-.2.3 0-.1-.1-.2-.2-.2-.1-.5-.5-.4-.8-.4 0-.3-.3-.2-.4-.2h-.2c-.1-.3-.3-.2-.4-.2h-.4c-.1-.3-.3-.2-.5-.2-.1 0-.3 0-.3-.2s.1-.2.2-.3.3-.1.5-.1h2c.7-.6 1.5-.4 2.3-.2.2 0 .4.1.5 0 .5-.3 1.1-.2 1.6-.2h7.4c.7 0 1.3.1 2 0s1.4 0 2.1 0h6.5c.4 0 .8 0 1.2.1s.9-.3 1.3 0c.4-.3.7 0 1 0s.6-.2 1-.2h5.1c.3 0 .5-.1.8.1.1.1.3.1.4.1 1.7-.4 3.5-.3 5.3-.1 1.5.1 2.9.1 4.4.1h4.1c.5 0 1-.1 1.4.2h.2c.8-.3 1.5.1 2.2 0 .3 0 .7-.1 1 .1.2.1.4 0 .7 0 1.3-.3 2.6-.1 3.8-.1.3.3.6-.1.9 0 .1 0 .4-.1.6-.1 1 .4 2.1-.4 3.1.2.6-.4 1.1-.1 1.7.2-.3 5.6-.3 10.7-.3 15.8" class="c2"/><path d="M186.3 124.3v-15.4c.1-.2.2-.2.4-.2h8.2c.4 0 .6.2 1 .2.2 0 .3.1.2.3-.1.4.2.7.5.9.3.3.6.5.6 1 0 .3.4.6.6.9v.5c0 .1 0 .2-.2.2-.6 0-.8.3-.8.6s.3.6.8.6c.2 0 .2 0 .2.2v4.4c0 .1-.1.1-.1.2l-.1-.1v-.1c-.1-.4.2-.9-.1-1-.2-.1-.6.4-.9.6-2 1.5-4.1 2.8-6.2 4-1.1.6-2.2 1.3-3.3 1.9-.2.2-.5.1-.8.3m-122.4-1.8c-1.7-.9-3.4-1.7-5-2.6l-4.5-2.4c-.4-.2-.7-.3-1.2-.3v-6.4c.5-.3.9-.7 1.4-1 .4-.2.9-.3 1.2-.6.1-.1.3-.3.5-.2 1.2.2 2.3-.3 3.5-.2s2.3 0 3.5 0c.4 0 .5.1.5.5v4c.1 3 .1 6.1.1 9.2" class="c4"/><path d="M121.9 109.3h.4c.1.2.3.2.4.2h.2c.1.2.3.2.4.2.2.3.5.4.8.4 0 .1.1.2.2.2.6.5 1.2.9 1.6 1.6-.1.4-.1.4-.3.3l-.3-.3c-.5-.4-.8-.9-1.4-1.2-.1-.1-.3-.3-.4-.1-.2.2.1.3.2.4.8.5 1.4 1.1 1.8 2 .1.3.4.4.6.6h.2c.1-.1.1-.2.1-.3-.1-.2-.3-.3-.3-.5-.1-.2.1-.2.2-.3.3.2.5.5.7.9.7 1.4 1.3 2.8 1.4 4.4.1.7.2 1.5 0 2.2-.1.2.1.4.2.6-.4.4-.3.9-.6 1.3-.1.2-.2.3-.4.2-.1-.1-.3-.1-.4-.2-1.9-1-3.9-1-6-.6v-.1c-.4-.7-1-1.3-1.5-1.9a8 8 0 0 1-1.5-2.1c-.1-.2.1-.5-.3-.6-1.2-2.1-1.4-4.5.4-6.4 1.2-.8 2.4-1 3.6-.9" class="c30"/><path d="M143.2 100.3h7.2c.2 0 .5-.1.6.2 0 .1-.1.2-.1.2-.8.1-1.5.3-2.3.4-1.2.2-2.4.6-3.6.6-.3.4-.9-.1-1.2.4-.7-.1-1.4.1-2 .3-.4.1-.8-.2-1.1.3h-.6c-.4 0-.9.1-1.2.2-.9.2-1.8.2-2.6.6-.2.1-.6-.2-.7.2-.4 0-.7 0-1.1.1-1.1.3-2.3.5-3.5.7-.7.1-1.4.3-2.1.5l.2.2c-.1.2-.3.2-.4.2v-2.2c1 0 1.9-.4 2.8-.6 2.1-.4 4.2-.9 6.4-1.3 1.3-.3 2.7-.5 4-.9.5-.1.9 0 1.3-.1" class="c3"/><path d="M128.7 103.2v2.4h-4.6c-.2 0-.4-.1-.5.2-.3-.1-.2-.3-.2-.4v-.4c0-.6 0-1.2.2-1.8.5-.4 1.1-.2 1.7-.2.3.1.2.4.2.6s-.1.4.1.6.3.5.6.4c.4 0 .4-.4.5-.6.1-.3 0-.7.2-1.1v-1.2h.2v.3c0 .3-.1.6.1.9.2.2.5.1.8.1.2 0 .4.3.7.2m-4.1.8c-.2.1-.2.3-.2.4l.1.1c.2-.1.3-.2.3-.4 0 0-.1-.1-.2-.1m3.2.3s0-.1 0 0c-.1 0-.1 0-.1.1l.1.1zm71.5 3.4c0-.1-.1-.2-.2-.2 0-.1-.1-.2-.2-.2h-.2c-.1 0-.2.1-.2.2h-.2c-.2-.3-.4-.7-.8-.6s-.8-.2-1.2-.2c-.1 0-.2-.1-.2-.2.3 0 .2-.2.2-.4.4-.3.1-.7.2-1.1s-.2-.5-.4-.8h1.3c.3 0 .5-.1.8-.2h2.5c.4 0 .6.3.3.6-.2.3-.4.5-.5.9-.1.2-.2.1-.3 0s-.2-.3-.4-.2-.3.3-.2.6c.2.5 0 1 .1 1.5-.2.1-.3.2-.4.3m-1.8-2.2c-.1 0-.1-.2-.3-.2-.1.1-.3.2-.2.4 0 .1.2.1.2.1.2 0 .4-.1.3-.3M51 104h2.3c.8-.1 1.5.2 2.3.2-.4.2-.8.4-.6 1 .1.3 0 .5 0 .8 0 .2-.1.4.2.4h.2c0 .1-.1.2-.2.2-.8 0-1.4.2-2.1.6h-.2c-.3 0-.7 0-1 .1-.2-.4 0-.8-.1-1.2v-.6c0-.3-.2-.5-.4-.4-.4.3-.5 0-.7-.2l-.3-.6c0-.2.3-.3.6-.3m3.2 1.6c-.1-.1-.1-.2-.2-.2-.3-.1-.3.1-.4.3 0 .1.1.2.2.2.2 0 .3-.2.4-.3" class="c15"/><path d="M198.6 107.3h.2v.2c.1.7-.3 1.4-.2 2.2.1.3 0 .7.1 1 .1.2.1.6.1.9-.4 1.6-.1 3.2-.2 4.7 0 .5-.4.4-.6.6v-8.6c.1-.3-.2-.6.2-.8h.2c.1 0 .2-.1.2-.2" class="c28"/><path d="M54.7 109.8c-.5.3-.9.7-1.4 1v-1.2c0-.4-.1-.8.1-1.1.3-.4.6-.8 1.1-.9.2-.1.4-.2.6-.2-.1.5.4.6.6.9.3.4.3.6-.2.7-.5 0-.8.2-.8.8" class="c29"/><path d="M123.6 105.9c.1-.3.3-.2.5-.2h4.6c-.2.5-.7.5-1.1.6-1.3.2-2.5-.1-3.8-.2zm-68.5 1.4c-.2.1-.4.2-.6.2-.5.1-.9.6-1.1.9-.2.2-.1.7-.1 1.1-.2-.1-.2-.2-.2-.4v-1.9q.9-.6 2.1-.6c-.1.3-.1.5-.1.7" class="c7"/><path d="M129.1 105.3c-.1 0-.2-.2-.2-.2.7-.2 1.4-.3 2.1-.5 1.2-.2 2.3-.4 3.5-.7.4-.1.7-.1 1.1-.1v.2c-1.7.4-3.4.7-5.1 1.1-.4 0-.9.1-1.4.2" class="c17"/><path d="M189.8 105.1c-1-.2-1.9-.5-2.9-.7 0-.1-.1-.2-.2-.1v-.2l2.4.6c1.1.2 2.1.4 3.2.7v.2h-.2c-.8-.3-1.5-.4-2.3-.5" class="c52"/><path d="M198.2 107.5c-.4.2-.1.6-.2.8-.2-.2-.6-.2-.6-.6 0-.3-.5-.3-.8-.4-.5-.1-.4-.4-.4-.6.4 0 .8.3 1.2.2s.6.3.8.6" class="c16"/><path d="M192.3 105.4v-.2c1 .4 2.1.5 3.2.8.2 0 .4.1.5-.2 0-.1.1-.2.2-.1s0 .2 0 .3c0 .2 0 .4-.2.4-.1-.3-.4-.1-.6-.2-1-.1-2-.5-3-.7-.1.1-.1 0-.1-.1" class="c17"/><path d="M55.3 106.5h-.2v-.4c.3-.2.6 0 .9 0s.6-.3 1-.2c.3.1.4-.2.7-.2v.4c-.9.1-1.7.3-2.4.4" class="c24"/><path d="M195.3 106.3c.2 0 .5-.2.6.2-.2 0-.4.1-.6-.2M57.5 106v-.2h.2c0 .2-.1.3-.2.2" class="c3"/><path d="M123 105.3c.1 0 .2 0 .2.1-.1 0-.2 0-.2-.1" class="c15"/><path d="M192.3 105.4v.2c-.1 0-.2 0-.3-.1.1 0 .2 0 .3-.1" class="c3"/><path d="M72.7 100.3c.2-.4.6-.1.8-.2-.2.4-.5.2-.8.2" class="c27"/><path d="M55.1 106.1v.4c-.3-.1-.2-.2-.2-.4z" class="c7"/><path d="M107.8 99.9c.2 0 .5-.1.6.2-.2 0-.5.2-.6-.2" class="c27"/><path d="M122.9 103c.2 0 .4-.1.4.2-.1 0-.3 0-.4-.2" class="c15"/><path d="M143.9 102.2c.3-.5.9 0 1.2-.4 1.2-.1 2.4-.5 3.6-.6.8-.1 1.5-.4 2.3-.4 0 0 .1-.1.1-.2h.4c.2 0 .4.1.4-.2.8 0 1.6-.2 2.4-.4.2-.1.5 0 .7 0 .1 0 .2 0 .2.2-1.6.3-3.1.7-4.7 1-2 .4-3.9.9-5.9 1.2-.2 0-.4-.1-.4.1h-.2c-.1-.2-.1-.3-.1-.3" class="c24"/><path d="M155.1 100.1c0-.1-.1-.2-.2-.2v-.2c1.1 0 2.1-.3 3.1-.5.4-.1.8-.3 1.2.1-1.3.2-2.7.5-4.1.8m-3.2.2c-.1.3-.3.2-.4.2 0-.2.2-.2.4-.2" class="c3"/><path d="M126.9 101.8v1.2c-.1 0-.2-.1-.2-.2v-2.6c0-.1.1-.2.1-.2 0 .1.1.2.1.3z" class="c20"/><path d="M53.2 155.3c.1.4.5.2.7.2h53.3c.1 0 .2.1.2.2H52.3v-39.6c.3.3.5.7.8 1v37.1c.1.4.1.7.1 1.1m-3.1-47.6c-.6-.2-.4-.7-.4-1q.45.15.6.6c-.2 0-.1.3-.2.4m.5-.2h.2c.5.1.4-.1.2-.4.2 0 .3 0 .5.1q.15.15 0 .3c-.4.3-.7.4-.9 0m-.3-.2c.1 0 .2.1.2.2-.1 0-.1-.1-.2-.2" class="c10"/><path d="M196.2 106.1v-.3c-.1-.1-.2 0-.2.1-.1.3-.3.2-.5.2-1.1-.3-2.2-.4-3.2-.8-1.1-.2-2.1-.4-3.2-.7l-2.4-.6h-.4c-.1-.1-.1-.2-.2-.2l-2.6-.6c-.8-.2-1.6-.6-2.5-.5-.5-.3-1.1-.4-1.6-.4 0-.1-.1-.1-.1-.2-2.4-.5-4.7-1.1-7.1-1.7-.2-.1-.6-.2-.8.1l-2.7-.6c0-.1.1-.2.2-.2h.8c.5.3 1 .4 1.6.4 2.1.1 4.2 0 6.3 0 .3 0 .5-.1.8-.2h.4c.2.4.6.1.8.2 1.5.4 3.1.7 4.6 1.1 2.7.7 5.4 1.3 8.2 2 .9.2 1.9.5 2.8.7.3.1.5.1.8.1.2.2.5.4.4.8-.1.5.2 1-.2 1.3" class="c3"/><path d="M171.4 100.7c.2-.4.6-.2.8-.1 2.3.6 4.7 1.1 7.1 1.7 0 0 .1.1.1.2v.2h-.2c0-.1-.1-.2-.3-.1l-4.2-.9-2.5-.6c0-.1-.1-.2-.3-.1-.2-.3-.3-.3-.5-.3" style="fill:#b7b2b0"/><path d="M181 102.8c.9-.1 1.7.3 2.5.5l2.6.6c.1 0 .1.1.2.2v.2h-.2c-.1-.2-.3-.2-.4-.2-1.6-.4-3.1-.7-4.7-1.1zm-45.3 1.2v-.2c.1-.4.5-.1.7-.2.8-.3 1.7-.4 2.6-.6.4-.1.8-.2 1.2-.2v.2c-.1 0-.2.1-.2.2l-3 .6c-.2 0-.5.1-.7.1s-.3-.1-.4.1zm8.2-1.8v.2c-.8.2-1.6.4-2.4.5-.2 0-.4-.1-.4.1h-.2v-.2c.2-.4.7-.2 1.1-.3.5-.2 1.2-.4 1.9-.3" class="c17"/><path d="M179.4 102.5v-.2c.6 0 1.1.1 1.6.4h-.4c-.5.1-.9-.1-1.2-.2" class="c56"/><path d="M140.8 102.8v.2c-.1 0-.3 0-.4.1h-.2v-.2c.2-.1.4-.1.6-.1m45.5 1.4v-.2h.4v.2z" class="c55"/><path d="M185.7 104c.2 0 .4-.1.4.2-.2 0-.3 0-.4-.2m-49.8 0c.1-.2.3-.2.4-.1-.1.1-.3.1-.4.1m4.3-1h.2c-.1.2-.3.2-.4.1 0-.1.1-.1.2-.1m40.4-.2h.4v.2c-.2 0-.4 0-.4-.2m-39.6.1c.1-.2.3-.2.4-.1-.1.2-.2.2-.4.1m3.1-.6c.1-.2.3-.2.4-.1-.1.2-.3.2-.4.1m27.8-1.5c.1 0 .2 0 .3.1-.1 0-.2 0-.3-.1" class="c3"/><path d="M168.2 99.9c.1 0 .2 0 .2.2z" class="c7"/><path d="M178.9 102.4c.1 0 .2 0 .3.1-.2.1-.2 0-.3-.1m7.8 1.8c.1 0 .2 0 .2.1-.1.1-.1.1-.2-.1" class="c3"/><path d="M169.7 99.9h-.6q.3-.45.6 0" class="c7"/><path d="M201.5 107.7v-1c0-.1.1-.1 0-.2l.4-.4c.2.2.3.5.4.8.1.6 0 .7-.8.8" class="c29"/><path d="M179.6 100.3c-.3-.1-.6.2-.8-.2.2.1.6-.1.8.2" class="c27"/><path d="M201.5 106.5v.2c-.2.1-.3.2-.5.4-.3.4-.7.5-1.2.4l-.1-.1c.6-.2.8-.8 1.4-1.1.1 0 .3.1.4.2" class="c24"/><path d="M107.6 155.7c0-.1-.1-.2-.2-.2 0-.2-.1-.2-.3-.2h-1c-.6-.3-.6-.8-.4-1.4l.6-1.2c1.2-1.9 2.8-3.5 4.5-5 .6-.1 1.2.1 1.8-.1.7-.2 1.4-.5 1.9-1.1.1-.1.2-.1.3-.1.1.1 0 .2 0 .2-.1.6-.1 1.2 0 1.7.1 1.1 1.2 1.8 2.2 1.4.9-.4 1.9-.8 2.5-1.7 0-.1.1-.1.1-.1.1 0 .1.1.1.2 0 .6 0 1.2.2 1.8s.5 1.1 1.1 1.3c.4.1.9.2 1.4 0q1.5-.75 2.4-2.1c.1-.1 0-.4.3-.3.1 0 .2.2.2.3.1 1.1.9 1.8 1.6 2.5.5.5 2.2.5 2.6.1.7-.7 1.6-1.2 1.8-2.3.2-.9.3-.9.9-.2.8.8 1.5 1.5 2.7 1.8 1.6.4 3.2-.7 3.2-2.3v-1.3c0-.2.1-.3.3-.1s.5.3.8.5c.8.4 1.6.6 2.4.4-.2.2-.1.5 0 .7.6 1.1 1.1 2.3 1.6 3.5.2.4.1.9.4 1.3.3.5.3 1.1.5 1.6v.2c-.2.3-.6.2-.9.2z" class="c31"/><path d="M144.1 155.5v-.2h38.1c.1 0 .1-.1.1-.1-.1 0-.1-.1-.2-.1-.7.1-.6-.3-.6-.7v-20c.3-.1.6-.3.6-.6-.1-.8.5-1.3.7-1.9.2-.5.2-.8 0-1.2s-.4-.9-.6-1.4c-.1-.4-.2-.7.1-1 .4-.5.3-1 .1-1.5-.3-.6-.3-.6.2-1.1.2-.2.4-.2.6-.3.7-.2.7-.4.8-1.1v-1.5c.2 0 .2.1.2.3 0 1.4.1 2.9 0 4.3-.1.9.1 1.8 0 2.7s0 1.8 0 2.8-.1 1.9 0 2.8c.3 2 .1 4 .2 6 0 .5.3.9 0 1.4-.2.4.3.9.2 1.4-.1.2.2.4.2.6 0 .1.1.1.1.2.1-.1.2-.1.2-.2 0 0 .1-.1.1-.2 0-.5 0-1.1.2-1.6.2-.4-.3-.8-.1-1.2.2-.5.1-.8-.1-1.3-.1-.2-.1-.5 0-.6.5-.7-.1-1.6.4-2.4-.4-1.1-.1-2.3-.2-3.4 0-.5.2-1 .1-1.5s-.1-1-.1-1.5c-.2-1.3.2-2.6.2-3.9 0-.3.1-.6.3-.8.3-.3.3-.7.3-1 .2 0 .2.1.2.3v28.8c0 .8-.1.8.7.8h10c.2 0 .4-.1.5.2h-51c-.3 0-.6-.2-.9.2h-1.6c.2-.4.1-.5 0-.5" class="c4"/><path d="M210.9 158.9H41.1v-.2h168.8c.4.1.7-.1 1 .2" style="fill:#85888f"/><path d="M198.6 155.7c.1 0 .2.1.2.2h-37.7v-.2z" style="fill:#f4f2f0"/><path d="M89.7 155.9v-.2h18c-.1.4-.4.2-.6.2z" class="c36"/><path d="M161.1 155.7v.2H145c-.2 0-.6.2-.7-.2z" class="c11"/><path d="M52.4 155.9h8.4c-.1.2-.2.2-.4.2h-7.6c-.2 0-.3 0-.4-.2" class="c23"/><path d="M161.1 155.7h-15.2c.2-.3.6-.2.9-.2h51c.2-.1.2-.2.2-.4V117c.2-.2.7-.2.6-.6h.2v10.7c0 .3 0 .5-.1.8-.2.3-.1.6-.1.9.4 1.7.1 3.5.2 5.2-.4.8 0 1.5 0 2.3v18.3c0 .4.1.8-.2 1.2h-35c-.8-.1-1.6-.1-2.5-.1" class="c10"/><path d="M198.8 107.5v-.2c.1 0 .2.1.2.2z" class="c16"/><path d="M110.8 147.7c-1.7 1.5-3.3 3.1-4.5 5l-.6 1.2c-.2.6-.2 1.1.4 1.4v.2h-.6c0-.2-.1-.2-.3-.2H69.7c-1.1 0-1.1 0-1.1-1.1v-29.7h.8c.2.2.5.2.8.2.6.4 1.3.5 2.1.6 0 .1.1.2.2.2h.4c0 .3.2.2.4.2.1.3.3.4.4.5.8.8.8.8 1.6.1h.4c.6.4 1.4.4 2 .6 1.2.3 2.4.6 3.7.9s2.5.6 3.8.8c.8.1 1.6.3 2.3.5.6.2 1.1.2 1.7.3q1.8.45 3.6.6c1.3.1 2.5.5 3.8.5.6 0 1.2.2 1.8.3.1 0 .2.1.3.1.9-.1 1.8.3 2.7.2.5-.1 1 .3 1.5.2.5 0 1-.1 1.4.2h.2c1.2-.1 2.4.2 3.6.3 1.3.1 2.6.1 3.9.2.8 0 .9 0 1.1-.8 0-.3 0-.5.4-.4-.3 1.2-.2 2.4-.3 3.6-.1 1.6-.1 3.1-.2 4.7-.2 2.1-.7 4.1-1.9 5.8-.3.4-.6.8-.9 1.3-.4.6-.2 1.1.5 1.5 0-.1 0 0 .1 0" class="c9"/><path d="M110.6 147.5c-.7-.4-.8-.8-.5-1.5.3-.4.6-.9.9-1.3 1.2-1.7 1.8-3.7 1.9-5.8.1-1.6 0-3.1.2-4.7.1-1.2.1-2.4.3-3.6s.6-2.4 1.1-3.5c.1 0 .2-.1.1-.2v-.2c.4-.9 1.1-1.7 1.7-2.5q.75-.45 1.2-1.2c.1 0 .2-.1.2-.2 1.1-.6 2.2-1.3 3.5-1.7 2.1-.4 4.1-.4 6 .6.1.1.3.1.4.2.2.2.3.1.4-.2.2-.4.2-1 .6-1.3.8.1 1.6.4 2.3.8 3.1 1.4 4.9 3.9 6.1 7 .6 1.4.8 2.9 1.2 4.4 0 .2 0 .4.2.5 0 .3 0 .5.1.8.1.9.2 1.7.4 2.6.2 1.1.3 2.3.6 3.4.2 1 .6 1.9.9 2.8.3.6.4 1.3.8 1.8l.9 1.5c.5.7.4 1.1-.1 1.8-.1.1-.1.2-.2.3h-.2c-.9.2-1.7 0-2.4-.4-.3-.1-.6-.2-.8-.5-.2-.2-.3-.1-.3.1v1.3c0 1.6-1.6 2.7-3.2 2.3-1.2-.3-1.9-1-2.7-1.8-.7-.7-.7-.7-.9.2-.3 1.1-1.1 1.7-1.8 2.3-.4.4-2.1.4-2.6-.1-.7-.7-1.5-1.4-1.6-2.5 0-.1-.1-.3-.2-.3-.3-.1-.2.2-.3.3-.6.9-1.3 1.7-2.4 2.1-.5.2-.9.2-1.4 0-.6-.2-.9-.7-1.1-1.3s-.3-1.2-.2-1.8c0-.1 0-.2-.1-.2l-.1.1c-.6.9-1.6 1.3-2.5 1.7-1 .4-2.1-.3-2.2-1.4 0-.6-.1-1.2 0-1.7 0-.1.2-.2 0-.2-.1-.1-.2 0-.3.1-.5.6-1.2.8-1.9 1.1-.6.2-1.2 0-1.8.1 0 0 0-.1-.2-.1m23.2-4.7c0-.2.2-.2.3-.2.9-.5 1-.8.4-1.6-.2-.3-.4-.7-.5-1.1-.1-.3-.2-.8-.6-1v-.5c-.3-1-.3-1 .6-1.4.1-.1.2-.1.4-.1.9-.3 1.8-.7 2.8-1 .4-.1.7-.1.8-.5s-.1-.8-.5-1c-.6-.3-.8-.8-1.4-1.1.6-.9.5-1.9.4-2.8-.1-1.1-.5-2.2-1.4-3-.4-.4-.9-.6-1.4-.7-1.1-.2-1.9.7-2.2 1.5-.4 1.2-.4 2.4-.1 3.6-1 .1-1.7.7-2.3 1.4-.3.4-.5.8-.8 1.1-.3.4-.6 1-1.2.9.1-.1.1-.3.2-.4.8-1.3.9-2.7.5-4.1-.5-1.6-1.4-2.7-3.1-3.2q-.45-.15-.9 0c-1.5.4-2.6 1.3-3 2.8-.4 1.4-.2 2.7.5 4 .8 1.6 2.4 2.3 4.1 1.9.2 0 .3 0 .5-.1.1 1.7.9 3.1 1.9 4.3.4.4.9.8 1.2 1.3-.3.4-.2.9-.4 1.3-.3.6-.2 1.3-.2 2s.8 1.5 1.5 1.6c.5.1 1.1-.3 1.4-.8.2-.3.3-.6.4-.9l.7.7c.1.1.2.2.3.2.8.3 1.5-.1 1.6-1 0-.8-.3-1.4-.5-2.1" class="c32"/><path d="M117.6 123.1q-.6.75-1.2 1.2c-.8-.5-1.7-1-2.3-1.8-.8-.9-1.4-1.8-1.5-3.1 0-2 1.1-3.1 3.1-3.1-.1.5.2 1 .5 1.4.6.8 1.1 1.8 1.7 2.7.2.2.5.5.5.8 0 .4-.4.4-.6.8-.1.3-.4.6-.1.9 0 0-.1.1-.1.2" style="fill:#f03331"/><path d="M117.8 122.9c-.3-.4 0-.6.1-.9s.6-.4.6-.8-.3-.6-.5-.8c-.6-.8-1.1-1.8-1.7-2.7-.3-.4-.6-.8-.5-1.4.7-.1 1.3 0 1.9.3.2.1.3.1.4-.1.4 0 .2.4.3.6a8 8 0 0 0 1.5 2.1c.5.6 1.1 1.2 1.5 1.9v.1c-1.3.4-2.4 1.1-3.6 1.7m-3.7-.4c.6.8 1.4 1.3 2.3 1.8-.6.8-1.2 1.6-1.7 2.5-1-.3-1.8-.7-2.1-1.8-.2-.7.1-1.5.6-1.9.3-.2.7-.3.9-.6m.6 4.5c0 .1 0 .2-.1.2 0-.1 0-.2.1-.2" class="c33"/><path d="M87.7 112.8c0 .3.1.7-.4.7-.2 0-.2.1-.2.3 0 .3-.2.4-.4.6s-.5.3-.6 0c-.1-.2-.5-.5-.1-.8s.6-.7.9-1.1c.1-.2.3-.4.6-.3s.1.4.2.6m-12.3 13.6c-.8.8-.8.8-1.6-.1-.2-.2-.4-.3-.4-.5.7.2 1.3.3 2 .5-.1-.1-.1 0 0 .1m-3.1-1.1c-.7-.1-1.4-.2-2.1-.6.6-.1 1.2.2 1.9.2.2.1.2.3.2.4m-2.9-.8h-.8c.5-.4.5-.4.8 0m3.9 1.3c-.2 0-.4.1-.4-.2.2 0 .4-.1.4.2m-.8-.3c-.1 0-.2-.1-.2-.2.1.1.2.1.2.2m66.1 8.4c0-.3 0-.5-.1-.8 0-.2.1-.4-.2-.5-.4-1.5-.7-3-1.2-4.4-1.2-3.1-3-5.6-6.1-7-.7-.3-1.5-.6-2.3-.8-.1-.2-.3-.3-.2-.6.2-.7.1-1.4 0-2.2-.1-1.6-.7-3-1.4-4.4-.2-.3-.3-.7-.7-.9 0-.1 0-.1-.1-.2 0-.1-.1-.2-.2-.2 0-.1-.1-.2-.2-.2-.4-.7-1.1-1.1-1.6-1.6.2 0 .2-.1.2-.3 0-.4.2-.5.6-.5h32.4c2.4.3 4.8 0 7.2.2 3.7.3 7.4.1 11.1.2h5c.9 0 1.9.3 2.8.2q.3 0 .3.3v13.7c0 .7-.1.9-.8 1.1-.2.1-.4.1-.6.3-.5.5-.5.5-.2 1.1.2.5.3 1-.1 1.5-.3.3-.2.7-.1 1 .2.5.3.9.6 1.4q.3.6 0 1.2c-.2.6-.7 1.2-.7 1.9 0 .3-.3.5-.6.6v-7.6c0-.6-.1-.7-.7-.6-1.2.3-2.4.6-3.5.9-1.2.3-2.4.7-3.6.9-1.5.2-3 .6-4.5.9-1.8.4-3.6.6-5.4 1-.7.2-1.4.1-2 .2-1.2.3-2.4.3-3.5.5-.5.1-1.1.3-1.7.2-.7-.1-1.4.3-2.1.2-.1 0-.2.1-.3.2-.2.2-.4.4 0 .5.1 0 .4.1.1.3-.8-.6-1.5-.3-2.2.2l-.6.6c-.1.1-.2.3-.4.2s0-.2 0-.4c.1-.8.4-1.6.1-2.4-.3-.7-.6-.9-1.3-.9s-1.1.4-1.6.8c-.6.5-.9 1.2-1.4 1.7-.3-.2-.6-.3-.9-.1-.2.1-.3.1-.5.1-1.6-.1-3.1.3-4.7.2h-1.2c-.2 0-.3.1-.4.3-.2 1-.3 1.5-.5 2" class="c4"/><path d="M124.2 110.2c-.3-.1-.6-.2-.8-.4.3-.1.7-.1.8.4m-.8-.4c-.2 0-.4 0-.4-.2.1 0 .3-.1.4.2m-.7-.3c-.2 0-.4 0-.4-.2.2.1.4 0 .4.2m1.7.9c-.1 0-.2-.1-.2-.2.1 0 .2 0 .2.2" class="c2"/><path d="M126 112c.1 0 .2.1.2.2s.1.2.2.2c0 .1.1.1.1.2-.1 0-.3.1-.2.3s.2.3.3.5c.1.1 0 .2-.1.3h-.2c-.2-.2-.5-.4-.6-.6-.4-.9-1-1.5-1.8-2-.1-.1-.4-.2-.2-.4.1-.2.3.1.4.1.6.3.9.8 1.4 1.2l.3.3c.1.1.1.1.2-.3" style="fill:#f9524a"/><path d="M124.6 104c.1 0 .2.1.2.1 0 .2-.1.3-.3.4l-.1-.1c0-.1-.1-.3.2-.4" class="c53"/><path d="M127.8 104.3s0 .1-.1.1c0 0-.1 0-.1-.1zc0-.1 0 0 0 0" class="c55"/><path d="M197.5 105.5c0 .2-.2.3-.3.3s-.2-.1-.2-.1c-.1-.2.1-.3.2-.4.2-.1.2.1.3.2" class="c27"/><path d="M198.6 107.3c0 .1-.1.2-.2.2 0-.1.1-.2.2-.2" class="c16"/><path d="M54.2 105.6c-.1.1-.2.3-.4.3-.1 0-.2-.1-.2-.2.1-.2.1-.4.4-.3.1 0 .2.1.2.2" class="c7"/><path d="M106.1 155.5v-.2h1c.1 0 .2 0 .3.2z" style="fill:#765232"/><path d="M154.3 132.1c.3-.2 0-.3-.1-.3-.4-.1-.3-.3 0-.5.1-.1.2-.2.3-.2.7.1 1.4-.3 2.1-.2.6.1 1.1-.1 1.7-.2 1.2-.2 2.4-.2 3.5-.5.6-.2 1.3-.1 2-.2 1.8-.4 3.6-.6 5.4-1 1.5-.3 3-.7 4.5-.9 1.2-.2 2.4-.6 3.6-.9s2.4-.6 3.5-.9c.6-.1.7 0 .7.6v27.6c0 .4-.1.9.6.7 0 0 .1.1.2.1l-.1.1h-38.1c-.1-.6-.2-1.1-.5-1.6-.1-.5.2-.6.5-.8 1.2-.6 2.4-1.3 3.4-2.3 1-.7 1.8-1.6 2.5-2.5.6-.8 1.5-1.5 1.4-2.6 0-.1.2-.3.3-.4 1.2-.8 2-2 2.8-3.2.6-1.1 1.2-2.2 1.4-3.5.1-.5-.1-1-.5-1.3-.3-.3-.6-.4-1-.1-.1.1-.3.1-.4.1-.2 0-.3 0-.2-.2.2-.4.5-.8.6-1.3.4-1.3.6-2.5-.1-3.6" class="c9"/><path d="M147.6 150.6c-1 1-2.2 1.6-3.4 2.3-.3.2-.7.3-.5.8-.3-.4-.2-.9-.4-1.3-.5-1.2-1-2.4-1.6-3.5-.1-.2-.3-.5 0-.7h.2c.7.4.9 1.1 1.2 1.7.3.5.6 1 .9 1.6.1.1.2.3.4.2.5-.3 1.2-.5 1.7-.8.5-.6.9-.6 1.5-.3" style="fill:#f38216"/><path d="M110.6 147.5c.1 0 .2.1.2.2-.1 0-.1-.1-.2-.2m37 3.1c-.6-.3-1-.3-1.6.2-.5.4-1.1.5-1.7.8-.2.1-.3-.1-.4-.2-.3-.5-.6-1-.9-1.6-.4-.6-.6-1.3-1.2-1.7.1-.1.1-.2.2-.3.6-.6.7-1.1.1-1.8-.4-.5-.6-1-.9-1.5-.4-.6-.5-1.2-.8-1.8.2 0 .3-.2.4-.3 1.4-1.2 2.2-2.8 3.1-4.4 1.1-2 1.9-4.2 3.1-6.2.5-.6.9-1.2 1.4-1.7.5-.4 1-.8 1.6-.8.7 0 1 .2 1.3.9.4.8 0 1.6-.1 2.4 0 .1-.2.3 0 .4s.3-.1.4-.2l.6-.6c.7-.5 1.4-.9 2.2-.2.7 1.1.5 2.3.1 3.4-.2.4-.4.9-.6 1.3-.1.2 0 .2.2.2.1 0 .3 0 .4-.1.4-.3.8-.1 1 .1.3.3.6.8.5 1.3a9 9 0 0 1-1.4 3.5c-.7 1.2-1.6 2.4-2.8 3.2-.1.1-.3.3-.3.4.1 1.2-.8 1.9-1.4 2.6-.7 1.1-1.6 2-2.5 2.7m-18.7-8.9c-.3-.5-.8-.8-1.2-1.3a7 7 0 0 1-1.9-4.3c.1-.7.6-1 1.2-1 .7.1.9-.5 1.2-.9.3-.3.5-.8.8-1.1.6-.7 1.3-1.3 2.3-1.4.2.3.4.4.6 0 .8.1 1.6.3 2.3.7.2.1.4.2.7.2.3.4.7.5 1.1.7.5.2.8.8 1.4 1.1.4.2.6.6.5 1s-.5.5-.8.5c-.1-.4-.5-.2-.7-.2-.2.1-.4.1-.7.2-1.2.1-2.4.4-3.6 1-1.4.3-2.8.7-4.2.2-.3-.1-.6-.4-.8-.1-.1.1.2.5.4.7.3.3.4.9.9 1 .1.5.6.7 1 1.1.8.8 1.8 1.4 2.9 1.6.3.1.7-.1 1 .1.1.1.2.2.4 0 .1-.1.1-.3 0-.5-.3-.5-.6-.9-.8-1.5 0-.3.6-.2.4-.6.3.2.5.7.6 1 .1.4.3.7.5 1.1.6.8.5 1.1-.4 1.6-.1.1-.2.1-.3.2-.3-.3-.7-.2-1.1-.2a6 6 0 0 1-3.2-.7c-.1-.1-.3-.2-.5-.2" class="c31"/><path d="M146.9 131.9c-1.1 2-2 4.1-3.1 6.2-.8 1.6-1.7 3.2-3.1 4.4-.1.1-.2.3-.4.3-.3-.9-.6-1.8-.9-2.8-.3-1.1-.4-2.3-.6-3.4-.2-.9-.3-1.7-.4-2.6.2-.5.3-1 .5-1.5.1-.2.2-.3.4-.3h1.2c1.6.1 3.2-.3 4.7-.2.2 0 .3-.1.5-.1.6-.3.9-.2 1.2 0" class="c9"/><path d="M128.9 141.7c.2 0 .4 0 .7.1 1 .5 2 .8 3.2.7.4 0 .7-.1 1.1.2.2.7.5 1.3.4 2.1-.1.9-.8 1.3-1.6 1-.1 0-.2-.1-.3-.2l-.7-.7c-.1.3-.3.6-.4.9-.3.6-.9.9-1.4.8-.7-.1-1.4-.8-1.5-1.6 0-.7-.1-1.4.2-2 .1-.3 0-.9.3-1.3" class="c30"/><path d="M132.2 136.8c1.1-.6 2.3-.9 3.6-1 .2 0 .4-.1.7-.2.2-.1.5-.2.7.2-.9.3-1.8.7-2.8 1-.1 0-.2.1-.4.1-.9.4-.9.4-.6 1.4v.5c.2.4-.4.3-.4.6-.5-.8-.8-1.6-.5-2.5.1-.2-.2 0-.3-.1" style="fill:#f06e14"/><path d="M138.4 132.7c.3.1.2.3.2.5-.3-.1-.3-.3-.2-.5" class="c9"/><path d="M117.6 123.1c0-.1.1-.2.2-.2 0 .1-.1.2-.2.2" class="c33"/><path d="M126.4 112.4c-.1 0-.2-.1-.2-.2.2 0 .2.1.2.2" class="c30"/><path d="M132.2 136.8c.1.1.4-.1.3.2-.3.9 0 1.7.5 2.5.1.6.4 1 .8 1.5.1.1.1.3 0 .5-.1.1-.2 0-.4 0-.3-.2-.7 0-1-.1-.1-1.5-1.2-2.3-2.4-2.8-.4-.2-1-.3-1.5.2-.5-.2-.6-.7-.9-1-.2-.2-.5-.6-.4-.7.2-.3.5 0 .8.1 1.4.3 2.8-.1 4.2-.4" style="fill:#6a2b20"/><path d="M132 131.7v-1.3c0-.3.1-.5.2-.8.6-1.2 1.7-1.3 2.5-.2.7 1 .9 2 .3 3.1-.2.1-.4 0-.7-.2-.7-.3-1.5-.5-2.3-.6m2.6-1.9c0-.2-.2-.4-.4-.4-.3-.1-.5 0-.5.3 0 .2 0 .4.2.5.4.1.7-.1.7-.4" style="fill:#202325"/><path d="M128.5 138.7c.5-.4 1.1-.3 1.5-.2 1.2.5 2.3 1.3 2.4 2.8-1.1-.2-2.1-.8-2.9-1.6-.4-.3-.9-.5-1-1" style="fill:#de3a30"/><path d="M131.4 131.7h.6c-.2.4-.4.3-.6 0" class="c32"/><path d="M126 130.9q.45 1.05.3 2.1c-.1.9-.8 1.6-1.6 1.7-.6.1-1.5-.3-1.9-1s-.6-1.5-.4-2.3c.4-1.5 1.9-2.4 3.2-1.1 0 .1.1.2.2.2 0 .1 0 .1.1.1-.1.2 0 .3.1.3m-.2.3c0-.2-.4-.6-.6-.5-.3 0-.4.2-.4.5s.1.5.4.6c.2-.1.6-.4.6-.6" style="fill:#1a1c1f"/><path d="M125.8 130.5c-.1 0-.2-.1-.2-.2.2 0 .2.1.2.2m.2.4c-.1 0-.2-.1-.2-.3.2.1.2.2.2.3" class="c17"/><path d="M134.6 129.8c0 .3-.4.5-.6.4-.3-.1-.2-.3-.2-.5 0-.3.2-.4.5-.3.2.1.3.2.3.4" class="c11"/><path d="M125.8 131.2c0 .2-.4.5-.6.5-.3 0-.4-.3-.4-.6s.1-.5.4-.5c.2 0 .6.3.6.6" class="c17"/><path id="Rays" d="m105.7 186.4 3 1h.1c.1 0 .2-.1.2-.2l.1-.2v-.2c0-.1-.1-.1-.1-.1l-3.1-1h-.2c-.1 0-.1.1-.1.2v.3c0 .1.1.2.1.2m5.9-4s.1-.1 0-.2c0-.1 0-.1-.1-.1l-4-2.9c-.1 0-.1-.1-.2 0-.1 0-.1.1-.1.1l-.1.1c0 .1-.1.1-.1.1 0 .1 0 .2.1.3l3.9 2.9h.1c.1 0 .1 0 .2-.1zm3.2-3.5c0 .1.1.1.2.1h.1l.2-.2c.1 0 .1-.1.1-.1v-.2l-3.5-4.9c0-.1-.1-.1-.2-.1s-.1 0-.2.1l-.2.2q-.15.15 0 .3zm4.7-2.5c0 .1.1.2.2.2h.1l.2-.1c.1 0 .1-.1.1-.1v-.2l-2-6.3c0-.1-.1-.1-.1-.1h-.2l-.2.1c-.1 0-.2.2-.1.3zm11.7-3.5s0 .1 0 0v.4h.3l1-3.2c0-.1 0-.2-.1-.3l-.2-.1h-.2c-.1 0-.1.1-.1.1l-.7 2.2zm3.4 5.9.2.2h.1c.1 0 .1 0 .2-.1l3.5-4.8q.15-.15 0-.3l-.2-.2s-.1-.1-.2-.1-.1 0-.2.1l-3.5 4.8s-.1.1 0 .2c0 .1 0 .2.1.2m3.7 3.4v.2l.2.2c0 .1.1.1.2.1h.1l3.9-2.8c.1-.1.1-.2.1-.3l-.1-.2c0-.1-.1-.1-.1-.1h-.2l-4 2.9c-.1-.1-.1 0-.1 0m2.5 4.6v.2l.1.2c0 .1.1.2.2.2h.1l3-1c.1 0 .2-.1.2-.2v-.2c0-.1 0-.1-.1-.2-.1 0-.1-.1-.2 0l-3.1 1c-.1-.1-.1-.1-.2 0m2.1 5.6.1-.1v-.2c0-.1-.1-.1-.2-.1h-1s-.1.1-.1.2v.1c0 .1.1.2.2.2h.7c.2 0 .3-.1.3-.1m-35.8-.4c-.1 0-.2 0-.2.1v.4c0 .1.1.1.2.1h.7c.1 0 .2-.1.2-.2v-.1c0-.1 0-.1-.1-.2h-.2z" class="c1"/><g id="Chicken"><path d="M130.5 174.4q0 .15 0 0c.1.1.1.1.2.1h.1s.1-.1.1-.4v-.3c-.1 0-.1.1-.2.1l-.1.1c-.1.1-.1.1-.1.2-.1 0-.1.1 0 .2-.1 0 0 0 0 0M117.8 188c.1-1 .3-2.3.6-3.6l-.5.5c-.4.4-.9.8-1 1.4-.1.5 0 .9.2 1.2.1.2.4.4.7.5m5.8-12.8c.3-.1.7-.1 1-.1 1.4 0 2.8.9 3.9 2.6.7 1.1 1.1 2.4 1.5 3.8.4-.5.9-1.1 1.2-1.6.3-.4.5-.8.6-1.3 0-.1.1-.2.1-.3.2-.5.2-1.1.3-1.7v-.7c0-.5-.1-.9-.2-1.4-.1-.4-.3-.7-.6-.8h-.1v.4c0 .3-.1.5-.2.6l-.1.1c-.1.1-.2.1-.3.1h-.2c-.1 0-.1 0-.2-.1-.1 0-.1-.1-.2-.2 0-.1-.1-.1-.1-.2 0-.2 0-.3.1-.5l.3-.3c.1-.1.2-.1.3-.2.1 0 .1 0 .2-.1v-.4c-.1-.7-.2-1.4-.4-2-.2-.7-.5-1.1-.8-1.2h-.1c-.1 0-.2 0-.3.1.2 1.2.2 2.4.1 3.3 0 .2 0 .4-.1.6 0 .1 0 .3-.1.4-.1.5-.3.9-.5 1h-.4q-.75-.15-1.5-1.5c-.2-.3-.3-.5-.5-.9 0 0 0-.1-.1-.1-.6-1.2-1.1-2.5-1.1-2.5 0-.1 0-.2.1-.2h.1c.1 0 .1 0 .2.1v.1c.1.3.5 1.4 1 2.4.2.3.4.8.7 1.2.3.5.7 1 1 1h.1s.2-.1.3-.7c0-.2.1-.4.1-.7v-.6c0-.9 0-2-.2-3-.3-2-.8-3.8-1.7-4.3-.1-.1-.3-.1-.4-.1-.3 0-.7.2-1.1.6-.7.7-1.5 1.8-1.9 3.5-.1.3-.1.5-.2.8-.1.6-.2 1.2-.2 1.9v.6c.3 1.1.5 2 .6 2.5m5.9 21.3h-.1v.4c0-.1 0-.3.1-.4m3.1-4.8c.1 0 .3.1.6.1h.4c.5 0 .8-.1.9-.4.2-.3.1-.6-.1-.9-.1-.1-.2-.2-.3-.4-.2-.2-.5-.5-.9-.8l-.1-.1-.2-.2c-.6-.5-1.2-1-1.6-1.7-.6-.9-.9-2.4-1.2-4-.1-.4-.2-.8-.2-1.2 0-.1 0-.2-.1-.2 0-.1 0-.2-.1-.3-.3-1.4-.7-2.8-1.5-3.9-1-1.5-2.2-2.3-3.5-2.3-.3 0-.6 0-.9.1-.1 0-.1 0-.2.1s-.1 0-.2.1c-.6.2-1.3.7-1.9 1.3-.2.2-.5.5-.7.9 1.3.8 2.7 1.9 3.2 2.4.1.1.4.1.6.1.4.1.8.1 1 .5.1.3 0 .8-.4 1.4-.1.1-.1.1-.1.2l-.2.3s-.4.7-.9 1.3v.1c-.1.5.2.8.8 1.2.4.3.8.7 1 1.1.3.7.2 1.5-.3 2.1-.4.6-1 .9-1.7.9q-.75 0-1.5-.6c-.9-.8-.8-2.3-.6-3.4h-.3c-.4 0-.9-.1-1.3-.2-.1 0-.1 0-.2-.1-.1 0-.2-.1-.3-.1-.1-.1-.2-.1-.3-.2-.2-.1-.4-.3-.5-.4-.2 1.3-.4 2.6-.6 3.6v.4c-.1.9-.2 1.4-.2 1.4v.2s-.1.1-.2.3c0 .1-.1.1-.2.2-.2.3-.5.7-.8 1.2-.1.1-.2.3-.2.4-.1.1-.1.2-.2.4-.7 1.3-1 2.4-.8 2.9v-.1c0-.1 0-.3.1-.4s.2-.2.3-.2h1.2c.3 0 .5.2.5.5v.4c.2-.1.4-.1.4-.1l.2-.1.1.2c.2.6.8 1.9 1.5 2.8l-.1-3.4c0-.3.2-.5.5-.5h1.2c.3 0 .5.2.5.5l.2 4.4c.1 0 .1-.1.2-.1V195c0-.1.1-.3.1-.3.1-.1.2-.1.3-.1h1.2c.2 0 .4.1.5.3l.2.6v-.5c0-.3.2-.5.5-.5h1.2c.3 0 .5.2.5.5v2.6c.1 0 .1 0 .2.1l.1-1.6c0-.9.6-1.5 1.5-1.5h1.2v-1l.4.2s.1 0 .2.1.3.1.5.2c.3.1.8.3 1.1.3.2 0 .3 0 .4-.1.3-.3.2-1 .1-1.7 0-.2-.1-.4-.1-.5v-.1l-.1-.4.4.1zm-7-12.6c-.6-.7-.9 0-.9.2 0 .1-.2.4-.3.1 0 0 .1-2.5 1.6-.9 1.4 1.6.2 1.3-.4.6m-3.5 6.3c0 .2-.1.4-.1.6-.1.9-.1 2.1.5 2.7.3.3.8.6 1.2.6.5 0 1-.3 1.3-.8s.4-1.1.2-1.7c-.1-.4-.5-.7-.8-1-.4-.3-.8-.7-.9-1.2l-.2.2c-.4.3-.7.5-1.2.6" class="c5"/><path d="M118.6 177.4c-.2 0-.3-.1-.3-.1v.4l.3 4.2v.3s.1 0 .1.1c.1 0 .1.1.2.1v-.2l-.1-.6-.3-3.5 1.1.9.2.2.2.2c.1.1.2.2.3.4.5.6.7 1.3 1.1 2 .6 1.2 1.3 1.5 1.9 1.5.2 0 .4 0 .5-.1h.1c.1-.1.3-.2.4-.3.1-.2.3-.3.4-.6 1.1-1.7-.6-1.1-1.1-1.5-.9-.8-2.1-1.7-3.2-2.3-.1 0-.1-.1-.2-.1s-.1-.1-.2-.1-.2-.1-.2-.1c-.4-.5-.9-.7-1.2-.8m5.3 6.2c-.1 0-.2.1-.2.1h-1.3c-.6 0-1.4-.1-2-.3-.3-.1-.7-.2-1-.4-.1 0-.2-.1-.3-.1h-.1c-.1 0-.1-.1-.2-.1h-.1l-.1-.1c-.1 0-.2-.1-.2-.1s-.1 0-.1-.1c-.3-.2-.6-.4-.9-.5.2.4.5.9.9 1.4 0 .1.1.1.1.2v.1l.2.2.2.2c.1.1.2.2.4.3.1.1.2.1.3.2s.2.1.3.2.2.1.4.2c.4.1.8.2 1.2.2h.7c.1 0 .2 0 .3-.1.3-.1.6-.3.8-.5l.4-.4c.1-.1.2-.3.4-.4zc0-.1 0 0 0 0" class="c1"/><path d="M122.6 183.4s-.8-.4-1.3-1.3c-.3-.5-.4-.7-.6-.7s-.3.2-.3.2-.1-.3-.4-.2c-.5.2-.5 1.3-.5 1.3.1.1.3.2.5.2h.1c.2.1.3.1.5.2.5.2 1 .2 1.4.3z" class="c5"/></g><path id="WORDS" d="M97.3 202.3c0-.1-.1-.1-.1-.1l-.8.2c-.1 0-.1.1-.1.2l.1.6c0 .2 0 .3-.2.4l-.4.1h-.1q-.15 0-.3-.3l-.8-3.6c0-.2 0-.3.2-.4l.4-.1h.1q.15 0 .3.3l.1.6c0 .1.1.1.1.1l.8-.2c.1 0 .1-.1.1-.2l-.2-.9c-.1-.6-.5-.9-1-.9h-.4l-.9.2c-.7.2-1.1.6-.9 1.4l.9 4c.1.6.5.9 1 .9h.4l.9-.2c.7-.2 1-.6.9-1.4zm2.6 1.4-.5-2.5 1-.2.5 2.5c0 .1.1.1.1.1l.8-.2c.1 0 .1-.1.1-.2l-1.1-6.1c0-.1-.1-.1-.1-.1l-.8.2c-.1 0-.1.1-.1.2l.5 2.5-1 .2-.5-2.5c0-.1-.1-.1-.1-.1l-.8.2c-.1 0-.1.1-.1.2l1.1 6.1c0 .1.1.1.1.1l.8-.2c.1 0 .1-.1.1-.2m3.1-1.6c.1.7.5 1 1.1 1h.3l.9-.1c.8-.1 1.1-.6 1-1.3l-.8-5.1c0-.1-.1-.1-.2-.1l-.7.1c-.1 0-.1.1-.1.2l.7 4.9c0 .2-.1.3-.3.4l-.4.1h-.1q-.3 0-.3-.3l-.7-4.9c0-.1-.1-.1-.2-.1l-.8.1c-.1 0-.1.1-.1.2zm7.5-1.9c0-.1-.1-.1-.1-.1l-.8.1c-.1 0-.1.1-.1.1l.1.6c0 .2-.1.3-.3.4l-.4.1h-.1q-.3 0-.3-.3l-.4-3.7c0-.2.1-.3.3-.4l.4-.1h.1q.3 0 .3.3l.1.6c0 .1 0 .1.1.1l.8-.1c.1 0 .1-.1.1-.1l-.1-.9c-.1-.7-.5-1-1.1-1h-.2l-.9.1c-.8.1-1.1.5-1 1.3l.5 4.1c.1.7.5 1 1.1 1h.2l.9-.1c.7-.1 1.1-.5 1-1.3zm5 1.4-1.7-3.1 1.1-2.9c0-.1 0-.2-.1-.2l-.8.1c-.1 0-.1.1-.2.1l-1 2.6-.2-2.5c0-.1-.1-.1-.2-.1l-.8.1c-.1 0-.2.1-.1.2l.5 6.1c0 .1.1.1.2.1l.8-.1c.1 0 .2-.1.1-.2l-.2-1.8.2-.6 1.2 2.3c0 .1.1.1.2.1l.9-.1c.1.1.2 0 .1-.1m4.1-1.1-1.9.1-.3-5.3c0-.1 0-.1-.1-.1h-.8c-.1 0-.1.1-.1.1l.3 6.2c0 .1.1.1.1.1l2.9-.1c.1 0 .1 0 .1-.1v-.8c-.1 0-.1-.1-.2-.1m1.9-5.4h-.8c-.1 0-.1.1-.1.1l.3 6.2c0 .1 0 .1.1.1h.8c.1 0 .1-.1.1-.1l-.3-6.2c0-.1 0-.1-.1-.1m2.7 6.3V198l1.2 3.4c0 .1.1.1.1.1h.8c.1 0 .1 0 .1-.1v-6.3c0-.1-.1-.1-.1-.1h-.8c-.1 0-.1.1-.1.1v3.4l-.7-2-.5-1.4c0-.1-.1-.1-.1-.1h-.8c-.1 0-.1.1-.1.1v6.2c0 .1.1.1.1.1h.8c0 .1.1 0 .1 0m3.7-5.2-.1 1.7-.1 2.4c0 .8.4 1.2 1.1 1.2h1.2c.7 0 1.1-.4 1.1-1.1l.1-2.2c0-.1 0-.1-.1-.1h-1.4c-.1 0-.1 0-.1.1v.8c0 .1 0 .1.1.1h.4v1.1q0 .3-.3.3h-.6q-.3 0-.3-.3l.1-3.7q0-.3.3-.3h.5q.3 0 .3.3v.6c0 .1.1.1.1.1h.8c.1 0 .1 0 .1-.1v-.9c0-.7-.4-1-1.1-1.1h-1.2c-.5 0-.9.4-.9 1.1m12.5-.4-.8-.1c-.1 0-.1.1-.2.1l-.7 3.7-.4-3.9c0-.1-.1-.2-.2-.2h-.5c-.1 0-.1 0-.2.1l-1.1 3.7v-3.8c0-.1-.1-.2-.2-.2l-.8-.1c-.1 0-.1.1-.1.2l.1 6.2c0 .1.1.2.2.2l.8.1c.1 0 .1 0 .2-.1l1.2-3.6.5 3.7c0 .1.1.2.2.2l.8.1c.1 0 .1 0 .2-.1l1.3-6.1c-.1 0-.2-.1-.3-.1m1.5.2c-.1 0-.1 0-.1.1l-.8 6.2c0 .1 0 .1.1.1l.8.1c.1 0 .1 0 .1-.1l.8-6.2c0-.1 0-.1-.1-.1zm2.4.3c-.1 0-.1 0-.1.1l-.9 6.1c0 .1 0 .1.1.1l.8.1c.1 0 .1 0 .1-.1l.5-3.4.7 3.6c0 .1.1.1.1.1l.8.1c.1 0 .1 0 .1-.1l.9-6.1c0-.1 0-.1-.1-.1l-.8-.1c-.1 0-.1 0-.1.1l-.5 3.4-.7-3.6c0-.1-.1-.1-.1-.1zm6.9 1.2-1-.2h-.3c-.6 0-.9.3-1 1l-.8 4.1c-.1.7.2 1.2.9 1.4l1 .2h.3c.6 0 .9-.3 1-1l.4-2.2c0-.1 0-.1-.1-.2l-1.3-.2c-.1 0-.1 0-.1.1l-.1.8c0 .1 0 .1.1.2l.4.1-.2 1.1q0 .3-.3.3h-.1l-.6-.1c-.2 0-.3-.2-.3-.4l.7-3.6q0-.3.3-.3h.1l.6.1c.2 0 .3.2.3.4l-.1.6c0 .1 0 .1.1.2l.8.1c.1 0 .1 0 .1-.1l.2-.8c.1-1-.3-1.5-1-1.6m4.5.9-.9-.2h-.4c-.5 0-.9.3-1 .9l-.4 1.9c0 .2 0 .3.1.3l1.7 1-.2 1q0 .3-.3.3h-.1l-.4-.1c-.2 0-.3-.2-.2-.4l.1-.6c0-.1 0-.1-.1-.2l-.8-.2c-.1 0-.1 0-.1.1l-.2.8c-.2.7.1 1.2.9 1.4l.9.2h.4c.5 0 .9-.3 1-.9l.4-1.8c0-.2 0-.3-.1-.3l-1.7-1 .2-1.1q0-.3.3-.3h.1l.4.1c.2 0 .3.2.2.4l-.1.6c0 .1 0 .1.1.2l.8.2c.1 0 .1 0 .1-.1l.2-.8c.2-.7-.1-1.2-.9-1.4" style="fill:#fff"/></svg>