<?xml version="1.0" encoding="utf-8"?>
<!-- Generator: Adobe Illustrator 28.0.0, SVG Export Plug-In . SVG Version: 6.00 Build 0)  -->
<svg version="1.1" id="Layer_2_00000101817842517439371390000012486406039571921581_"
	 xmlns="http://www.w3.org/2000/svg" xmlns:xlink="http://www.w3.org/1999/xlink" x="0px" y="0px" viewBox="0 0 158.9 240.2"
	 style="enable-background:new 0 0 158.9 240.2;" xml:space="preserve">
<style type="text/css">
	.st0{fill:#FBF8F4;}
	.st1{fill:#FCCD0B;}
	.st2{fill:#F88806;}
	.st3{fill:#EB4527;}
	.st4{fill:#FAA009;}
	.st5{fill:#2E2D2B;}
	.st6{fill:#AD3A05;}
</style>
<g id="Layer_1-2">
	<g id="Surprised">
		<path class="st0" d="M63.7,24.2c-11.8-8.5-22.5,0.4-23,12.4c-0.3,7,2.2,13.2,6.3,18.9C34.1,65,26.1,77.6,24,93.6
			c-1.4,10.7-2.2,21.5-3.3,32.2c-0.8,8.3-1.4,16.6-5.8,24c-2.8,4.8-4.1,9.7-3.3,15.2c-6.1,12.5-8.9,25.6-7.5,39.6
			c0.4,3.5,1.7,4.8,5.3,4.8c47.3-0.1,94.5-0.1,141.8-0.1c3.6,0,5.1-1.2,5.4-4.7c1-14.6-1.5-28.5-8.3-41.5c1-4.2,0.8-8.2-1.3-12.1
			c-4-7.1-5.4-15-6.3-22.9c-1-8.8-2-17.5-3-26.2c-2-17-7.1-32.5-21.3-43.5c-6.3-4.9-13.7-7.4-21-10c1.6-4,3.4-8,4.6-12.1
			c2.6-9.1,2.4-18.1-2.4-26.5c-4.1-7.2-12.3-11-20.3-9.4c-7.5,1.5-12,7.1-13.1,16.1C63.9,19.1,65,21.8,63.7,24.2L63.7,24.2
			L63.7,24.2L63.7,24.2z"/>
		<path class="st0" d="M154.3,42c-0.2-2-1.2-3.5-3-4.3c-1.6-0.8-3.2-0.5-4.6,0.9c-3,3.1-5.9,6.3-8.1,10c-0.7,1.2-1.2,2.4-0.2,3.7
			c1.3,1.5,2.7,1,4,0.1c3.2-2,6.5-4,9.6-6.2C153.4,45.2,154.3,43.8,154.3,42L154.3,42L154.3,42z"/>
		<path class="st0" d="M19.6,52.3c-0.3-0.6-0.5-1.3-1-1.7c-3.2-3.2-6.3-6.4-9.6-9.3c-1.7-1.5-3.9-1.1-5.3,0.7C2,43.9,2,46.2,4,48.1
			c3.3,3.1,7.5,4.8,11.6,6.7C17.6,55.7,19,54.5,19.6,52.3L19.6,52.3L19.6,52.3z"/>
		<path class="st0" d="M151.2,66.5L151.2,66.5c1,0.1,2,0.1,3,0.1c2.6-0.1,4.8-1,4.6-4c-0.2-3.2-2.4-4.2-5.3-3.6
			c-1.9,0.4-3.9,0.9-5.8,1.5c-1.6,0.6-3.2,1.5-2.8,3.5c0.3,1.7,1.8,2.3,3.4,2.4C149.2,66.5,150.2,66.5,151.2,66.5L151.2,66.5
			L151.2,66.5z"/>
		<path class="st0" d="M6.8,67.9c0.4,0,2-0.2,3.7-0.4c1.8-0.2,3.5-0.8,3.7-2.7c0.2-2-1.7-2.7-3.3-3c-1.6-0.4-3.3-0.5-4.9-0.9
			c-3.1-0.8-5.7,0.1-6,3.3C-0.3,67.8,2.6,68.2,6.8,67.9L6.8,67.9L6.8,67.9z"/>
		<path class="st1" d="M11.6,165c-0.9-5.5,0.5-10.5,3.3-15.2c4.4-7.4,4.9-15.7,5.8-24c1.1-10.7,1.9-21.5,3.3-32.2
			c2.1-16,10.2-28.5,23-38.2c5.7-1.8,10.9-4.9,16.7-6.3c10.6-2.7,21.1-1.6,31.7-0.7c7.3,2.6,14.7,5.1,21,10
			c14.2,11,19.3,26.5,21.3,43.5c1,8.8,2,17.5,3,26.2c0.9,8,2.3,15.8,6.3,22.9c2.1,3.9,2.3,7.9,1.3,12.1c-6.5,7.4-13.8,6.2-21.2,1.6
			c-1.2,9.1-5.2,14.4-11.4,15.4c-7.8,1.3-12.7-3.6-17.4-9c-3.8,7.5-8,13.3-17,13c-8.8-0.3-12.9-6.2-15.4-12.5
			c-2.2,1.8-4.4,3.3-6.3,5.1c-4.6,4.3-9.9,5.3-15.6,3.1c-5.1-1.9-8.1-5.7-8.3-11.3c-0.1-2.6-0.6-3.6-3.5-1.9
			C22.8,172,19.5,171.6,11.6,165C11.6,165,11.6,165,11.6,165z M89.5,137.4c2.7-6.8,6.8-13.2,5.4-21c5.1,3,10.4,4.1,16.2,1.7
			c11.2-4.6,14.5-20.2,6.5-31c-7.7-10.3-22.3-8.9-27.6,2.7c-3.1,6.6-2.8,13.5-0.3,20.3c-3.8-0.8-10.4,0-14.6,1.8
			c-0.1,0.1-0.3,0-0.5,0c1.3-3.2,2.4-6.5,2.8-10c1.3-11.6-7.4-22.1-18.1-21.7c-9.5,0.3-16.2,7.5-17.4,18.5
			c-1,9.6,4.7,18.1,13.3,20.3c8.1,2.1,14.2-1.4,19.4-7.1c0.3,1.6-0.3,2.9-0.9,4.2c-3,6.1-3.3,11.9,1.6,17.3c0.9,1,1.2,2.6,1.8,4
			c-0.7,2.2-1.6,4.3-1.4,6.7c0.2,3.4,1,6.2,4.3,7.7c3,1.3,5.8,0.9,8.4-1.1c2.8-2.3,3.8-5.4,3-8.9C90.9,140.5,90.1,139,89.5,137.4
			L89.5,137.4L89.5,137.4z"/>
		<path class="st2" d="M11.6,165c7.9,6.5,11.2,7,20.5,1.8c2.9-1.6,3.4-0.7,3.5,1.9c0.3,5.6,3.3,9.4,8.4,11.3
			c5.8,2.2,11,1.2,15.6-3.1c1.9-1.8,4.1-3.4,6.3-5.1c2.4,6.3,6.5,12.2,15.4,12.5c9,0.3,13.3-5.6,17-13c4.8,5.4,9.6,10.3,17.4,9
			c6.2-1,10.2-6.3,11.4-15.4c7.5,4.6,14.8,5.8,21.2-1.6c6.8,13,9.3,26.9,8.3,41.5c-0.2,3.5-1.8,4.7-5.4,4.7
			c-47.3-0.1-94.5-0.1-141.8,0.1c-3.6,0-5-1.3-5.3-4.8C2.7,190.7,5.5,177.6,11.6,165L11.6,165L11.6,165z"/>
		<path class="st3" d="M95.4,48.4c-10.6-0.9-21.2-2-31.7,0.7c-5.9,1.5-11,4.5-16.7,6.3c-4-5.6-6.6-11.8-6.3-18.9
			c0.5-12,11.2-20.9,23-12.4c0.2,0.2,0.4,0.3,0.6,0.5c0-0.1,0-0.3,0-0.4c-0.2,0-0.4,0-0.7,0c1.4-2.5,0.3-5.2,0.6-7.8
			c1.1-9,5.6-14.7,13.1-16.1c8-1.6,16.2,2.2,20.3,9.4c4.8,8.5,5,17.4,2.4,26.5C98.8,40.4,97,44.4,95.4,48.4
			C95.4,48.4,95.4,48.4,95.4,48.4z"/>
		<path class="st1" d="M154.3,42c0.1,1.8-0.8,3.3-2.2,4.2c-3.1,2.1-6.4,4.1-9.6,6.2c-1.3,0.8-2.7,1.4-4-0.1
			c-1.1-1.2-0.5-2.5,0.2-3.7c2.2-3.7,5.1-6.9,8.1-10c1.3-1.4,2.9-1.6,4.6-0.9C153,38.5,154,40,154.3,42z"/>
		<path class="st1" d="M19.6,52.3c-0.5,2.2-1.9,3.4-4,2.5C11.5,53,7.3,51.2,4,48.1c-2-1.9-2-4.2-0.3-6.2c1.5-1.8,3.6-2.2,5.3-0.7
			c3.4,2.9,6.5,6.2,9.6,9.3C19,51,19.2,51.7,19.6,52.3L19.6,52.3L19.6,52.3z"/>
		<path class="st1" d="M151.2,66.5c-1,0-2,0.1-3,0c-1.6-0.1-3.1-0.7-3.4-2.4c-0.3-2.1,1.2-3,2.8-3.5c1.9-0.7,3.8-1.1,5.8-1.5
			c2.9-0.6,5.1,0.4,5.3,3.6c0.2,3-2,3.9-4.6,4C153.2,66.6,152.2,66.6,151.2,66.5L151.2,66.5L151.2,66.5L151.2,66.5z"/>
		<path class="st1" d="M6.8,67.9c-4.2,0.3-7.1-0.2-6.8-3.8c0.3-3.2,2.9-4.1,6-3.3c1.6,0.4,3.3,0.5,4.9,0.9c1.7,0.4,3.5,1,3.3,3
			c-0.2,1.9-1.9,2.5-3.7,2.7C8.9,67.7,7.2,67.9,6.8,67.9L6.8,67.9L6.8,67.9z"/>
		<path class="st0" d="M74.6,112c-5.2,5.8-11.2,9.2-19.4,7.1c-8.6-2.2-14.2-10.8-13.3-20.3c1.1-11.1,7.8-18.2,17.4-18.5
			C69.9,80,78.6,90.5,77.3,102C76.9,105.5,75.8,108.8,74.6,112L74.6,112L74.6,112L74.6,112z M70.5,100.5c-0.1-6-4-10.5-9-10.5
			s-8.7,4.9-8.5,11.4c0.2,6.1,3.7,10.2,8.6,10.2C66.9,111.5,70.6,106.9,70.5,100.5z"/>
		<path class="st0" d="M89.7,110.2c-2.6-6.8-2.8-13.7,0.3-20.3c5.4-11.7,20-13,27.6-2.7c8,10.7,4.7,26.3-6.5,31
			c-5.7,2.3-11,1.3-16.2-1.7C93.2,114.4,91.4,112.3,89.7,110.2z M94.3,100.7c0.1,5.5,2.6,9.5,6.6,10.6c5.8,1.5,10.3-3.1,10.4-10.6
			c0-6.4-3.4-10.8-8.5-10.8C97.7,89.9,94.2,94.3,94.3,100.7L94.3,100.7L94.3,100.7z"/>
		<path class="st4" d="M89.7,110.2c1.8,2.1,3.5,4.2,5.2,6.2c1.4,7.8-2.7,14.2-5.4,21c-4.1,2.4-8.3,1-12.4,0.1c-0.6-1.4-0.9-3-1.8-4
			c-4.9-5.4-4.6-11.2-1.6-17.3c0.7-1.3,1.3-2.7,0.9-4.2l0,0c0.2,0,0.3,0.1,0.5,0C79.2,110.2,85.9,109.4,89.7,110.2L89.7,110.2
			L89.7,110.2z M87.8,128.2c-0.4-2.4-0.7-5.6-4-5.7c-3.8-0.1-4.2,3.1-4.2,6.1c0,2.7,0.8,5.3,3.9,5.4
			C86.9,134.1,87.7,131.4,87.8,128.2L87.8,128.2z"/>
		<path class="st3" d="M77.1,137.6c4.2,0.9,8.3,2.3,12.4-0.1c0.6,1.5,1.4,3,1.8,4.6c0.8,3.5-0.2,6.6-3,8.9c-2.5,2-5.4,2.4-8.4,1.1
			c-3.3-1.5-4.1-4.4-4.3-7.7C75.5,141.9,76.4,139.8,77.1,137.6L77.1,137.6L77.1,137.6z"/>
		<path class="st0" d="M63.6,24.3c0.2,0,0.4,0,0.6,0c0,0.1,0,0.3,0,0.4c-0.2-0.2-0.4-0.3-0.6-0.5L63.6,24.3L63.6,24.3z"/>
		<path class="st5" d="M70.5,100.5c0.1,6.4-3.6,11-8.9,11c-4.9,0.1-8.5-4.1-8.6-10.2C52.8,94.8,56.5,90,61.5,90
			S70.4,94.5,70.5,100.5z"/>
		<path class="st5" d="M94.3,100.7c-0.1-6.3,3.4-10.8,8.5-10.8c5,0,8.5,4.4,8.5,10.8c0,7.4-4.6,12.1-10.4,10.6
			C96.9,110.2,94.4,106.2,94.3,100.7L94.3,100.7L94.3,100.7z"/>
		<path class="st6" d="M87.8,128.2c-0.1,3.2-0.9,5.9-4.3,5.8c-3.1-0.1-3.9-2.7-3.9-5.4c0-3,0.5-6.2,4.2-6.1
			C87.2,122.6,87.4,125.8,87.8,128.2C87.8,128.2,87.8,128.2,87.8,128.2z"/>
	</g>
</g>
</svg>
