<?xml version="1.0" encoding="UTF-8"?>
<svg id="Layer_2" data-name="Layer 2" xmlns="http://www.w3.org/2000/svg" viewBox="0 0 154.64 227.58">
  <defs>
    <style>
      .cls-1 {
        fill: #faa009;
      }

      .cls-1, .cls-2, .cls-3, .cls-4, .cls-5, .cls-6, .cls-7, .cls-8 {
        stroke-width: 0px;
      }

      .cls-2 {
        fill: #f88806;
      }

      .cls-3 {
        fill: #2e2d2b;
      }

      .cls-4 {
        fill: #ad3a05;
      }

      .cls-5 {
        fill: #eb4527;
      }

      .cls-6 {
        fill: #fccd0b;
      }

      .cls-7 {
        fill: #fbf8f4;
      }

      .cls-8 {
        fill: #eb7404;
      }
    </style>
  </defs>
  <g id="Layer_1-2" data-name="Layer 1">
    <g id="Thinking">
      <path class="cls-7" d="m112.74,226.97c6.78.84,13.59.43,20.39.44,7.49.02,7.51-.07,7.97-7.81,14.91-14.01,17.61-31.1,7.57-48.01,1.12-4.45,1.67-8.96-1.04-13-5.39-8.03-6.71-17.23-8.26-26.45-2.4-14.27-3.07-28.89-7.86-42.68-6.48-18.65-18.93-31-38.7-35.14,1.71-4.86,3.82-9.6,4.61-14.73,1.85-12.05,1.73-23.78-7.61-33.15-5.98-6-13.3-8.11-21.52-5.03-7.81,2.92-11.03,9.2-11.7,17.05-.25,2.93-.04,5.89-.04,9-.56-.18-1.03-.25-1.43-.47-11.34-6.13-22.13-.4-23.43,12.37-.89,8.7,2.43,15.93,7.48,22.62-.22.44-.33,1.03-.68,1.3-14.23,10.56-20.63,25.2-21.84,42.4-.82,11.59-1.21,23.22-1.89,34.82-.45,7.8-.99,15.61-4.84,22.7-2.79,5.14-4.09,10.48-2.18,16.25C1.57,192.48-.9,206.13.32,220.54c.44,5.18,2.36,7.08,7.76,7.04,33.25-.25,66.49-.16,99.74-.21,1.65,0,3.29-.26,4.94-.4h-.02Z"/>
      <path class="cls-6" d="m7.73,179.45c-1.91-5.77-.61-11.11,2.18-16.25,3.85-7.09,4.38-14.9,4.84-22.7.68-11.6,1.07-23.23,1.89-34.82,1.21-17.2,7.6-31.84,21.84-42.4.35-.26.46-.86.68-1.3,2.95-.18,5.13-2.16,7.64-3.35,10.09-4.78,19.9-5.01,29.72.88,8.07,4.84,8.97,4.5,14.64-3.36.48-.66,1.1-1.22,1.65-1.83,19.77,4.14,32.22,16.49,38.7,35.14,4.79,13.79,5.47,28.41,7.86,42.68,1.55,9.23,2.88,18.42,8.26,26.45,2.71,4.04,2.15,8.55,1.04,13-6.16,7.94-14.56,1.76-21.8,3.14-3.32.63-10.17-10.28-10.05-14.38.09-3.31-1.56-5.21-4.14-6.76-2.7-1.62-4.84-.42-6.66,1.42-1.41,1.43-2.69,1.44-4.43.78-2.72-1.04-5.55-1.81-8.79-2.85,1.68-2.12,4.45-3.22,4.03-6.16,1.04-.77,1.12-1.94,1.28-3.08.99-.02,1.98-.14,2.96-.04,3.04.32,5.62-.45,7.15-3.23,1.45-2.63-.49-4.72-1.55-6.86-.99-2-3.35-3.3-3.01-5.97,10.59-1.06,15.84-4.93,17.58-12.94,2.02-9.31-1.9-19.04-9.34-23.16-.58-.91-1.38-.99-2.31-.62-5.26-2.92-11.76-.72-15.29,5.2-4.34,7.28-3.71,14.9-1.51,22.62-10.09-.12-18.54,8.38-18.91,19.02.16,5.78,3.98,9.3,8.11,12.36,2.59,1.92,3.49,2.53-.26,4.19-10.72,4.74-12.04,14.5-3.23,22.46,1.28,1.15,2.48,2.07,2.25,4.04-.68,5.91.66,11.48,2.99,16.87-.36.3-.73.59-1.09.89-6.82-.9-12.5-3.73-15.5-10.21-1.78-3.85-2.77-3.96-5.36-.47-4.75,6.42-11.71,8.26-19.14,6.41-7.2-1.79-9.87-7.77-10.89-14.59-.07-.44-.29-.85-.6-1.75-7.53,6.42-15.29,8.08-23.41,1.54h-.02Zm65.03-83.71c-.17-.87-.79-1.11-1.58-1.1-.46-.16-.91-.31-1.37-.47-.06-1.43-1.01-1.6-2.14-1.5l.08.09c-3.44-2.75-7.33-2.36-11.13-1.26-7.2,2.08-12.06,8.54-12.84,16.69-.86,8.95,2.83,16.84,9.53,20.42,7.86,4.19,17.93,1.82,22.55-5.32,5.13-7.93,3.99-20.9-2.25-25.65l.08.07c.72-1.23-.07-1.69-1.04-2.07l.1.1h.01Z"/>
      <path class="cls-2" d="m96.83,146.77c.42,2.94-2.35,4.05-4.03,6.16,3.24,1.03,6.06,1.81,8.79,2.85,1.74.66,3.02.65,4.43-.78,1.82-1.84,3.96-3.04,6.66-1.42,2.58,1.55,4.24,3.45,4.14,6.76-.11,4.1,6.73,15.02,10.05,14.38,7.24-1.38,15.65,4.81,21.8-3.14,10.04,16.91,7.35,34.01-7.57,48.01-6.12,1.14-12.16,3.46-18.43,2.9-14.95-1.32-26.14-9.16-34.76-21.11-1.09-1.52-1.62-3.82-4.18-3.76-2.32-5.39-3.67-10.96-2.99-16.87.23-1.97-.98-2.89-2.25-4.04-8.81-7.95-7.49-17.72,3.23-22.46,3.75-1.66,2.84-2.27.26-4.19-4.13-3.07-7.95-6.58-8.11-12.36,1.09.11,2.18.22,3.27.32.29,3.55,3.56,3.49,5.74,4.33,4.54,1.76,9.29,2.98,13.95,4.41h0Z"/>
      <path class="cls-2" d="m7.73,179.45c8.12,6.53,15.88,4.88,23.41-1.54.32.9.54,1.31.6,1.75,1.02,6.83,3.7,12.8,10.89,14.59,7.44,1.85,14.4,0,19.14-6.41,2.58-3.5,3.58-3.39,5.36.47,3,6.48,8.68,9.31,15.5,10.21,5.99,12.45,14.95,21.7,28.25,26.3,1.02.35,1.62,1.11,1.86,2.15-1.65.14-3.29.4-4.94.4-33.25.05-66.49-.03-99.74.21-5.4.04-7.32-1.86-7.76-7.04-1.22-14.41,1.25-28.06,7.42-41.09h.01Z"/>
      <path class="cls-5" d="m92.8,54.32c-.55.61-1.17,1.17-1.65,1.83-5.67,7.86-6.57,8.2-14.64,3.36-9.82-5.89-19.63-5.66-29.72-.88-2.51,1.19-4.69,3.17-7.64,3.35-5.05-6.69-8.37-13.92-7.48-22.62,1.3-12.77,12.09-18.5,23.43-12.37.4.21.87.29,1.43.47,0-3.11-.21-6.08.04-9,.67-7.85,3.89-14.13,11.7-17.05,8.22-3.07,15.54-.97,21.52,5.03,9.34,9.37,9.47,21.1,7.61,33.15-.79,5.13-2.9,9.87-4.61,14.73h.01Z"/>
      <path class="cls-8" d="m112.74,226.97c-.24-1.05-.83-1.8-1.86-2.15-13.29-4.6-22.26-13.85-28.25-26.3.36-.3.73-.59,1.09-.89,2.56-.05,3.09,2.25,4.18,3.76,8.62,11.95,19.81,19.79,34.76,21.11,6.27.56,12.31-1.77,18.43-2.9-.46,7.74-.48,7.83-7.97,7.81-6.8-.02-13.61.39-20.39-.44h0Z"/>
      <path class="cls-7" d="m73.61,97.64c6.24,4.75,7.38,17.72,2.25,25.65-4.62,7.14-14.7,9.51-22.55,5.32-6.71-3.58-10.39-11.47-9.53-20.42.78-8.15,5.64-14.61,12.84-16.69,3.8-1.1,7.69-1.49,11.13,1.26-9.54-.11-14.64,7.45-10.56,15.74,1.67,3.38,4.43,5.34,8.3,5.22,3.66-.12,6.05-2.14,7.65-5.39,1.74-3.54.72-7.11.47-10.69h0Z"/>
      <path class="cls-7" d="m111.89,91.48c7.43,4.12,11.36,13.86,9.34,23.16-1.74,8.01-6.99,11.88-17.57,12.94-4.2-2.26-7.24-5.95-10.87-8.92-2.2-7.72-2.83-15.34,1.51-22.62,3.53-5.92,10.03-8.12,15.29-5.2l-.06.08c-8.3-1.81-13.6,3.58-11.25,13.97.89,3.92,3.84,6.37,7.85,6.58,4.02.21,7.04-1.92,8.35-5.82,1.7-5.09,1.22-9.82-3.01-13.66.15-.17.29-.35.44-.52h-.02Z"/>
      <path class="cls-1" d="m92.78,118.68c3.63,2.97,6.67,6.65,10.87,8.92-.34,2.68,2.02,3.97,3.01,5.97,1.06,2.14,3,4.23,1.55,6.86-1.53,2.78-4.11,3.55-7.15,3.23-.97-.1-1.97.02-2.96.04-6.99-1.89-13.98-3.78-20.97-5.66-1.09-.11-2.18-.22-3.27-.32.37-10.64,8.82-19.14,18.91-19.02v-.02Z"/>
      <path class="cls-3" d="m73.61,97.64c.25,3.58,1.27,7.15-.47,10.69-1.6,3.25-3.99,5.27-7.65,5.39-3.87.12-6.64-1.84-8.3-5.22-4.09-8.29,1.02-15.85,10.56-15.74l-.08-.09c.2,1.24,1.47.94,2.14,1.5.46.16.91.31,1.37.47.28.72.63,1.35,1.58,1.1l-.1-.1c-.42,1.07.03,1.71,1.04,2.07l-.08-.07h-.01Z"/>
      <path class="cls-4" d="m77.14,138.02c6.99,1.89,13.98,3.78,20.97,5.66-.16,1.14-.24,2.31-1.28,3.08-4.66-1.44-9.41-2.66-13.95-4.41-2.18-.84-5.45-.78-5.74-4.33h0Z"/>
      <path class="cls-7" d="m109.58,90.86c.93-.37,1.73-.28,2.31.62-.15.17-.29.35-.44.52l-1.94-1.07.06-.08h.01Z"/>
      <path class="cls-7" d="m69.81,94.17c-.67-.56-1.94-.26-2.14-1.5,1.13-.1,2.08.07,2.14,1.5Z"/>
      <path class="cls-7" d="m73.7,97.72c-1.01-.36-1.46-.99-1.04-2.07.97.37,1.76.84,1.04,2.07Z"/>
      <path class="cls-7" d="m72.76,95.74c-.96.25-1.3-.38-1.58-1.1.79,0,1.41.23,1.58,1.1Z"/>
      <path class="cls-3" d="m109.52,90.94l1.94,1.07c4.23,3.84,4.71,8.57,3.01,13.66-1.31,3.9-4.33,6.03-8.35,5.82-4.01-.21-6.96-2.66-7.85-6.58-2.35-10.39,2.95-15.78,11.25-13.97h0Z"/>
    </g>
  </g>
</svg>