<?xml version="1.0" encoding="utf-8"?>
<!-- Generator: Adobe Illustrator 28.0.0, SVG Export Plug-In . SVG Version: 6.00 Build 0)  -->
<svg version="1.1" id="Layer_2_00000025406383667924385490000018070094243322158005_"
	 xmlns="http://www.w3.org/2000/svg" xmlns:xlink="http://www.w3.org/1999/xlink" x="0px" y="0px" viewBox="0 0 192.1 291.2"
	 style="enable-background:new 0 0 192.1 291.2;" xml:space="preserve">
<style type="text/css">
	.st0{fill:#FBF8F4;}
	.st1{fill:#F88806;}
	.st2{fill:#FDCE0A;}
	.st3{fill:#EB4527;}
	.st4{fill:#F2E9DB;}
	.st5{fill:#FAA009;}
	.st6{fill:#EB7404;}
	.st7{fill:#2E2D2B;}
</style>
<g id="Layer_1-2">
	<g id="Walk">
		<path class="st0" d="M181.1,105.8l-1.2-0.9c1.8-1.7,4.1-0.8,6.1-1.3c2.1-0.6,5.1,0.2,5.9-2.7c0.8-2.9-1.4-4.6-3.4-6.1
			c-6.9-5.3-14.9-7.1-23.4-6.9c-0.9-3.5-1.8-7.1-2.9-10.6c-5.4-17.4-17-28-34.9-31.7c1.8-7,2.6-14.1,1.5-21.2
			c-1.5-9.7-5.8-17.7-14.9-22.2c-5.9-2.9-12.1-2.9-17.5,1.1c-5.4,4-7,9.9-6,16.4c0.2,1.5,0.3,2.9,0.6,4.8
			c-7.3-3.5-14.4-4.7-20.1,1.6c-6.6,7.3-4.7,15.3-0.2,23.1C60,51.6,56,59.6,60.4,69.4c2.3,5.2,6.1,9.1,11.2,11.5
			c-0.3,5.3-0.8,10.6-1,15.9c-0.3,14.1,0,28.3-8.5,40.8c-2.2,3.3-1.2,7.1,1.1,10.3c-2.8,3.7-5.7,7.5-8.9,11.7
			c-3.5-9.9-9.2-17.1-17.5-22.1c-12.6-7.4-29-2.7-33.9,9.7c-3.2,8.2,1,11.8,7.8,10.2c7.3-1.7,17.6,2.2,21.9,7.5
			c-2.5-0.6-4.7-1.3-6.9-1.7C14.2,161.1,3.1,168,0.6,179c-0.8,3.5-1.1,7.1,1.9,9.7c3,2.6,6,0.6,8.8-0.7c9.4-4.3,18.4-3.2,27.3,1.4
			c0.9,0.4,2.1,0.7,2.1,1.9c-0.1,7.5,5.2,10.2,10.8,12.6c0.3,1.8,1.6,2.9,2.8,4.2c0.9,2.7,3.1,4.5,4.9,6.6c2.3,2.7,6.2,3.8,7.8,7.2
			c1.2,3.1-0.9,5.3-2.2,7.8c-3.4,2.9-5,7.5-9.5,9.7c-2.5,1.2-2.5,4.5-0.3,6.9c1.2,1.3,2.7,2.4,4.1,3.5c-0.6,1-1.6,0.9-2.6,1.2
			c-4.2,1.3-8.7,0.4-12.7,2.2c-1.2,0.5-2.7,0.8-2.6,2.6c0.1,1.6,1.5,2,2.8,2.4c1,0.2,1.9,0.6,2.9,0.8c12.2,2.4,24.6,3.5,37,3.8
			c25.4,0.7,50.8,0.7,76.2-1.9c4.3-0.4,8.5-1.2,12.7-2.1c1.7-0.4,3.9-0.9,4-3.1c0.2-2.6-2.1-2.6-3.8-2.9c-6.2-1-12.4-2-18.6-3.1
			c3.7-4.5,8.2-7.7,13.8-9.5c1.7-0.6,3.4-1.4,4.9-2.5c2.6-1.9,4.9-4.4,3.2-8c-1.6-3.4-4.7-3.8-8.1-3.1c-3.5,0.8-6.8,2.1-9.4,4.4
			c-3,2.6-5.4,2.4-7.8-0.6c-0.5-0.6-1.3-1-2-1.5c-5-6.7-5-6.6,1.7-12.2c2.3-1.9,4.5-3.9,6.5-6.2c13-15.3,15.8-33.2,12.9-52.5
			c4.6-2.4,4.6-6.4,3.5-10.6c-0.9-3.3-2.1-6.5-3.2-9.7c5.8-0.7,8.4-4.4,6.5-10c-1.3-3.9-3.2-7.6-5.5-11.1c3.2-2.1,7.4-2,10.3-4.7
			C183.9,109.5,184.6,107.6,181.1,105.8L181.1,105.8L181.1,105.8z"/>
		<path class="st1" d="M67,221.9c-1.7-3.4-5.5-4.4-7.8-7.2c-1.8-2.1-4-3.9-4.9-6.6c1.3,0,2.8-0.3,3.9,0.1c10.3,3.8,20.3,3.3,30.4-1
			s20.4-15.9,19.8-26.6c-1.7,0.6-1.8,2.3-2.5,3.5c-8.1,15.5-26.7,24.3-44,20.9c-3.4-0.7-6.8-1.6-10.3-1.2c-5.7-2.4-11-5.1-10.8-12.6
			c0-1.2-1.2-1.4-2.1-1.9c-8.9-4.6-18-5.7-27.3-1.4c-2.8,1.3-5.8,3.3-8.8,0.7c-3-2.6-2.7-6.2-1.9-9.7c2.5-11,13.6-18,25.2-15.8
			c2.2,0.4,4.5,1.1,6.9,1.7c-4.4-5.3-14.6-9.2-22-7.5c-6.8,1.6-11.1-2-7.8-10.2c4.9-12.4,21.3-17.1,33.9-9.7
			c8.3,4.9,14,12.1,17.5,22.1c3.2-4.2,6-8,8.9-11.7c6.1,2.6,11.9,2.3,17.3-1.8c1.8-1.4,3.1-1.5,3.5,1.5c0.7,5.6,4.1,9.1,9.5,10.1
			c4.8,0.9,9.2-0.3,12.9-3.8c4.3-4.1,4.3-4,7,0.9c3.7,6.8,12.8,8.7,17.5,2.9c3.2-3.9,4.4-2,6.7,0.2c6.5,6.4,14.1,4.8,17.7-3.7
			c0.3-0.7,0.4-1.6,1.6-1.8c3.6,3.3,7.1,7.6,13.1,5.4c2.9,19.3,0.1,37.2-12.9,52.5c-1.9,2.3-4.2,4.3-6.5,6.2
			c-6.7,5.6-6.7,5.6-1.7,12.2c-2.7,1.7-5.4,3.3-8.1,5c-4.4-5.1-10.6-4.9-16.2-4c-13.4,2.3-26.6,2.2-39.8-1.1
			C79,226.5,73,224.2,67,221.9L67,221.9L67,221.9z M68,164.1c-10.4,4.4-23.1,16.3-25.2,23.3C46,185.6,65.9,167.5,68,164.1z"/>
		<path class="st2" d="M170.1,157.9c-6,2.1-9.5-2.1-13.1-5.4c-1.2,0.2-1.3,1.1-1.6,1.8c-3.6,8.5-11.2,10.2-17.7,3.7
			c-2.3-2.2-3.5-4.2-6.7-0.2c-4.6,5.8-13.8,3.9-17.5-2.9c-2.7-5-2.8-5-7-0.9c-3.7,3.5-8.1,4.6-12.9,3.8c-5.4-1-8.8-4.5-9.5-10.1
			c-0.4-3.1-1.7-2.9-3.5-1.5c-5.4,4.1-11.2,4.4-17.3,1.8c-2.4-3.2-3.3-6.9-1.1-10.3c8.4-12.5,8.1-26.7,8.4-40.8
			c0.1-5.3,0.6-10.6,1-15.9c0.4-1.1,0.8-2.2,1.2-3.3c3.2-11.6,9.9-20.5,20.4-26.6c10.7-6.2,22.3-7.1,34.3-5.5
			c17.9,3.6,29.5,14.3,34.9,31.7c1.1,3.5,1.9,7,2.9,10.6c-5.3,4.1-6.4,10.1-7.2,16.1c-0.3,2.1,0.7,3.1,2.8,3
			c0.1,0.3,0.2,0.6,0.2,0.9c0.3,1.8,0.6,3.5,0.9,5.3c-2.3-0.8-3.4,0.3-3.9,2.4c-0.6,2.4-1.4,4.8-2,7.2c-1.2,4.4-1.9,8.8,0.5,13.1
			c2.4,4.3,6.6,5.3,10.4,2.2c1.2-1,2-2.4,3.4-0.5c1.1,3.2,2.4,6.4,3.2,9.7C174.7,151.5,174.6,155.5,170.1,157.9L170.1,157.9
			L170.1,157.9z M155.4,89.5c-0.3-6.7-1.8-11.3-5.2-15.2c-6-7-15.4-5.9-19.7,2.2c-1.6,3-2.3,6.2-2.4,9.5
			c-0.2,9.6,6.5,17.7,14.5,17.7C149.7,103.7,155.5,96.5,155.4,89.5z"/>
		<path class="st3" d="M127.4,45.5c-12-1.6-23.5-0.7-34.3,5.5c-10.4,6-17.2,14.9-20.4,26.6c-0.3,1.1-0.8,2.2-1.2,3.3
			c-5.2-2.4-8.9-6.3-11.2-11.5C56,59.6,60,51.6,70.7,49.2c-4.5-7.8-6.4-15.8,0.2-23.1c5.7-6.4,12.8-5.1,20.1-1.6
			c-0.2-1.9-0.3-3.3-0.6-4.8c-1-6.6,0.6-12.4,6-16.4c5.4-4,11.6-4.1,17.5-1.1c9.2,4.5,13.4,12.5,14.9,22.2
			C130,31.5,129.2,38.5,127.4,45.5L127.4,45.5L127.4,45.5z"/>
		<path class="st4" d="M154.3,249.6c6.2,1,12.4,2,18.6,3.1c1.8,0.3,4,0.3,3.8,2.9c-0.2,2.2-2.3,2.8-4,3.1c-4.2,0.9-8.4,1.6-12.7,2.1
			c-25.3,2.6-50.8,2.6-76.2,1.9c-12.3-0.3-24.8-1.4-37-3.8c-1-0.2-1.9-0.5-2.9-0.8c-1.3-0.4-2.7-0.7-2.8-2.4
			c-0.1-1.8,1.4-2.1,2.6-2.6c4-1.8,8.5-0.9,12.7-2.2c1-0.3,2-0.2,2.6-1.2c4.1,1.9,7.6,4.9,12,5.9c5,1.2,10.1,2.6,14.6-1.5
			c0.3-6.6,5.2-5.2,9.3-5.2c17.1,0,34.1-0.3,51.2,1C148.9,252.1,151.7,251.2,154.3,249.6L154.3,249.6L154.3,249.6z"/>
		<path class="st5" d="M154.3,249.6c-2.7,1.6-5.4,2.5-8.2,0.3c-0.6-1.5-1.7-3.2-0.7-4.7c2.8-4,0.2-6.2-2.4-8.6
			c-0.8-0.8-1.4-1.8-2.1-2.7c2.7-1.7,5.4-3.3,8.1-5c0.7,0.5,1.5,0.9,2,1.5c2.4,3,4.8,3.3,7.8,0.6c2.6-2.3,5.9-3.6,9.4-4.4
			c3.4-0.7,6.5-0.4,8.1,3.1c1.7,3.6-0.6,6-3.2,8c-1.4,1.1-3.1,1.9-4.9,2.5C162.6,241.9,158,245.1,154.3,249.6L154.3,249.6
			L154.3,249.6z"/>
		<path class="st5" d="M160.8,106.9c-2.1,0.1-3.1-1-2.8-3c0.9-6.1,1.9-12.1,7.2-16.1c8.5-0.2,16.5,1.6,23.4,6.9
			c2,1.5,4.2,3.3,3.4,6.1c-0.8,2.9-3.8,2.1-5.9,2.7c-2,0.6-4.4-0.4-6.1,1.3c-6-2-11.9,0.6-17.8,0.7
			C161.6,105.6,161.2,106.5,160.8,106.9L160.8,106.9L160.8,106.9z"/>
		<path class="st3" d="M170.3,137.6c-1.4-1.9-2.2-0.6-3.4,0.5c-3.8,3.1-8,2.2-10.4-2.2c-2.4-4.3-1.7-8.7-0.5-13.1
			c0.6-2.4,1.4-4.8,2-7.2c0.5-2.2,1.7-3.2,3.9-2.4c2.5,2.7,6.6,1.1,9.3,3.4c2.3,3.4,4.2,7.1,5.5,11.1
			C178.7,133.2,176.1,136.9,170.3,137.6L170.3,137.6L170.3,137.6z"/>
		<path class="st5" d="M85.7,254.1c-4.5,4.1-9.6,2.7-14.6,1.5c-4.4-1.1-8-4-12-5.9c-1.4-1.2-2.8-2.2-4.1-3.5
			c-2.2-2.4-2.2-5.6,0.3-6.9c4.5-2.2,6.1-6.8,9.5-9.7c1.7,3.5,5.1,3.8,8.4,4.4c-0.7,3.1-5.3,5.1-4,8c1.4,2.9,5.9,2.4,9,3.5
			c1.1,0.4,2.2,0.9,3.2,1.4C84.3,248.4,86.1,250.6,85.7,254.1z"/>
		<path class="st6" d="M51.5,203.8c3.5-0.4,6.9,0.6,10.3,1.2c17.3,3.4,35.9-5.4,44-20.9c0.7-1.2,0.8-2.9,2.5-3.5
			c0.7,10.7-9.7,22.3-19.8,26.6c-10.1,4.3-20.1,4.8-30.4,1c-1.2-0.4-2.6-0.1-3.9-0.1C53.2,206.8,51.8,205.7,51.5,203.8L51.5,203.8
			L51.5,203.8z"/>
		<path class="st5" d="M171.3,116.5c-2.7-2.3-6.8-0.7-9.3-3.4c-0.3-1.8-0.6-3.5-0.9-5.3c2,0,3.9,0.2,5.9,0c4.8-0.3,9.8,1.2,14.2-2.1
			c3.6,1.7,2.9,3.7,0.5,6C178.6,114.5,174.4,114.4,171.3,116.5L171.3,116.5L171.3,116.5z"/>
		<path class="st6" d="M73.2,234c-3.3-0.6-6.7-0.9-8.4-4.4c1.3-2.4,3.4-4.6,2.2-7.8c6,2.3,12,4.6,17.9,7c-1.7,0.6-3.4,1.9-5.1,1.8
			C76.9,230.5,74.9,231.7,73.2,234L73.2,234L73.2,234z"/>
		<path class="st6" d="M181.1,105.8c-4.3,3.3-9.4,1.8-14.2,2.1c-1.9,0.1-3.9,0-5.9,0c-0.1-0.3-0.1-0.6-0.2-0.9
			c0.4-0.5,0.9-1.4,1.3-1.4c5.9-0.1,11.8-2.7,17.8-0.7C180.3,105.2,180.7,105.5,181.1,105.8L181.1,105.8z"/>
		<path class="st6" d="M68,164.1c-2.1,3.4-22,21.5-25.2,23.3C44.9,180.4,57.6,168.5,68,164.1z"/>
		<path class="st0" d="M155.4,89.6c0.1,7-5.7,14.1-12.8,14.1c-8,0-14.7-8-14.5-17.7c0.1-3.3,0.8-6.6,2.4-9.5
			c4.3-8.1,13.7-9.1,19.7-2.2C153.6,78.3,155.1,82.9,155.4,89.6z M150.9,88.1c0.1-5.2-1.8-9.2-4.9-10.7c-2.3-1.1-4.6-1-6.5,0.7
			c-3.5,3.1-3.8,7.2-3,11.4c0.9,5.4,4.5,8.8,8.3,8.2C148.5,97.2,150.9,93.4,150.9,88.1L150.9,88.1L150.9,88.1z"/>
		<path class="st7" d="M150.9,88.1c-0.1,5.3-2.5,9.1-6.1,9.6c-3.8,0.5-7.4-2.9-8.3-8.2c-0.7-4.2-0.5-8.3,3-11.4
			c1.9-1.7,4.2-1.8,6.5-0.7C149.1,78.9,151,83,150.9,88.1L150.9,88.1L150.9,88.1z"/>
	</g>
</g>
</svg>
