<?xml version="1.0" encoding="UTF-8"?>
<svg id="Layer_2" data-name="Layer 2" xmlns="http://www.w3.org/2000/svg" viewBox="0 0 201.07 228.26">
  <defs>
    <style>
      .cls-1 {
        fill: #fb9106;
      }

      .cls-1, .cls-2, .cls-3, .cls-4, .cls-5, .cls-6, .cls-7, .cls-8, .cls-9 {
        stroke-width: 0px;
      }

      .cls-2 {
        fill: #faa009;
      }

      .cls-3 {
        fill: #f88806;
      }

      .cls-4 {
        fill: #2e2d2b;
      }

      .cls-5 {
        fill: #ad3a05;
      }

      .cls-6 {
        fill: #eb4527;
      }

      .cls-7 {
        fill: #fccd0b;
      }

      .cls-8 {
        fill: #fbf8f4;
      }

      .cls-9 {
        fill: #eb7404;
      }
    </style>
  </defs>
  <g id="Layer_1-2" data-name="Layer 1">
    <g id="Wave">
      <path class="cls-8" d="m70.84,1.29c-8.59,3.37-13.03,12.51-11.54,23.64.29,2.19.42,4.4.66,6.88-14.73-5.6-24.66.36-25.25,14.74-.38,9.03,3.68,16.37,9.77,22.73-7.99,6.79-14.2,14.84-17.67,24.86-3.24,9.35-4.08,19.09-5.07,28.84-1.62,15.91-.48,32.35-9.02,46.97-.86,1.47-.71,3.54-1.02,5.33C1.32,190.19-1.71,206.71.96,224.46c.37,2.45,1.93,3.81,4.48,3.77,5.8-.09,11.6-.21,17.41-.32,2,.45,4,.47,5.99-.03.32.08.65.23.97.23,37.96.03,75.91.02,113.87.12,2.8,0,3.7-1.3,4.34-3.67,2.23-8.23,3.9-16.57,3.45-25.11-.2-3.7.72-6,4.36-6.96,26.21-8.35,42.76-37.54,45.08-57.03.23-1.98.5-4.83-1.27-5.56-5.37-2.21-2.56-5.76-1.85-8.82.81-3.46,1.22-6.93.81-10.39-.5-4.15-1.29-8.63-6-10.07-4.74-1.44-7.81,1.62-10.38,5.15-.37.51-.61,1.18-1.62.9-.13-4.58-.18-9.28-2.02-13.64-1.52-3.58-4.02-6.33-8.21-6.22-3.92.1-6.34,2.65-7.7,6.16-.78,2.01-1.37,4.1-1.94,6.18-1.66,6.09-2.94,12.31-4.99,18.27-2.35,6.85-4.66,13.84-9.9,19.26-1.57-13.87-2.47-27.9-6.9-41.24-6.55-19.71-19.91-32.17-40.59-36.25,1.36-4.8,3.03-9.53,4.03-14.41,2.49-12.15,1.67-23.97-5.62-34.48-6.14-8.84-17.15-12.44-25.9-9.02"/>
      <path class="cls-7" d="m98.34,59.19c20.68,4.08,34.04,16.54,40.59,36.25,4.43,13.33,5.33,27.37,6.9,41.23,1.73,10.55,2.78,21.18,8.28,30.85,3.48,6.12,1.7,10.27-4.43,14.8-5.21.99-9.79-.89-14.56-3.75-1.27,7.51-3.11,14.18-11.23,16.35-8.25,2.2-13.3-2.86-18.27-8.41-3.59,7.95-7.49,14.52-17.47,14.1-9.37-.4-13.95-6.38-17.6-13.95-2.06,2.27-3.69,4.38-5.63,6.13-9.51,8.59-24,4.51-26.62-7.89-1.05-4.95-2.36-4.07-5.37-2.1-1.63,1.07-3.6,1.74-5.51,2.25-8.06,2.13-14.08-1.66-15.74-9.78.32-1.79.16-3.85,1.02-5.33,8.54-14.62,7.4-31.07,9.02-46.97.99-9.75,1.83-19.49,5.07-28.84,3.47-10.02,9.68-18.07,17.67-24.85,1.15-.62,2.33-1.19,3.44-1.88,12.66-7.88,25.51-9.69,38.62-1.1,2.93,1.92,5.26,1.41,7.31-1.22,1.52-1.95,3-3.93,4.5-5.9h0Zm5.67,81.29c1.48,0,2.97,0,4.45-.02,5.42-.09,6.78-2.37,4.22-7.14-.77-1.43-2.12-2.57-2.02-4.4,5.66-4.99,11.68-8.04,19.07-3.44l.26.15-.32-.09c-2.79-3.1-2.34-6.8-2.06-10.52.35-4.59-.78-8.91-2.88-12.96-3.02-5.82-9.16-9.41-15.08-8.52-6.3.95-9.68,5.26-11.6,11.01-1.51,4.53-.96,9.21-1.1,13.84-5.89-2.09-9.54,1.12-12.74,5.38-.76,1.01-1.1,2.46-2.79,2.36,1.89-4.89,2.59-9.95,2.25-15.17-.52-7.97-5.09-14.07-12.36-16.53-5.7-1.92-12.82.25-17.11,5.33-4.57,5.4-5.06,11.92-4.12,18.43.49,3.37.93,6.25-1.89,8.95,5.44-1.29,10.03-5.02,15.8-3.78,3.12.6,5.94,1.93,8.62,3.59,1.09,2.31,3.57,3.08,5.24,4.74l.03,3.84c-.22,3.83,1.19,7.27,2.6,10.7-2.75,5.05-3.82,10.62-4.28,16.21-.33,4.06.82,8.03,4.94,10.13,3.77,1.92,7.11,1,9.88-2.04,1.49-1.63,2.49-.78,3.71.33,2.54,2.31,5.48,2.19,8.37.88,2.94-1.33,3.71-4.03,3.84-7.01.24-5.75-1.97-10.68-5.03-15.35.67-2.97,2.42-5.69,2.09-8.9h0Z"/>
      <path class="cls-3" d="m11.67,175.28c1.66,8.12,7.68,11.91,15.74,9.78,1.91-.5,3.88-1.18,5.51-2.25,3.01-1.97,4.33-2.85,5.37,2.1,2.62,12.4,17.11,16.48,26.62,7.89,1.94-1.75,3.56-3.86,5.63-6.13,3.65,7.57,8.23,13.55,17.6,13.95,9.98.42,13.88-6.15,17.47-14.1,4.97,5.54,10.02,10.61,18.27,8.41,8.12-2.17,9.97-8.84,11.23-16.35,4.77,2.87,9.35,4.75,14.56,3.76,1.82,1.39,1.39,3.66,1.54,5.37.26,3.19,1.74,4.45,4.59,4.78-3.64.96-4.56,3.27-4.36,6.96.46,8.55-1.22,16.88-3.45,25.11-.64,2.38-1.54,3.68-4.34,3.67-37.96-.1-75.91-.09-113.87-.12-.32,0-.65-.15-.97-.23,0-5.82.12-11.64-.08-17.45-.06-1.92,1.39-5.25-1.43-5.45-2.4-.17-1.58,3.44-2.4,5.28-.31.7.08,1.69-.13,2.46-1.35,4.98-.25,10.26-1.96,15.19-5.8.11-11.6.23-17.41.32-2.55.04-4.12-1.33-4.48-3.77-2.67-17.75.36-34.27,10.74-49.18h.01Z"/>
      <path class="cls-1" d="m155.8,192.49c-2.85-.33-4.32-1.6-4.59-4.78-.14-1.71.29-3.98-1.54-5.37,6.12-4.54,7.9-8.69,4.42-14.8-5.5-9.68-6.55-20.3-8.28-30.85,5.24-5.42,7.54-12.41,9.9-19.26,2.05-5.96,3.32-12.18,4.99-18.27.57-2.08,1.16-4.17,1.94-6.18,1.35-3.51,3.77-6.06,7.7-6.16,4.19-.11,6.69,2.64,8.21,6.22,1.84,4.36,1.89,9.06,2.02,13.64,1,.28,1.25-.39,1.62-.9,2.57-3.53,5.64-6.59,10.38-5.15,4.72,1.44,5.5,5.91,6,10.07.42,3.46,0,6.93-.81,10.39-.72,3.07-3.52,6.62,1.85,8.82,1.77.73,1.5,3.58,1.27,5.56-2.32,19.49-18.87,48.68-45.08,57.03h0Z"/>
      <path class="cls-6" d="m70.84,1.29c8.75-3.43,19.76.17,25.9,9.02,7.29,10.51,8.11,22.33,5.62,34.48-1,4.87-2.66,9.61-4.03,14.41-1.5,1.97-2.97,3.95-4.5,5.9-2.05,2.63-4.39,3.14-7.31,1.22-13.1-8.59-25.95-6.78-38.62,1.1-1.11.69-2.29,1.26-3.44,1.88-6.08-6.37-10.14-13.7-9.77-22.73.6-14.38,10.52-20.34,25.25-14.74-.23-2.48-.36-4.69-.66-6.88-1.5-11.13,2.95-20.28,11.54-23.64"/>
      <path class="cls-9" d="m22.82,227.92c1.7-4.92.6-10.21,1.96-15.19.21-.78-.18-1.76.13-2.46.82-1.84,0-5.46,2.4-5.28,2.82.2,1.36,3.54,1.43,5.45.2,5.81.08,11.63.08,17.45-2,.5-3.99.48-5.99.03h-.01Z"/>
      <path class="cls-8" d="m77.86,131.69c-1.67-1.66-4.15-2.43-5.25-4.74,5.3-4.26,7.12-10.04,5.18-16.39-1.13-3.7-3.32-6.21-7.45-6.14-4.32.08-6.66,2.73-7.51,6.7-.88,4.16-.43,8.27,1.15,12.24-5.76-1.24-10.35,2.49-15.8,3.78,2.82-2.7,2.38-5.58,1.89-8.95-.94-6.51-.46-13.02,4.12-18.43,4.29-5.07,11.41-7.25,17.11-5.33,7.27,2.46,11.84,8.56,12.36,16.53.34,5.22-.36,10.28-2.25,15.17l.06.08c-.84.39-1.3,1.02-1.17,1.99l.17-.06c-.74.2-.99.73-.97,1.44-.56.7-1.11,1.4-1.67,2.11h.03Z"/>
      <path class="cls-6" d="m101.92,149.38c3.06,4.66,5.26,9.6,5.02,15.35-.12,2.99-.9,5.68-3.84,7.01-2.88,1.31-5.83,1.42-8.37-.88-1.22-1.11-2.22-1.96-3.71-.33-2.77,3.04-6.11,3.96-9.88,2.04-4.13-2.1-5.27-6.07-4.94-10.13.45-5.59,1.52-11.16,4.28-16.21,2.11,1.12,3.41,2.97,4.78,4.87,3.61,5.01,10.7,4.88,14.3-.19.63-.89,1.31-1.43,2.36-1.53h0Z"/>
      <path class="cls-8" d="m129.74,125.49c-7.39-4.61-13.4-1.56-19.07,3.43-2.82-.9-4.2-3.29-5.71-5.55,8.85,1.48,14.51-5.41,11.62-14.13-1.14-3.44-3.23-5.86-7.11-5.86s-5.88,2.36-7.05,5.86c-1.75,5.25.08,9.77,2.59,14.2-3.27-.75-5.36-3.37-8.05-5.04.15-4.63-.41-9.31,1.1-13.84,1.92-5.74,5.3-10.05,11.6-11.01,5.91-.89,12.06,2.7,15.08,8.52,2.1,4.05,3.23,8.36,2.88,12.96-.29,3.71-.73,7.42,2.06,10.52l.06-.06h0Z"/>
      <path class="cls-2" d="m96.96,118.4c2.69,1.67,4.78,4.3,8.05,5.04l-.05-.06c1.51,2.26,2.89,4.64,5.71,5.55-.1,1.82,1.25,2.97,2.01,4.4,2.56,4.77,1.2,7.06-4.22,7.14-1.48.02-2.97,0-4.45.02-1-.03-2-.05-2.99-.08-6.75-1.36-13.5-2.73-20.24-4.09-.76-1.01-1.83-.84-2.88-.78l-.03-3.84c.56-.7,1.11-1.4,1.67-2.11.62-.28,1.02-.71.97-1.44l-.17.06c1.33-.11,1.43-.94,1.16-1.99l-.06-.08c1.68.1,2.03-1.35,2.78-2.36,3.2-4.26,6.85-7.47,12.74-5.38h0Z"/>
      <path class="cls-4" d="m63.99,123.35c-1.58-3.97-2.04-8.08-1.15-12.24.84-3.96,3.18-6.62,7.51-6.7,4.12-.07,6.31,2.44,7.45,6.14,1.94,6.35.12,12.13-5.18,16.39-2.68-1.66-5.5-3-8.62-3.6h-.01Z"/>
      <path class="cls-9" d="m77.89,135.53c1.05-.06,2.12-.23,2.88.78,1.14,4.09,4.06,7.17,6.27,10.61,1.53,2.39,4.16,4.81,7.37,4.31,3.28-.51,4.58-3.55,5.49-6.5.44-1.42.75-2.89,1.12-4.33,1,.03,1.99.05,2.99.08.34,3.21-1.42,5.92-2.09,8.9-1.05.11-1.73.64-2.36,1.53-3.59,5.07-10.68,5.2-14.3.19-1.37-1.9-2.66-3.75-4.78-4.87-1.41-3.44-2.82-6.87-2.6-10.7h.01Z"/>
      <polygon class="cls-8" points="129.67 125.55 130 125.64 129.74 125.49 129.67 125.55"/>
      <path class="cls-7" d="m81.5,126.22c.27,1.04.17,1.87-1.16,1.99-.14-.97.32-1.59,1.16-1.99Z"/>
      <path class="cls-7" d="m80.5,128.14c.05.73-.35,1.16-.97,1.44-.02-.71.23-1.24.97-1.44Z"/>
      <path class="cls-4" d="m105.01,123.44c-2.51-4.43-4.33-8.94-2.59-14.2,1.16-3.5,3.18-5.86,7.05-5.86s5.97,2.42,7.11,5.86c2.89,8.73-2.77,15.61-11.62,14.13l.06.06h0Z"/>
      <path class="cls-5" d="m101.02,140.4c-.37,1.44-.68,2.91-1.12,4.33-.91,2.95-2.2,5.99-5.49,6.5-3.21.5-5.84-1.92-7.37-4.31-2.2-3.44-5.13-6.53-6.27-10.61,6.75,1.36,13.5,2.73,20.24,4.09h.01Z"/>
    </g>
  </g>
</svg>