<?xml version="1.0" encoding="UTF-8"?>
<svg id="Layer_2" data-name="Layer 2" xmlns="http://www.w3.org/2000/svg" viewBox="0 0 200.82 226.34">
  <defs>
    <style>
      .cls-1 {
        fill: #f98904;
      }

      .cls-1, .cls-2, .cls-3, .cls-4, .cls-5, .cls-6, .cls-7, .cls-8, .cls-9, .cls-10 {
        stroke-width: 0px;
      }

      .cls-2 {
        fill: #fb9106;
      }

      .cls-3 {
        fill: #faa009;
      }

      .cls-4 {
        fill: #f88806;
      }

      .cls-5 {
        fill: #2e2d2b;
      }

      .cls-6 {
        fill: #ad3a05;
      }

      .cls-7 {
        fill: #eb4527;
      }

      .cls-8 {
        fill: #fccd0a;
      }

      .cls-9 {
        fill: #fbf8f4;
      }

      .cls-10 {
        fill: #eb7404;
      }
    </style>
  </defs>
  <g id="Layer_1-2" data-name="Layer 1">
    <g id="Wink">
      <path class="cls-9" d="m200.05,140.51c-2.51-9.34-8.23-14.21-17.82-14.33-2.99-.04-3.14-.94-2.96-3.33.47-5.99.63-11.98-2.15-17.6-1.52-3.08-3.68-5.16-7.36-4.92-3.85.25-6.12,2.61-6.96,6.13-.73,3.05-1.3,6.23-1.29,9.36.02,13.24-5.11,23.87-15.52,32-1.58-1.52-1.52-3.62-1.81-5.52-1.4-9.36-2.65-18.74-4.01-28.11-1.48-10.2-3.1-20.39-7.46-29.87-7.23-15.71-19.9-24.89-36.04-29.86,1.57-4.03,3.58-7.94,4.62-12.1,3.13-12.54,3.46-24.85-5.66-35.43-5.4-6.26-12.52-8.18-20.38-6.1-7.61,2.01-11.19,7.72-12.57,15.21-.72,3.91.21,7.77.08,11.83-12.15-8-22.61-3.59-25.13,10.47-1.62,9.02,2.04,16.57,7.33,23.52-12.15,8.45-19.61,20.05-23.04,34.34-1.91,7.95-2.26,16.09-3.03,24.19-1.53,16.29-.76,32.98-8.57,48.21-1.15,2.25-.98,5.18-1.42,7.79-1.51,1.78-2.45,3.84-2.84,6.14-5.56,12.66-7.37,25.8-5.08,39.46.48,2.86,2.1,4.41,5.12,4.35,5.32-.11,10.64-.18,15.96-.27,1.99-.01,3.99-.02,5.98-.04,14.6.1,29.19.29,43.79.29,23.06,0,46.12-.14,69.19-.22.69.21,1.38.39,1.94-.29.73-.12,1.15-.49,1.09-1.28,3.54-6.3,4.5-13.28,4.2-20.23-.2-4.71,1.05-6.13,5.59-5.86,9.6.56,18.44-1.88,26.28-7.59,2.32-1.22,4.41-2.71,5.92-4.9,5.56-4.92,9.71-10.72,11.39-18.08l-.11-.08c1.63-1.77,2.38-3.91,2.64-6.26"/>
      <path class="cls-8" d="m96.68,54.44c16.14,4.97,28.82,14.14,36.04,29.86,4.36,9.48,5.98,19.66,7.46,29.87,1.36,9.37,2.61,18.75,4.01,28.11.29,1.9.23,4.01,1.81,5.52-.08,2.45-.08,4.87,1.9,6.74-.04,2.07.9,3.84,1.94,5.48,3.24,5.16,4.16,10.56,2.04,16.36-1.28.73-2.56,1.45-3.84,2.18-5.64,2.32-10.7.72-15.44-2.54-.28.55-.52.83-.54,1.12-.45,6.58-2.73,12.41-9.23,14.73-6.74,2.4-12.73.09-17.39-5.44-2.86-3.4-3.49-.69-4.42,1.63-3.46,8.64-12,12.35-20.82,9.43-6.25-2.07-9.51-6.87-12.16-13.05-1.59,2.06-2.77,3.58-3.95,5.1-1.14.94-2.22,1.97-3.43,2.81-5.5,3.83-11.15,5.29-17.55,1.79-6.05-3.31-7.92-8.8-8.49-15.27-10.94,8.99-21.2,7.36-25.7-2.5.44-2.61.27-5.54,1.42-7.79,7.82-15.23,7.04-31.92,8.57-48.21.76-8.1,1.12-16.24,3.03-24.19,3.43-14.29,10.89-25.89,23.04-34.34,11.78-6.57,24.52-8.66,37.86-8.39,4.65.09,9.17,1.69,13.85.99h-.01Zm3.65,82.09c1.49,0,2.99.09,4.47-.02,2.05-.14,4.58.85,5.82-1.6,1.18-2.33.03-4.47-1.25-6.49-3.94-6.22-9.59-10.4-16.22-13.3-2.68-1.17-5.89-1.43-8.06.5-5.03,4.48-9.76,9.37-10.12,16.76-.77,4.12,1.77,7.96.99,12.08-1.61,5.39-3.4,10.72-3.05,16.5.24,4.01,1.9,7.18,5.42,8.87,3.55,1.71,6.79.45,9.36-2.44.9-1.01,1.68-2.22,3.09-.56,2.69,3.15,6.11,3.64,9.33,1.4,3.43-2.39,4.1-6.1,3.27-10.19-.83-4.09-2.55-7.79-4.37-11.48.77-3.3,1.34-6.62,1.31-10.03h0Zm-20.23-26.85c.2-11.06-7.29-20.52-16.5-20.8-10.27-.32-18.31,8.28-18.57,19.87-.26,11.66,6.85,19.65,17.6,19.78,10.23.12,17.25-7.46,17.46-18.84h.01Zm30.42-4.91c-5.2.5-9.88,1.87-13.08,6.28-.71.98-1.17,2.17-.04,3.11.97.81,1.88.13,2.6-.6,5.09-5.13,10.83-6.02,17.23-2.69,1.1.57,2.24.95,3.01-.41.87-1.54-.15-2.59-1.26-3.32-2.57-1.7-5.58-1.96-8.46-2.37h0Z"/>
      <path class="cls-1" d="m64.07,189.54c1.18-1.52,2.36-3.05,3.95-5.1,2.65,6.18,5.91,10.98,12.16,13.05,8.82,2.92,17.37-.79,20.82-9.43.92-2.31,1.55-5.03,4.42-1.63,4.66,5.54,10.65,7.85,17.39,5.44,6.5-2.31,8.79-8.15,9.23-14.73.02-.29.27-.57.54-1.12,4.74,3.26,9.8,4.86,15.44,2.54.13,2.07,1.63,2.4,3.26,3.11,2.64,1.15,3.06,4.24,3.37,6.57.32,2.39-2.45,1.92-4.15,2.37-3.17.84-6.82,2.53-6.24,6.01.82,4.9.8,9.35-1.21,13.84-.25.55-.2,1.38.02,1.97,1.3,3.4.82,6.36-1.44,9.3-.77,1.01-.45,2.86-.63,4.33-23.06.08-46.12.22-69.19.22-14.6,0-29.19-.18-43.79-.29.15-5.87.04-11.72-.97-17.52,5.85-.79,11.54-2.75,17.59-2.03,4.67.56,8.73-1.36,12.59-3.74,2.25-1.39,4.45-2.86,6.73-4.17,2.27-1.31,4.92-2.08,5.05-5.45.15-3.88-3.85-1.63-4.97-3.55h.03Z"/>
      <path class="cls-7" d="m96.68,54.44c-4.69.7-9.2-.89-13.85-.99-13.34-.27-26.07,1.82-37.86,8.39-5.29-6.95-8.95-14.5-7.33-23.52,2.52-14.06,12.98-18.48,25.13-10.47.13-4.06-.8-7.92-.08-11.83,1.37-7.49,4.96-13.2,12.57-15.21,7.86-2.08,14.98-.16,20.38,6.1,9.12,10.58,8.79,22.89,5.66,35.43-1.04,4.16-3.05,8.08-4.62,12.1h0Z"/>
      <path class="cls-1" d="m199.97,161.5c-4.4-.49-6.03.7-2.98,4.83.27.36.24.95.34,1.43,0,0,.11.08.11.07-1.55-.39-2.53-.22-3.58,1.46-2.15,3.44-4,7.07-8.02,9.19-3.56,1.88-3.19,5.09.2,7.44-1.51,2.19-3.6,3.68-5.92,4.9-.3-3.13-.77-5.91-4.57-2.41-.64.59-1.37.74-2.27.71-9.52-.27-15.51-6.43-21.42-12.74,2.12-5.8,1.21-11.2-2.04-16.36-1.04-1.65-1.97-3.42-1.94-5.48,4.4-1.57,10.88,1.26,12.56-6.12.28-1.22,1.92-.98,3.04-.59,1.25.43,2.47,1.08,3.53-.33.67,1,1.33,2,2,3-4.9,1.77-5.31,2.99-2.02,6-.65,6.49,1.18,12.14,7.29,14.93,4.07,1.86,8.82,3.6,13.72-.13-1.98-.71-3.48-1.26-4.99-1.8-.58-1.73-.28-4.36-2.45-4.7-2.11-.33-3.28,1.56-3.55,3.7-4.28-1.32-6.73-4.64-6.83-8.69-.17-7.2,5.33-8.73,11.52-8.95-5.99-2.14-9.56-3.92-10.72-5.34,1.64-1.64,1.15-2.59-.98-3.01.01-1.33.02-2.67.04-4,4.57-.13,5.61-3.27,5.97-6.99.43-.79,1.17-.98,1.99-1.03,1.46,1.75,3.74.74,5.52,1.64,1.63.83,3.89-.03,5.02,2.35,2.28,4.8,6.86,5.56,11.5,6.03"/>
      <path class="cls-1" d="m200.4,141.36c-3.8.76-4.23,4.05-5.31,6.93-2.26,6.01-.78,8.16,5.73,8.08"/>
      <path class="cls-4" d="m200.05,140.51c-4.64-.47-9.22-1.22-11.5-6.03-1.13-2.38-3.39-1.52-5.02-2.35-1.77-.9-4.05.11-5.52-1.64-1.69-3.9-4.1-1.51-5.86-.37-5.54,3.61-7.18,9.6-5.13,17.38-1.06,1.41-2.28.77-3.53.33-1.12-.39-2.76-.63-3.04.59-1.69,7.38-8.17,4.55-12.56,6.12-1.98-1.87-1.98-4.29-1.9-6.74,10.41-8.13,15.54-18.76,15.52-32,0-3.12.56-6.3,1.29-9.36.84-3.52,3.11-5.87,6.96-6.13,3.67-.24,5.84,1.84,7.36,4.92,2.78,5.63,2.62,11.61,2.15,17.6-.19,2.39-.04,3.29,2.96,3.33,9.59.13,15.32,4.99,17.82,14.33"/>
      <path class="cls-2" d="m64.07,189.54c1.12,1.92,5.12-.33,4.97,3.55-.13,3.37-2.79,4.15-5.05,5.45-2.29,1.32-4.49,2.78-6.73,4.17-3.86,2.39-7.93,4.3-12.59,3.74-6.06-.73-11.74,1.24-17.59,2.03-.23-2.14.74-4.7-2.03-5.98-3.65-.49-4.65-4.77-7.78-5.69-7.29-2.13-10.81-6.92-11.2-14.31.4-2.3,1.33-4.35,2.84-6.14,4.5,9.85,14.76,11.48,25.7,2.5.57,6.47,2.44,11.97,8.49,15.27,6.4,3.5,12.04,2.05,17.55-1.79,1.21-.84,2.29-1.87,3.43-2.81h0Z"/>
      <path class="cls-4" d="m6.06,182.51c.39,7.39,3.91,12.18,11.2,14.31,3.14.91,4.13,5.2,7.78,5.69-1.24,7.82-3.25,15.54-2.99,23.54-5.32.09-10.64.16-15.96.27-3.02.06-4.64-1.49-5.12-4.35-2.29-13.66-.48-26.8,5.08-39.46h0Z"/>
      <path class="cls-4" d="m151.87,176.39c5.91,6.31,11.9,12.47,21.42,12.74.9.03,1.63-.12,2.27-.71,3.79-3.5,4.27-.72,4.57,2.41-7.84,5.7-16.68,8.15-26.28,7.59-4.54-.26-5.8,1.16-5.59,5.86.3,6.95-.66,13.93-4.2,20.23-.36.43-.72.85-1.09,1.28-.56.68-1.25.5-1.94.29.18-1.47-.15-3.32.63-4.33,2.26-2.95,2.74-5.9,1.44-9.3-.22-.58-.27-1.42-.02-1.97,2.01-4.5,2.03-8.94,1.21-13.84-.58-3.48,3.07-5.17,6.24-6.01,1.7-.45,4.47.01,4.15-2.37-.31-2.33-.73-5.42-3.37-6.57-1.63-.71-3.13-1.04-3.26-3.11,1.28-.73,2.56-1.45,3.84-2.18h-.02Z"/>
      <path class="cls-10" d="m22.06,226.05c-.26-8.01,1.76-15.73,2.99-23.54,2.77,1.29,1.79,3.84,2.03,5.98,1.01,5.8,1.12,11.66.97,17.52-1.99.01-3.99.02-5.98.04h-.01Z"/>
      <path class="cls-4" d="m200.82,156.37c-6.51.08-7.99-2.07-5.73-8.08,1.08-2.88,1.51-6.17,5.31-6.93"/>
      <path class="cls-4" d="m186.05,185.92c-3.4-2.35-3.76-5.56-.2-7.44,4.02-2.12,5.87-5.76,8.02-9.19,1.05-1.68,2.02-1.85,3.58-1.46-1.68,7.36-5.83,13.17-11.39,18.09h-.01Z"/>
      <path class="cls-4" d="m199.97,161.5c-.26,2.35-1.01,4.49-2.64,6.26-.11-.48-.07-1.07-.34-1.43-3.05-4.13-1.42-5.32,2.98-4.83"/>
      <path class="cls-1" d="m142.96,225.78c.36-.43.72-.85,1.09-1.28.07.79-.36,1.16-1.09,1.28Z"/>
      <path class="cls-9" d="m80.1,109.69c-.21,11.39-7.23,18.97-17.46,18.84-10.75-.13-17.86-8.12-17.6-19.78.26-11.58,8.29-20.19,18.57-19.87,9.2.28,16.7,9.74,16.5,20.8h-.01Zm-7.06.71c.46-2.32-.3-4.71-1.47-6.93-1.78-3.36-4.75-4.81-8.35-3.75-4.77,1.41-5.81,5.51-6.04,9.86-.31,5.92,1.98,10.23,6,11.41,3.51,1.04,6.22-.24,8.12-3.21,1.37-2.14,2.13-4.5,1.75-7.38h-.01Z"/>
      <path class="cls-7" d="m99.01,146.56c1.82,3.69,3.54,7.39,4.37,11.48.83,4.1.16,7.8-3.27,10.19-3.22,2.25-6.64,1.75-9.33-1.4-1.42-1.66-2.19-.45-3.09.56-2.58,2.89-5.81,4.15-9.36,2.44-3.52-1.69-5.18-4.86-5.42-8.87-.34-5.78,1.45-11.11,3.05-16.5,2.31-.48,3.12,1.37,4.33,2.69,3.15,3.4,7.05,4.71,11.69,4.39,3.48-.24,3.93-4.42,7.04-4.97h0Z"/>
      <path class="cls-3" d="m74.97,132.38c.36-7.39,5.09-12.28,10.12-16.76,2.17-1.93,5.38-1.68,8.06-.5,6.63,2.9,12.28,7.08,16.22,13.3,1.28,2.02,2.43,4.16,1.25,6.49-1.24,2.45-3.77,1.46-5.82,1.6-1.48.1-2.98.02-4.47.02-1.03-.03-2.05-.05-3.08-.08-6.67-1.26-13.34-2.51-20.02-3.77-.75-.1-1.51-.2-2.26-.31h0Z"/>
      <path class="cls-10" d="m74.97,132.38c.75.1,1.51.2,2.26.3.79,3.53,1.92,6.83,5.76,8.22.27,4.15,3.67,5.28,6.66,6.44,1.75.68,3.14-.61,3.41-2.64,3.13-1.87,3.61-5.09,4.18-8.25,1.02.03,2.05.05,3.08.08.03,3.4-.54,6.73-1.31,10.03-3.11.56-3.56,4.73-7.04,4.97-4.63.32-8.54-.99-11.69-4.39-1.22-1.31-2.03-3.17-4.33-2.69.78-4.12-1.77-7.96-.99-12.08h.01Z"/>
      <path class="cls-5" d="m110.52,104.79c2.88.42,5.89.68,8.46,2.37,1.11.73,2.13,1.78,1.26,3.32-.77,1.36-1.9.99-3.01.41-6.4-3.34-12.14-2.44-17.23,2.69-.72.72-1.63,1.4-2.6.6-1.14-.94-.67-2.13.04-3.11,3.2-4.41,7.89-5.78,13.08-6.28h0Z"/>
      <path class="cls-10" d="m167.03,147.5c-2.05-7.78-.41-13.77,5.13-17.38,1.76-1.14,4.16-3.53,5.86.37-.82.04-1.55.24-1.99,1.03-2.72,1.71-4.76,4-5.97,6.99-.01,1.33-.02,2.67-.04,4,.02,1.1-.15,2.27.98,3.01,1.16,1.42,4.73,3.2,10.72,5.34-6.2.23-11.69,1.76-11.52,8.95.09,4.04,2.54,7.37,6.83,8.69,1.76,1.79,3.99.7,6,1,1.5.54,3.01,1.09,4.99,1.8-4.89,3.73-9.65,1.99-13.72.13-6.11-2.79-7.94-8.44-7.29-14.93.67-2,1.35-4,2.02-6-.67-1-1.33-2-2-3h0Z"/>
      <path class="cls-4" d="m183.02,169.51c-2-.3-4.24.78-6-1,.27-2.14,1.44-4.03,3.55-3.7,2.17.34,1.87,2.97,2.45,4.7Z"/>
      <path class="cls-4" d="m170.06,138.51c1.21-3,3.24-5.29,5.97-6.99-.36,3.72-1.4,6.86-5.97,6.99Z"/>
      <path class="cls-4" d="m169.02,150.51c-.67,2-1.35,4-2.02,6-3.29-3.01-2.88-4.23,2.02-6Z"/>
      <path class="cls-4" d="m171,145.52c-1.13-.74-.96-1.91-.98-3.01,2.13.42,2.62,1.37.98,3.01Z"/>
      <path class="cls-5" d="m73.04,110.4c.38,2.88-.38,5.24-1.75,7.38-1.9,2.97-4.62,4.25-8.12,3.21-4.02-1.19-6.31-5.49-6-11.41.23-4.34,1.27-8.45,6.04-9.86,3.6-1.06,6.58.39,8.35,3.75,1.17,2.22,1.93,4.61,1.47,6.93h.01Z"/>
      <path class="cls-6" d="m82.99,140.91c-3.84-1.39-4.97-4.69-5.76-8.22,6.67,1.26,13.34,2.51,20.02,3.77-.57,3.17-1.05,6.38-4.18,8.25-2.33-5.5-5.01-6.51-10.07-3.8h-.01Z"/>
      <path class="cls-7" d="m82.99,140.91c5.06-2.72,7.74-1.71,10.07,3.8-.27,2.03-1.66,3.32-3.41,2.64-2.99-1.16-6.4-2.29-6.66-6.44h0Z"/>
    </g>
  </g>
</svg>