<?xml version="1.0" encoding="UTF-8"?>
<svg xmlns="http://www.w3.org/2000/svg" viewBox="195 370 1595 1035">
  <defs>
    <style>
      .cls-1 {
        fill: #f58a1f;
      }

      .cls-1, .cls-2, .cls-3, .cls-4 {
        stroke-width: 0px;
      }

      .cls-2 {
        fill: #094ca0;
      }

      .cls-3 {
        fill: #fff;
      }

      .cls-4 {
        fill: #fdbd10;
      }
    </style>
  </defs>
  <g id="Layer_3" data-name="Layer 3">
    <rect class="cls-2" x="-63" y="-63" width="2106" height="2115"/>
  </g>
  <g id="Layer_1" data-name="Layer 1">
    <path class="cls-1" d="m1123.63,640.33c.69.45,1.4.77,2.1.96.6.16,1.2.24,1.8.24.7,0,1.72-.12,2.65-.67.05-.05.11-.1.15-.15,0,0,.07-.07.21-.25.62-.79,2.15-3.38,2.98-10.37.28-2.38.46-5.05.52-7.95-.31.12-.63.26-.97.41-1.78.8-3.46,1.8-5.15,3.06-.95.71-1.78,1.42-2.55,2.14l-.19.58c-1.42,1.39-2.51,2.77-3.17,4.09-1.07,2.15-1.1,4.15-.05,5.84l-.12.37c.43.63,1.03,1.2,1.78,1.69Z"/>
    <path class="cls-1" d="m822.16,961.67c2.94-23.37,7.24-53.52,13.09-85.34-3.65,4.15-7.76,7.94-11.83,11.68-9.98,9.19-20.29,18.69-23.83,33.45-2.67,11.11-.85,21.08,5.25,28.82,4.24,5.37,10.43,9.36,17.32,11.39Z"/>
    <path class="cls-1" d="m960.08,658c8.22-2.32,16.42-3.49,24.58-3.49,34.01,0,65.61,20.92,91.39,60.51,17,26.11,27.23,57.54,34.79,89.02,8.8-10.81,20.78-25.86,29.01-37.51,6.27-8.89,11.37-19.23,15.24-30.41.81-2.33,1.55-4.69,2.25-7.09,3.65-12.54,5.8-25.93,6.32-39.38.2-5.23.18-10.47-.11-15.68-.62-11.15-2.4-22.13-5.4-32.48-2.69-9.26-7.71-16.36-13.34-19.01-.45-.21-.91-.41-1.37-.56-.28-.09-.56-.18-.85-.25-.05,3.26-.23,6.45-.59,9.45-.72,6.12-2.18,11.38-4.75,14.64-.29.36-.58.71-.9,1.02-.5.49-1.03.95-1.6,1.3-2.19,1.35-4.69,1.99-7.21,1.99-1.34,0-2.68-.18-3.98-.52-1.61-.43-3.16-1.13-4.57-2.06-1.62-1.05-3.07-2.4-4.19-4.05-.95-1.4-1.68-3-2.08-4.75-.86-3.73-.24-8.12,2.9-12.66,1.66-2.4,4.01-4.84,7.22-7.23,2.37-1.76,4.62-3.04,6.77-4.01,1.4-.63,2.76-1.14,4.06-1.49-.09-2.09-.23-4.31-.41-6.67-.06-.79-.15-1.59-.22-2.38-1.5-16.57-5.02-33.9-9.82-47.91-5.55-16.23-12.3-26.72-19.03-29.53-.62-.26-1.79-.75-3.46-.75-1.77,0-4.09.54-6.93,2.48,3.57,28.25,4.47,56.69,3.16,78.84-.31,5.13-.73,9.93-1.26,14.3-.43,3.52-.94,6.79-1.51,9.72-2.5,12.72-6.23,20.36-11.34,23.14-1.16.63-2.4,1.01-3.69,1.15-.58.06-1.16.09-1.74.09-.96,0-1.93-.08-2.91-.24-11.05-1.79-23.14-13.87-36.59-36.59-3.57-6.02-7.23-12.8-10.99-20.33-.41-.82-.82-1.62-1.22-2.45-14.5-29.47-25.21-59.75-25.32-60.05-.81-2.3.4-4.81,2.69-5.62.4-.14.81-.2,1.21-.22.09,0,.17,0,.26,0,1.81,0,3.51,1.11,4.14,2.92.01.03.14.4.37,1.03.12.35.28.78.47,1.3,2.77,7.58,12.12,32.49,24.1,56.82,3.62,7.36,9.64,18.92,16.53,29.52,7.87,12.09,16.89,22.91,24.81,24.81.83.2,1.64.31,2.44.31.28,0,.56-.01.83-.04,1.12-.11,4.6-3.43,7.3-17.22.92-4.71,1.65-10.09,2.18-16,.41-4.6.7-9.52.88-14.69.72-21.35-.6-46.97-3.98-72.01-6.31-46.67-19.8-91.31-40.66-102.44-3.15-1.68-6.41-2.53-9.8-2.53-8.06,0-16.83,4.8-26.53,14.47-16.65,16.61-35.6,43.19-46.17,83.69-1.63,6.27-3.05,12.87-4.25,19.82-2.34,13.6-3.77,28.52-3.98,44.9-.02,1.62-.03,3.22-.02,4.81,0,3.11.06,6.18.15,9.19.76,25.34,4.21,46.61,6.71,59.1Z"/>
    <path class="cls-1" d="m1099.39,1164.09l-3.43-.11-.27,8.58c1.39-2.73,2.62-5.57,3.71-8.48Z"/>
    <path class="cls-1" d="m1172.56,1049.59c2.89.7,7.7,1.75,13.17,2.4,2.97.35,6.14.58,9.3.58,11.38,0,18.53-2.87,21.24-8.53,3.61-7.53,2.72-14.13-1.65-20.95-1.78-2.78-4.14-5.6-7.02-8.54-5.51-5.65-12.92-11.72-21.75-18.79-.95-.76-1.91-1.53-2.87-2.3-1.7-1.37-3.43-2.76-5.16-4.17-13.45-10.98-27.55-23.47-38.3-39.31-14.86-21.91-21.55-56-29.29-95.47-1.85-9.42-3.75-19.11-5.83-28.88-.38-1.81-.77-3.63-1.17-5.44-.49-2.25-1-4.5-1.51-6.76-7.51-32.81-17.57-65.78-34.9-92.39-23.64-36.31-52.06-55.51-82.17-55.51-7.32,0-14.72,1.09-22.18,3.25-1.4.4-2.81.84-4.21,1.32-1.38.47-2.77.98-4.15,1.52-15.05,5.93-30.31,16.16-45.64,30.63-5.8,5.48-11.25,12.96-16.36,21.99,31.32,19.07,62.98,44.82,76.42,56.12,2.27,1.91,8.46,2.77,13.42,3.45,9.44,1.31,20.14,2.79,24.37,12.31,3.5,7.88.7,17.8-9.08,32.17l-.69,1.01c-1.17,1.73-2.29,3.37-3.38,4.94l-3.68,6.36c-.52.9-9.36,16.07-20.83,30.1-.12.56-.23,1.12-.35,1.71-2.29,11.75,5.38,18.79,18.06,29.32,9.21,7.63,18.73,15.53,22.96,27.24,6.18,17.11,3.99,35.14-6.02,49.38-9.37,13.35-24.22,21.37-39.73,21.37h0c-12.63,0-24.8-5.26-35.2-15.1-20.58-19.5-19.15-55.25-14.26-81.84-2.3.2-4.64.24-7.01.24-10.38,0-21.04-2-31.7-5.87-1.46-.53-2.9-1.14-4.34-1.78-2.01-.9-4-1.92-5.96-3.03-2.08-1.18-4.12-2.46-6.12-3.84-4.45-3.04-8.71-6.55-12.77-10.34-5.8,31.64-10.11,61.74-13.07,85.01-.24,1.88-.47,3.72-.7,5.51-.23,1.89-.46,3.72-.67,5.49-2.48,20.51-3.68,33.57-3.73,34.13l-.14,1.6-.98,1.27c-.06.08-1.93,2.52-4.95,6.7-1.14,1.58-2.44,3.4-3.89,5.45-4.96,7.06-11.48,16.69-18.14,27.57-1.93,3.16-3.88,6.42-5.8,9.76-1.66,2.88-3.31,5.81-4.91,8.78-17.25,31.92-23.72,56.18-18.93,69.94l-.06-1.21c-.17-3.2.86-6.2,2.88-8.45,2.03-2.25,4.91-3.57,8.11-3.74l28.43-1.02c.24-.01.48-.02.71-.02,6.42,0,11.13,4.53,11.46,11.01l.53,10.38c5.55-1.47,9.24-2.72,9.33-2.75l5.09-1.74,1.86,5.05c5.51,14.99,18.87,44.57,35.67,66.52l-3.34-79.72c-.28-6.72,4.4-11.79,11.11-12.07l28.42-.84c.19,0,.38-.01.57-.01,6.41,0,11.25,4.68,11.52,11.11l4.42,105.38c1.28-.62,2.56-1.3,3.82-2.07l-.23-103.65c-.01-3.21,1.15-6.16,3.29-8.31,2.13-2.15,5.08-3.33,8.28-3.34l27.52-.06c5.37,0,9.76,3.12,11.5,8.18l5.27,14.6-.03-11.38c-.01-6.72,4.85-11.84,11.58-11.85l28.45-.43h.04c6.59,0,11.58,5.37,11.59,11.96l.14,62.69c1.46.5,2.93,1.01,4.39,1.44.21.06.42.11.63.17l1.25-39.05c.7-21.92,13.96-34.95,35.45-34.96l27.56.47c.16-2.75.25-5.23.29-7.37.09-4.97-.05-8.05-.05-8.2l-.5-9.66,8.56,4.51c.05.03,1.39.72,3.58,1.77,2.61,1.24,6.44,2.97,10.87,4.7,7.98,3.11,17.83,6.17,25.74,6.17,3.91,0,6.78-.75,8.53-2.24,7.21-6.14,5.93-24.57,2.42-40.62-.96-4.39-2.09-8.59-3.25-12.32-.27-.87-.54-1.72-.81-2.53l-3.39-10.04,10.16,3.01s1.09.32,2.86.75Zm-165.59-298.14c-15.41-15.96-20.36.55-21.46,3.85-1.1,3.3-4.95,9.36-8.25,2.75,0,0,2.2-59.98,37.42-22.01,35.22,37.97,7.7,31.37-7.7,15.41Z"/>
    <path class="cls-1" d="m925.81,900.64c-.92,4.49-1.76,9.3-2.4,14.27-2.63,20.22-2.59,48.84,12.56,63.19,8.31,7.87,17.87,13.55,27.63,13.55h0c11.92,0,23.41-7.73,30.72-18.15,7.91-11.27,9.61-26.34,4.67-40.03-3.21-8.89-11.56-16.2-19.64-22.89-9.03-7.49-18.97-15.95-21.71-27.62-1.45,1.38-2.92,2.58-4.39,3.78-8.3,6.77-17.48,11.34-27.44,13.9Z"/>
    <path class="cls-4" d="m841.24,711.03c-4.07-1.1-6.81-1.66-7.53-1.8-.13-.03-.2-.04-.2-.04v.22s.7,8.66.7,8.66l7.8,99.52.61,7.81v.11c.18.1.36.19.54.29.75.41,1.51.83,2.27,1.23,1.44.78,2.89,1.55,4.36,2.32l.79.14.66.12-.17-2.22-.22-2.79-1.16-15.06-6.43-83.17s12.5,8.78,25.97,21.11c1.43,1.31,2.87,2.65,4.3,4.03,1.41,1.36,2.82,2.75,4.21,4.16,2.69,2.73,5.32,5.55,7.79,8.43,13,15.14,16.87,31.5,25.56,47.33,15.14,27.57,31.28,35.69,44.52,35.95.23,0,.45.01.68.01,4.75,0,9.12-1,12.92-2.46.46-.18.91-.37,1.35-.57,3.28-1.49,5.96-3.57,8.53-6.33.27-.21.54-.42.8-.62l-.08-.15c3.15-3.55,6.23-8.14,10.16-13.93,26.88-39.53-13.82-25.08-27.1-36.25-21.79-18.33-49.63-39.62-74.89-55.06-1.57-.96-3.13-1.9-4.67-2.8-1.59-.94-3.17-1.86-4.73-2.74-1.87-1.05-3.71-2.07-5.53-3.04-12.17-6.49-24.27-10.38-31.81-12.42Z"/>
    <path class="cls-4" d="m966.96,857.03c-1.92,1.02-3.69,1.78-5.16,2.15-.5.13-1.04.24-1.56.35-1.49.33-3.06.61-4.72.85-3.65.53-7.7.87-12.14.99-1.33.04-2.68.06-4.08.06-2.09,0-4.24-.04-6.46-.13-15.36-.59-33.14-3.17-47-6.92-7.3-1.97-15.79-5.38-24.53-9.44-2.15-1-4.32-2.04-6.48-3.11-.42-.2-.83-.41-1.25-.62-1.69-.84-3.39-1.71-5.08-2.58-.09-.04-.17-.09-.26-.13-.07-.03-.14-.07-.2-.11-.41-.21-.82-.42-1.22-.64-1.15-.6-2.29-1.2-3.43-1.81-.28-.15-.57-.3-.85-.45-1.89-1.02-3.77-2.04-5.61-3.05-.91-.5-1.82-1.01-2.72-1.51-7.65-4.28-14.68-8.45-20.3-11.89,4.99,9.29,12.51,22.01,21.89,34.21,1.01,1.32,2.05,2.64,3.11,3.94.35.43.7.86,1.06,1.29,1.16,1.41,2.34,2.8,3.56,4.17.16.18.31.35.47.52,1.37,1.53,2.76,3.04,4.19,4.5,2.77,2.85,5.65,5.55,8.62,8.05,2.12,1.78,4.29,3.46,6.5,5.01,2.04,1.43,4.12,2.75,6.23,3.94,2.9,1.63,5.86,3.03,8.88,4.13,9.69,3.52,19.34,5.31,28.69,5.31,3.02,0,5.98-.2,8.87-.58,2.03-.26,4.02-.62,5.98-1.07,2.07-.47,4.1-1.05,6.09-1.72,7.04-2.39,13.61-6.04,19.64-10.96,3.31-2.7,6.64-6.02,9.85-9.62,2.91-3.26,5.73-6.74,8.35-10.19,1.02-1.35,2.02-2.69,2.98-4.02-.65.38-1.29.73-1.91,1.06Z"/>
    <path class="cls-1" d="m936.25,851.99s-20.01-8.82-31.37-31.2c-6.41-12.63-9.63-16.79-14.86-17.33-5.23-.55-7.98,4.68-7.98,4.68,0,0-1.39-7.66-9.08-5.22-11.7,3.73-12.38,31.08-12.38,31.08,3.51,2.19,7.15,4.11,10.85,5.81l-.16-.04c.55.24,1.1.47,1.65.7,3.83,1.68,7.73,3.12,11.6,4.35.03.01.07.02.1.03,12.42,3.94,24.62,5.76,34.05,6.57.89.1,1.78.19,2.67.27l-.39-.09c9.26.68,15.31.39,15.31.39Z"/>
    <path class="cls-4" d="m570.08,1056.19h-.02c-1.88,0-3.62.23-4.58,1.85-.96,1.62-1,3.15-.09,4.81,0,0,.46.65.93,1.46l.88,1.37c.95,1.65,2.7,2.46,4.6,2.47l16.13-.3h.02c2.88,0,5.23-1.93,5.33-4.81l.1-2.72c.05-1.44-.49-2.79-1.49-3.82-1-1.03-2.38-.98-3.82-.98l-17.98.68Z"/>
    <path class="cls-4" d="m536.9,923.9l71.15,23.1c.55.18,1.1.26,1.65.26,2.21,0,4.26-1.38,5.03-3.57l2.04-5.83c.48-1.36.38-2.84-.25-4.13-.64-1.28-1.77-2.26-3.13-2.7l-73.31-23.8c-1.64-.53-3.44-.24-4.82.79-1.38,1.03-2.19,2.66-2.16,4.38l.12,6.6c.07,2.25,1.54,4.21,3.68,4.91Z"/>
    <path class="cls-4" d="m675.82,829.15c.85-1.14,1.22-2.58,1-3.99-.21-1.41-.98-2.68-2.13-3.52l-94.27-68.6c-1.31-.95-2.99-1.26-4.55-.83-1.56.43-2.85,1.55-3.49,3.04l-1.24,2.89c-.65,1.5-1.27,3.02-1.27,3.02-.93,2.27-.19,4.89,1.8,6.33l93.06,67.71c.94.69,2.04,1.02,3.13,1.02,1.62,0,3.23-.74,4.27-2.14l3.7-4.95Z"/>
    <path class="cls-4" d="m752.08,746.12c1.04,1.43,2.67,2.19,4.32,2.19,1.08,0,2.16-.32,3.1-1l5.02-3.6c1.15-.83,1.93-2.08,2.16-3.48.23-1.4-.12-2.84-.95-3.99l-83.78-115.08c-.91-1.25-2.33-2.05-3.88-2.18-1.54-.12-3.07.43-4.18,1.51l-4.45,4.38c-1.88,1.85-2.12,4.8-.57,6.94l83.21,114.3Z"/>
    <path class="cls-4" d="m862.03,687.96c.73,2.25,2.82,3.69,5.07,3.69.54,0,1.09-.08,1.63-.26l5.88-1.89c1.35-.43,2.47-1.39,3.11-2.65.65-1.26.76-2.73.33-4.07l-48.44-149.15c-.46-1.4-1.47-2.55-2.81-3.18-1.34-.63-2.87-.67-4.24-.13l-5.75,2.29c-2.61,1.04-3.96,3.93-3.1,6.6l48.31,148.75Z"/>
    <path class="cls-4" d="m1141.6,604.35c.05.54.1,1.07.15,1.61.18,2.31.33,4.6.42,6.79l2.54.65c.5.13,1,.27,1.45.43.41.14.86.35,1.29.52l24.33-74.93c.86-2.65-.47-5.52-3.05-6.58l-5.81-2.34c-1.37-.54-2.9-.5-4.23.13-1.33.63-2.34,1.78-2.8,3.18l-16.75,51.6c1.03,6.01,1.84,12.09,2.38,18.07l.09.88Z"/>
    <path class="cls-4" d="m1221.09,743.67l5.02,3.6c.94.67,2.02,1,3.1,1,1.65,0,3.27-.76,4.32-2.2l82.95-114.01c1.55-2.14,1.31-5.09-.58-6.94l-4.45-4.38c-1.11-1.09-2.63-1.63-4.18-1.51-1.55.13-2.96.92-3.87,2.18l-83.52,114.79c-.84,1.15-1.18,2.58-.95,3.99.22,1.4,1,2.65,2.16,3.48Z"/>
    <path class="cls-4" d="m1308.81,825.09c-.21,1.41.15,2.85,1,3.99l3.7,4.94c1.05,1.4,2.65,2.14,4.27,2.14,1.09,0,2.19-.33,3.13-1.02l92.7-67.47c1.99-1.45,2.73-4.07,1.79-6.34l-2.49-5.91c-.64-1.49-1.92-2.61-3.49-3.04-1.56-.43-3.24-.13-4.55.83l-93.93,68.37c-1.15.84-1.92,2.11-2.14,3.52Z"/>
    <path class="cls-4" d="m1369.13,933.65c-.64,1.29-.73,2.77-.26,4.13l2.04,5.83c.77,2.2,2.83,3.57,5.03,3.57.55,0,1.1-.08,1.65-.26l70.85-23.01c2.13-.69,3.6-2.64,3.68-4.88,0,0,.07-1.72.07-3.4l.05-3.25c.02-1.72-.78-3.35-2.17-4.37-1.38-1.02-3.17-1.31-4.81-.78l-73,23.71c-1.36.44-2.49,1.42-3.13,2.7Z"/>
    <path class="cls-4" d="m1418.46,1065.77l.86-1.48c.47-.81.92-1.56.92-1.56.92-1.65.89-3.03-.07-4.66-.96-1.62-2.7-1.88-4.59-1.88h-.02l-17.97-.71c-1.44,0-2.82.09-3.82,1.13-1,1.04-1.54,2.22-1.49,3.66l.1,2.81c.09,2.87,2.45,4.76,5.33,4.76h.02l16.13.28c1.9,0,3.66-.69,4.61-2.35Z"/>
    <path class="cls-3" d="m336.25,1301.48c-.35-1.57-1.36-2.43-2.78-2.43-.28,0-.57.03-.88.1l-18.73,4.17c-2.06.46-2.75,1.79-2.33,3.67l3.34,14.98c1.12,5.06-.95,8.08-5.83,9.17l-9.74,2.17c-.89.2-1.73.3-2.5.3-3.46,0-5.74-1.99-6.65-6.12l-19.02-85.42c-1.08-4.87.77-8.04,5.82-9.16l9.75-2.17c.85-.19,1.65-.28,2.4-.28,3.53,0,5.87,2.09,6.76,6.11l3.34,14.99c.35,1.55,1.22,2.44,2.68,2.44.3,0,.63-.04.98-.12l18.73-4.17c1.87-.42,2.75-1.79,2.33-3.67l-4.5-20.23c-3.23-14.52-11.71-21.99-24.35-21.99-2.69,0-5.57.34-8.63,1.02l-20.98,4.67c-17.6,3.92-25.07,15.41-21.16,33.02l21.36,95.91c3.23,14.5,11.69,21.96,24.4,21.96,2.73,0,5.65-.35,8.76-1.04l20.98-4.68c17.42-3.87,24.89-15.37,20.97-32.98l-4.51-20.23Z"/>
    <path class="cls-3" d="m398.97,1335.27l-11.27-59.98,24.14-4.53,11.26,59.98c.3,1.62,1.34,2.53,2.82,2.53.24,0,.5-.03.77-.08l19.43-3.65c2.26-.42,2.99-1.73,2.64-3.62l-27.21-144.86c-.3-1.59-1.16-2.51-2.78-2.51-.3,0-.64.03-.99.1l-19.43,3.65c-1.89.35-2.81,1.7-2.45,3.58l11.27,59.98-24.14,4.53-11.27-59.98c-.31-1.62-1.34-2.53-2.82-2.53-.25,0-.5.02-.77.08l-19.43,3.65c-2.27.43-2.99,1.74-2.64,3.62l27.2,144.86c.3,1.59,1.17,2.52,2.79,2.52.3,0,.63-.03.99-.1l19.43-3.65c1.89-.35,2.8-1.7,2.45-3.58Z"/>
    <path class="cls-3" d="m472.49,1296.96c2.39,15.55,11.01,23.65,25.01,23.65,2.05,0,4.22-.18,6.5-.52l21.24-3.27c17.83-2.73,25.86-13.67,23.13-31.51l-18.51-120.64c-.29-1.89-1.94-3.26-3.8-3.26-.19,0-.39.01-.58.04l-17.45,2.68c-2.09.32-3.53,2.29-3.21,4.38l17.7,115.33c.79,5.12-1.49,7.99-6.42,8.75l-9.87,1.52c-.66.1-1.28.15-1.87.15-3.83,0-6.2-2.14-6.88-6.58l-17.7-115.33c-.29-1.89-1.94-3.26-3.8-3.26-.19,0-.38.02-.58.05l-18.21,2.79c-2.09.32-3.53,2.29-3.21,4.38l18.51,120.64Z"/>
    <path class="cls-3" d="m650.62,1251.73c-.21-1.72-1.27-2.71-2.89-2.71-.17,0-.34,0-.52.03l-19.05,2.28c-2.09.25-2.91,1.51-2.68,3.42l1.82,15.24c.62,5.15-1.75,7.94-6.71,8.53l-9.91,1.19c-.53.06-1.04.1-1.53.1-4.04,0-6.46-2.21-7.01-6.81l-10.39-86.89c-.59-4.95,1.57-7.92,6.71-8.53l9.91-1.18c.5-.06.98-.09,1.44-.09,4.09,0,6.56,2.35,7.09,6.8l1.82,15.25c.21,1.71,1.11,2.72,2.82,2.72.19,0,.39-.01.59-.04l19.05-2.28c1.9-.23,2.91-1.51,2.68-3.41l-2.46-20.58c-1.93-16.09-10.89-24.48-25.54-24.48-1.65,0-3.38.11-5.18.32l-21.34,2.55c-17.91,2.14-26.49,12.83-24.35,30.74l11.66,97.56c1.92,16.07,10.87,24.46,25.63,24.46,1.68,0,3.45-.11,5.28-.33l21.34-2.55c17.72-2.12,26.3-12.81,24.16-30.72l-2.46-20.58Z"/>
    <path class="cls-3" d="m768.32,1285.26l-41.18-74.31,26.83-69.5c1.05-2.62-.05-4.39-2.56-4.39-.16,0-.33,0-.5.02l-20.08,1.71c-2.1.18-3.36,1.24-4.16,3.24l-24.33,62.74-5.04-59.28c-.2-2.3-1.45-3.52-3.61-3.52-.17,0-.35.01-.53.02l-18.36,1.56c-2.49.21-3.71,1.66-3.5,4.15l12.35,145.33c.2,2.3,1.46,3.53,3.62,3.53.17,0,.35,0,.54-.03l18.36-1.56c2.49-.21,3.71-1.66,3.5-4.15l-3.59-42.26,5.92-14.18,28.92,54.75c.84,1.67,2.09,2.52,4.02,2.52.2,0,.41,0,.63-.03l20.27-1.72c3.06-.26,4.04-2.27,2.5-4.64Z"/>
    <path class="cls-3" d="m865.64,1258.98c-.09,0-.18,0-.28,0l-45.61,2.34-6.41-124.96c-.09-1.83-1.02-2.92-2.94-2.92-.09,0-.18,0-.28,0l-19.93,1.02c-1.92.1-3.01,1.31-2.91,3.23l7.55,147.19c.1,2,1.19,2.91,2.94,2.91.09,0,.18,0,.28,0l68.61-3.51c2.11-.11,3.01-1.12,2.91-3.22l-.98-19.17c-.09-1.83-1.02-2.92-2.94-2.92Z"/>
    <path class="cls-3" d="m911.1,1129.28c-.07,0-.13,0-.2,0l-19.94.83c-2.11.09-3.02,1.28-2.94,3.2l6.17,147.25c.08,1.84,1.01,2.94,2.97,2.94.08,0,.15,0,.23,0l19.94-.83c1.91-.08,3.01-1.28,2.93-3.2l-6.17-147.25c-.08-1.85-1.2-2.94-3-2.94Z"/>
    <path class="cls-3" d="m974.07,1278.81l-.18-80.99h.96l29.54,81.38c.58,1.72,1.73,1.98,3.45,1.98h0l19,.2c1.47,0,2.48-.55,2.87-1.66.12-.34.2-.73.2-1.18l-.33-147.4c0-1.91-1.15-3.24-3.06-3.24h-.02l-19.96.19c-2.11,0-3.07,1.38-3.07,3.3l.1,45.32-.65,26.36-.69,9.19h0s-.44.06-.44.06l-16.96-48.29.2.02-11.98-33.43c-.58-1.72-1.64-2.72-3.36-2.72h0l-19,.18c-1.92,0-3.07,1.36-3.06,3.28l.2,89.13.13,57.94c0,1.92,1.15,2.75,3.06,2.75h.02l19.96.3c2.11,0,3.07-.76,3.06-2.67Z"/>
    <path class="cls-3" d="m1061.56,1156.41l-1.33,41.51-1.82,56.68c-.57,18.01,8.71,27.9,26.73,28.47l25.32.82c.52.02,1.03.03,1.54.03,16.88,0,26.41-9.25,26.97-26.76l1.71-53.32c.07-2.11-1.05-2.68-2.97-2.74l-32.22-.6h-.21c-1.97,0-2.89.5-2.96,2.54l-.62,18.96c-.06,1.92.86,2.99,2.97,3.06l9.97.27-.82,25.67c-.16,5.02-2.77,7.42-7.46,7.42-.15,0-.3,0-.46-.01l-13.33-.45c-4.99-.16-6.95-2.74-6.95-7.92h0s2.33-87.47,2.33-87.47c.15-4.84,2.35-7.44,7.21-7.44.15,0,.19-.01.35,0l13.04.41c4.99.16,6.65,2.87,6.65,7.86v.12l.26,14.39c-.04,1.88,1.23,3.19,3.32,3.25l19.53.52h.15c1.83,0,2.96-1,3.01-2.87l.64-19.9c.03-1.05.02-2.17,0-3.16-.64-15.93-10.01-24.71-26.72-25.24l-25.87-.83c-.53-.01-2.11-.05-2.11-.05v.07h1.09c-17.03,0-26.38,9.22-26.94,26.72Z"/>
    <path class="cls-3" d="m1359.16,1147.72l-18.16-1.67c-.17-.02-.34-.02-.51-.02-2.02,0-3.46,1.18-3.83,3.28l-16.07,88.72-.96-.09-10.48-91.36c-.36-2.35-1.59-3.62-3.89-3.83l-11.47-1.06c-.2-.02-.39-.03-.57-.03-1.96,0-3.23,1.03-3.95,3.08l-27.17,87.89-.95-.09.78-90.13c.02-2.31-1.39-3.79-3.68-4l-18.15-1.67c-.18-.02-.35-.03-.51-.03-2.17,0-3.45,1.38-3.49,3.7l2.3,146.69c-.04,2.5,1.19,3.78,3.68,4l19.11,1.76c.2.02.39.03.57.03,1.97,0,3.23-1.02,3.93-2.89l28.04-84.73,11.92,88.21c.37,2.35,1.59,3.62,3.89,3.83l18.73,1.72c.23.02.44.03.65.03,2.08,0,3.31-1.05,3.69-3.3l29.81-143.73c.42-2.47-.78-4.12-3.26-4.35Z"/>
    <path class="cls-3" d="m1394.46,1152.34c-.22-.03-.42-.04-.62-.04-1.69,0-2.6,1-2.81,2.71l-18.2,146.27c-.24,1.9.57,3.17,2.67,3.43l19.81,2.46c.19.02.37.03.54.03,1.61,0,2.67-.98,2.89-2.7l18.2-146.27c.24-1.9-.76-3.19-2.66-3.43l-19.81-2.46Z"/>
    <path class="cls-3" d="m1451.47,1159.59c-1.55,0-2.61.95-2.86,2.62l-22.04,145.75c-.29,1.9.68,3.21,2.58,3.5l19.74,2.98c.26.04.5.06.73.06,1.62,0,2.52-.97,2.76-2.64l12.17-80.46.95.15,16.78,85.42c.32,1.79,1.34,2.73,3.04,2.99l18.79,2.84c.22.03.44.05.64.05,1.55,0,2.6-.95,2.86-2.63l22.04-145.74c.29-1.9-.68-3.21-2.58-3.5l-19.74-2.98c-.25-.04-.5-.06-.72-.06-1.63,0-2.52.97-2.77,2.64l-12.11,80.09-1.14-.17-16.65-85.02c-.31-1.79-1.33-2.72-3.04-2.98l-18.79-2.84c-.22-.03-.43-.05-.64-.05Z"/>
    <path class="cls-3" d="m1614.72,1186.7l-24.9-4.66c-2.69-.5-5.24-.75-7.63-.75-13.33,0-21.81,7.8-24.62,22.84l-18.07,96.58c-3.32,17.73,4.35,28.93,22.08,32.25l24.9,4.66c2.65.5,5.16.74,7.53.74,13.27,0,21.91-7.77,24.72-22.82l9.82-52.44c.39-2.07-.57-3.23-2.46-3.58l-31.69-5.93c-.35-.06-.66-.1-.96-.1-1.47,0-2.3.82-2.63,2.55l-3.53,18.86c-.35,1.89.38,3.19,2.45,3.58l9.81,1.84-4.73,25.28c-.8,4.29-3.12,6.35-6.76,6.35-.68,0-1.42-.07-2.19-.22l-13.58-2.54c-4.91-.92-7.09-3.87-6.13-8.96l16.1-86.02c.77-4.15,3.01-6.35,6.76-6.35.68,0,1.42.07,2.2.22l13.58,2.54c4.9.92,7.05,4.05,6.13,8.95l-2.68,14.34c-.35,1.89.38,3.2,2.45,3.58l18.86,3.53c.26.05.52.08.76.08,1.48,0,2.52-.91,2.82-2.53l3.67-19.62c3.31-17.73-4.54-28.96-22.08-32.25Z"/>
    <path class="cls-3" d="m1722,1209.07l-20.99-4.67c-3.06-.68-5.93-1.02-8.62-1.02-12.64,0-21.13,7.47-24.36,21.99l-9.85,44.21c-.79,3.56.4,6.19,3.52,8.06l41.15,24.5-5.55,24.92c-.92,4.13-3.2,6.12-6.65,6.12-.78,0-1.61-.1-2.51-.3l-8.99-2c-4.69-1.04-6.95-4.1-5.83-9.16l3.21-14.42c.46-2.06-.27-3.21-2.33-3.67l-19.48-4.34c-.34-.08-.67-.12-.98-.12-1.36,0-2.31.77-2.69,2.44l-4.38,19.67c-3.92,17.61,3.55,29.1,20.97,32.98l20.98,4.67c3.11.69,6.02,1.03,8.73,1.03,12.69,0,21.02-7.5,24.26-22l9.63-43.28c.79-3.56-.43-5.99-3.33-8.01l-41.33-24.54,5.76-25.85c.9-4.03,3.38-6.09,6.86-6.09.72,0,1.49.09,2.3.27l8.99,2c5.06,1.13,6.91,4.29,5.83,9.16l-3.26,14.61c-.42,1.87.46,3.25,2.33,3.67l19.48,4.34c.35.08.68.12.99.12,1.46,0,2.33-.89,2.68-2.45l4.42-19.86c3.92-17.61-3.36-29.06-20.97-32.98Z"/>
  </g>
</svg>